<svg id="Layer_1" data-name="Layer 1" xmlns="http://www.w3.org/2000/svg" viewBox="0 0 68 70"><defs><style>.cls-1{fill:#c2e2f6;}.cls-2{fill:#2f8ecd;}</style></defs><title>See our services</title><path class="cls-1" d="M53.26,10.78A3.2,3.2,0,1,1,50,14,3.23,3.23,0,0,1,53.26,10.78Z"/><path class="cls-1" d="M34.4,21.09a2.58,2.58,0,1,1-2.6,2.58A2.57,2.57,0,0,1,34.4,21.09Z"/><path class="cls-1" d="M26.59,14V43H22.73V14a2,2,0,0,1,2-2,1.7,1.7,0,0,1,1.36.61A2,2,0,0,1,26.59,14Z"/><path class="cls-1" d="M29.19,46.17v2.06H20V46.17a3.12,3.12,0,0,1,3.13-3.1H26A3.08,3.08,0,0,1,29.19,46.17Z"/><path class="cls-1" d="M58.37,33.48a2.46,2.46,0,0,1,.73,1.85,2.57,2.57,0,0,1-2.61,2.58H33.15a3,3,0,0,1-1.87-.72,2.49,2.49,0,0,1-.73-1.86,2.57,2.57,0,0,1,2.6-2.58H56.6A2.15,2.15,0,0,1,58.37,33.48Z"/><polygon class="cls-1" points="39.61 53.39 40.97 53.39 40.97 48.23 35.03 48.23 33.15 37.91 56.6 37.91 54.2 51.22 52.64 59.78 39.61 59.78 39.61 53.39"/><polygon class="cls-1" points="39.61 53.39 39.61 59.78 37.01 59.78 9.71 59.78 9.71 53.39 36.07 53.39 39.61 53.39"/><polygon class="cls-1" points="40.97 48.23 40.97 53.39 39.61 53.39 36.07 53.39 9.71 53.39 8.36 53.39 8.36 48.23 20.13 48.23 29.19 48.23 35.03 48.23 40.97 48.23"/><path class="cls-2" d="M29.19,49.47a1.38,1.38,0,0,1-1.35-1.34V46.06A1.85,1.85,0,0,0,26,44.21a1.35,1.35,0,1,1,0-2.69A4.42,4.42,0,0,1,30.44,46V48A1.26,1.26,0,0,1,29.19,49.47Z"/><path class="cls-2" d="M20.13,49.47a1.38,1.38,0,0,1-1.36-1.34V46.06a4.43,4.43,0,0,1,4.49-4.43,1.34,1.34,0,1,1,0,2.68,1.85,1.85,0,0,0-1.88,1.86v2.06A1.26,1.26,0,0,1,20.13,49.47Z"/><path class="cls-2" d="M26.59,44.31h-4A1.37,1.37,0,0,1,21.28,43V14a3.22,3.22,0,0,1,3.23-3.2,3.26,3.26,0,0,1,2.29.93A3.2,3.2,0,0,1,27.74,14V43A1.1,1.1,0,0,1,26.59,44.31ZM24,41.73h1.36V14c0-.21-.11-.42-.21-.42a.78.78,0,0,0-.42-.2.67.67,0,0,0-.62.62V41.73Z"/><path class="cls-2" d="M52.64,61.13h-13a1.35,1.35,0,1,1,0-2.69h12L55.35,37.6a1.27,1.27,0,0,1,2.5.41l-4,22A1.34,1.34,0,0,1,52.64,61.13Z"/><path class="cls-2" d="M35,49.47a1.23,1.23,0,0,1-1.25-1l-2-10.32a1.33,1.33,0,0,1,2.6-.52l2,10.32a1.37,1.37,0,0,1-1,1.55Z"/><path class="cls-2" d="M41,54.63H39.61a1.35,1.35,0,1,1,0-2.69V49.47H9.71v2.58a1.34,1.34,0,1,1,0,2.68H8.35A1.38,1.38,0,0,1,7,53.39V48.23a1.38,1.38,0,0,1,1.35-1.34H41a1.37,1.37,0,0,1,1.35,1.34v5.16A1.43,1.43,0,0,1,41,54.63Z"/><path class="cls-2" d="M39.61,61.13H9.71a1.38,1.38,0,0,1-1.36-1.35v-6.5a1.38,1.38,0,0,1,1.36-1.34h30a1.37,1.37,0,0,1,1.35,1.34v6.5A1.55,1.55,0,0,1,39.61,61.13ZM11,58.55h27.4V54.63H11Z"/><path class="cls-2" d="M56.6,39.15H33.15A4.2,4.2,0,0,1,30.34,38a3.92,3.92,0,0,1,2.81-6.7H56.6a4.24,4.24,0,0,1,2.81,1.13,4,4,0,0,1,1.15,2.79A4.08,4.08,0,0,1,56.6,39.15ZM33.15,34a1.37,1.37,0,0,0-1.35,1.34,1.23,1.23,0,0,0,.42.93,1.5,1.5,0,0,0,.93.41H56.6A1.37,1.37,0,0,0,58,35.33a1.26,1.26,0,0,0-.41-.93A1.29,1.29,0,0,0,56.6,34Z"/><path class="cls-2" d="M58,54.32a5.73,5.73,0,0,1-3.85-1.45l-.73-.72L42.74,42.66a1.3,1.3,0,0,1-.1-1.86,1.32,1.32,0,0,1,1.87-.1L55.87,50.91a3.3,3.3,0,0,0,5.42-2.37A2.72,2.72,0,0,0,61,47.3l-1.66-3.82A1.17,1.17,0,0,1,60,41.83a1.19,1.19,0,0,1,1.66.72l1.67,3.82a5.63,5.63,0,0,1,.52,2.27A5.78,5.78,0,0,1,59,54.32Z"/><path class="cls-2" d="M34.4,27.59a3.92,3.92,0,1,1,4-3.92A3.94,3.94,0,0,1,34.4,27.59Zm0-5.15a1.34,1.34,0,1,0,1.36,1.34A1.37,1.37,0,0,0,34.4,22.44Z"/><path class="cls-2" d="M12.94,39.15A3.2,3.2,0,1,1,16.17,36,3.23,3.23,0,0,1,12.94,39.15Zm0-3.82a.62.62,0,1,0,0,1.24.62.62,0,0,0,0-1.24Z"/><path class="cls-2" d="M53.26,18.52A4.54,4.54,0,1,1,57.85,14,4.54,4.54,0,0,1,53.26,18.52Zm0-6.4a2,2,0,0,0-2,2,2,2,0,1,0,2-2Z"/></svg>