<svg id="Layer_1" data-name="Layer 1" xmlns="http://www.w3.org/2000/svg" viewBox="0 0 68 70"><defs><style>.cls-1,.cls-5,.cls-6{fill:#fff;}.cls-1,.cls-2,.cls-3,.cls-4,.cls-5,.cls-8{stroke:#2f8ecd;stroke-miterlimit:10;}.cls-1,.cls-2{stroke-width:1.22px;}.cls-2,.cls-4,.cls-7,.cls-8{fill:#2f8ecd;}.cls-3{fill:#c2e2f6;}.cls-3,.cls-4,.cls-5{stroke-width:0.92px;}.cls-8{stroke-width:0.61px;}</style></defs><title>See our services</title><path class="cls-1" d="M36.69,21.61C36.14,35.24,27,47.08,25.76,52.78a14.26,14.26,0,0,0-.22,6.49c.55,2.12,2.2,4.58,4.53,5.28a12.05,12.05,0,0,0,3.06.39c4.69.22,15.69.11,16.85-.2A5.56,5.56,0,0,0,54.07,60a25,25,0,0,0-1-8.4C51,45.35,45.53,35,43.69,21.61,40.56,19.22,36.89,16.84,36.69,21.61Z"/><path class="cls-2" d="M39.83,65.47c-2.57,0-5.06,0-6.72-.11A13.17,13.17,0,0,1,30,65c-2.52-.76-4.24-3.35-4.81-5.58a14.58,14.58,0,0,1,.21-6.67c.42-2,1.79-4.72,3.37-7.87,3-6,7.2-14.32,7.56-23.23h0c.07-1.61.51-2.58,1.36-3,1.54-.72,3.94.86,6.3,2.67a.37.37,0,0,1,.16.27c1.35,9.78,4.68,18.05,7.12,24.09.89,2.23,1.67,4.16,2.22,5.83a25.4,25.4,0,0,1,1,8.58,6,6,0,0,1-4.39,5.08A97.74,97.74,0,0,1,39.83,65.47ZM36.69,21.61l.42,0c-.37,9.09-4.58,17.46-7.65,23.57a38.9,38.9,0,0,0-3.3,7.67,13.8,13.8,0,0,0-.22,6.29c.5,1.94,2,4.33,4.25,5a12.12,12.12,0,0,0,3,.37c4.73.22,15.67.09,16.72-.19A5.17,5.17,0,0,0,53.66,60a24.57,24.57,0,0,0-1-8.22c-.55-1.64-1.32-3.56-2.21-5.78C48,39.91,44.68,31.65,43.31,21.84c-1.31-1-4.07-3.06-5.32-2.47-.54.25-.83,1-.88,2.26Z"/><path class="cls-3" d="M50.52,45c-7.29.13-14.19-.35-21.46.06a42.54,42.54,0,0,0-3.3,7.69,14.26,14.26,0,0,0-.22,6.49c.55,2.12,2.2,4.58,4.53,5.28a12.05,12.05,0,0,0,3.06.39c4.69.22,15.69.11,16.85-.2A5.56,5.56,0,0,0,54.07,60a25,25,0,0,0-1-8.4C52.44,49.76,51.54,47.56,50.52,45Z"/><path class="cls-4" d="M39.83,65.47c-2.57,0-5.06,0-6.72-.11A13.17,13.17,0,0,1,30,65c-2.52-.76-4.24-3.35-4.81-5.58a14.58,14.58,0,0,1,.21-6.67,43.19,43.19,0,0,1,3.34-7.8.42.42,0,0,1,.34-.23c4.33-.24,8.61-.17,12.74-.1,2.84,0,5.78.1,8.74,0a.4.4,0,0,1,.39.26l.31.75c.9,2.24,1.68,4.18,2.23,5.85a25.4,25.4,0,0,1,1,8.58,6,6,0,0,1-4.39,5.08A97.74,97.74,0,0,1,39.83,65.47Zm-10.51-20a41.13,41.13,0,0,0-3.16,7.38,13.8,13.8,0,0,0-.22,6.29c.5,1.94,2,4.33,4.25,5a12.12,12.12,0,0,0,3,.37c4.73.22,15.67.09,16.72-.19A5.17,5.17,0,0,0,53.66,60a24.57,24.57,0,0,0-1-8.22c-.55-1.65-1.32-3.57-2.22-5.8l-.2-.49c-2.87,0-5.73,0-8.49-.05C37.71,45.33,33.54,45.26,29.32,45.49Z"/><path class="cls-5" d="M30.66,15.28a35,35,0,0,1-6.85,12.37,22.34,22.34,0,0,0,9-7.61,10.24,10.24,0,0,0,1.81-3.48A3.62,3.62,0,0,0,34,13.12a1.4,1.4,0,0,0-.95-.39C32,12.75,31,14.24,30.66,15.28Z"/><path class="cls-4" d="M23.81,28.07a.43.43,0,0,1-.34-.18.42.42,0,0,1,0-.51,34.43,34.43,0,0,0,6.78-12.22h0c.34-1.09,1.4-2.82,2.81-2.84a1.82,1.82,0,0,1,1.24.49,4,4,0,0,1,.74,3.85,11,11,0,0,1-1.87,3.62A22.63,22.63,0,0,1,24,28,.28.28,0,0,1,23.81,28.07Zm9.3-14.93h0c-.88,0-1.75,1.32-2.05,2.26h0a35.57,35.57,0,0,1-5.72,11,23.48,23.48,0,0,0,7.19-6.65,10.1,10.1,0,0,0,1.74-3.34,3.19,3.19,0,0,0-.5-3A1,1,0,0,0,33.11,13.14Zm-2.45,2.14Z"/><path class="cls-5" d="M30.72,7.83c-1.14.34-2.45.29-3.59.68A2.2,2.2,0,0,0,26,9.18c-.48.62-.25,2-.16,2.82a1.86,1.86,0,0,0,.35,1.05,1.56,1.56,0,0,0,.86.55,32.21,32.21,0,0,0,4.11.4A23.49,23.49,0,0,0,30.72,7.83Z"/><path class="cls-4" d="M31.16,14.42a33.38,33.38,0,0,1-4-.38L27,14a1.93,1.93,0,0,1-1.1-.67,2.09,2.09,0,0,1-.46-1.29l0-.26c-.11-.92-.26-2.17.27-2.86A2.68,2.68,0,0,1,27,8.11a10.33,10.33,0,0,1,2-.38,9.92,9.92,0,0,0,1.62-.29.41.41,0,0,1,.52.28c.43,1.53.69,6.11.37,6.53A.42.42,0,0,1,31.16,14.42Zm-.74-6.08c-.44.1-.9.15-1.34.21a9.07,9.07,0,0,0-1.81.35,1.8,1.8,0,0,0-.94.53c-.33.42-.19,1.57-.11,2.26l0,.27a1.7,1.7,0,0,0,.23.8,1.4,1.4,0,0,0,.62.44l.17,0c1.35.18,2.53.33,3.53.36A27.57,27.57,0,0,0,30.42,8.34Z"/><path class="cls-6" d="M45.15,9.48a9.37,9.37,0,0,0-4.49-1.91,29.79,29.79,0,0,0-5.82,0c-1.34.09-2.68.19-4,.32.11,1.43.21,2.86.33,4.29,0,.56.09,1.11.14,1.67,2.29.72,4.75,2.44,5.36,4.92l7.15-.1a3.45,3.45,0,0,1,1.08-3.28c1-.66,3.67-.13,4.28-1.12C50,12.9,48.17,11.78,45.15,9.48Z"/><path class="cls-4" d="M36.66,19.23a.42.42,0,0,1-.4-.32c-.6-2.42-3.11-4-5.08-4.63a.41.41,0,0,1-.29-.35l0-.31c0-.45-.08-.91-.11-1.36-.11-1.31-.2-2.61-.3-3.91l0-.39a.41.41,0,0,1,.37-.44c1.38-.13,2.74-.23,4-.32a30.58,30.58,0,0,1,5.9,0,9.84,9.84,0,0,1,4.69,2l1,.78c2.44,1.83,4.05,3,3.09,4.6-.46.73-1.57.82-2.64.9a4.3,4.3,0,0,0-1.76.34,3.05,3.05,0,0,0-.91,2.87.46.46,0,0,1-.09.34.41.41,0,0,1-.31.14l-7.15.11Zm-5-5.65c2.13.74,4.52,2.35,5.29,4.81l6.37-.09a3.65,3.65,0,0,1,1.31-3.21,4.54,4.54,0,0,1,2.16-.48c.83-.07,1.77-.14,2-.52.55-.88-.49-1.71-2.88-3.49l-1-.79A9,9,0,0,0,40.61,8a30.57,30.57,0,0,0-5.74,0c-1.15.08-2.37.17-3.6.29l.3,3.88.12,1.36Z"/><path class="cls-6" d="M43.42,24.41q-3.14.22-6.27.24a2.73,2.73,0,0,1-1.27-.21,2,2,0,0,1-.34-.26,2.5,2.5,0,0,1-.67-1.26,6.19,6.19,0,0,1-.11-1.21,5.29,5.29,0,0,1,.35-2.5,1,1,0,0,1,.41-.46,1.39,1.39,0,0,1,.54-.08l3.45-.08h3.06a2.52,2.52,0,0,1,2,.56,1.94,1.94,0,0,1,.32,1.22c0,.73,0,1.46,0,2.19a2.86,2.86,0,0,1-.15,1.23A1.17,1.17,0,0,1,43.42,24.41Z"/><path class="cls-7" d="M37.1,25.06a2.93,2.93,0,0,1-1.41-.26,1.78,1.78,0,0,1-.43-.32A2.85,2.85,0,0,1,34.47,23a6.39,6.39,0,0,1-.12-1.29A5.53,5.53,0,0,1,34.74,19a1.31,1.31,0,0,1,.6-.65,1.81,1.81,0,0,1,.72-.13c1.21,0,2.46,0,3.44-.07h3.09a2.81,2.81,0,0,1,2.25.7,2.27,2.27,0,0,1,.41,1.48l0,2.19a3.19,3.19,0,0,1-.18,1.4,1.56,1.56,0,0,1-1.71.88c-2.07.16-4.18.24-6.26.24ZM42.6,19H39.51c-1,0-2.22.06-3.44.08a1,1,0,0,0-.37.05.49.49,0,0,0-.22.26,5,5,0,0,0-.3,2.31,6.9,6.9,0,0,0,.09,1.13,2.16,2.16,0,0,0,.56,1.06,1.19,1.19,0,0,0,.25.18,2.33,2.33,0,0,0,1.07.16c2.07,0,4.17-.08,6.23-.23a.11.11,0,0,1,.08,0q.69.08.9-.39a2.43,2.43,0,0,0,.12-1.05l-.06-2.19a1.56,1.56,0,0,0-.22-1A2.16,2.16,0,0,0,42.6,19Z"/><path class="cls-7" d="M37.41,23.32h0a.13.13,0,0,1-.13-.14A21.5,21.5,0,0,0,37.14,20a.12.12,0,0,1,.12-.15.13.13,0,0,1,.15.12,20.74,20.74,0,0,1,.13,3.25A.13.13,0,0,1,37.41,23.32Z"/><path class="cls-7" d="M40,23.26a.14.14,0,0,1-.14-.12,16.14,16.14,0,0,1-.18-3.26.14.14,0,1,1,.27,0,16.43,16.43,0,0,0,.19,3.21.15.15,0,0,1-.12.16Z"/><path class="cls-7" d="M42.5,23.26a.14.14,0,0,1-.14-.14A23.55,23.55,0,0,0,42,20a.13.13,0,0,1,.11-.16.14.14,0,0,1,.16.11,22.72,22.72,0,0,1,.34,3.18.14.14,0,0,1-.13.15Z"/><path class="cls-7" d="M29.93,47.79a.14.14,0,0,1-.14-.14.15.15,0,0,1,.13-.14l5.8-.15h0a.13.13,0,0,1,.14.13.14.14,0,0,1-.14.14l-5.79.16Z"/><path class="cls-7" d="M29,49.62a.14.14,0,0,1-.13-.13.13.13,0,0,1,.12-.15,15.25,15.25,0,0,1,2-.08.14.14,0,0,1,.13.15.13.13,0,0,1-.14.13,14.72,14.72,0,0,0-2,.08Z"/><path class="cls-8" d="M20.7,11.59h0c-3.07-.06-6.19-.15-9.26-.26a.43.43,0,0,1-.4-.43.41.41,0,0,1,.43-.4c3.07.11,6.18.2,9.25.26a.42.42,0,0,1,.4.43A.41.41,0,0,1,20.7,11.59Z"/><path class="cls-8" d="M20.94,8.78a.35.35,0,0,1-.14,0,15.18,15.18,0,0,1-6.31-4.21A.41.41,0,0,1,15.11,4a14.42,14.42,0,0,0,6,4,.43.43,0,0,1,.26.53A.42.42,0,0,1,20.94,8.78Z"/><path class="cls-8" d="M15.73,17.81a.4.4,0,0,1-.31-.15.41.41,0,0,1,0-.58,21.53,21.53,0,0,1,4.93-3.18.41.41,0,0,1,.55.2.43.43,0,0,1-.2.55A21,21,0,0,0,16,17.71.38.38,0,0,1,15.73,17.81Z"/></svg>