<svg id="Layer_1" data-name="Layer 1" xmlns="http://www.w3.org/2000/svg" xmlns:xlink="http://www.w3.org/1999/xlink" viewBox="0 0 60 60"><defs><style>.cls-1{fill:url(#Degradado_sin_nombre_50);}.cls-2{fill:url(#Degradado_sin_nombre_50-2);}.cls-3{fill:url(#Degradado_sin_nombre_50-3);}</style><linearGradient id="Degradado_sin_nombre_50" x1="24.76" y1="34.27" x2="58.59" y2="34.27" gradientUnits="userSpaceOnUse"><stop offset="0" stop-color="#2d2f78"/><stop offset="0.44" stop-color="#2a2a6d"/><stop offset="1" stop-color="#242158"/></linearGradient><linearGradient id="Degradado_sin_nombre_50-2" x1="1.41" y1="30" x2="29.96" y2="30" xlink:href="#Degradado_sin_nombre_50"/><linearGradient id="Degradado_sin_nombre_50-3" x1="15.19" y1="49.17" x2="26.66" y2="49.17" xlink:href="#Degradado_sin_nombre_50"/></defs><title>dust off icon.</title><path class="cls-1" d="M58.52,58.16H31.16L31,55.85H48.56V50.7H29.4C28.62,47,27,43.56,26.68,39.88c-.22-.22-.47-.37-.56-.59-.21-.53-.33-1.08-.51-1.67a23.35,23.35,0,0,1,6.19-2,27.4,27.4,0,0,1-2.19-3.19c-.86-1.67-1.5-3.44-2.25-5.16a1.43,1.43,0,0,0-.55-.66,4,4,0,0,1-1.09-6.11,2.48,2.48,0,0,0,.73-1.8,7.57,7.57,0,0,1,3.45-6.25,12.6,12.6,0,0,1,9-2,11,11,0,0,1,5.07,1.83,7.48,7.48,0,0,1,3.39,6.4,2.36,2.36,0,0,0,.6,1.75,4,4,0,0,1-1.11,6.2,1.71,1.71,0,0,0-.55.73c-.79,1.77-1.47,3.6-2.35,5.33a24.08,24.08,0,0,1-2,2.9,21.16,21.16,0,0,1,6.76,2.18,18,18,0,0,1,9.12,9.91,14.77,14.77,0,0,1,.82,5c0,1.69,0,3.37,0,5.06A3,3,0,0,1,58.52,58.16Zm-23-41.44a2.06,2.06,0,0,1-.13.31,10.53,10.53,0,0,1-5.8,3.72,6.67,6.67,0,0,0-2,1.1,1.46,1.46,0,0,0-.43,1.79c.16.41.61.95,1,1,.8.09,1,.55,1.12,1.17.05.24.15.46.22.69a20.81,20.81,0,0,0,3.37,6.78,4.11,4.11,0,0,0,2.15,1.52c2.86.7,4.7,0,6.36-2.4.15-.21.29-.43.43-.66a28.44,28.44,0,0,0,2.6-6.36c.11-.38.24-.62.73-.64a1.4,1.4,0,0,0,1.34-1.3,1.68,1.68,0,0,0-.8-1.8,4.35,4.35,0,0,0-2.28-.77,7.75,7.75,0,0,1-2.37-.4A10.12,10.12,0,0,1,35.57,16.72ZM44.69,48.3c0-.19,0-.31,0-.44,0-2.5,0-5,0-7.5,0-1.9,0-1.93-1.95-2.17a.68.68,0,0,0-.57.24A17.58,17.58,0,0,0,39,44.69c-.14.61-.4,1.2-.6,1.8-.44,1.3-.45,1.25-1.8,1.32-.68,0-.93-.21-1.14-.83-.88-2.66-1.52-5.43-3.34-7.71-1-1.2-.87-1.25-2.35-.82a.78.78,0,0,0-.69.9c0,2.76,0,5.53,0,8.29,0,.21,0,.43,0,.66Zm2.4-8.57v8.61h3.84v7.44h5.24C57.23,49.05,53.05,41.66,47.09,39.73ZM28.83,18.6c2.65-.74,4.75-2,5.64-4.69a1.2,1.2,0,0,1,2.3-.09A6.84,6.84,0,0,0,41.15,18a7.77,7.77,0,0,0,3.91.48,5.68,5.68,0,0,0-3.71-5A10.86,10.86,0,0,0,34,13.09a7.44,7.44,0,0,0-4.05,2.54A4.75,4.75,0,0,0,28.83,18.6ZM40.74,36.48c-2.6,1.05-4.31,1.06-7.68.09,1.45,2.31,3.25,4.37,3.81,7.13C37.43,40.92,39.23,38.86,40.74,36.48Z"/><path class="cls-2" d="M14.68,12l-4.56,1.34c-.93.27-1.84.55-2.77.81a4.39,4.39,0,0,1-5.56-3.07c-.11-.35-.21-.71-.31-1.07A1.13,1.13,0,0,1,2.34,8.5L22.09,2.67c1-.3,2.05-.62,3.07-.91s1.52,0,1.82,1a6,6,0,0,1,.38,3,4.32,4.32,0,0,1-3.1,3.42c-2.42.74-4.86,1.44-7.36,2.18.33,1.17.65,2.32,1,3.46q5.9,20.64,11.81,41.29c.07.23.16.45.22.68a1.16,1.16,0,0,1-.73,1.48,1.13,1.13,0,0,1-1.47-.85c-.65-2.22-1.29-4.45-1.93-6.67Q22,37.73,18.32,24.69q-1.76-6.12-3.5-12.23C14.79,12.35,14.75,12.25,14.68,12ZM4,10.45A2.08,2.08,0,0,0,6.88,12L16.31,9.2l7.1-2.09a2,2,0,0,0,1.5-2.84Z"/><path class="cls-3" d="M21.51,40.18c.22.8.44,1.48.58,2.18a.76.76,0,0,1-.26.59,12.76,12.76,0,0,0-4,7.08c-.3,1.88-.27,3.81-.39,5.76H23V48.43c.93-.21.93-.21,1.16.64.14.51.26,1,.44,1.51a11.69,11.69,0,0,1,.64,5.19l.79.1.67,2.29H15.33s-.09-.08-.08-.11c.06-3-.35-6,.36-8.9A16.46,16.46,0,0,1,21.51,40.18Z"/></svg>