<svg id="Layer_1" data-name="Layer 1" xmlns="http://www.w3.org/2000/svg" xmlns:xlink="http://www.w3.org/1999/xlink" viewBox="0 0 60 60"><defs><style>.cls-1{fill:url(#Degradado_sin_nombre_50);}.cls-2{fill:url(#Degradado_sin_nombre_50-2);}.cls-3{fill:url(#Degradado_sin_nombre_50-3);}.cls-4{fill:url(#Degradado_sin_nombre_50-4);}.cls-5{fill:url(#Degradado_sin_nombre_50-5);}.cls-6{fill:url(#Degradado_sin_nombre_50-6);}.cls-7{fill:url(#Degradado_sin_nombre_50-7);}</style><linearGradient id="Degradado_sin_nombre_50" x1="15.25" y1="21.21" x2="58.34" y2="21.21" gradientUnits="userSpaceOnUse"><stop offset="0" stop-color="#2d2f78"/><stop offset="0.44" stop-color="#2a2a6d"/><stop offset="1" stop-color="#242158"/></linearGradient><linearGradient id="Degradado_sin_nombre_50-2" x1="1.66" y1="48.51" x2="46.98" y2="48.51" xlink:href="#Degradado_sin_nombre_50"/><linearGradient id="Degradado_sin_nombre_50-3" x1="37.35" y1="15.9" x2="52.61" y2="15.9" xlink:href="#Degradado_sin_nombre_50"/><linearGradient id="Degradado_sin_nombre_50-4" x1="31.29" y1="8.96" x2="43.89" y2="8.96" xlink:href="#Degradado_sin_nombre_50"/><linearGradient id="Degradado_sin_nombre_50-5" x1="40.81" y1="22.85" x2="52.61" y2="22.85" xlink:href="#Degradado_sin_nombre_50"/><linearGradient id="Degradado_sin_nombre_50-6" x1="45.19" y1="29.79" x2="52.61" y2="29.79" xlink:href="#Degradado_sin_nombre_50"/><linearGradient id="Degradado_sin_nombre_50-7" x1="22.58" y1="29.03" x2="32.04" y2="29.03" xlink:href="#Degradado_sin_nombre_50"/></defs><title>dust off icon.</title><path class="cls-1" d="M58.34,18.91c0-2.53,0-5.26-.07-8a1.31,1.31,0,0,0-.28-.82c-.66-.67-1.33-1.34-2-2l-1-1-.66-.66c-1.47-1.46-3-3-4.46-4.47A2.44,2.44,0,0,0,48,1.24h0c-4.53,0-9.13,0-13.59,0H28.63a4.54,4.54,0,0,0-1.1.09A2.8,2.8,0,0,0,25.42,4.2c0,4.2,0,8.38,0,12.43,0,.3,0,.33-.24.37a12.1,12.1,0,0,0-9.69,14.25,12.3,12.3,0,0,0,2.79,5.85,12,12,0,0,0,5.47,3.45,12.72,12.72,0,0,0,3.9.64,11.83,11.83,0,0,0,8.08-3.36,1.13,1.13,0,0,1,.85-.33h6.63c3.9,0,7.92,0,11.88,0a3.29,3.29,0,0,0,2.38-.91,3.08,3.08,0,0,0,.85-2.29c0-2.71,0-5.46,0-8.12,0-1,0-2.08,0-3.12h0V18.91ZM49.8,5.35l4.38,4.41H49.8ZM34.43,36a9.91,9.91,0,1,1-7-16.92h0a9.9,9.9,0,0,1,7,16.92Zm21.63-1.74c0,.88-.1,1-1,1H37.87L38,35c.22-.43.43-.84.62-1.27A12.15,12.15,0,0,0,29.35,17a10.25,10.25,0,0,0-1.41-.13c-.16,0-.21,0-.22,0a.48.48,0,0,1,0-.28c0-2.67,0-5.38,0-8V4.37c0-.72.15-.87.86-.87H42.81c1.42,0,2.89,0,4.34,0,.21,0,.29,0,.31,0s0,.08,0,.3c0,1.72,0,3.46,0,5.15v1.64c0,1,.38,1.42,1.44,1.42h7.12Z"/><path class="cls-2" d="M46.61,43.67a3.89,3.89,0,0,0-4.9-1.77c-.3.13-.36.09-.51-.16a3.83,3.83,0,0,0-3.18-2,4.72,4.72,0,0,0-2.57.69c-2.74,1.53-4.85,2.7-6.82,3.77a.65.65,0,0,1-.49,0c-.92-.32-1.83-.66-2.69-1a35.77,35.77,0,0,1-6-3.41l-.24-.16a8,8,0,0,0-3.37-1.38,8.45,8.45,0,0,0-4.43.67c-1.14.45-2.27,1-3.36,1.47l-1,.46c-1.55.7-3.1,1.4-4.68,2.13a1.21,1.21,0,0,0-.68.69,1.1,1.1,0,0,0,.05.85,1.12,1.12,0,0,0,1.56.48l.2-.09.1-.05,2.14-1c1.79-.84,3.63-1.71,5.46-2.52a12.65,12.65,0,0,1,2.84-.86,5.49,5.49,0,0,1,4.1,1.14l.78.5c1.44.91,2.93,1.85,4.46,2.65a30.45,30.45,0,0,0,7.66,2.53,1.6,1.6,0,0,1,1,.71,1.51,1.51,0,0,1,.19,1.14,1.67,1.67,0,0,1-1.94,1.29L21,48.56,18.46,48a1.52,1.52,0,0,0-1.14.15,1.11,1.11,0,0,0-.45.73c-.12.69.3,1.2,1.14,1.37l3.18.66c2.8.57,5.7,1.17,8.53,1.82a3.93,3.93,0,0,0,4.84-3.91c0-.2,0-.27.22-.38l4-2.37c1.1-.66,2.2-1.32,3.31-2a1.92,1.92,0,0,1,.55-.25,1.71,1.71,0,0,1,2,1.08c.27.52-.11,1.29-.84,1.72l-1.41.82-13.89,8.1a5.46,5.46,0,0,1-5.13.32c-1.34-.57-2.74-1.21-4.42-2l-2-1c-.94-.47-1.92-1-2.91-1.38a5.39,5.39,0,0,0-5.38.4c-.33.21-.68.41-1,.6L7,53a1.13,1.13,0,0,0-.47,1.63,1.08,1.08,0,0,0,1.59.29c.67-.37,1.35-.77,2.07-1.2a2.64,2.64,0,0,1,2.24-.3,15.47,15.47,0,0,1,2,.76l3.2,1.55c1.2.58,2.43,1.19,3.66,1.76A10.13,10.13,0,0,0,25,58.76h.09a8.28,8.28,0,0,0,4.39-1.08l7.23-4.22,4.94-2.88,1-.58c.78-.44,1.59-.91,2.37-1.39A3.87,3.87,0,0,0,46.61,43.67Zm-7.14-.62-2,1.19-.9.53c-.82.48-1.67,1-2.49,1.48-.23.14-.3.13-.46,0a3.8,3.8,0,0,0-1.89-1.08l5-2.8a1.71,1.71,0,0,1,1.78-.17,3.63,3.63,0,0,1,.8.69Z"/><path class="cls-3" d="M52.61,16a1.07,1.07,0,0,1-1.14,1H43.22c-1.53,0-3.06,0-4.59,0-.73,0-1.15-.3-1.25-.89a1.09,1.09,0,0,1,.21-.94,1.23,1.23,0,0,1,1-.41h12.6a2.17,2.17,0,0,1,.36,0A1.18,1.18,0,0,1,52.61,16Z"/><path class="cls-4" d="M43.87,9.15a1.09,1.09,0,0,1-1.21.95H32.57a1.37,1.37,0,0,1-1-.41,1.1,1.1,0,0,1-.24-.89,1.11,1.11,0,0,1,1.2-1H42.59a1.34,1.34,0,0,1,1.06.41A1.1,1.1,0,0,1,43.87,9.15Z"/><path class="cls-5" d="M52.61,22.9A1.09,1.09,0,0,1,51.43,24H44.34c-.74,0-1.48,0-2.22,0a1.57,1.57,0,0,1-1-.43,1.08,1.08,0,0,1,.8-1.79c3.26,0,6.56,0,9.63,0a1.09,1.09,0,0,1,.78.34A1.15,1.15,0,0,1,52.61,22.9Z"/><path class="cls-6" d="M52.61,29.8a1.1,1.1,0,0,1-1.23,1.11c-.57,0-1.15,0-1.7,0H46.42a1.1,1.1,0,0,1-1.23-1.1,1.15,1.15,0,0,1,.29-.81,1.22,1.22,0,0,1,.91-.33c1.66,0,3.34,0,5,0A1.14,1.14,0,0,1,52.61,29.8Z"/><path class="cls-7" d="M32,31a3,3,0,0,0-2-2.77A7.39,7.39,0,0,0,29.2,28l-.58-.19a1,1,0,0,1-.21-.11c0-.72,0-1.46,0-2.23v-.37l2.22.91,1.24-1.75-.19-.14a6.75,6.75,0,0,0-3.05-1.23c-.22,0-.29-.07-.31-.09a.37.37,0,0,1,0-.22.57.57,0,0,0-.12-.5.68.68,0,0,0-.59-.14.47.47,0,0,1-.16,0,.65.65,0,0,0-.54.13.58.58,0,0,0-.13.49c0,.17,0,.18-.27.24a6.45,6.45,0,0,0-1.73.6,3.26,3.26,0,0,0-1.65,3.27,3,3,0,0,0,2,2.71,9.21,9.21,0,0,0,1.43.47c.2.05.23.1.23.32,0,.48,0,1,0,1.45v.85s0,.1,0,.15a5.89,5.89,0,0,1-2.48-1.28l-.17-.13-1.51,1.74.17.15a6.88,6.88,0,0,0,3.78,1.81c.23,0,.23,0,.23.25,0,.45,0,.73.18.9a.69.69,0,0,0,.53.15h.4a1,1,0,0,0,.17,0l.1,0,.18,0V35l.55-.17a8.86,8.86,0,0,0,1.42-.53A3.29,3.29,0,0,0,32,31Zm-5.23-3.84a1.28,1.28,0,0,1-.72-.32A1.11,1.11,0,0,1,26,25.29a1.31,1.31,0,0,1,.78-.34Zm2.87,4.37a1.33,1.33,0,0,1-1.26,1V30.32C29.21,30.48,29.72,31,29.68,31.56Z"/></svg>