<svg id="Layer_1" data-name="Layer 1" xmlns="http://www.w3.org/2000/svg" xmlns:xlink="http://www.w3.org/1999/xlink" viewBox="0 0 60 60"><defs><style>.cls-1{fill:url(#Degradado_sin_nombre_50);}.cls-2{fill:url(#Degradado_sin_nombre_50-2);}.cls-3{fill:url(#Degradado_sin_nombre_50-3);}.cls-4{fill:url(#Degradado_sin_nombre_50-4);}.cls-5{fill:url(#Degradado_sin_nombre_50-5);}</style><linearGradient id="Degradado_sin_nombre_50" x1="0.71" y1="43.12" x2="59.29" y2="43.12" gradientUnits="userSpaceOnUse"><stop offset="0" stop-color="#2d2f78"/><stop offset="0.44" stop-color="#2a2a6d"/><stop offset="1" stop-color="#242158"/></linearGradient><linearGradient id="Degradado_sin_nombre_50-2" x1="15.89" y1="18.98" x2="44.37" y2="18.98" xlink:href="#Degradado_sin_nombre_50"/><linearGradient id="Degradado_sin_nombre_50-3" x1="19.58" y1="18.98" x2="40.67" y2="18.98" xlink:href="#Degradado_sin_nombre_50"/><linearGradient id="Degradado_sin_nombre_50-4" x1="28.47" y1="16.43" x2="29.72" y2="16.43" xlink:href="#Degradado_sin_nombre_50"/><linearGradient id="Degradado_sin_nombre_50-5" x1="31.08" y1="21.7" x2="32.29" y2="21.7" xlink:href="#Degradado_sin_nombre_50"/></defs><title>dust off images</title><path class="cls-1" d="M7.13,50.72.71,36.47a5.14,5.14,0,0,1,.54-.34c3.1-1.38,6.22-2.74,9.32-4.13a9.26,9.26,0,0,1,9.8.9c1.69,1.21,3.41,2.36,5.12,3.53a16.44,16.44,0,0,0,9.14,3c1.7,0,3.39.14,5.08.33,1.13.13,1.58.65,1.69,1.54a1.76,1.76,0,0,1-1.33,2.06,10.5,10.5,0,0,1-3,.59C34,44,31,44,28,44a22,22,0,0,1-6.65-1.36l-.9-.29c0,.11-.05.18,0,.2,2.32,2.15,4.83,3.8,8.18,3.7,2.85-.07,5.71,0,8.56,0a8.65,8.65,0,0,0,4.4-1.05A3.93,3.93,0,0,0,43.66,41a3.49,3.49,0,0,0-3.11-3.33c-1.86-.33-3.77-.34-5.66-.49l-1.44-.08c.1-.18.12-.27.17-.31,1.76-1,3.49-2.14,5.28-3.12,2.79-1.52,3.67-1.41,5.84.35a25.12,25.12,0,0,1,3.82-1.27c2.06-.34,3,.43,3.42,2.49a8.25,8.25,0,0,1,1.33-.6,15.2,15.2,0,0,1,3.17-.68,2.72,2.72,0,0,1,2.63,1.79,2.38,2.38,0,0,1-.75,2.73,11.61,11.61,0,0,1-2,1.67c-6.91,4.54-13.85,9-20.74,13.58a8.19,8.19,0,0,1-8.9.43c-3.64-1.86-7.31-3.66-10.91-5.61a4.83,4.83,0,0,0-5.78.3C9.17,49.49,8.19,50,7.13,50.72Z"/><path class="cls-2" d="M30.14,33.2A14.22,14.22,0,1,1,44.37,19,14.24,14.24,0,0,1,30.14,33.2Zm0-1.57A12.64,12.64,0,1,0,17.47,19,12.61,12.61,0,0,0,30.17,31.63Z"/><path class="cls-3" d="M40.67,19A10.55,10.55,0,1,1,30.11,8.45,10.52,10.52,0,0,1,40.67,19Zm-12.79,1.7c-.51.12-1,.28-1.44.34s-.67.37-.51.9a3.82,3.82,0,0,0,3.17,2.92c.51.1.78.29.72.84a2.17,2.17,0,0,0,.07.57c1,.17,1,.16,1.14-.72a1,1,0,0,1,.54-.58c.36-.17.78-.2,1.15-.34a3,3,0,0,0,2-2.76A2.73,2.73,0,0,0,33.13,19c-.5-.27-1.06-.45-1.57-.71-.21-.1-.51-.29-.52-.46-.05-.85,0-1.7,0-2.55l.23-.11c.29.32.55.67.86,1s.44.4.63.37a15.26,15.26,0,0,0,1.63-.43A3.38,3.38,0,0,0,32,13.38c-.62-.18-1.07-.31-1-1.1,0-.14-.38-.43-.61-.45s-.43.25-.53.45a2.41,2.41,0,0,0-.07.78c-.47.1-.89.18-1.3.3a3.08,3.08,0,0,0-2.19,4,3.33,3.33,0,0,0,2.6,2.16c.33.09.85.37.87.61a25.11,25.11,0,0,1,.05,2.9C28.39,22.79,28.2,21.72,27.88,20.68Z"/><path class="cls-4" d="M29.72,17.74c-.77-.2-1.26-.56-1.25-1.31s.45-1.14,1.25-1.32Z"/><path class="cls-5" d="M31.08,23.09V20.31c.8.23,1.23.65,1.21,1.42A1.36,1.36,0,0,1,31.08,23.09Z"/></svg>