<svg id="Layer_1" data-name="Layer 1" xmlns="http://www.w3.org/2000/svg" xmlns:xlink="http://www.w3.org/1999/xlink" viewBox="0 0 60 60"><defs><style>.cls-1{fill:url(#Degradado_sin_nombre_50);}.cls-2{fill:url(#Degradado_sin_nombre_50-2);}.cls-3{fill:url(#Degradado_sin_nombre_50-3);}.cls-4{fill:url(#Degradado_sin_nombre_50-4);}.cls-5{fill:url(#Degradado_sin_nombre_50-5);}.cls-6{fill:url(#Degradado_sin_nombre_50-6);}.cls-7{fill:url(#Degradado_sin_nombre_50-7);}.cls-8{fill:url(#Degradado_sin_nombre_50-8);}.cls-9{fill:url(#Degradado_sin_nombre_50-9);}.cls-10{fill:url(#Degradado_sin_nombre_50-10);}.cls-11{fill:url(#Degradado_sin_nombre_50-11);}.cls-12{fill:url(#Degradado_sin_nombre_50-12);}.cls-13{fill:url(#Degradado_sin_nombre_50-13);}.cls-14{fill:url(#Degradado_sin_nombre_50-14);}.cls-15{fill:url(#Degradado_sin_nombre_50-15);}</style><linearGradient id="Degradado_sin_nombre_50" x1="15.83" y1="46.61" x2="44.19" y2="46.61" gradientUnits="userSpaceOnUse"><stop offset="0" stop-color="#2d2f78"/><stop offset="0.44" stop-color="#2a2a6d"/><stop offset="1" stop-color="#242158"/></linearGradient><linearGradient id="Degradado_sin_nombre_50-2" x1="14.8" y1="43.21" x2="45.09" y2="43.21" xlink:href="#Degradado_sin_nombre_50"/><linearGradient id="Degradado_sin_nombre_50-3" x1="16.3" y1="15.64" x2="43.75" y2="15.64" xlink:href="#Degradado_sin_nombre_50"/><linearGradient id="Degradado_sin_nombre_50-4" x1="2.54" y1="39.44" x2="18.72" y2="39.44" xlink:href="#Degradado_sin_nombre_50"/><linearGradient id="Degradado_sin_nombre_50-5" x1="15.83" y1="46.61" x2="16.06" y2="46.61" xlink:href="#Degradado_sin_nombre_50"/><linearGradient id="Degradado_sin_nombre_50-6" x1="44.04" y1="46.59" x2="44.19" y2="46.59" xlink:href="#Degradado_sin_nombre_50"/><linearGradient id="Degradado_sin_nombre_50-7" x1="41.34" y1="39.43" x2="57.46" y2="39.43" xlink:href="#Degradado_sin_nombre_50"/><linearGradient id="Degradado_sin_nombre_50-8" x1="4.5" y1="19.86" x2="16.59" y2="19.86" xlink:href="#Degradado_sin_nombre_50"/><linearGradient id="Degradado_sin_nombre_50-9" x1="43.63" y1="19.83" x2="55.68" y2="19.83" xlink:href="#Degradado_sin_nombre_50"/><linearGradient id="Degradado_sin_nombre_50-10" x1="52.41" y1="21.38" x2="55.66" y2="21.38" xlink:href="#Degradado_sin_nombre_50"/><linearGradient id="Degradado_sin_nombre_50-11" x1="9.28" y1="39.38" x2="18.37" y2="39.38" xlink:href="#Degradado_sin_nombre_50"/><linearGradient id="Degradado_sin_nombre_50-12" x1="41.51" y1="39.44" x2="50.73" y2="39.44" xlink:href="#Degradado_sin_nombre_50"/><linearGradient id="Degradado_sin_nombre_50-13" x1="40.29" y1="25.53" x2="41.99" y2="25.53" xlink:href="#Degradado_sin_nombre_50"/><linearGradient id="Degradado_sin_nombre_50-14" x1="18.07" y1="25.66" x2="19.72" y2="25.66" xlink:href="#Degradado_sin_nombre_50"/><linearGradient id="Degradado_sin_nombre_50-15" x1="23.91" y1="43.21" x2="35.98" y2="43.21" xlink:href="#Degradado_sin_nombre_50"/></defs><title>dust off icon.</title><path class="cls-1" d="M15.93,46.53l-.1.12.23,0Zm28.21,0-.1.11.15,0Z"/><path class="cls-2" d="M45.08,41.22a1.45,1.45,0,0,0-1.54-1.55,19.69,19.69,0,0,0-2,0c-.43,0-.61-.09-.87-.55A1.35,1.35,0,0,1,41.09,37a5.17,5.17,0,0,0,.82-.8l.1-.12A1.46,1.46,0,0,0,42,33.79c-.38-.4-.78-.79-1.16-1.17l-.81-.8c-.82-.83-1.3-1.22-1.84-1.22s-1,.39-1.8,1.21a.57.57,0,0,1-.11.11,3.52,3.52,0,0,0-.36.41c-.39.55-.76.63-1.52.33s-1-.64-.89-1.39a8.44,8.44,0,0,0,0-1.23c0-.08,0-.16,0-.24,0-1.22-.54-1.72-1.74-1.74H28.07a1.48,1.48,0,0,0-1.65,1.63c0,.65,0,1.35,0,2,0,.39-.11.53-.55.78a1.39,1.39,0,0,1-2.13-.45,4.37,4.37,0,0,0-.67-.69l-.17-.16a1.46,1.46,0,0,0-2.38,0c-.79.75-1.63,1.6-2.65,2.65a1.42,1.42,0,0,0,0,2.24l.05.06a20,20,0,0,0,1.47,1.44c.38.31.29.53.07.94a2.11,2.11,0,0,0-.19.46c-.14.51-.25.73-.71.69a20.89,20.89,0,0,0-2.24,0,1.43,1.43,0,0,0-1.51,1.56v2.6c0,1.4,0,2.09.43,2.5a1.36,1.36,0,0,0,.6.3l.1-.12.13.16a11.2,11.2,0,0,0,1.67,0c1,0,1.45.24,1.73,1.13.16.53.15.78-.2,1.09s-.9.87-1.32,1.31l-.12.14a1.38,1.38,0,0,0,0,2.09c1,1.1,1.93,2,2.79,2.8a1.44,1.44,0,0,0,2.31,0l.31-.28a12.4,12.4,0,0,0,1.07-1.1c.36-.46.62-.32,1-.1a2,2,0,0,0,.6.25c.39.07.53.27.49.73,0,.65,0,1.31,0,1.94,0,1.16.56,1.68,1.68,1.7h3.76a1.47,1.47,0,0,0,1.6-1.58v-.12a12.45,12.45,0,0,0,0-1.93c-.06-.56.18-.66.68-.81a2.14,2.14,0,0,0,.6-.26c.32-.22.55-.18.86.17.46.52,1,1,1.51,1.51a1.4,1.4,0,0,0,2.1,0c1.06-1,2-2,2.86-2.86a1.39,1.39,0,0,0,0-2.1l-.21-.23a14.41,14.41,0,0,0-1.31-1.28c-.49-.4-.35-.67,0-1.17a2.65,2.65,0,0,0,.27-.53,1,1,0,0,1,.69-.41,9.82,9.82,0,0,1,1.22,0h.87a2.41,2.41,0,0,0,.49-.07l.1-.11,0,.06a1.41,1.41,0,0,0,.89-1.44C45.09,43.81,45.09,42.49,45.08,41.22Zm-1.7,3.84h-.64c-.65,0-1.32,0-2,0a1.22,1.22,0,0,0-1.41,1,7.69,7.69,0,0,1-.46,1.22v0c-.65,1.49-.63,1.6.58,2.78.33.32.67.62,1,.94l.31.28L37.92,54l-.3-.34c-.38-.43-.8-.91-1.19-1.4a1.34,1.34,0,0,0-2-.34,3.5,3.5,0,0,1-1.23.54,1.56,1.56,0,0,0-1.39,1.93,12.55,12.55,0,0,1,0,1.63c0,.18,0,.38,0,.57h-3.7V56c0-.65,0-1.32,0-2a1.22,1.22,0,0,0-1-1.4,6,6,0,0,1-1-.39l-.11,0c-1.58-.7-1.69-.68-2.93.61-.3.32-.58.66-.87,1l-.27.32-2.76-2.9.42-.38c.48-.44,1-.89,1.49-1.32a1.17,1.17,0,0,0,.26-1.72,4.15,4.15,0,0,1-.39-.79,1.8,1.8,0,0,0-.08-.21h0c-.7-1.69-.78-1.74-2.65-1.74-.87,0-1.35,0-1.52-.18s-.17-.68-.17-1.53v-2h.71c.7,0,1.35,0,2,0a1.21,1.21,0,0,0,1.35-.95,9.91,9.91,0,0,1,.8-1.89A1.16,1.16,0,0,0,21,36.91c-.51-.44-1-.9-1.47-1.34l-.41-.39,2.75-2.8.36.4a20.59,20.59,0,0,0,1.53,1.58,1.8,1.8,0,0,0,1.33.24,1.47,1.47,0,0,0,.63-.27l.29-.15h0c2-.83,2-.92,2-3V29.77h3.7v.63c0,.64,0,1.31,0,2a1.26,1.26,0,0,0,1.07,1.47,4,4,0,0,1,1.26.49,1.7,1.7,0,0,0,2.58-.47,14,14,0,0,1,1.06-1.12l.33-.32,2.69,2.7-.45.42L38.81,37a1.14,1.14,0,0,0-.24,1.54,13,13,0,0,1,.79,1.91,1.21,1.21,0,0,0,1.33,1c.66,0,1.32,0,2,0h.68Z"/><path class="cls-3" d="M43.75,17.09l-.24.08-.36.14a2.75,2.75,0,0,1-.89.25c-1.07,0-2.12,0-3.24,0H37.94v2.48c0,2.73,0,5.31,0,7.93,0,.09,0,.21,0,.33a1.38,1.38,0,0,1-.18,1.08.93.93,0,0,1-.69.24.8.8,0,0,1-.61-.25,1.35,1.35,0,0,1-.18-1.05c0-.12,0-.23,0-.32,0-1.59,0-3.2,0-4.77,0-1.93,0-3.93,0-5.9a1.42,1.42,0,0,1,.33-1.12,1.38,1.38,0,0,1,1.06-.29c.82,0,1.62,0,2.55,0h.84L30,3.62,19,16h3.26c.65,0,1,0,1.27.25s.25.62.25,1.27V28.24a1,1,0,0,0,0,.17,1.09,1.09,0,0,1-.07.59c-.13.23-.42.62-.76.63h0c-.32,0-.64-.38-.76-.63a1.45,1.45,0,0,1-.07-.65,1.48,1.48,0,0,0,0-.21V17.57H21c-1.11,0-2.15,0-3.21,0a3.25,3.25,0,0,1-.91-.21,2.29,2.29,0,0,0-.37-.12l-.25-.07.11-.24a3.53,3.53,0,0,0,.15-.39,2.84,2.84,0,0,1,.46-.88C20.48,11.75,24,7.81,27.45,4l1.48-1.66c.38-.41.7-.69,1.07-.69s.72.29,1.11.73L32.54,4C36,7.82,39.59,11.81,43.1,15.75a2.65,2.65,0,0,1,.41.78,2.52,2.52,0,0,0,.13.33Z"/><path class="cls-4" d="M18.63,32.92a.82.82,0,0,1-.48.54,1.16,1.16,0,0,1-.92-.24,1.73,1.73,0,0,0-.39-.19,3,3,0,0,1-.42-.16,2.22,2.22,0,0,0-.38-.14,1.12,1.12,0,0,1-.94-1.27c0-.43,0-.86,0-1.32v-.4H12.82a4,4,0,0,0-.05.86A2.17,2.17,0,0,1,11.32,33a2.22,2.22,0,0,1-2.83-.7,4.6,4.6,0,0,0-.61-.56L6.35,33.46a2.91,2.91,0,0,0,.54.58,2.07,2.07,0,0,1,.69,2.69A2.3,2.3,0,0,1,5,38.28a5.7,5.7,0,0,0-.71,0v2.24a3.39,3.39,0,0,0,.85.05A2.15,2.15,0,0,1,7.54,42,2.24,2.24,0,0,1,6.8,45c-.17.17-.35.34-.51.53L8.05,47a3.06,3.06,0,0,0,.49-.47,2.1,2.1,0,0,1,2.75-.69,2.2,2.2,0,0,1,1.48,2.48,5.7,5.7,0,0,0,0,.83H15.1v-.31a5.68,5.68,0,0,1,0-1.24,1.22,1.22,0,0,1,.42-.64l.2-.21.07-.09.23,0,0,.05.15.18c.16.18.31.36.46.55a.36.36,0,0,1,.06.29V48c0,1.4,0,2.1-.39,2.51s-.82.38-1.67.38H13.58c-1.12,0-1.73,0-2.09-.36s-.35-.91-.34-2.06c0-.5-.08-.76-.57-1s-.65,0-1,.32l-.36.36a3.07,3.07,0,0,0-.26.25,1.59,1.59,0,0,1-1.12.56,1.51,1.51,0,0,1-1.1-.57c-.29-.3-.59-.6-.89-.89s-.59-.58-.87-.88c-.76-.79-.75-1.37,0-2.2l.26-.24a1.93,1.93,0,0,0,.36-.41,1.68,1.68,0,0,0,.28-.9c0-.3-.17-.61-.86-.61-1.17,0-1.81,0-2.18-.38s-.35-1-.35-2.23v-.09c0-1.3,0-2,.37-2.36s1-.45,2.28-.56h.07A1.09,1.09,0,0,0,5.91,36a.89.89,0,0,0-.1-.73l0,0c-.84-1-1.27-1.48-1.25-2s.49-1,1.41-1.94l.55-.54c1.16-1.11,1.62-1.11,2.78,0a2.39,2.39,0,0,1,.22.23,2.2,2.2,0,0,0,.64.53.52.52,0,0,0,.47-.07,1.18,1.18,0,0,0,.53-.92c0-1.21,0-1.81.39-2.16s1-.35,2.16-.35h.19c1.3,0,2,0,2.35.37s.46,1,.57,2.27v.08c0,.18.33.44.57.63l.12.11a2.14,2.14,0,0,0,.43.22C18.3,31.88,19,32.15,18.63,32.92Z"/><path class="cls-5" d="M15.93,46.53l-.1.12.23,0Z"/><path class="cls-6" d="M44.14,46.54l-.1.11.15,0Z"/><path class="cls-7" d="M57.46,39.47v.29c0,1.17,0,1.75-.35,2.1s-1,.36-2.13.37c-.5,0-.71.08-.9.53a.72.72,0,0,0,.26,1,3.14,3.14,0,0,1,.32.31l.11.1c1.09,1.1,1.09,1.58,0,2.68l-.7.7-.86.87a1.51,1.51,0,0,1-1.06.52,1.54,1.54,0,0,1-1.09-.52l-.28-.3a2.28,2.28,0,0,0-.57-.52,1.1,1.1,0,0,0-.81-.06,1,1,0,0,0-.5.58v.06c-.12,1.28-.19,1.93-.59,2.3s-1,.37-2.32.37h-.26c-1.15,0-1.76,0-2.11-.38s-.38-1.07-.37-2.42V47.9a.62.62,0,0,1,.06-.46,4,4,0,0,1,.46-.53,1.7,1.7,0,0,0,.19-.19l.07-.07.15,0,.11.13.18.19a1.08,1.08,0,0,1,.4.59,7.69,7.69,0,0,1,0,1.28c0,.11,0,.24,0,.36h2.35v-.4c0-.47,0-.91,0-1.36,0-.68.37-.93.79-1.19l.08-.05c1.58-1,2.84-.72,3.84.8a.51.51,0,0,0,.15.13l1.64-1.54a5.34,5.34,0,0,0-.59-.67,2.17,2.17,0,0,1-.68-2.78A2.26,2.26,0,0,1,55,40.59a5.94,5.94,0,0,0,.73,0V38.32a3.87,3.87,0,0,0-.85-.06,2.09,2.09,0,0,1-2.38-1.42,2.27,2.27,0,0,1,.73-2.92,6.52,6.52,0,0,0,.5-.54L52,31.83a3.84,3.84,0,0,0-.56.52,2.12,2.12,0,0,1-2.74.71,2.17,2.17,0,0,1-1.47-2.47,4.52,4.52,0,0,0-.05-.84H44.91v.37c0,.45,0,.87,0,1.3A1.14,1.14,0,0,1,44,32.71a5.18,5.18,0,0,0-.7.29,5.37,5.37,0,0,1-.82.32,1.25,1.25,0,0,1-.69-.07,1.36,1.36,0,0,0-.25-.07l-.24,0,.08-.24c0-.08,0-.19.07-.3.07-.34.13-.64.37-.7,1.2-.32,1.6-1,1.43-2.51a1.13,1.13,0,0,1,.26-.9,1.41,1.41,0,0,1,1-.43c1,0,1.94,0,2.89,0a1.29,1.29,0,0,1,1.4,1.42,3.53,3.53,0,0,1,0,.46,2.5,2.5,0,0,0,0,.73,1.13,1.13,0,0,0,.52.7,1,1,0,0,0,.83-.11l0,0c1-.84,1.42-1.26,2-1.24s1,.48,1.87,1.38l.06.07c.88.89,1.33,1.34,1.34,1.87s-.4,1-1.23,1.93l0,.05a1,1,0,0,0-.11.81,1,1,0,0,0,.66.51h.06c1.25.09,1.88.13,2.24.53S57.46,38.18,57.46,39.47Z"/><path class="cls-8" d="M16.59,12.52a.75.75,0,0,1-.32.53c-.41.3-1.31-.21-1.35-.23a3.27,3.27,0,0,1-.76-.64L14,12,7.05,20h.27c.47,0,.87,0,1.28,0a1.21,1.21,0,0,1,1,.28,1.26,1.26,0,0,1,.31,1V23.9c0,1.42,0,2.89,0,4.33a1.52,1.52,0,0,1-.41.83,1.91,1.91,0,0,0-.22.3l-.2.31-.18-.32-.22-.3a1.54,1.54,0,0,1-.4-.83c0-1.4,0-2.83,0-4.21V21.63H7.55c-.71,0-1.37,0-2,0-.32,0-.84-.19-1-.51A1.18,1.18,0,0,1,4.83,20c1.65-1.92,3.34-3.86,5-5.73l3.27-3.76a1.25,1.25,0,0,1,.85-.51,1.18,1.18,0,0,1,.84.41c.25.25.52.49.77.72l.5.45,0,0C16.31,11.87,16.61,12.16,16.59,12.52Z"/><path class="cls-9" d="M55.66,21.12a11.27,11.27,0,0,1-1.47.49c-.58,0-1.17,0-1.78,0h-.59v5.82c0,.1,0,.2,0,.31a2,2,0,0,1,0,.81,1.56,1.56,0,0,1-.42.6l-.19.2-.17.21-.17-.21-.2-.21a1.27,1.27,0,0,1-.41-.65,8,8,0,0,1,0-1.38c0-.19,0-.38,0-.57V25.09c0-1.22,0-2.47,0-3.7a1.46,1.46,0,0,1,.34-1.16A1.32,1.32,0,0,1,51.58,20a10.16,10.16,0,0,0,1.12,0H53L46,12l-.23.23a7.23,7.23,0,0,1-1,.81,1.12,1.12,0,0,1-.7.11h-.51l0-.25v-.27a1.32,1.32,0,0,1,.11-.74,2.29,2.29,0,0,1,.61-.63l.25-.22c.73-.67,1.09-1,1.51-1s.76.41,1.43,1.18l1.69,1.92c1.89,2.17,3.84,4.41,5.75,6.62C55.87,20.76,55.66,21.12,55.66,21.12Z"/><path class="cls-10" d="M55.66,21.12s-.09.42-1.47.49c-.58,0-1.17,0-1.78,0"/><path class="cls-11" d="M18.22,38.9a3.21,3.21,0,0,0-.1.35l-.08.37-.28-.24a3.15,3.15,0,0,0-.29-.22,1.55,1.55,0,0,1-.64-.63,3.07,3.07,0,0,0-3.75-2,3,3,0,0,0,.57,5.87c.28.05,1,.34,1,.73a.86.86,0,0,1-.19.72.89.89,0,0,1-.66.21,3,3,0,0,1-.43,0h0a4.7,4.7,0,0,1-4-3.85,4.49,4.49,0,0,1,2.35-4.83,8.56,8.56,0,0,1,1.44-.52l.65-.2,0,0h0A4.86,4.86,0,0,1,18.34,38,1.53,1.53,0,0,1,18.22,38.9Z"/><path class="cls-12" d="M50.73,39.49a4.66,4.66,0,0,1-1.18,3,4.51,4.51,0,0,1-2.87,1.53,3.57,3.57,0,0,1-.47,0,1,1,0,0,1-.64-.19.81.81,0,0,1-.25-.59c0-.41.77-.81,1.09-.88a3.07,3.07,0,0,0,2.66-3,3,3,0,0,0-2.43-3,3.09,3.09,0,0,0-3.44,2c-.14.32-.67,1-1.08.91A.76.76,0,0,1,41.6,39a1.29,1.29,0,0,1,.06-1l0-.08a4.64,4.64,0,0,1,9,1.58Z"/><path class="cls-13" d="M42,29.69c0,.39-.37,1.06-.75,1.12l-.17,0a.67.67,0,0,1-.44-.15,1.33,1.33,0,0,1-.29-1V28.52c0-2.24,0-4.56,0-6.84a1.42,1.42,0,0,1,.42-.82l.22-.3.2-.32.18.32c.06.1.13.2.21.31a1.61,1.61,0,0,1,.4.83c0,.95,0,1.91,0,2.85,0,.36,0,.73,0,1.1s0,.7,0,1.06C42,27.68,42,28.7,42,29.69Z"/><path class="cls-14" d="M19.68,29.74a1.22,1.22,0,0,1-.42.76l-.21.26-.2.28-.18-.29c-.05-.09-.12-.18-.19-.28a1.51,1.51,0,0,1-.38-.77c0-1,0-2,0-3,0-.36,0-.73,0-1.1s0-.7,0-1.06c0-.94,0-1.92,0-2.88a1.58,1.58,0,0,1,.37-.77c.07-.1.14-.19.19-.28l.18-.3.2.29a2.35,2.35,0,0,0,.22.26,1.27,1.27,0,0,1,.42.76C19.73,24.28,19.73,27,19.68,29.74Z"/><path class="cls-15" d="M29.93,37.18a6,6,0,0,0,0,12.06h0a6,6,0,0,0,4.26-1.81A5.94,5.94,0,0,0,36,43.23v0A6.08,6.08,0,0,0,29.93,37.18Zm0,1.69h0a4.31,4.31,0,0,1,4.37,4.32A4.36,4.36,0,0,1,30,47.58a4.36,4.36,0,1,1-.05-8.71Z"/></svg>