<svg id="Layer_1" data-name="Layer 1" xmlns="http://www.w3.org/2000/svg" xmlns:xlink="http://www.w3.org/1999/xlink" viewBox="0 0 60 60"><defs><style>.cls-1{fill:url(#Degradado_sin_nombre_50);}.cls-2{fill:url(#Degradado_sin_nombre_50-2);}.cls-3{fill:url(#Degradado_sin_nombre_50-3);}.cls-4{fill:url(#Degradado_sin_nombre_50-4);}.cls-5{fill:url(#Degradado_sin_nombre_50-5);}.cls-6{fill:url(#Degradado_sin_nombre_50-6);}.cls-7{fill:url(#Degradado_sin_nombre_50-7);}.cls-8{fill:url(#Degradado_sin_nombre_50-8);}.cls-9{fill:url(#Degradado_sin_nombre_50-9);}.cls-10{fill:url(#Degradado_sin_nombre_50-10);}.cls-11{fill:url(#Degradado_sin_nombre_50-11);}.cls-12{fill:url(#Degradado_sin_nombre_50-12);}.cls-13{fill:url(#Degradado_sin_nombre_50-13);}.cls-14{fill:url(#Degradado_sin_nombre_50-14);}.cls-15{fill:url(#Degradado_sin_nombre_50-15);}.cls-16{fill:url(#Degradado_sin_nombre_50-16);}.cls-17{fill:url(#Degradado_sin_nombre_50-17);}.cls-18{fill:url(#Degradado_sin_nombre_50-18);}.cls-19{fill:url(#Degradado_sin_nombre_50-19);}.cls-20{fill:url(#Degradado_sin_nombre_50-20);}.cls-21{fill:url(#Degradado_sin_nombre_50-21);}.cls-22{fill:url(#Degradado_sin_nombre_50-22);}.cls-23{fill:url(#Degradado_sin_nombre_50-23);}</style><linearGradient id="Degradado_sin_nombre_50" x1="55.72" y1="28.86" x2="58.7" y2="28.86" gradientUnits="userSpaceOnUse"><stop offset="0" stop-color="#2d2f78"/><stop offset="0.44" stop-color="#2a2a6d"/><stop offset="1" stop-color="#242158"/></linearGradient><linearGradient id="Degradado_sin_nombre_50-2" x1="7.86" y1="44.89" x2="39.16" y2="44.89" xlink:href="#Degradado_sin_nombre_50"/><linearGradient id="Degradado_sin_nombre_50-3" x1="15.55" y1="24.36" x2="31.94" y2="24.36" xlink:href="#Degradado_sin_nombre_50"/><linearGradient id="Degradado_sin_nombre_50-4" x1="11.06" y1="39.56" x2="35.99" y2="39.56" xlink:href="#Degradado_sin_nombre_50"/><linearGradient id="Degradado_sin_nombre_50-5" x1="1.3" y1="45.27" x2="10.48" y2="45.27" xlink:href="#Degradado_sin_nombre_50"/><linearGradient id="Degradado_sin_nombre_50-6" x1="36.98" y1="45.39" x2="45.51" y2="45.39" xlink:href="#Degradado_sin_nombre_50"/><linearGradient id="Degradado_sin_nombre_50-7" x1="15.49" y1="34.34" x2="32.03" y2="34.34" xlink:href="#Degradado_sin_nombre_50"/><linearGradient id="Degradado_sin_nombre_50-8" x1="20.11" y1="9.49" x2="27.47" y2="9.49" xlink:href="#Degradado_sin_nombre_50"/><linearGradient id="Degradado_sin_nombre_50-9" x1="36.65" y1="33.54" x2="57.58" y2="33.54" xlink:href="#Degradado_sin_nombre_50"/><linearGradient id="Degradado_sin_nombre_50-10" x1="15.25" y1="10.74" x2="19.56" y2="10.74" xlink:href="#Degradado_sin_nombre_50"/><linearGradient id="Degradado_sin_nombre_50-11" x1="15.41" y1="16.85" x2="32.09" y2="16.85" xlink:href="#Degradado_sin_nombre_50"/><linearGradient id="Degradado_sin_nombre_50-12" x1="27.94" y1="10.69" x2="32.11" y2="10.69" xlink:href="#Degradado_sin_nombre_50"/><linearGradient id="Degradado_sin_nombre_50-13" x1="46.43" y1="45.27" x2="47.82" y2="45.27" xlink:href="#Degradado_sin_nombre_50"/><linearGradient id="Degradado_sin_nombre_50-14" x1="48.85" y1="28.87" x2="50.67" y2="28.87" xlink:href="#Degradado_sin_nombre_50"/><linearGradient id="Degradado_sin_nombre_50-15" x1="46.35" y1="28.84" x2="47.91" y2="28.84" xlink:href="#Degradado_sin_nombre_50"/><linearGradient id="Degradado_sin_nombre_50-16" x1="43.58" y1="28.86" x2="45.39" y2="28.86" xlink:href="#Degradado_sin_nombre_50"/><linearGradient id="Degradado_sin_nombre_50-17" x1="40.92" y1="28.85" x2="43.2" y2="28.85" xlink:href="#Degradado_sin_nombre_50"/><linearGradient id="Degradado_sin_nombre_50-18" x1="51.06" y1="28.85" x2="53.35" y2="28.85" xlink:href="#Degradado_sin_nombre_50"/><linearGradient id="Degradado_sin_nombre_50-19" x1="38.27" y1="28.86" x2="40.89" y2="28.86" xlink:href="#Degradado_sin_nombre_50"/><linearGradient id="Degradado_sin_nombre_50-20" x1="53.38" y1="28.84" x2="56" y2="28.84" xlink:href="#Degradado_sin_nombre_50"/><linearGradient id="Degradado_sin_nombre_50-21" x1="35.66" y1="28.87" x2="38.55" y2="28.87" xlink:href="#Degradado_sin_nombre_50"/><linearGradient id="Degradado_sin_nombre_50-22" x1="13.55" y1="21.18" x2="15.04" y2="21.18" xlink:href="#Degradado_sin_nombre_50"/><linearGradient id="Degradado_sin_nombre_50-23" x1="32.47" y1="21.15" x2="33.98" y2="21.15" xlink:href="#Degradado_sin_nombre_50"/></defs><title>dust off images</title><path class="cls-1" d="M58.7,26.22c-.43,1.44-.85,2.87-1.27,4.31-.35,1.2-.35,1.21-1.71,1,.38-1.74.75-3.48,1.14-5.21a.53.53,0,0,1,.41-.24c.48,0,.95,0,1.43,0Z"/><path class="cls-2" d="M7.86,35.94l2.31-.7,2.22,7.39c.27.89.54,1.78.79,2.67a.73.73,0,0,0,.81.6q9.74,0,19.47,0a.75.75,0,0,0,.86-.67c.77-3.13,1.57-6.25,2.36-9.38,0-.21.12-.43.2-.7l2,.54c.4.11.3.37.23.64-.77,2.89-1.49,5.8-2.33,8.68a16.25,16.25,0,0,0-.62,5.14c0,1.48,0,3,0,4.48H11.38c0-1.08-.06-2.1,0-3.1a19.83,19.83,0,0,0-1.2-8C9.32,41.05,8.65,38.53,7.86,35.94Z"/><path class="cls-3" d="M23.76,16.77a12.8,12.8,0,0,1,6.6,2.3l.16.09c1.54,1,1.56,1,1.28,2.78a15,15,0,0,1-3,7.26,6.44,6.44,0,0,1-5.07,2.74,6.35,6.35,0,0,1-5-2.71,16.06,16.06,0,0,1-3.14-7.93,1.58,1.58,0,0,1,.94-1.84A14.55,14.55,0,0,1,23,16.83C23.22,16.8,23.49,16.79,23.76,16.77Z"/><path class="cls-4" d="M33,34.14l3,.77c-.16.66-.31,1.29-.47,1.93-.63,2.52-1.28,5-1.89,7.57-.12.47-.33.57-.77.57q-9.12,0-18.23,0c-.49,0-.66-.16-.79-.62-.87-2.95-1.78-5.89-2.67-8.84a4.45,4.45,0,0,1-.11-.51l3.51-.88a6.58,6.58,0,0,0,2.58,4.07,10.27,10.27,0,0,0,5.33,2,10.85,10.85,0,0,0,8.07-2.18,6.28,6.28,0,0,0,2.26-3.41C32.85,34.48,32.9,34.33,33,34.14Z"/><path class="cls-5" d="M7,36.27l3.36,11a1.09,1.09,0,0,1,.07.3q0,3.36,0,6.69H1.34c0-.29,0-.49,0-.69,0-2.86,0-5.72,0-8.58a9,9,0,0,1,3.57-7.25C5.52,37.23,6.25,36.8,7,36.27Z"/><path class="cls-6" d="M40.08,36.17a10.56,10.56,0,0,1,5.24,4.9,1.62,1.62,0,0,1,.18.71q0,6.28,0,12.57a1.38,1.38,0,0,1,0,.26H37c0-.9,0-1.75,0-2.59a23.78,23.78,0,0,1,1.11-8.74c.67-2.19,1.18-4.43,1.77-6.64C40,36.5,40,36.37,40.08,36.17Z"/><path class="cls-7" d="M17.63,29.27c1.64,2,3.47,3.55,6.13,3.54s4.49-1.52,6.12-3.55c.15.75.3,1.38.4,2a3,3,0,0,0,1.4,2.17.68.68,0,0,1,.3.88,5.8,5.8,0,0,1-2.58,3.45,10.48,10.48,0,0,1-11.78-.35,5.57,5.57,0,0,1-2.06-3c-.12-.46-.12-.81.36-1.1a3.6,3.6,0,0,0,1.45-2.81C17.44,30.16,17.53,29.77,17.63,29.27Z"/><path class="cls-8" d="M27.44,14.06a16.85,16.85,0,0,0-7.31,0c0-.88,0-1.68,0-2.48.09-1.88.23-3.77.32-5.65a.55.55,0,0,1,.46-.6,10,10,0,0,1,5.74,0,.63.63,0,0,1,.4.43c.16,2.6.28,5.21.42,7.81C27.47,13.72,27.46,13.85,27.44,14.06Z"/><path class="cls-9" d="M36.7,32.53H57.57a1.89,1.89,0,0,1-2.11,2H44.57c-1.93,0-3.86,0-5.79,0a2,2,0,0,1-2.13-1.81A1.23,1.23,0,0,1,36.7,32.53Z"/><path class="cls-10" d="M15.25,15.6a52.18,52.18,0,0,1,.43-6.13c.37-2,2-3,3.88-3.6-.13,2.43-.32,4.8-.36,7.17a1.42,1.42,0,0,1-1.31,1.65A21.43,21.43,0,0,0,15.25,15.6Z"/><path class="cls-11" d="M32,19.15q-8.19-6.4-16.46,0c0-.91-.1-1.62-.1-2.34a.58.58,0,0,1,.33-.42,19.28,19.28,0,0,1,9.84-1.76,23.81,23.81,0,0,1,6.19,1.76.63.63,0,0,1,.3.45c0,.7,0,1.4,0,2.11Z"/><path class="cls-12" d="M27.94,5.88a5.3,5.3,0,0,1,4.17,5.27c0,1.26,0,2.52,0,3.79,0,.18,0,.36,0,.56-1.19-.39-2.32-.75-3.44-1.15a.62.62,0,0,1-.27-.48c-.11-1.92-.2-3.85-.3-5.77C28,7.38,28,6.66,27.94,5.88Z"/><path class="cls-13" d="M46.43,35.46h1.39V55.08H46.43Z"/><path class="cls-14" d="M48.85,31.61V26.12h1.82c-.15,1.72-.29,3.42-.47,5.12a.56.56,0,0,1-.38.35A6.31,6.31,0,0,1,48.85,31.61Z"/><path class="cls-15" d="M46.35,31.56V26.11h1.56v5.45Z"/><path class="cls-16" d="M45.39,31.58H44.11l-.53-5.45h1.81Z"/><path class="cls-17" d="M42.7,26.13l.5,5.44H41.79l-.87-5.44Z"/><path class="cls-18" d="M52.48,31.58H51.06l.51-5.46h1.78Z"/><path class="cls-19" d="M38.27,26.11H40l.87,5.5c-.41,0-.8,0-1.18,0a.45.45,0,0,1-.29-.25C39,29.62,38.66,27.89,38.27,26.11Z"/><path class="cls-20" d="M54.24,26.11H56l-1.2,5.47H53.38Z"/><path class="cls-21" d="M35.66,26.11h1.7l1.19,5.41-.2.08c-1.17.07-1.17.07-1.49-1.06-.37-1.33-.75-2.66-1.12-4A3.91,3.91,0,0,1,35.66,26.11Z"/><path class="cls-22" d="M15,23.69a4,4,0,0,1-1.48-3.45c0-.64.15-1.31.93-1.57Z"/><path class="cls-23" d="M32.47,23.61,33,18.68c.47.07.65.47.8.9A3.89,3.89,0,0,1,32.47,23.61Z"/></svg>