<?xml version="1.0" encoding="utf-8"?>
<!-- Generator: Adobe Illustrator 24.0.2, SVG Export Plug-In . SVG Version: 6.00 Build 0)  -->
<svg version="1.1" id="Layer_1" xmlns="http://www.w3.org/2000/svg" xmlns:xlink="http://www.w3.org/1999/xlink" x="0px" y="0px"
	 viewBox="0 0 60 60" style="enable-background:new 0 0 60 60;" xml:space="preserve">
<style type="text/css">
	.st0{fill:#242057;}
</style>
<path class="st0" d="M18.5,0.2c-2.1,0.6-3.6,2.3-4.3,4.4C14.1,5.3,14,5.8,14,8.7l0,3.3L9.4,12c-4.2,0.1-4.5,0.1-5.2,0.3
	c-1.5,0.5-2.9,1.8-3.5,3.2C0,17.1,0,16.7,0,30c0,13.5,0,13,0.7,14.6c0.5,1,1.6,2.2,2.4,2.6C4.4,47.9,4.9,48,8.6,48h3.4v5.5
	c0,5,0,5.5,0.2,5.9c0.2,0.5,0.7,0.7,1.2,0.5c0.2-0.1,2.3-2.5,5.2-6l4.9-5.9l8.8-0.1c8.4,0,8.8-0.1,9.5-0.3c2.1-0.8,3.5-2.4,4-4.4
	c0.1-0.4,0.2-0.9,0.2-1.2c0-0.3,0-0.5,0.1-0.5c0.1,0,1.2,1.2,2.5,2.8c1.3,1.6,2.6,3,2.8,3.2c0.5,0.5,1,0.5,1.4,0.1l0.3-0.3v-5.7V36
	h1c2.8,0,5.2-2,5.9-5c0.3-1.2,0.3-24.8,0-26c-0.5-2.2-2-3.9-4-4.7L55,0.1L37.1,0C21.5,0,19.1,0,18.5,0.2z M55.3,2.5
	c1.2,0.5,2.3,1.8,2.6,3.2C58,6.1,58,10.2,58,18.4l0,12.1l-0.3,0.7c-0.4,0.9-1.1,1.7-2,2.1c-0.6,0.3-0.8,0.3-2.4,0.4
	c-2.5,0.1-2.2-0.5-2.3,5.4L50.9,44l-2.4-2.9l-2.4-2.9L46,27.8C46,17.5,46,17.3,45.7,16.6c-0.1-0.4-0.4-1-0.5-1.3
	c-0.4-0.8-1.7-2.2-2.5-2.6C41.3,12,41.8,12,28.4,12H16V8.8c0-2.9,0-3.2,0.2-3.9c0.4-1.3,1.5-2.3,2.8-2.6c0.3-0.1,6.9-0.1,18.1-0.1
	C52.5,2.3,54.8,2.3,55.3,2.5z M41.1,14.3c1.2,0.3,2.2,1.3,2.6,2.6c0.2,0.7,0.2,0.7,0.2,13.3l0,12.5l-0.3,0.6c-0.4,0.8-1,1.5-1.8,1.9
	c-0.6,0.3-0.8,0.4-2.3,0.4c-0.9,0.1-5.1,0.1-9.2,0.1l-7.5,0l-0.4,0.3c-0.2,0.2-2.2,2.5-4.4,5.1l-4,4.9l-0.1-4.9
	c0-2.7-0.1-4.9-0.1-4.9c-0.3-0.3-0.8-0.4-4.7-0.4L5,45.8l-0.7-0.3c-0.8-0.4-1.6-1.2-2-2.1l-0.3-0.7V30.1V17.5l0.3-0.7
	c0.4-1,1.1-1.7,1.8-2.1c0.6-0.3,0.7-0.4,3.1-0.4c1.3-0.1,9.3-0.1,17.8-0.1C37.6,14.2,40.6,14.2,41.1,14.3z"/>
<path class="st0" d="M9.7,23c-0.6,0.3-0.8,1.2-0.3,1.7L9.6,25h6.9c5.5,0,6.9,0,7.1-0.2c0.3-0.3,0.5-0.8,0.3-1.3
	c-0.3-0.8-0.2-0.7-7.4-0.7C12.9,22.9,9.8,22.9,9.7,23z"/>
<path class="st0" d="M9.8,29.5C9.4,29.5,9,30.1,9,30.5c0,0.2,0.1,0.5,0.3,0.7l0.3,0.4l13.1,0c9.1,0,13.2,0,13.5-0.1
	c0.4-0.1,0.5-0.2,0.6-0.6c0.1-0.4,0.1-0.5,0-0.9c-0.1-0.3-0.3-0.5-0.6-0.6C35.8,29.4,10.4,29.3,9.8,29.5z"/>
<path class="st0" d="M9.3,36.3c-0.4,0.4-0.4,1,0,1.4l0.3,0.4l13.1,0c9.3,0,13.2,0,13.5-0.1c0.3-0.1,0.5-0.2,0.6-0.6
	c0.2-0.5,0.1-0.8-0.2-1.2L36.4,36H23H9.6L9.3,36.3z"/>
</svg>
