<?xml version="1.0" encoding="utf-8"?>
<!-- Generator: Adobe Illustrator 24.0.2, SVG Export Plug-In . SVG Version: 6.00 Build 0)  -->
<svg version="1.1" id="Layer_1" xmlns="http://www.w3.org/2000/svg" xmlns:xlink="http://www.w3.org/1999/xlink" x="0px" y="0px"
	 viewBox="0 0 60 60" style="enable-background:new 0 0 60 60;" xml:space="preserve">
<style type="text/css">
	.st0{clip-path:url(#SVGID_2_);}
	.st1{fill:#242057;}
</style>
<g>
	<defs>
		<rect id="SVGID_1_" width="60" height="60"/>
	</defs>
	<clipPath id="SVGID_2_">
		<use xlink:href="#SVGID_1_"  style="overflow:visible;"/>
	</clipPath>
	<g class="st0">
		<path class="st1" d="M28.2,0c-0.9,0.1-2.8,0.5-3.6,0.8c-1.2,0.4-3,1.3-4.1,2.1c-1.2,0.8-3.6,3.2-4.3,4.4c-1.2,1.8-2.1,4-2.6,6.1
			c-0.3,1.4-0.3,5.3,0,6.6c0.5,2.5,1.2,4,3.4,7.4c0.8,1.3,1.5,2.5,1.5,2.6c0,0.1-2.2,1.3-4.8,2.8L9,35.3L4.5,47.1
			C2,53.6,0,59,0,59.2C0,59.5,0.5,60,0.8,60c0.1,0,0.6-0.2,1-0.4c1.7-1,12.9-7.2,13.2-7.4l0.4-0.2l7.2,4c4,2.2,7.3,4,7.4,4
			c0.1,0,3.4-1.8,7.3-4c3.9-2.2,7.2-4,7.2-4c0.1,0,3.3,1.8,7.2,4c3.9,2.2,7.2,4,7.3,4c0.4,0.1,0.9-0.4,0.9-0.8c0-0.2-2-5.6-4.5-12
			L51,35.3l-4.7-2.7c-2.6-1.5-4.8-2.7-4.8-2.8c0-0.1,0.7-1.2,1.5-2.6c2.1-3.3,2.8-4.9,3.4-7.4c0.3-1.4,0.3-5.3,0-6.6
			c-0.4-2.1-1.4-4.3-2.6-6.1C43,6,40.7,3.7,39.3,2.8c-1.9-1.2-3.9-2.1-6-2.5C32.3,0.1,29.2-0.1,28.2,0z M33.2,2.1
			c5.2,1.2,9.3,4.9,11,9.9c0.5,1.5,0.7,2.9,0.7,4.7c0,2.5-0.4,4.5-1.5,6.5c-0.5,1.1-12.4,19.9-12.8,20.4c-0.3,0.3-0.8,0.4-1.1,0.2
			c-0.3-0.2-12.4-19.4-12.9-20.5c-1-2-1.5-4.2-1.5-6.6c0-3.1,0.8-5.8,2.5-8.4c0.8-1.2,2.8-3.2,4.1-4C23.6,3,25.9,2.1,28,1.8
			C29.2,1.7,32,1.8,33.2,2.1z M17.8,35.5c-0.4,1.8-0.7,3.4-0.7,3.5c0,0.3,0.6,0.7,0.9,0.7c0.2,0,0.4-0.1,0.6-0.3
			c0.2-0.2,0.4-0.7,1-3.5c0.4-1.8,0.7-3.2,0.8-3.2c0,0,1.8,2.8,3.9,6.1c3.4,5.4,3.9,6.1,4.4,6.4l0.5,0.3l0,6v6l-0.4-0.2
			c-0.4-0.2-12.2-6.8-12.2-6.9c0,0,0.4-1.9,0.9-4.1c0.8-3.7,0.9-4.1,0.7-4.4c-0.2-0.4-0.6-0.6-1-0.4c-0.2,0.1-0.4,0.2-0.4,0.3
			c-0.1,0.1-0.5,2-0.9,4.2c-0.5,2.2-0.9,4.1-0.9,4.2c0,0.2-12,7-12,6.9c0,0,1.7-4.6,3.8-10.3l3.9-10.2l4-2.3
			c2.2-1.3,4.1-2.2,4.1-2.2C18.5,32.1,18.2,33.7,17.8,35.5z M45.8,34.4l3.8,2.1l3.9,10.2c2.1,5.6,3.9,10.2,3.8,10.3
			c0,0-2.7-1.5-6-3.3c-4.4-2.5-6-3.4-6-3.6c-0.2-0.8-3.8-17.9-3.8-18c0-0.1,0.1-0.1,0.3,0C41.9,32.2,43.7,33.2,45.8,34.4z
			 M41.7,41.4c1,4.8,1.9,8.8,1.9,8.9c0,0.1-11.9,7-12.5,7.2c0,0-0.1-2.7-0.1-6l0-6l0.5-0.3c0.5-0.3,0.9-1,4.4-6.4
			c2.1-3.4,3.9-6.1,3.9-6.1C39.8,32.7,40.6,36.6,41.7,41.4z"/>
		<path class="st1" d="M28.5,7.1c-1.6,0.3-3.2,1-4.5,2c-1.7,1.4-3,3.5-3.4,5.6c-0.2,0.9-0.2,2.9,0,3.8c0.3,1.5,1.1,3.2,2.2,4.5
			c1.1,1.3,3.2,2.5,4.9,3c1.2,0.3,3.6,0.3,4.8,0c4.3-1.2,7.1-4.9,7.1-9.3c0-4.4-2.8-8.1-7.1-9.3C31.6,7.1,29.4,6.9,28.5,7.1z
			 M32.3,9.1c2,0.6,3.8,2.2,4.7,4c0.7,1.3,0.8,2.1,0.8,3.6s-0.2,2.3-0.8,3.6c-0.4,0.8-0.7,1.2-1.4,1.9c-1.7,1.7-3.3,2.3-5.6,2.3
			c-2.3,0-3.9-0.7-5.6-2.3c-1.6-1.6-2.3-3.3-2.3-5.5c0-1.4,0.2-2.3,0.8-3.6c0.8-1.6,2.4-3.2,4.1-3.8C28.7,8.7,30.7,8.6,32.3,9.1z"/>
		<path class="st1" d="M28.6,10.7c-2,0.5-3.8,2.1-4.4,4.1c-0.3,1-0.3,2.7,0,3.7c0.6,2,2.4,3.6,4.5,4.1c3.1,0.7,6.3-1.1,7.2-4.1
			c0.3-1,0.3-2.7,0-3.7C34.9,11.8,31.7,10,28.6,10.7z M31.3,12.5c1.9,0.6,3,2.2,3,4.2c0,2-1.2,3.6-3,4.2c-0.9,0.3-1.7,0.3-2.6,0
			c-1.3-0.4-2.3-1.3-2.8-2.7c-0.4-0.9-0.3-2.5,0.2-3.4c0.6-1.2,1.5-1.9,2.6-2.3C29.6,12.2,30.4,12.2,31.3,12.5z"/>
	</g>
</g>
</svg>
