<svg id="Layer_1" data-name="Layer 1" xmlns="http://www.w3.org/2000/svg" viewBox="0 0 142.47 133.28"><defs><style>.cls-1{fill:#fff;}</style></defs><title>dust off language</title><path class="cls-1" d="M50.36,24.85c0-2.79,0-5.46,0-8.12A4.11,4.11,0,0,1,56.58,13a3.92,3.92,0,0,1,2.11,3.8c0,2.23,0,4.47,0,6.7v1.41c1.83,0,23.73,0,33,0,3,0,5,2.24,4.49,5-.36,2-2.13,3.34-4.56,3.36-3.07,0-6.14.07-9.21,0a1.65,1.65,0,0,0-1.92,1.38A130.56,130.56,0,0,1,69.77,59.44c-2.49,4.38-5.29,8.57-8,13a5.41,5.41,0,0,0,.56.69c3.85,3.7,7.7,7.41,11.58,11.08A4.16,4.16,0,0,1,70.4,91.5a5.14,5.14,0,0,1-2.17-1.13c-3.69-3.42-7.34-6.9-11-10.38a8.3,8.3,0,0,1-.84-1c-3.86,3.77-7.48,7.46-11.28,11A120.3,120.3,0,0,1,27.9,103.26a4.22,4.22,0,0,1-5.63-.45A4.16,4.16,0,0,1,22,97.39a5.58,5.58,0,0,1,1.39-1.17,129.86,129.86,0,0,0,26.51-23c.63-.7.46-1.12,0-1.76A175.09,175.09,0,0,1,34.4,48.26c-1.72-3.11-.09-6.44,3.2-6.59a4.12,4.12,0,0,1,4,2.41A174.84,174.84,0,0,0,55.31,64.79c.18.24.39.45.72.82,7.18-9.89,12.12-20.77,16.19-32.31-2.45,0-38.74,0-54.65,0-2.74,0-4.56-1.45-4.76-3.72A4.15,4.15,0,0,1,17.18,25c6,0,27.48,0,32.22,0C49.66,24.93,49.91,24.89,50.36,24.85Z"/><path class="cls-1" d="M129.67,116.12c0,2.57-1.3,4.11-3.31,4.56a4,4,0,0,1-4.69-2.47c-1.69-3.8-3.31-7.63-4.94-11.45-1.1-2.6-1.08-2.61-3.87-2.61-8.77,0-17.53,0-26.3,0a1.58,1.58,0,0,0-1.74,1.13c-1.76,4.24-3.59,8.46-5.43,12.67a4.22,4.22,0,0,1-4.26,2.85A4.1,4.1,0,0,1,71.6,115c.93-2.35,2-4.67,3-7Q85.41,82.74,96.26,57.53a6.61,6.61,0,0,1,1.64-2.47c2.3-1.87,5.22-1,6.53,1.92,1.69,3.75,3.27,7.55,4.9,11.33q9.74,22.68,19.46,45.37C129.2,114.63,129.5,115.63,129.67,116.12ZM112,95.73c-3.85-9-7.62-17.75-11.53-26.85C96.54,78,92.77,86.79,88.94,95.73Z"/></svg>