<svg id="Layer_1" data-name="Layer 1" xmlns="http://www.w3.org/2000/svg" xmlns:xlink="http://www.w3.org/1999/xlink" viewBox="0 0 40 40"><defs><style>.cls-1{fill:none;stroke:#2c2e75;stroke-miterlimit:10;}.cls-2{fill:url(#Degradado_sin_nombre_50);}.cls-3{fill:url(#Degradado_sin_nombre_50-2);}.cls-4{fill:url(#Degradado_sin_nombre_50-3);}.cls-5{fill:url(#Degradado_sin_nombre_50-4);}.cls-6{fill:url(#Degradado_sin_nombre_50-5);}</style><linearGradient id="Degradado_sin_nombre_50" x1="11.19" y1="31.67" x2="22.93" y2="31.67" gradientUnits="userSpaceOnUse"><stop offset="0" stop-color="#2d2f78"/><stop offset="0.44" stop-color="#2a2a6d"/><stop offset="1" stop-color="#242158"/></linearGradient><linearGradient id="Degradado_sin_nombre_50-2" x1="14.13" y1="23.48" x2="36.68" y2="23.48" xlink:href="#Degradado_sin_nombre_50"/><linearGradient id="Degradado_sin_nombre_50-3" x1="18.77" y1="20.56" x2="34.55" y2="20.56" xlink:href="#Degradado_sin_nombre_50"/><linearGradient id="Degradado_sin_nombre_50-4" x1="27.95" y1="28.44" x2="31.8" y2="28.44" xlink:href="#Degradado_sin_nombre_50"/><linearGradient id="Degradado_sin_nombre_50-5" x1="18.55" y1="24.1" x2="21.9" y2="24.1" xlink:href="#Degradado_sin_nombre_50"/></defs><title>dust off images</title><path class="cls-1" d="M27.5,4.07a10.53,10.53,0,0,1,3.23,2.3,6.45,6.45,0,0,1,1.32,2.19,1.27,1.27,0,0,1-.2,1.33,9.14,9.14,0,0,1-1.21,1.2,22.28,22.28,0,0,1-4.3,2.06,2.42,2.42,0,0,1-3.21-1.3A13.68,13.68,0,0,1,22.57,10a.45.45,0,0,0-.34-.38,4.5,4.5,0,0,0-2.69.16,20,20,0,0,0-5.06,2.75,12.25,12.25,0,0,0-2.54,2.23,4.54,4.54,0,0,0-1,2,.37.37,0,0,0,.21.45A5.49,5.49,0,0,1,13,19.13a2,2,0,0,1-.26,2.53,14.46,14.46,0,0,1-4.27,3.47c-1.77.83-2.22.64-3.31-.85a9.06,9.06,0,0,1-1.35-3.85,3.89,3.89,0,0,1,.87-3.05,27.17,27.17,0,0,1,4.75-5.5c1.2-1.07,2.46-2.07,3.74-3a23,23,0,0,1,4.54-2.41A28.92,28.92,0,0,1,25.94,4.1,7,7,0,0,1,27.5,4.07Z"/><path class="cls-2" d="M18.7,34l-.22.16a2.67,2.67,0,0,1-2.83.52A2.46,2.46,0,0,1,14,32.52a3.24,3.24,0,0,1,2.51-3.87,6.81,6.81,0,0,1,3.29.26.41.41,0,0,1,.16.33c0,1-.09,2-.12,3.06a2,2,0,0,0,.05.69c.07.17.22.4.38.43a.74.74,0,0,0,.57-.19,1.62,1.62,0,0,0,.37-.65,5,5,0,0,0,0-3A3.17,3.17,0,0,0,19,27.39a4.68,4.68,0,0,0-5,1.14A4.49,4.49,0,0,0,13.16,30a5.6,5.6,0,0,0-.3,3.14,3.53,3.53,0,0,0,3.51,3.08,8.28,8.28,0,0,0,3.24-.46l.49-.16c0,.43,0,.82,0,1.21a.38.38,0,0,1-.24.22,14.52,14.52,0,0,1-1.92.47,7.48,7.48,0,0,1-3.48-.3,4.48,4.48,0,0,1-3.09-3.48,6.49,6.49,0,0,1,1.49-6,5.9,5.9,0,0,1,4.07-1.87,6.44,6.44,0,0,1,2.85.37,4.74,4.74,0,0,1,3.13,4.21,5.16,5.16,0,0,1-.39,2.71,2.4,2.4,0,0,1-2.74,1.57,2.6,2.6,0,0,1-.87-.48A1.33,1.33,0,0,1,18.7,34Zm-.37-3.1h0c0-.24,0-.48,0-.72a.34.34,0,0,0-.16-.26,2,2,0,0,0-2.27.77,2.46,2.46,0,0,0-.18,2.1,1,1,0,0,0,.73.65,1.21,1.21,0,0,0,1.6-.85A16,16,0,0,0,18.33,30.88Z"/><path class="cls-3" d="M24.07,30.15l1.21.35,6.2,1.82c.29.09.37,0,.45-.27,1-3.27,1.92-6.53,2.88-9.8.22-.76.45-1.52.67-2.28,0-.11.06-.23.1-.37a2,2,0,0,0-.28-.11l-16.36-4.8-.12,0c-.31-.14-.42,0-.5.29-.28,1-.58,2-.87,3l-2,6.71a.48.48,0,0,1-.38.38,8.47,8.47,0,0,0-1,.33c.1-.39.2-.73.3-1.07l2.91-9.86a1.13,1.13,0,0,1,1.57-.86l15,4.4c.59.18,1.19.34,1.78.51a1.16,1.16,0,0,1,.91,1.65c-1.17,4-2.36,8-3.54,12,0,.17-.09.34-.14.5a1.13,1.13,0,0,1-1.52.82l-2.72-.79L24.4,31.39c-.22-.06-.31-.15-.29-.38S24.09,30.49,24.07,30.15Z"/><path class="cls-4" d="M24.94,25.35,23.3,23,19,16.79a.76.76,0,0,1-.08-.11.55.55,0,0,1,.12-.81.57.57,0,0,1,.8.19l1.75,2.52,3.59,5.17c.16.23.29.17.47.08l8-3.7a1.38,1.38,0,0,1,.34-.12.5.5,0,0,1,.59.31.52.52,0,0,1-.2.67,1.59,1.59,0,0,1-.29.15l-8.88,4.13Z"/><path class="cls-5" d="M31.8,31.15c-.14.14-.26.34-.44.43a.47.47,0,0,1-.64-.25c-.25-.45-.48-.92-.72-1.37-.64-1.26-1.29-2.52-1.94-3.78-.2-.39-.12-.73.2-.87a.56.56,0,0,1,.76.33l1.87,3.62c.25.49.5,1,.74,1.47A4.39,4.39,0,0,1,31.8,31.15Z"/><path class="cls-6" d="M18.55,24.67c.9-.51,1.71-1,2.54-1.42a.54.54,0,1,1,.52.95c-.45.27-.91.52-1.37.78A.44.44,0,0,1,20,25Z"/></svg>