<svg id="Layer_1" data-name="Layer 1" xmlns="http://www.w3.org/2000/svg" xmlns:xlink="http://www.w3.org/1999/xlink" viewBox="0 0 40 40"><defs><style>.cls-1{fill:url(#Degradado_sin_nombre_50);}.cls-2{fill:url(#Degradado_sin_nombre_50-2);}.cls-3{fill:url(#Degradado_sin_nombre_50-3);}.cls-4{fill:url(#Degradado_sin_nombre_50-4);}.cls-5{fill:url(#Degradado_sin_nombre_50-5);}.cls-6{fill:url(#Degradado_sin_nombre_50-6);}.cls-7{fill:url(#Degradado_sin_nombre_50-7);}.cls-8{fill:url(#Degradado_sin_nombre_50-8);}.cls-9{fill:url(#Degradado_sin_nombre_50-9);}.cls-10{fill:url(#Degradado_sin_nombre_50-10);}.cls-11{fill:url(#Degradado_sin_nombre_50-11);}</style><linearGradient id="Degradado_sin_nombre_50" x1="5.78" y1="24.32" x2="33.23" y2="24.32" gradientUnits="userSpaceOnUse"><stop offset="0" stop-color="#2d2f78"/><stop offset="0.44" stop-color="#2a2a6d"/><stop offset="1" stop-color="#242158"/></linearGradient><linearGradient id="Degradado_sin_nombre_50-2" x1="22.07" y1="9.04" x2="33.24" y2="9.04" xlink:href="#Degradado_sin_nombre_50"/><linearGradient id="Degradado_sin_nombre_50-3" x1="8.61" y1="14.07" x2="16.42" y2="14.07" xlink:href="#Degradado_sin_nombre_50"/><linearGradient id="Degradado_sin_nombre_50-4" x1="17.86" y1="5.5" x2="19.75" y2="5.5" xlink:href="#Degradado_sin_nombre_50"/><linearGradient id="Degradado_sin_nombre_50-5" x1="15.31" y1="8.09" x2="17.35" y2="8.09" xlink:href="#Degradado_sin_nombre_50"/><linearGradient id="Degradado_sin_nombre_50-6" x1="29.32" y1="17.43" x2="31.53" y2="17.43" xlink:href="#Degradado_sin_nombre_50"/><linearGradient id="Degradado_sin_nombre_50-7" x1="32.71" y1="17.43" x2="34.89" y2="17.43" xlink:href="#Degradado_sin_nombre_50"/><linearGradient id="Degradado_sin_nombre_50-8" x1="17.89" y1="8.05" x2="19.81" y2="8.05" xlink:href="#Degradado_sin_nombre_50"/><linearGradient id="Degradado_sin_nombre_50-9" x1="15.37" y1="5.51" x2="17.27" y2="5.51" xlink:href="#Degradado_sin_nombre_50"/><linearGradient id="Degradado_sin_nombre_50-10" x1="31.53" y1="19.11" x2="32.68" y2="19.11" xlink:href="#Degradado_sin_nombre_50"/><linearGradient id="Degradado_sin_nombre_50-11" x1="31.55" y1="15.75" x2="32.69" y2="15.75" xlink:href="#Degradado_sin_nombre_50"/></defs><title>dust off images</title><path class="cls-1" d="M23.38,21.9h6.89a2.23,2.23,0,0,1,2,3.52l-.06.14a2.31,2.31,0,0,1-.39,4.07c.56,1.72.3,2.5-1.13,3.35a6.68,6.68,0,0,1,.27.83,2.22,2.22,0,0,1-2.2,2.65q-5.22,0-10.44,0a6.52,6.52,0,0,1-3.15-.87,15.45,15.45,0,0,0-1.73-.73c-.27-.11-.42,0-.55.27a2.17,2.17,0,0,1-2.13,1.34H8.12A2.2,2.2,0,0,1,5.8,34.25c0-3.74,0-7.48,0-11.22A2.2,2.2,0,0,1,8.09,20.8c.9,0,1.79,0,2.68,0a2.14,2.14,0,0,1,2.09,1.31.42.42,0,0,0,.57.27,8.06,8.06,0,0,0,1.39-.45,11.73,11.73,0,0,0,3.92-3.18,3.9,3.9,0,0,0,.81-3.44c-.35-1.57.19-2.6,1.51-3a2.51,2.51,0,0,1,2.74.86,4.82,4.82,0,0,1,1.11,3.61,11.91,11.91,0,0,1-1.24,4.52ZM13.15,23.58s0,.05,0,.07c0,3.25,0,6.5,0,9.75,0,.1.18.26.3.31.76.3,1.55.52,2.27.89a5.87,5.87,0,0,0,2.6.72H28.71a1.11,1.11,0,1,0,0-2.22c-.49,0-1,0-1.47,0s-.72-.11-.72-.57.33-.56.72-.56h2.46c.78,0,1.25-.42,1.26-1.09s-.48-1.13-1.28-1.13-1.68,0-2.52,0c-.45,0-.7-.27-.64-.64s.39-.48.75-.48h3.51c.81,0,1.31-.44,1.31-1.11s-.5-1.12-1.3-1.12H27.34c-.57,0-.84-.19-.81-.58s.4-.55.79-.55c1,0,2,0,2.94,0a1.75,1.75,0,0,0,.75-.17,1.05,1.05,0,0,0,.49-1.21A1.1,1.1,0,0,0,30.37,23H22.5c-.59,0-.81-.4-.54-.92.12-.23.26-.46.38-.69a11,11,0,0,0,1.46-5.08,3.55,3.55,0,0,0-.87-2.47,1.41,1.41,0,0,0-1.75-.41c-.55.27-.74.67-.54,1.52a5.16,5.16,0,0,1-1.5,5C17.47,21.75,15.63,23.23,13.15,23.58ZM12,28.6V23.25c0-.92-.43-1.34-1.36-1.35s-1.6,0-2.41,0a1.14,1.14,0,0,0-1.27,1.26V34.08A1.13,1.13,0,0,0,8.2,35.33c.8,0,1.6,0,2.41,0S12,34.94,12,34Z"/><path class="cls-2" d="M33.24,9a.6.6,0,0,1-.63.57,7.92,7.92,0,0,0-1.19.16c-1.87.5-2.7,1.9-3.08,3.66a8.1,8.1,0,0,0-.13,1.09c0,.37-.16.67-.58.67s-.5-.3-.58-.66A12.64,12.64,0,0,0,26.43,12a3.78,3.78,0,0,0-3.52-2.38c-.12,0-.28,0-.36,0s-.49-.34-.48-.5a.85.85,0,0,1,.46-.57,4.64,4.64,0,0,1,.93-.11A4.29,4.29,0,0,0,27,4.57a8.94,8.94,0,0,0,.11-1c0-.35.16-.62.55-.64s.53.27.6.64A13.86,13.86,0,0,0,28.77,6a3.81,3.81,0,0,0,3.61,2.5C32.79,8.47,33.16,8.52,33.24,9ZM25.16,9a5.58,5.58,0,0,1,2.47,2.78A5.64,5.64,0,0,1,30.1,9a5.68,5.68,0,0,1-2.47-2.78A5.63,5.63,0,0,1,25.16,9Z"/><path class="cls-3" d="M12.51,9.6c.41,0,.53.31.59.68A8.22,8.22,0,0,0,13.52,12a2.27,2.27,0,0,0,2.15,1.5c.4,0,.76.13.75.61s-.36.52-.75.55c-1.43.1-2.36,1.15-2.55,2.85,0,.15,0,.31,0,.47,0,.33-.2.57-.56.57s-.52-.26-.57-.62a7,7,0,0,0-.27-1.38,2.49,2.49,0,0,0-2.42-1.9c-.36,0-.62-.16-.65-.54s.21-.53.54-.59c1.9-.35,2.63-1.17,2.79-3.17C12,9.94,12.07,9.65,12.51,9.6Zm0,3.12-1.19,1.35,1.19,1.37,1.18-1.37Z"/><path class="cls-4" d="M19.32,4.54c.11.08.33.17.38.31a.69.69,0,0,1,0,.58,5.45,5.45,0,0,1-1,1,.71.71,0,0,1-.65,0c-.14-.09-.25-.48-.17-.57A14.46,14.46,0,0,1,19.05,4.6S19.18,4.57,19.32,4.54Z"/><path class="cls-5" d="M17.35,7.59a2.84,2.84,0,0,1-.26.45c-.26.29-.53.55-.81.81a.51.51,0,0,1-.78,0,.5.5,0,0,1,0-.78,6.13,6.13,0,0,1,.85-.84.81.81,0,0,1,.61-.1C17.11,7.2,17.21,7.43,17.35,7.59Z"/><path class="cls-6" d="M30.44,18c-.19,0-.41.06-.56,0s-.49-.3-.54-.51.18-.56.52-.58a3.62,3.62,0,0,1,1.14,0,.83.83,0,0,1,.52.53c.06.33-.2.54-.55.56C30.79,18,30.62,18,30.44,18Z"/><path class="cls-7" d="M33.78,18c-.19,0-.42.06-.57,0s-.5-.34-.5-.53.27-.49.48-.54a3.68,3.68,0,0,1,1.15,0,.52.52,0,0,1,.55.57.54.54,0,0,1-.58.54c-.18,0-.35,0-.53,0Z"/><path class="cls-8" d="M19.81,8.55c-.1.12-.19.34-.35.4a.73.73,0,0,1-.58-.06A5,5,0,0,1,18,8a.66.66,0,0,1,0-.64c.11-.14.51-.26.62-.17a10.93,10.93,0,0,1,1.14,1.12S19.77,8.4,19.81,8.55Z"/><path class="cls-9" d="M15.83,4.5a2.59,2.59,0,0,1,.46.26c.27.24.53.51.78.77a.56.56,0,1,1-.76.81,6.83,6.83,0,0,1-.84-.86.71.71,0,0,1-.07-.57C15.46,4.75,15.67,4.64,15.83,4.5Z"/><path class="cls-10" d="M31.57,19.08c0-.21-.07-.46,0-.62a.87.87,0,0,1,.54-.43.66.66,0,0,1,.49.41,3.78,3.78,0,0,1,0,1.3.66.66,0,0,1-.51.44c-.2,0-.42-.28-.53-.49s0-.4,0-.61Z"/><path class="cls-11" d="M31.56,15.73c0-.18,0-.35,0-.52,0-.36.22-.61.55-.54a.8.8,0,0,1,.52.51,2.58,2.58,0,0,1,0,1.14.8.8,0,0,1-.52.51c-.34.08-.53-.18-.55-.53C31.55,16.11,31.56,15.92,31.56,15.73Z"/></svg>