<svg id="Layer_1" data-name="Layer 1" xmlns="http://www.w3.org/2000/svg" viewBox="0 0 40 40"><defs><style>.cls-1{fill:#282766;}</style></defs><title>dust off icon</title><path class="cls-1" d="M18.19,19.39a6.28,6.28,0,0,0-7.65-.87A5.93,5.93,0,0,0,8,21.66a6.32,6.32,0,0,0,.83,5.84l.53.79v0l.75.5A6.74,6.74,0,0,0,13.34,30a6,6,0,0,0,3.27-.65,6.17,6.17,0,0,0,1.58-9.91Zm-.78,8.1A5.17,5.17,0,0,1,13.78,29h-.1a5.14,5.14,0,0,1-3.31-9,4.75,4.75,0,0,1,3.48-1.34,4.89,4.89,0,0,1,3.57,1.45,5.11,5.11,0,0,1,0,7.42Z"/><path class="cls-1" d="M9.36,28.3l-.28.82s0,.08,0,.11a1.76,1.76,0,0,0-.11.4,1.06,1.06,0,0,1-.27.57l-.25.27L7.93,31,4.78,34.13,3.33,35.59,2,34.27l.33-.33,4.31-4.3.74-.73,0,0a.64.64,0,0,1,.2-.1l.52-.15.29-.07Z"/><path class="cls-1" d="M11.8,25.75l-.65.67A4,4,0,0,1,10,23.68a3.9,3.9,0,0,1,1.13-2.53c.21.23.42.44.65.67A2.92,2.92,0,0,0,11.8,25.75Z"/><path class="cls-1" d="M11.8,25.75l-.65.67A4,4,0,0,1,10,23.68a3.9,3.9,0,0,1,1.13-2.53c.21.23.42.44.65.67A2.92,2.92,0,0,0,11.8,25.75Z"/><path class="cls-1" d="M34.52,33.7v.78H8.84l.07-.07c.6-.6,2.35-2.75,2.35-2.75a7.46,7.46,0,0,0,2.6.41A8.31,8.31,0,0,0,16.75,16l.78-.7h0L21.18,12l.32.28,1,.88,12,10.63h0C34.51,27.1,34.51,30.46,34.52,33.7Z"/><path class="cls-1" d="M38.38,19.72l-1.61,1.8L21.15,7.59l-8.77,8A8.28,8.28,0,0,0,6,21.15,22.59,22.59,0,0,1,4,19.7C8.68,15.46,13.46,11.14,18.08,7l3.11-2.8Z"/></svg>