<svg id="Layer_1" data-name="Layer 1" xmlns="http://www.w3.org/2000/svg" viewBox="0 0 40 40"><defs><style>.cls-1{fill:#282766;}</style></defs><title>dust off icon</title><path class="cls-1" d="M30.7,25.82c.32-1.76-.74-2.28-1.71-2a1.24,1.24,0,0,0-.75,1.41c0,.48,0,1,0,1.47v7.84c0,.24,0,.47,0,.71a1.5,1.5,0,0,1-1.47,1.55c-.8,0-1.33-.62-1.34-1.57V28.39c0-3.73,0-7.45,0-11.17A4.58,4.58,0,0,0,24,13.76Q21.24,11,18.51,8.31c-.2-.19-.4-.38-.59-.59a1.26,1.26,0,0,1-.11-1.85,1.35,1.35,0,0,1,2,.06q2.2,2.18,4.38,4.36a3.15,3.15,0,0,0,2.43,1c2.27,0,4.54,0,6.81,0a3.09,3.09,0,0,1,3.09,2.31,4.71,4.71,0,0,1,.11,1.06c0,2.73,0,5.47,0,8.2,0,1.13-.41,1.69-1.22,1.68S34,23.93,34,22.87V15.69a2,2,0,0,0,0-.54c0-.14-.18-.25-.27-.37-.09.13-.25.26-.26.4,0,.53,0,1.07,0,1.6q0,9.15,0,18.3c0,1-.47,1.67-1.26,1.7a1.47,1.47,0,0,1-1.55-1.59c0-3.13,0-6.26,0-9.38Z"/><path class="cls-1" d="M3.22,28.63c0-.77,0-1.54,0-2.31a2.24,2.24,0,0,1,.14-.87.74.74,0,0,1,.54-.37.71.71,0,0,1,.55.32,1.38,1.38,0,0,0,1.71.79,1.62,1.62,0,0,0,1.41-1.52,1.77,1.77,0,0,0-.86-1.81c-.64-.33-1.15-.21-1.83.4a4,4,0,0,1-.44.39.71.71,0,0,1-1.17-.49,2.42,2.42,0,0,1,0-.47c0-1.58,0-3.17,0-4.75,0-.69.17-.84.84-.84,1.53,0,3.05,0,4.58,0a3.14,3.14,0,0,0,.85-.28A3.13,3.13,0,0,0,9.1,16c-1-1.09-1-2.2-.18-3a2.57,2.57,0,0,1,2.89-.27,1.85,1.85,0,0,1,.57,2.84,5.57,5.57,0,0,0-.51.58,1,1,0,0,0-.2.67c0,.15.37.27.58.29a13.4,13.4,0,0,0,1.42,0h3.15c.76,0,.91.15.92.9v4.27a3.27,3.27,0,0,0,0,.77c.05.19.18.44.34.49a.75.75,0,0,0,.57-.16c.43-.27.8-.63,1.25-.87A1.54,1.54,0,0,1,22,23a2.85,2.85,0,0,1,.07,3,1.65,1.65,0,0,1-2.46.54c-.27-.19-.49-.46-.77-.64s-.54-.31-.72-.24a.89.89,0,0,0-.33.68c0,1.52,0,3,0,4.57,0,.85-.14,1-1,1H12.47c-.47,0-1,.1-1.27-.43s.16-.91.5-1.28c.74-.84.73-1.66,0-2.27A2,2,0,0,0,9,28.26a1.42,1.42,0,0,0,.18,2c.34.39.82.74.55,1.32S8.93,32,8.45,32C7,32,5.56,32,4.11,32c-.75,0-.89-.18-.89-.93s0-1.63,0-2.44Z"/><path class="cls-1" d="M26,6.84a3.45,3.45,0,1,1,3.45,3.42A3.43,3.43,0,0,1,26,6.84Z"/><path class="cls-1" d="M17.22,35c0-.84.26-1.24.66-1.23s.56.24.57.61c0,.69-.26,1.11-.69,1C17.52,35.33,17.33,35.08,17.22,35Z"/><path class="cls-1" d="M21,33c-.84,0-1.27-.23-1.27-.63s.25-.56.62-.56c.64,0,1.1.25,1,.62S21.09,32.9,21,33Z"/><path class="cls-1" d="M20.49,34.14a3.58,3.58,0,0,1-.84.54c-.32.07-1-.66-.86-1s.49-.55.55-.51A10.29,10.29,0,0,1,20.49,34.14Z"/><path class="cls-1" d="M13,6c-.23.16-.58.49-.68.43a3.6,3.6,0,0,1-.87-.91s.44-.53.52-.5a6,6,0,0,1,1,.71Z"/><path class="cls-1" d="M12.87,7.29c0,.52-.58,1.18-.91,1.1a.89.89,0,0,1-.54-.5c-.11-.34.5-1,.87-.94A1.68,1.68,0,0,1,12.87,7.29Z"/><path class="cls-1" d="M14.92,5.68a5.56,5.56,0,0,1-1,.77c-.09,0-.39-.35-.6-.54A6.36,6.36,0,0,1,14.24,5c.09-.06.42.25.64.39Z"/><path class="cls-1" d="M14.89,8a2.32,2.32,0,0,1-.64.43c-.33.08-1-.59-.92-.9s.47-.57.56-.53a7.06,7.06,0,0,1,1,.73Z"/><path class="cls-1" d="M7,10.56c-.22.14-.49.43-.64.38a1.18,1.18,0,0,1-.64-.62c0-.1.37-.56.51-.53s.52.32.78.51Z"/><path class="cls-1" d="M4.93,9.82c-.28-.4-.56-.64-.59-.9s.31-.5.52-.53A.56.56,0,0,1,5.51,9C5.48,9.26,5.21,9.45,4.93,9.82Z"/><path class="cls-1" d="M6.16,9.66C6,9.45,5.74,9.25,5.72,9a.57.57,0,0,1,.66-.64c.2,0,.55.36.52.48a3.13,3.13,0,0,1-.49.81Z"/><path class="cls-1" d="M5.8,10.34c-.45.29-.7.56-1,.61-.13,0-.52-.45-.48-.56A1.19,1.19,0,0,1,5,9.79C5.14,9.75,5.4,10.06,5.8,10.34Z"/></svg>