<svg id="Layer_1" data-name="Layer 1" xmlns="http://www.w3.org/2000/svg" xmlns:xlink="http://www.w3.org/1999/xlink" viewBox="0 0 40 40"><defs><style>.cls-1{fill:url(#Degradado_sin_nombre_50);}.cls-2{fill:url(#Degradado_sin_nombre_50-2);}</style><linearGradient id="Degradado_sin_nombre_50" x1="3.4" y1="20.59" x2="37.06" y2="20.59" gradientUnits="userSpaceOnUse"><stop offset="0" stop-color="#2d2f78"/><stop offset="0.44" stop-color="#2a2a6d"/><stop offset="1" stop-color="#242158"/></linearGradient><linearGradient id="Degradado_sin_nombre_50-2" x1="11.01" y1="10.26" x2="21.68" y2="10.26" xlink:href="#Degradado_sin_nombre_50"/></defs><title>dust off images</title><path class="cls-1" d="M36.66,24.39c-.32-.54-.63-1.08-.94-1.63-.94-1.61-1.9-3.29-2.84-4.94a1.8,1.8,0,0,1-.22-.83c0-.72,0-1.46,0-2.17s0-1.67,0-2.5a1.12,1.12,0,0,0-.3-.71c-2.43-2.47-5-5-7.56-7.57a1,1,0,0,0-.67-.28H8.71c-.72,0-.89.17-.89.89V7.82c0,2.69,0,5.46,0,8.19a6.13,6.13,0,0,1-1,3.54c-.84,1.34-1.64,2.75-2.41,4.11L3.73,25a2.23,2.23,0,0,0,.81,3.1,2.32,2.32,0,0,0,3-.16h0l.56.37v0a.64.64,0,0,1,0,.07l0,.08A2.24,2.24,0,0,0,8,30.26a2.2,2.2,0,0,0,1.37,1.16.48.48,0,0,1,.25.36,2.41,2.41,0,0,0,2.18,2.13h0v0c.34,1.66,1.15,2.22,2.92,2h0l.32.4a4.27,4.27,0,0,0,.68.72,2.08,2.08,0,0,0,2.73-.27l.93-.92.42-.42,0,0,0,0,.39.29.77.59a2,2,0,0,0,3-.82l.09-.22.05-.13h0a2.39,2.39,0,0,0,2-.24A2,2,0,0,0,27,33.45v0h0a3.89,3.89,0,0,1,.5-.25,3.22,3.22,0,0,0,.9-.57,2.86,2.86,0,0,0,.52-.92c.06-.14.12-.3.19-.44s.12-.11.21-.13a2,2,0,0,0,1.69-1.85.5.5,0,0,1,.11-.26l1.25-1.26.38-.38,0,0,.06,0,.05,0a2.36,2.36,0,0,0,3.32,0A2.26,2.26,0,0,0,36.66,24.39ZM24.89,6.1l5.41,5.41H24.89ZM9.09,5H23.63v6.91c0,.67.18.85.88.85h6.88v2.91l0,0-.09,0-.2-.07a2.44,2.44,0,0,0-2.18.17,2.4,2.4,0,0,0-1.22,1.76,2.12,2.12,0,0,0,0,.56c0,.12,0,.25,0,.38a.44.44,0,0,1-.14.34,2.36,2.36,0,0,1-1.26.46,1.72,1.72,0,0,1-.73-.17,8.62,8.62,0,0,0-3.81-.84c-.5,0-1,.05-1.49.09s-1.12.08-1.69.09c-1.32,0-2.68,0-4,0H12.88v0a2.58,2.58,0,0,0-3.75-2.25l0,0ZM6.85,26.73a1.08,1.08,0,0,1-1,.6h0a1.53,1.53,0,0,1-1.1-.68,1.07,1.07,0,0,1,.08-1.16l.79-1.36c1.21-2.08,2.46-4.24,3.67-6.38a1.26,1.26,0,0,1,.84-.69,1.42,1.42,0,0,1,1.15.44,1,1,0,0,1,.13,1.28c-.38.66-.76,1.33-1.14,2l-.56,1-.63,1.09Zm3,3.52A.8.8,0,0,1,9.27,30a.81.81,0,0,1,0-1.18c.41-.43.82-.84,1.24-1.24a.75.75,0,0,1,.88-.16.86.86,0,0,1,.49.88h0a.79.79,0,0,0,0,.09,1.52,1.52,0,0,1-.21.36c-.4.43-.82.84-1.21,1.21A.92.92,0,0,1,9.83,30.25Zm2.55,2.14a1.16,1.16,0,0,1-.36.23l-.11.05h0a1.11,1.11,0,0,1-1-.65.76.76,0,0,1,.19-.94l.83-.84,1.54-1.53a.82.82,0,0,1,1.27.05.79.79,0,0,1,0,1.24C13.91,30.89,13.13,31.67,12.38,32.39Zm2.18,2.18a.85.85,0,0,1-.58.23.93.93,0,0,1-.66-.29.87.87,0,0,1,0-1.23c.7-.73,1.46-1.5,2.39-2.4A1,1,0,0,1,16,30.7l.09,0h0a.93.93,0,0,1,.94.5.85.85,0,0,1-.11,1C16.08,33.08,15.29,33.87,14.56,34.57Zm4.55-.22C18.56,35,18,35.53,17.42,36a.61.61,0,0,1-.32.14l-.09,0h0a1,1,0,0,1-.88-.51.8.8,0,0,1,.09-1c.56-.61,1.08-1.13,1.61-1.61a.91.91,0,0,1,1.29,1.24Zm10.64-4.8a1,1,0,0,1-1.16.31,5,5,0,0,1-.45-.3L28,29.48l-1.77-1.27L22.8,25.74l-.05,0c-.12-.09-.27-.2-.37-.18a1,1,0,0,0-.62.32c-.09.17,0,.49.09.7s.12.13.21.18l.11.07,3.32,2.38,2,1.41a.8.8,0,0,1,.2,1.11.71.71,0,0,1-.48.3.87.87,0,0,1-.66-.16l-5-3.59,0,0a1.94,1.94,0,0,0-.34-.21.61.61,0,0,0-.69,1,2.31,2.31,0,0,0,.29.24l.08.05,1.53,1.1c1,.72,2.07,1.48,3.1,2.22a.77.77,0,0,1,.31.53.9.9,0,0,1-.16.64.82.82,0,0,1-1.15.08l-.6-.44-2.23-1.63a.69.69,0,0,0-.71-.08.52.52,0,0,0-.28.47.88.88,0,0,0,.33.63c.35.28.73.55,1.1.8l.58.4a.84.84,0,0,1,.16,1.14.73.73,0,0,1-.48.31H22.2a.83.83,0,0,1-.48-.15l-.19-.15L21.31,35a1.46,1.46,0,0,1-.84-1.39c0-1-.72-1.67-2-1.92h0v0c-.33-1.53-.66-1.88-2.11-2.26h0v0a2.51,2.51,0,0,0-1.23-1.89,2.18,2.18,0,0,0-2-.06l0,0,0,0a2.11,2.11,0,0,0-2-1.29h0A2.61,2.61,0,0,0,9.16,27.2L9,27.38v0l-.76-.51v0l.06-.11a2,2,0,0,1,.11-.21l1-1.77c.91-1.57,1.85-3.2,2.76-4.8a.59.59,0,0,1,.58-.35h.94c1.4,0,2.84,0,4.29.09h.11l-.1.06-.22.12-.47.26a1.53,1.53,0,0,0-.93,1.62,1.64,1.64,0,0,0,1.27,1.52,6.15,6.15,0,0,0,4.17-.45.86.86,0,0,1,1.06.14c1.56,1.31,3.15,2.63,4.7,3.91l1.65,1.37.07.06a1.86,1.86,0,0,1,.26.23A.84.84,0,0,1,29.75,29.55Zm.83-1.76,0,0-1.93-1.59-5-4.15a1.85,1.85,0,0,0-2.29-.32,5.23,5.23,0,0,1-2.81.51,2.35,2.35,0,0,1-.67-.16.42.42,0,0,1-.05-.77l.62-.35c.78-.45,1.6-.91,2.42-1.33A3,3,0,0,1,23,19.55a22.92,22.92,0,0,1,2.51.78,2.29,2.29,0,0,0,1.65,0A8.06,8.06,0,0,0,28,20l.43-.2,0,0,3.72,6.46Zm5.25-2.19a1.25,1.25,0,0,1-1,1.23,1.18,1.18,0,0,1-.31.05,1,1,0,0,1-.86-.52c-1.88-3.24-3.32-5.74-4.66-8.08a1,1,0,0,1-.13-.75,1.31,1.31,0,0,1,.67-.74,1,1,0,0,1,1.51.37c.92,1.59,1.85,3.2,2.74,4.76l1.07,1.84.22.39c.19.31.38.63.55,1a1.53,1.53,0,0,1,.16.39l0,.09Z"/><path class="cls-2" d="M21.68,8.56c0-.61-.2-.8-.81-.8H11.78c-.55,0-.77.21-.77.77V12c0,.6.21.8.81.8h9.06c.6,0,.8-.2.8-.81ZM20.42,11.5H12.27V9h8.15Z"/></svg>