<svg id="Layer_1" data-name="Layer 1" xmlns="http://www.w3.org/2000/svg" xmlns:xlink="http://www.w3.org/1999/xlink" viewBox="0 0 40 40"><defs><style>.cls-1{fill:none;}.cls-2{clip-path:url(#clip-path);}.cls-3{fill:#2d2f78;}.cls-4{fill:#2d2f77;}.cls-5{fill:#2d2e76;}.cls-6{fill:#2c2e76;}.cls-7{fill:#2c2e75;}.cls-8{fill:#2c2d74;}.cls-9{fill:#2c2d73;}.cls-10{fill:#2b2d72;}.cls-11{fill:#2b2c71;}.cls-12{fill:#2b2c70;}.cls-13{fill:#2b2b6f;}.cls-14{fill:#2a2b6e;}.cls-15{fill:#2a2a6d;}.cls-16{fill:#2a2a6c;}.cls-17{fill:#29296b;}.cls-18{fill:#29296a;}.cls-19{fill:#292969;}.cls-20{fill:#292868;}.cls-21{fill:#282867;}.cls-22{fill:#282766;}.cls-23{fill:#282665;}.cls-24{fill:#272663;}.cls-25{fill:#272562;}.cls-26{fill:#272561;}.cls-27{fill:#262460;}.cls-28{fill:#26245e;}.cls-29{fill:#25235d;}.cls-30{fill:#25235c;}.cls-31{fill:#25225b;}.cls-32{fill:#242259;}.cls-33{fill:#242158;}.cls-34{clip-path:url(#clip-path-2);}.cls-35{clip-path:url(#clip-path-3);}.cls-36{clip-path:url(#clip-path-4);}.cls-37{clip-path:url(#clip-path-5);}.cls-38{clip-path:url(#clip-path-6);}.cls-39{clip-path:url(#clip-path-7);}.cls-40{clip-path:url(#clip-path-8);}.cls-41{clip-path:url(#clip-path-9);}.cls-42{clip-path:url(#clip-path-10);}.cls-43{clip-path:url(#clip-path-11);}.cls-44{clip-path:url(#clip-path-12);}.cls-45{clip-path:url(#clip-path-13);}</style><clipPath id="clip-path"><path class="cls-1" d="M20.49,27.13H6c-.58,0-.59,0-.59-.59V9.16c0-.52,0-.55.54-.56H35.16c.42,0,.47.06.47.49V26.66c0,.42-.05.47-.48.47Zm0-17.2H7.3c-.42,0-.46,0-.46.45v15c0,.42,0,.45.46.45H33.72c.43,0,.46,0,.46-.45V10.41c0-.46,0-.48-.5-.48Z"/></clipPath><clipPath id="clip-path-2"><path class="cls-1" d="M20.5,30H3.76a1.57,1.57,0,0,1-1.22-.51,4,4,0,0,1-1-1.63c-.12-.37-.07-.44.31-.44H15.7c.19,0,.31,0,.37.25.12.37.44.45.8.45h7.24a.81.81,0,0,0,.88-.54.37.37,0,0,1,.29-.16H39.1c.52,0,.56.06.38.55a4.1,4.1,0,0,1-1.17,1.7,1.44,1.44,0,0,1-1,.33Z"/></clipPath><clipPath id="clip-path-3"><path class="cls-1" d="M30,19.93c.34.14.67.29,1,.42s.62.34.61.76-.28.6-.62.73l-.54.22.3.32c.5.5.5.84,0,1.36l-.68.67a.71.71,0,0,1-1.08,0c-.13-.14-.23-.31-.35-.46l-.12.07c-.08.2-.18.4-.25.6a.73.73,0,0,1-.7.52.72.72,0,0,1-.7-.51c-.6-1.47-1.2-2.93-1.78-4.4a.54.54,0,0,0-.59-.4c-4.71,0-9.42,0-14.14,0A2.23,2.23,0,0,1,8,17.51c0-.8,0-1.59,0-2.38a2.22,2.22,0,0,1,2.28-2.3H30.67A2.24,2.24,0,0,1,33,15.17v2.4a2.24,2.24,0,0,1-2.27,2.28h-.67Zm-5.49-1c.22-.87.53-1,1.34-.69l1.46.59a1.23,1.23,0,0,0,.46.1c1,0,1.95,0,2.92,0a1.33,1.33,0,0,0,1.37-1.38c0-.78,0-1.56,0-2.34a1.37,1.37,0,0,0-1.52-1.5H10.38a1.35,1.35,0,0,0-1.45,1.44c0,.75,0,1.5,0,2.25A1.44,1.44,0,0,0,10.47,19c4.57,0,9.15,0,13.72,0Zm4.67,3,.05-.13,1.68-.69L25.4,18.85l-.06.06,2.21,5.41h.09l.68-1.65c.38.4.71.76,1.06,1.1.06,0,.24.09.28,0,.27-.22.52-.47.8-.73Z"/></clipPath><clipPath id="clip-path-4"><path class="cls-1" d="M28.65,16.39V15.32h.58v1c0,.22,0,.45,0,.67s0,.35-.12.37a.45.45,0,0,1-.56-.15,5.19,5.19,0,0,0-.75-.9c0,.27,0,.54,0,.81s-.13.26-.32.27-.29-.06-.29-.27c0-.48,0-1,0-1.44,0-.13.06-.36.12-.37.21,0,.45-.1.61.14s.33.47.51.7A2.55,2.55,0,0,0,28.65,16.39Z"/></clipPath><clipPath id="clip-path-5"><path class="cls-1" d="M23.45,16.29v-1a2.53,2.53,0,0,0,.3,0c.22,0,.29.07.29.29,0,.5,0,1,0,1.48a.54.54,0,0,1-.11.31c-.18,0-.42,0-.52-.11-.28-.29-.5-.64-.8-1,0,.28,0,.56,0,.84s-.11.26-.3.26-.31,0-.3-.26c0-.48,0-1,0-1.44,0-.13,0-.36.11-.38a.52.52,0,0,1,.63.16c.19.29.41.57.62.85Z"/></clipPath><clipPath id="clip-path-6"><path class="cls-1" d="M11.43,16.31a.5.5,0,0,1,.3.58.58.58,0,0,1-.56.48,8.85,8.85,0,0,1-1,0,.23.23,0,0,1-.17-.16c0-.63,0-1.25,0-1.95.47,0,.91,0,1.33.09a.53.53,0,0,1,.36.35A1.7,1.7,0,0,1,11.43,16.31Zm-1,.42c.16.13.25.25.31.23a1.17,1.17,0,0,0,.31-.2,1.42,1.42,0,0,0-.29-.21C10.72,16.54,10.62,16.63,10.45,16.73Zm.2-1-.08.07a1,1,0,0,0,.1.32s.18,0,.26,0,.07-.17.05-.18A3.41,3.41,0,0,0,10.65,15.69Z"/></clipPath><clipPath id="clip-path-7"><path class="cls-1" d="M20.64,15.27a1,1,0,0,1,1,1.06,1.05,1.05,0,0,1-1.08,1.11,1.09,1.09,0,0,1,0-2.17ZM21,16.34c0-.33-.16-.54-.39-.54s-.38.23-.39.54.15.54.37.55S21,16.67,21,16.34Z"/></clipPath><clipPath id="clip-path-8"><path class="cls-1" d="M14.05,16.33a1.06,1.06,0,1,1-2.12,0A1.06,1.06,0,0,1,13,15.27,1,1,0,0,1,14.05,16.33Zm-.67,0c0-.33-.15-.55-.37-.55s-.4.23-.4.56.16.53.39.53S13.38,16.67,13.38,16.35Z"/></clipPath><clipPath id="clip-path-9"><path class="cls-1" d="M14.27,16.38a1,1,0,0,1,1.06-1.11,1,1,0,0,1,1,1.05,1.05,1.05,0,0,1-1.06,1.12A1,1,0,0,1,14.27,16.38Zm1.51-.09a3,3,0,0,0-.39-.47c-.05,0-.28.06-.34.15a.63.63,0,0,0,0,.75.42.42,0,0,0,.35.15C15.66,16.82,15.7,16.59,15.78,16.29Z"/></clipPath><clipPath id="clip-path-10"><path class="cls-1" d="M17.35,16.57c0,.2,0,.39,0,.59s-.15.24-.32.23-.33,0-.32-.22V15.5c0-.26.19-.2.34-.21s.31,0,.3.22a3.09,3.09,0,0,0,0,.6c.29-.4.35-1.09,1.15-.75-.13.24-.27.49-.42.72a.36.36,0,0,0,0,.44c.17.25.32.52.51.85-.32,0-.6.16-.81-.1a4.48,4.48,0,0,1-.38-.72Z"/></clipPath><clipPath id="clip-path-11"><path class="cls-1" d="M31,15.29v.49a1.63,1.63,0,0,0-.32,0,3.27,3.27,0,0,0-.33.14,3.07,3.07,0,0,0,.31.17h.13c.18,0,.23.11.19.25a.43.43,0,0,1-.2.24c-.07.05-.19,0-.28,0a.79.79,0,0,0-.15.12c.05.05.1.15.15.16a4.68,4.68,0,0,0,.53,0c.08.49.07.51-.34.5s-.74.1-.89-.06-.07-.6-.08-.92a6.76,6.76,0,0,1,0-.9.29.29,0,0,1,.18-.21C30.22,15.28,30.57,15.29,31,15.29Z"/></clipPath><clipPath id="clip-path-12"><path class="cls-1" d="M25.1,16.08v.23c0,.52,0,.51.53.6.08,0,.16.15.19.24s0,.25-.2.25-.62,0-.92,0a.31.31,0,0,1-.22-.22c0-.55,0-1.1,0-1.65,0-.27.19-.21.34-.21s.31,0,.29.21S25.1,15.89,25.1,16.08Z"/></clipPath><clipPath id="clip-path-13"><path class="cls-1" d="M26.15,17.36v-2h.61v1.59C26.75,17.45,26.75,17.45,26.15,17.36Z"/></clipPath></defs><title>dust off icon</title><g class="cls-2"><rect class="cls-3" x="6.84" y="9.93" width="0.44" height="15.87"/><rect class="cls-4" x="7.27" y="9.93" width="0.95" height="15.87"/><rect class="cls-5" x="8.22" y="9.93" width="0.95" height="15.87"/><rect class="cls-6" x="9.16" y="9.93" width="0.95" height="15.87"/><rect class="cls-7" x="10.11" y="9.93" width="0.95" height="15.87"/><rect class="cls-8" x="11.05" y="9.93" width="0.95" height="15.87"/><rect class="cls-9" x="12" y="9.93" width="0.95" height="15.87"/><rect class="cls-10" x="12.94" y="9.93" width="0.95" height="15.87"/><rect class="cls-11" x="13.89" y="9.93" width="0.95" height="15.87"/><rect class="cls-12" x="14.84" y="9.93" width="0.95" height="15.87"/><rect class="cls-13" x="15.78" y="9.93" width="0.95" height="15.87"/><rect class="cls-14" x="16.73" y="9.93" width="0.95" height="15.87"/><rect class="cls-15" x="17.67" y="9.93" width="0.95" height="15.87"/><rect class="cls-16" x="18.62" y="9.93" width="0.95" height="15.87"/><rect class="cls-17" x="19.56" y="9.93" width="0.95" height="15.87"/><rect class="cls-18" x="20.51" y="9.93" width="0.95" height="15.87"/><rect class="cls-19" x="21.45" y="9.93" width="0.95" height="15.87"/><rect class="cls-20" x="22.4" y="9.93" width="0.95" height="15.87"/><rect class="cls-21" x="23.34" y="9.93" width="0.95" height="15.87"/><rect class="cls-22" x="24.29" y="9.93" width="0.95" height="15.87"/><rect class="cls-23" x="25.23" y="9.93" width="0.95" height="15.87"/><rect class="cls-24" x="26.18" y="9.93" width="0.95" height="15.87"/><rect class="cls-25" x="27.13" y="9.93" width="0.95" height="15.87"/><rect class="cls-26" x="28.07" y="9.93" width="0.95" height="15.87"/><rect class="cls-27" x="29.02" y="9.93" width="0.95" height="15.87"/><rect class="cls-28" x="29.96" y="9.93" width="0.95" height="15.87"/><rect class="cls-29" x="30.91" y="9.93" width="0.95" height="15.87"/><rect class="cls-30" x="31.85" y="9.93" width="0.95" height="15.87"/><rect class="cls-31" x="32.8" y="9.93" width="0.95" height="15.87"/><rect class="cls-32" x="33.74" y="9.93" width="0.44" height="15.87"/><rect class="cls-3" x="5.38" y="8.6" height="18.53"/><rect class="cls-3" x="5.38" y="8.6" width="0.95" height="18.53"/><rect class="cls-3" x="6.33" y="8.6" width="0.95" height="18.53"/><rect class="cls-4" x="7.27" y="8.6" width="0.95" height="18.53"/><rect class="cls-5" x="8.22" y="8.6" width="0.95" height="18.53"/><rect class="cls-6" x="9.16" y="8.6" width="0.95" height="18.53"/><rect class="cls-7" x="10.11" y="8.6" width="0.95" height="18.53"/><rect class="cls-8" x="11.05" y="8.6" width="0.95" height="18.53"/><rect class="cls-9" x="12" y="8.6" width="0.95" height="18.53"/><rect class="cls-10" x="12.94" y="8.6" width="0.95" height="18.53"/><rect class="cls-11" x="13.89" y="8.6" width="0.95" height="18.53"/><rect class="cls-12" x="14.84" y="8.6" width="0.95" height="18.53"/><rect class="cls-13" x="15.78" y="8.6" width="0.95" height="18.53"/><rect class="cls-14" x="16.73" y="8.6" width="0.95" height="18.53"/><rect class="cls-15" x="17.67" y="8.6" width="0.95" height="18.53"/><rect class="cls-16" x="18.62" y="8.6" width="0.95" height="18.53"/><rect class="cls-17" x="19.56" y="8.6" width="0.95" height="18.53"/><rect class="cls-18" x="20.51" y="8.6" width="0.95" height="18.53"/><rect class="cls-19" x="21.45" y="8.6" width="0.95" height="18.53"/><rect class="cls-20" x="22.4" y="8.6" width="0.95" height="18.53"/><rect class="cls-21" x="23.34" y="8.6" width="0.95" height="18.53"/><rect class="cls-22" x="24.29" y="8.6" width="0.95" height="18.53"/><rect class="cls-23" x="25.23" y="8.6" width="0.95" height="18.53"/><rect class="cls-24" x="26.18" y="8.6" width="0.95" height="18.53"/><rect class="cls-25" x="27.13" y="8.6" width="0.95" height="18.53"/><rect class="cls-26" x="28.07" y="8.6" width="0.95" height="18.53"/><rect class="cls-27" x="29.02" y="8.6" width="0.95" height="18.53"/><rect class="cls-28" x="29.96" y="8.6" width="0.95" height="18.53"/><rect class="cls-29" x="30.91" y="8.6" width="0.95" height="18.53"/><rect class="cls-30" x="31.85" y="8.6" width="0.95" height="18.53"/><rect class="cls-31" x="32.8" y="8.6" width="0.95" height="18.53"/><rect class="cls-32" x="33.74" y="8.6" width="0.95" height="18.53"/><rect class="cls-33" x="34.69" y="8.6" width="0.95" height="18.53"/><rect class="cls-33" x="35.63" y="8.6" height="18.53"/></g><g class="cls-34"><rect class="cls-3" x="1.38" y="27.46" width="0.06" height="2.59"/><rect class="cls-3" x="1.44" y="27.46" width="1.19" height="2.59"/><rect class="cls-3" x="2.63" y="27.46" width="1.19" height="2.59"/><rect class="cls-4" x="3.82" y="27.46" width="1.19" height="2.59"/><rect class="cls-5" x="5.02" y="27.46" width="1.19" height="2.59"/><rect class="cls-6" x="6.21" y="27.46" width="1.19" height="2.59"/><rect class="cls-7" x="7.4" y="27.46" width="1.19" height="2.59"/><rect class="cls-8" x="8.59" y="27.46" width="1.19" height="2.59"/><rect class="cls-9" x="9.78" y="27.46" width="1.19" height="2.59"/><rect class="cls-10" x="10.97" y="27.46" width="1.19" height="2.59"/><rect class="cls-11" x="12.17" y="27.46" width="1.19" height="2.59"/><rect class="cls-12" x="13.36" y="27.46" width="1.19" height="2.59"/><rect class="cls-13" x="14.55" y="27.46" width="1.19" height="2.59"/><rect class="cls-14" x="15.74" y="27.46" width="1.19" height="2.59"/><rect class="cls-15" x="16.93" y="27.46" width="1.19" height="2.59"/><rect class="cls-16" x="18.13" y="27.46" width="1.19" height="2.59"/><rect class="cls-17" x="19.32" y="27.46" width="1.19" height="2.59"/><rect class="cls-18" x="20.51" y="27.46" width="1.19" height="2.59"/><rect class="cls-19" x="21.7" y="27.46" width="1.19" height="2.59"/><rect class="cls-20" x="22.89" y="27.46" width="1.19" height="2.59"/><rect class="cls-21" x="24.09" y="27.46" width="1.19" height="2.59"/><rect class="cls-22" x="25.28" y="27.46" width="1.19" height="2.59"/><rect class="cls-23" x="26.47" y="27.46" width="1.19" height="2.59"/><rect class="cls-24" x="27.66" y="27.46" width="1.19" height="2.59"/><rect class="cls-25" x="28.85" y="27.46" width="1.19" height="2.59"/><rect class="cls-26" x="30.04" y="27.46" width="1.19" height="2.59"/><rect class="cls-27" x="31.24" y="27.46" width="1.19" height="2.59"/><rect class="cls-28" x="32.43" y="27.46" width="1.19" height="2.59"/><rect class="cls-29" x="33.62" y="27.46" width="1.19" height="2.59"/><rect class="cls-30" x="34.81" y="27.46" width="1.19" height="2.59"/><rect class="cls-31" x="36" y="27.46" width="1.19" height="2.59"/><rect class="cls-32" x="37.2" y="27.46" width="1.19" height="2.59"/><rect class="cls-33" x="38.39" y="27.46" width="1.19" height="2.59"/><rect class="cls-33" x="39.58" y="27.46" width="0.08" height="2.59"/></g><g class="cls-35"><rect class="cls-24" x="25.34" y="18.85" width="0.63" height="5.48"/><rect class="cls-25" x="25.97" y="18.85" width="0.78" height="5.48"/><rect class="cls-26" x="26.75" y="18.85" width="0.78" height="5.48"/><rect class="cls-27" x="27.53" y="18.85" width="0.78" height="5.48"/><rect class="cls-28" x="28.31" y="18.85" width="0.78" height="5.48"/><rect class="cls-29" x="29.09" y="18.85" width="0.78" height="5.48"/><rect class="cls-30" x="29.87" y="18.85" width="0.78" height="5.48"/><rect class="cls-31" x="30.65" y="18.85" width="0.28" height="5.48"/><rect class="cls-3" x="8.88" y="13.73" width="0.7" height="5.24"/><rect class="cls-4" x="9.58" y="13.73" width="0.78" height="5.24"/><rect class="cls-5" x="10.36" y="13.73" width="0.78" height="5.24"/><rect class="cls-6" x="11.14" y="13.73" width="0.78" height="5.24"/><rect class="cls-7" x="11.93" y="13.73" width="0.78" height="5.24"/><rect class="cls-8" x="12.71" y="13.73" width="0.78" height="5.24"/><rect class="cls-9" x="13.49" y="13.73" width="0.78" height="5.24"/><rect class="cls-10" x="14.27" y="13.73" width="0.78" height="5.24"/><rect class="cls-11" x="15.05" y="13.73" width="0.78" height="5.24"/><rect class="cls-12" x="15.83" y="13.73" width="0.78" height="5.24"/><rect class="cls-13" x="16.61" y="13.73" width="0.78" height="5.24"/><rect class="cls-14" x="17.39" y="13.73" width="0.78" height="5.24"/><rect class="cls-15" x="18.17" y="13.73" width="0.78" height="5.24"/><rect class="cls-16" x="18.95" y="13.73" width="0.78" height="5.24"/><rect class="cls-17" x="19.73" y="13.73" width="0.78" height="5.24"/><rect class="cls-18" x="20.51" y="13.73" width="0.78" height="5.24"/><rect class="cls-19" x="21.29" y="13.73" width="0.78" height="5.24"/><rect class="cls-20" x="22.07" y="13.73" width="0.78" height="5.24"/><rect class="cls-21" x="22.85" y="13.73" width="0.78" height="5.24"/><rect class="cls-22" x="23.63" y="13.73" width="0.78" height="5.24"/><rect class="cls-23" x="24.41" y="13.73" width="0.78" height="5.24"/><rect class="cls-24" x="25.19" y="13.73" width="0.78" height="5.24"/><rect class="cls-25" x="25.97" y="13.73" width="0.78" height="5.24"/><rect class="cls-26" x="26.75" y="13.73" width="0.78" height="5.24"/><rect class="cls-27" x="27.53" y="13.73" width="0.78" height="5.24"/><rect class="cls-28" x="28.31" y="13.73" width="0.78" height="5.24"/><rect class="cls-29" x="29.09" y="13.73" width="0.78" height="5.24"/><rect class="cls-30" x="29.87" y="13.73" width="0.78" height="5.24"/><rect class="cls-31" x="30.65" y="13.73" width="0.78" height="5.24"/><rect class="cls-32" x="31.43" y="13.73" width="0.66" height="5.24"/><rect class="cls-3" x="8.02" y="12.82" height="12.33"/><rect class="cls-3" x="8.02" y="12.82" width="0.78" height="12.33"/><rect class="cls-3" x="8.8" y="12.82" width="0.78" height="12.33"/><rect class="cls-4" x="9.58" y="12.82" width="0.78" height="12.33"/><rect class="cls-5" x="10.36" y="12.82" width="0.78" height="12.33"/><rect class="cls-6" x="11.14" y="12.82" width="0.78" height="12.33"/><rect class="cls-7" x="11.93" y="12.82" width="0.78" height="12.33"/><rect class="cls-8" x="12.71" y="12.82" width="0.78" height="12.33"/><rect class="cls-9" x="13.49" y="12.82" width="0.78" height="12.33"/><rect class="cls-10" x="14.27" y="12.82" width="0.78" height="12.33"/><rect class="cls-11" x="15.05" y="12.82" width="0.78" height="12.33"/><rect class="cls-12" x="15.83" y="12.82" width="0.78" height="12.33"/><rect class="cls-13" x="16.61" y="12.82" width="0.78" height="12.33"/><rect class="cls-14" x="17.39" y="12.82" width="0.78" height="12.33"/><rect class="cls-15" x="18.17" y="12.82" width="0.78" height="12.33"/><rect class="cls-16" x="18.95" y="12.82" width="0.78" height="12.33"/><rect class="cls-17" x="19.73" y="12.82" width="0.78" height="12.33"/><rect class="cls-18" x="20.51" y="12.82" width="0.78" height="12.33"/><rect class="cls-19" x="21.29" y="12.82" width="0.78" height="12.33"/><rect class="cls-20" x="22.07" y="12.82" width="0.78" height="12.33"/><rect class="cls-21" x="22.85" y="12.82" width="0.78" height="12.33"/><rect class="cls-22" x="23.63" y="12.82" width="0.78" height="12.33"/><rect class="cls-23" x="24.41" y="12.82" width="0.78" height="12.33"/><rect class="cls-24" x="25.19" y="12.82" width="0.78" height="12.33"/><rect class="cls-25" x="25.97" y="12.82" width="0.78" height="12.33"/><rect class="cls-26" x="26.75" y="12.82" width="0.78" height="12.33"/><rect class="cls-27" x="27.53" y="12.82" width="0.78" height="12.33"/><rect class="cls-28" x="28.31" y="12.82" width="0.78" height="12.33"/><rect class="cls-29" x="29.09" y="12.82" width="0.78" height="12.33"/><rect class="cls-30" x="29.87" y="12.82" width="0.78" height="12.33"/><rect class="cls-31" x="30.65" y="12.82" width="0.78" height="12.33"/><rect class="cls-32" x="31.43" y="12.82" width="0.78" height="12.33"/><rect class="cls-33" x="32.21" y="12.82" width="0.78" height="12.33"/><rect class="cls-33" x="32.99" y="12.82" height="12.33"/></g><g class="cls-36"><rect class="cls-3" x="27.19" y="15.22" width="0.01" height="2.23"/><rect class="cls-3" x="27.19" y="15.22" width="0.06" height="2.23"/><rect class="cls-3" x="27.26" y="15.22" width="0.06" height="2.23"/><rect class="cls-4" x="27.32" y="15.22" width="0.06" height="2.23"/><rect class="cls-5" x="27.39" y="15.22" width="0.06" height="2.23"/><rect class="cls-6" x="27.45" y="15.22" width="0.06" height="2.23"/><rect class="cls-7" x="27.51" y="15.22" width="0.06" height="2.23"/><rect class="cls-8" x="27.58" y="15.22" width="0.06" height="2.23"/><rect class="cls-9" x="27.64" y="15.22" width="0.06" height="2.23"/><rect class="cls-10" x="27.7" y="15.22" width="0.06" height="2.23"/><rect class="cls-11" x="27.77" y="15.22" width="0.06" height="2.23"/><rect class="cls-12" x="27.83" y="15.22" width="0.06" height="2.23"/><rect class="cls-13" x="27.9" y="15.22" width="0.06" height="2.23"/><rect class="cls-14" x="27.96" y="15.22" width="0.06" height="2.23"/><rect class="cls-15" x="28.02" y="15.22" width="0.06" height="2.23"/><rect class="cls-16" x="28.09" y="15.22" width="0.06" height="2.23"/><rect class="cls-17" x="28.15" y="15.22" width="0.06" height="2.23"/><rect class="cls-18" x="28.21" y="15.22" width="0.06" height="2.23"/><rect class="cls-19" x="28.28" y="15.22" width="0.06" height="2.23"/><rect class="cls-20" x="28.34" y="15.22" width="0.06" height="2.23"/><rect class="cls-21" x="28.4" y="15.22" width="0.06" height="2.23"/><rect class="cls-22" x="28.47" y="15.22" width="0.06" height="2.23"/><rect class="cls-23" x="28.53" y="15.22" width="0.06" height="2.23"/><rect class="cls-24" x="28.6" y="15.22" width="0.06" height="2.23"/><rect class="cls-25" x="28.66" y="15.22" width="0.06" height="2.23"/><rect class="cls-26" x="28.72" y="15.22" width="0.06" height="2.23"/><rect class="cls-27" x="28.79" y="15.22" width="0.06" height="2.23"/><rect class="cls-28" x="28.85" y="15.22" width="0.06" height="2.23"/><rect class="cls-29" x="28.91" y="15.22" width="0.06" height="2.23"/><rect class="cls-30" x="28.98" y="15.22" width="0.06" height="2.23"/><rect class="cls-31" x="29.04" y="15.22" width="0.06" height="2.23"/><rect class="cls-32" x="29.11" y="15.22" width="0.06" height="2.23"/><rect class="cls-33" x="29.17" y="15.22" width="0.06" height="2.23"/><rect class="cls-33" x="29.23" y="15.22" width="0.01" height="2.23"/></g><g class="cls-37"><rect class="cls-3" x="21.99" y="15.23" width="0.01" height="2.17"/><rect class="cls-3" x="22" y="15.23" width="0.06" height="2.17"/><rect class="cls-3" x="22.06" y="15.23" width="0.06" height="2.17"/><rect class="cls-4" x="22.13" y="15.23" width="0.06" height="2.17"/><rect class="cls-5" x="22.19" y="15.23" width="0.06" height="2.17"/><rect class="cls-6" x="22.25" y="15.23" width="0.06" height="2.17"/><rect class="cls-7" x="22.32" y="15.23" width="0.06" height="2.17"/><rect class="cls-8" x="22.38" y="15.23" width="0.06" height="2.17"/><rect class="cls-9" x="22.45" y="15.23" width="0.06" height="2.17"/><rect class="cls-10" x="22.51" y="15.23" width="0.06" height="2.17"/><rect class="cls-11" x="22.57" y="15.23" width="0.06" height="2.17"/><rect class="cls-12" x="22.64" y="15.23" width="0.06" height="2.17"/><rect class="cls-13" x="22.7" y="15.23" width="0.06" height="2.17"/><rect class="cls-14" x="22.76" y="15.23" width="0.06" height="2.17"/><rect class="cls-15" x="22.83" y="15.23" width="0.06" height="2.17"/><rect class="cls-16" x="22.89" y="15.23" width="0.06" height="2.17"/><rect class="cls-17" x="22.96" y="15.23" width="0.06" height="2.17"/><rect class="cls-18" x="23.02" y="15.23" width="0.06" height="2.17"/><rect class="cls-19" x="23.08" y="15.23" width="0.06" height="2.17"/><rect class="cls-20" x="23.15" y="15.23" width="0.06" height="2.17"/><rect class="cls-21" x="23.21" y="15.23" width="0.06" height="2.17"/><rect class="cls-22" x="23.27" y="15.23" width="0.06" height="2.17"/><rect class="cls-23" x="23.34" y="15.23" width="0.06" height="2.17"/><rect class="cls-24" x="23.4" y="15.23" width="0.06" height="2.17"/><rect class="cls-25" x="23.46" y="15.23" width="0.06" height="2.17"/><rect class="cls-26" x="23.53" y="15.23" width="0.06" height="2.17"/><rect class="cls-27" x="23.59" y="15.23" width="0.06" height="2.17"/><rect class="cls-28" x="23.66" y="15.23" width="0.06" height="2.17"/><rect class="cls-29" x="23.72" y="15.23" width="0.06" height="2.17"/><rect class="cls-30" x="23.78" y="15.23" width="0.06" height="2.17"/><rect class="cls-31" x="23.85" y="15.23" width="0.06" height="2.17"/><rect class="cls-32" x="23.91" y="15.23" width="0.06" height="2.17"/><rect class="cls-33" x="23.97" y="15.23" width="0.06" height="2.17"/><rect class="cls-33" x="24.04" y="15.23" width="0.01" height="2.17"/></g><g class="cls-38"><rect class="cls-12" x="10.57" y="15.69" width="0.01" height="0.43"/><rect class="cls-13" x="10.57" y="15.69" width="0.06" height="0.43"/><rect class="cls-14" x="10.63" y="15.69" width="0.06" height="0.43"/><rect class="cls-15" x="10.69" y="15.69" width="0.06" height="0.43"/><rect class="cls-16" x="10.74" y="15.69" width="0.06" height="0.43"/><rect class="cls-17" x="10.8" y="15.69" width="0.06" height="0.43"/><rect class="cls-18" x="10.85" y="15.69" width="0.06" height="0.43"/><rect class="cls-19" x="10.91" y="15.69" width="0.06" height="0.43"/><rect class="cls-20" x="10.96" y="15.69" width="0.03" height="0.43"/><rect class="cls-10" x="10.45" y="16.54" width="0.01" height="0.44"/><rect class="cls-11" x="10.46" y="16.54" width="0.06" height="0.44"/><rect class="cls-12" x="10.52" y="16.54" width="0.06" height="0.44"/><rect class="cls-13" x="10.57" y="16.54" width="0.06" height="0.44"/><rect class="cls-14" x="10.63" y="16.54" width="0.06" height="0.44"/><rect class="cls-15" x="10.69" y="16.54" width="0.06" height="0.44"/><rect class="cls-16" x="10.74" y="16.54" width="0.06" height="0.44"/><rect class="cls-17" x="10.8" y="16.54" width="0.06" height="0.44"/><rect class="cls-18" x="10.85" y="16.54" width="0.06" height="0.44"/><rect class="cls-19" x="10.91" y="16.54" width="0.06" height="0.44"/><rect class="cls-20" x="10.96" y="16.54" width="0.06" height="0.44"/><rect class="cls-21" x="11.02" y="16.54" width="0.05" height="0.44"/><rect class="cls-3" x="9.96" y="15.27" height="2.12"/><rect class="cls-3" x="9.96" y="15.27" width="0.06" height="2.12"/><rect class="cls-3" x="10.02" y="15.27" width="0.06" height="2.12"/><rect class="cls-4" x="10.07" y="15.27" width="0.06" height="2.12"/><rect class="cls-5" x="10.13" y="15.27" width="0.06" height="2.12"/><rect class="cls-6" x="10.18" y="15.27" width="0.06" height="2.12"/><rect class="cls-7" x="10.24" y="15.27" width="0.06" height="2.12"/><rect class="cls-8" x="10.3" y="15.27" width="0.06" height="2.12"/><rect class="cls-9" x="10.35" y="15.27" width="0.06" height="2.12"/><rect class="cls-10" x="10.41" y="15.27" width="0.06" height="2.12"/><rect class="cls-11" x="10.46" y="15.27" width="0.06" height="2.12"/><rect class="cls-12" x="10.52" y="15.27" width="0.06" height="2.12"/><rect class="cls-13" x="10.57" y="15.27" width="0.06" height="2.12"/><rect class="cls-14" x="10.63" y="15.27" width="0.06" height="2.12"/><rect class="cls-15" x="10.69" y="15.27" width="0.06" height="2.12"/><rect class="cls-16" x="10.74" y="15.27" width="0.06" height="2.12"/><rect class="cls-17" x="10.8" y="15.27" width="0.06" height="2.12"/><rect class="cls-18" x="10.85" y="15.27" width="0.06" height="2.12"/><rect class="cls-19" x="10.91" y="15.27" width="0.06" height="2.12"/><rect class="cls-20" x="10.96" y="15.27" width="0.06" height="2.12"/><rect class="cls-21" x="11.02" y="15.27" width="0.06" height="2.12"/><rect class="cls-22" x="11.07" y="15.27" width="0.06" height="2.12"/><rect class="cls-23" x="11.13" y="15.27" width="0.06" height="2.12"/><rect class="cls-24" x="11.19" y="15.27" width="0.06" height="2.12"/><rect class="cls-25" x="11.24" y="15.27" width="0.06" height="2.12"/><rect class="cls-26" x="11.3" y="15.27" width="0.06" height="2.12"/><rect class="cls-27" x="11.35" y="15.27" width="0.06" height="2.12"/><rect class="cls-28" x="11.41" y="15.27" width="0.06" height="2.12"/><rect class="cls-29" x="11.46" y="15.27" width="0.06" height="2.12"/><rect class="cls-30" x="11.52" y="15.27" width="0.06" height="2.12"/><rect class="cls-31" x="11.58" y="15.27" width="0.06" height="2.12"/><rect class="cls-32" x="11.63" y="15.27" width="0.06" height="2.12"/><rect class="cls-33" x="11.69" y="15.27" width="0.06" height="2.12"/><rect class="cls-33" x="11.74" y="15.27" width="0.05" height="2.12"/></g><g class="cls-39"><rect class="cls-12" x="20.23" y="15.8" width="0.06" height="1.1"/><rect class="cls-13" x="20.29" y="15.8" width="0.07" height="1.1"/><rect class="cls-14" x="20.35" y="15.8" width="0.07" height="1.1"/><rect class="cls-15" x="20.42" y="15.8" width="0.07" height="1.1"/><rect class="cls-16" x="20.49" y="15.8" width="0.07" height="1.1"/><rect class="cls-17" x="20.55" y="15.8" width="0.07" height="1.1"/><rect class="cls-18" x="20.62" y="15.8" width="0.07" height="1.1"/><rect class="cls-19" x="20.69" y="15.8" width="0.07" height="1.1"/><rect class="cls-20" x="20.75" y="15.8" width="0.07" height="1.1"/><rect class="cls-21" x="20.82" y="15.8" width="0.07" height="1.1"/><rect class="cls-22" x="20.88" y="15.8" width="0.07" height="1.1"/><rect class="cls-23" x="20.95" y="15.8" width="0.06" height="1.1"/><rect class="cls-3" x="19.55" y="15.26" width="0.01" height="2.18"/><rect class="cls-3" x="19.56" y="15.26" width="0.07" height="2.18"/><rect class="cls-3" x="19.63" y="15.26" width="0.07" height="2.18"/><rect class="cls-4" x="19.69" y="15.26" width="0.07" height="2.18"/><rect class="cls-5" x="19.76" y="15.26" width="0.07" height="2.18"/><rect class="cls-6" x="19.83" y="15.26" width="0.07" height="2.18"/><rect class="cls-7" x="19.89" y="15.26" width="0.07" height="2.18"/><rect class="cls-8" x="19.96" y="15.26" width="0.07" height="2.18"/><rect class="cls-9" x="20.02" y="15.26" width="0.07" height="2.18"/><rect class="cls-10" x="20.09" y="15.26" width="0.07" height="2.18"/><rect class="cls-11" x="20.16" y="15.26" width="0.07" height="2.18"/><rect class="cls-12" x="20.22" y="15.26" width="0.07" height="2.18"/><rect class="cls-13" x="20.29" y="15.26" width="0.07" height="2.18"/><rect class="cls-14" x="20.35" y="15.26" width="0.07" height="2.18"/><rect class="cls-15" x="20.42" y="15.26" width="0.07" height="2.18"/><rect class="cls-16" x="20.49" y="15.26" width="0.07" height="2.18"/><rect class="cls-17" x="20.55" y="15.26" width="0.07" height="2.18"/><rect class="cls-18" x="20.62" y="15.26" width="0.07" height="2.18"/><rect class="cls-19" x="20.69" y="15.26" width="0.07" height="2.18"/><rect class="cls-20" x="20.75" y="15.26" width="0.07" height="2.18"/><rect class="cls-21" x="20.82" y="15.26" width="0.07" height="2.18"/><rect class="cls-22" x="20.88" y="15.26" width="0.07" height="2.18"/><rect class="cls-23" x="20.95" y="15.26" width="0.07" height="2.18"/><rect class="cls-24" x="21.02" y="15.26" width="0.07" height="2.18"/><rect class="cls-25" x="21.08" y="15.26" width="0.07" height="2.18"/><rect class="cls-26" x="21.15" y="15.26" width="0.07" height="2.18"/><rect class="cls-27" x="21.21" y="15.26" width="0.07" height="2.18"/><rect class="cls-28" x="21.28" y="15.26" width="0.07" height="2.18"/><rect class="cls-29" x="21.35" y="15.26" width="0.07" height="2.18"/><rect class="cls-30" x="21.41" y="15.26" width="0.07" height="2.18"/><rect class="cls-31" x="21.48" y="15.26" width="0.07" height="2.18"/><rect class="cls-32" x="21.55" y="15.26" width="0.07" height="2.18"/><rect class="cls-33" x="21.61" y="15.26" width="0.07" height="2.18"/><rect class="cls-33" x="21.68" y="15.26" height="2.18"/></g><g class="cls-40"><rect class="cls-12" x="12.61" y="15.8" width="0.05" height="1.1"/><rect class="cls-13" x="12.66" y="15.8" width="0.07" height="1.1"/><rect class="cls-14" x="12.73" y="15.8" width="0.07" height="1.1"/><rect class="cls-15" x="12.79" y="15.8" width="0.07" height="1.1"/><rect class="cls-16" x="12.86" y="15.8" width="0.07" height="1.1"/><rect class="cls-17" x="12.92" y="15.8" width="0.07" height="1.1"/><rect class="cls-18" x="12.99" y="15.8" width="0.07" height="1.1"/><rect class="cls-19" x="13.06" y="15.8" width="0.07" height="1.1"/><rect class="cls-20" x="13.12" y="15.8" width="0.07" height="1.1"/><rect class="cls-21" x="13.19" y="15.8" width="0.07" height="1.1"/><rect class="cls-22" x="13.25" y="15.8" width="0.07" height="1.1"/><rect class="cls-23" x="13.32" y="15.8" width="0.06" height="1.1"/><rect class="cls-3" x="11.93" y="15.27" height="2.17"/><rect class="cls-3" x="11.93" y="15.27" width="0.07" height="2.17"/><rect class="cls-3" x="12" y="15.27" width="0.07" height="2.17"/><rect class="cls-4" x="12.07" y="15.27" width="0.07" height="2.17"/><rect class="cls-5" x="12.13" y="15.27" width="0.07" height="2.17"/><rect class="cls-6" x="12.2" y="15.27" width="0.07" height="2.17"/><rect class="cls-7" x="12.26" y="15.27" width="0.07" height="2.17"/><rect class="cls-8" x="12.33" y="15.27" width="0.07" height="2.17"/><rect class="cls-9" x="12.4" y="15.27" width="0.07" height="2.17"/><rect class="cls-10" x="12.46" y="15.27" width="0.07" height="2.17"/><rect class="cls-11" x="12.53" y="15.27" width="0.07" height="2.17"/><rect class="cls-12" x="12.59" y="15.27" width="0.07" height="2.17"/><rect class="cls-13" x="12.66" y="15.27" width="0.07" height="2.17"/><rect class="cls-14" x="12.73" y="15.27" width="0.07" height="2.17"/><rect class="cls-15" x="12.79" y="15.27" width="0.07" height="2.17"/><rect class="cls-16" x="12.86" y="15.27" width="0.07" height="2.17"/><rect class="cls-17" x="12.92" y="15.27" width="0.07" height="2.17"/><rect class="cls-18" x="12.99" y="15.27" width="0.07" height="2.17"/><rect class="cls-19" x="13.06" y="15.27" width="0.07" height="2.17"/><rect class="cls-20" x="13.12" y="15.27" width="0.07" height="2.17"/><rect class="cls-21" x="13.19" y="15.27" width="0.07" height="2.17"/><rect class="cls-22" x="13.25" y="15.27" width="0.07" height="2.17"/><rect class="cls-23" x="13.32" y="15.27" width="0.07" height="2.17"/><rect class="cls-24" x="13.39" y="15.27" width="0.07" height="2.17"/><rect class="cls-25" x="13.45" y="15.27" width="0.07" height="2.17"/><rect class="cls-26" x="13.52" y="15.27" width="0.07" height="2.17"/><rect class="cls-27" x="13.58" y="15.27" width="0.07" height="2.17"/><rect class="cls-28" x="13.65" y="15.27" width="0.07" height="2.17"/><rect class="cls-29" x="13.72" y="15.27" width="0.07" height="2.17"/><rect class="cls-30" x="13.78" y="15.27" width="0.07" height="2.17"/><rect class="cls-31" x="13.85" y="15.27" width="0.07" height="2.17"/><rect class="cls-32" x="13.91" y="15.27" width="0.07" height="2.17"/><rect class="cls-33" x="13.98" y="15.27" width="0.07" height="2.17"/><rect class="cls-33" x="14.05" y="15.27" height="2.17"/></g><g class="cls-41"><rect class="cls-11" x="14.88" y="15.78" width="0.05" height="1.11"/><rect class="cls-12" x="14.93" y="15.78" width="0.07" height="1.11"/><rect class="cls-13" x="14.99" y="15.78" width="0.07" height="1.11"/><rect class="cls-14" x="15.06" y="15.78" width="0.07" height="1.11"/><rect class="cls-15" x="15.13" y="15.78" width="0.07" height="1.11"/><rect class="cls-16" x="15.19" y="15.78" width="0.07" height="1.11"/><rect class="cls-17" x="15.26" y="15.78" width="0.07" height="1.11"/><rect class="cls-18" x="15.32" y="15.78" width="0.07" height="1.11"/><rect class="cls-19" x="15.39" y="15.78" width="0.07" height="1.11"/><rect class="cls-20" x="15.46" y="15.78" width="0.07" height="1.11"/><rect class="cls-21" x="15.52" y="15.78" width="0.07" height="1.11"/><rect class="cls-22" x="15.59" y="15.78" width="0.07" height="1.11"/><rect class="cls-23" x="15.65" y="15.78" width="0.07" height="1.11"/><rect class="cls-24" x="15.72" y="15.78" width="0.06" height="1.11"/><rect class="cls-3" x="14.26" y="15.26" height="2.18"/><rect class="cls-3" x="14.27" y="15.26" width="0.07" height="2.18"/><rect class="cls-3" x="14.34" y="15.26" width="0.07" height="2.18"/><rect class="cls-4" x="14.4" y="15.26" width="0.07" height="2.18"/><rect class="cls-5" x="14.47" y="15.26" width="0.07" height="2.18"/><rect class="cls-6" x="14.53" y="15.26" width="0.07" height="2.18"/><rect class="cls-7" x="14.6" y="15.26" width="0.07" height="2.18"/><rect class="cls-8" x="14.67" y="15.26" width="0.07" height="2.18"/><rect class="cls-9" x="14.73" y="15.26" width="0.07" height="2.18"/><rect class="cls-10" x="14.8" y="15.26" width="0.07" height="2.18"/><rect class="cls-11" x="14.86" y="15.26" width="0.07" height="2.18"/><rect class="cls-12" x="14.93" y="15.26" width="0.07" height="2.18"/><rect class="cls-13" x="14.99" y="15.26" width="0.07" height="2.18"/><rect class="cls-14" x="15.06" y="15.26" width="0.07" height="2.18"/><rect class="cls-15" x="15.13" y="15.26" width="0.07" height="2.18"/><rect class="cls-16" x="15.19" y="15.26" width="0.07" height="2.18"/><rect class="cls-17" x="15.26" y="15.26" width="0.07" height="2.18"/><rect class="cls-18" x="15.32" y="15.26" width="0.07" height="2.18"/><rect class="cls-19" x="15.39" y="15.26" width="0.07" height="2.18"/><rect class="cls-20" x="15.46" y="15.26" width="0.07" height="2.18"/><rect class="cls-21" x="15.52" y="15.26" width="0.07" height="2.18"/><rect class="cls-22" x="15.59" y="15.26" width="0.07" height="2.18"/><rect class="cls-23" x="15.65" y="15.26" width="0.07" height="2.18"/><rect class="cls-24" x="15.72" y="15.26" width="0.07" height="2.18"/><rect class="cls-25" x="15.79" y="15.26" width="0.07" height="2.18"/><rect class="cls-26" x="15.85" y="15.26" width="0.07" height="2.18"/><rect class="cls-27" x="15.92" y="15.26" width="0.07" height="2.18"/><rect class="cls-28" x="15.98" y="15.26" width="0.07" height="2.18"/><rect class="cls-29" x="16.05" y="15.26" width="0.07" height="2.18"/><rect class="cls-30" x="16.12" y="15.26" width="0.07" height="2.18"/><rect class="cls-31" x="16.18" y="15.26" width="0.07" height="2.18"/><rect class="cls-32" x="16.25" y="15.26" width="0.07" height="2.18"/><rect class="cls-33" x="16.31" y="15.26" width="0.07" height="2.18"/><rect class="cls-33" x="16.38" y="15.26" width="0.01" height="2.18"/></g><g class="cls-42"><rect class="cls-3" x="16.7" y="15.02" height="2.51"/><rect class="cls-3" x="16.71" y="15.02" width="0.06" height="2.51"/><rect class="cls-3" x="16.77" y="15.02" width="0.06" height="2.51"/><rect class="cls-4" x="16.83" y="15.02" width="0.06" height="2.51"/><rect class="cls-5" x="16.89" y="15.02" width="0.06" height="2.51"/><rect class="cls-6" x="16.95" y="15.02" width="0.06" height="2.51"/><rect class="cls-7" x="17.01" y="15.02" width="0.06" height="2.51"/><rect class="cls-8" x="17.07" y="15.02" width="0.06" height="2.51"/><rect class="cls-9" x="17.13" y="15.02" width="0.06" height="2.51"/><rect class="cls-10" x="17.19" y="15.02" width="0.06" height="2.51"/><rect class="cls-11" x="17.24" y="15.02" width="0.06" height="2.51"/><rect class="cls-12" x="17.3" y="15.02" width="0.06" height="2.51"/><rect class="cls-13" x="17.36" y="15.02" width="0.06" height="2.51"/><rect class="cls-14" x="17.42" y="15.02" width="0.06" height="2.51"/><rect class="cls-15" x="17.48" y="15.02" width="0.06" height="2.51"/><rect class="cls-16" x="17.54" y="15.02" width="0.06" height="2.51"/><rect class="cls-17" x="17.6" y="15.02" width="0.06" height="2.51"/><rect class="cls-18" x="17.66" y="15.02" width="0.06" height="2.51"/><rect class="cls-19" x="17.72" y="15.02" width="0.06" height="2.51"/><rect class="cls-20" x="17.78" y="15.02" width="0.06" height="2.51"/><rect class="cls-21" x="17.84" y="15.02" width="0.06" height="2.51"/><rect class="cls-22" x="17.9" y="15.02" width="0.06" height="2.51"/><rect class="cls-23" x="17.96" y="15.02" width="0.06" height="2.51"/><rect class="cls-24" x="18.02" y="15.02" width="0.06" height="2.51"/><rect class="cls-25" x="18.08" y="15.02" width="0.06" height="2.51"/><rect class="cls-26" x="18.14" y="15.02" width="0.06" height="2.51"/><rect class="cls-27" x="18.2" y="15.02" width="0.06" height="2.51"/><rect class="cls-28" x="18.26" y="15.02" width="0.06" height="2.51"/><rect class="cls-29" x="18.32" y="15.02" width="0.06" height="2.51"/><rect class="cls-30" x="18.38" y="15.02" width="0.06" height="2.51"/><rect class="cls-31" x="18.44" y="15.02" width="0.06" height="2.51"/><rect class="cls-32" x="18.5" y="15.02" width="0.06" height="2.51"/><rect class="cls-33" x="18.56" y="15.02" width="0.06" height="2.51"/></g><g class="cls-43"><rect class="cls-3" x="29.6" y="15.28" width="0.06" height="2.2"/><rect class="cls-3" x="29.66" y="15.28" width="0.04" height="2.2"/><rect class="cls-3" x="29.71" y="15.28" width="0.04" height="2.2"/><rect class="cls-4" x="29.75" y="15.28" width="0.04" height="2.2"/><rect class="cls-5" x="29.79" y="15.28" width="0.04" height="2.2"/><rect class="cls-6" x="29.83" y="15.28" width="0.04" height="2.2"/><rect class="cls-7" x="29.88" y="15.28" width="0.04" height="2.2"/><rect class="cls-8" x="29.92" y="15.28" width="0.04" height="2.2"/><rect class="cls-9" x="29.96" y="15.28" width="0.04" height="2.2"/><rect class="cls-10" x="30" y="15.28" width="0.04" height="2.2"/><rect class="cls-11" x="30.05" y="15.28" width="0.04" height="2.2"/><rect class="cls-12" x="30.09" y="15.28" width="0.04" height="2.2"/><rect class="cls-13" x="30.13" y="15.28" width="0.04" height="2.2"/><rect class="cls-14" x="30.18" y="15.28" width="0.04" height="2.2"/><rect class="cls-15" x="30.22" y="15.28" width="0.04" height="2.2"/><rect class="cls-16" x="30.26" y="15.28" width="0.04" height="2.2"/><rect class="cls-17" x="30.3" y="15.28" width="0.04" height="2.2"/><rect class="cls-18" x="30.35" y="15.28" width="0.04" height="2.2"/><rect class="cls-19" x="30.39" y="15.28" width="0.04" height="2.2"/><rect class="cls-20" x="30.43" y="15.28" width="0.04" height="2.2"/><rect class="cls-21" x="30.47" y="15.28" width="0.04" height="2.2"/><rect class="cls-22" x="30.52" y="15.28" width="0.04" height="2.2"/><rect class="cls-23" x="30.56" y="15.28" width="0.04" height="2.2"/><rect class="cls-24" x="30.6" y="15.28" width="0.04" height="2.2"/><rect class="cls-25" x="30.65" y="15.28" width="0.04" height="2.2"/><rect class="cls-26" x="30.69" y="15.28" width="0.04" height="2.2"/><rect class="cls-27" x="30.73" y="15.28" width="0.04" height="2.2"/><rect class="cls-28" x="30.77" y="15.28" width="0.04" height="2.2"/><rect class="cls-29" x="30.82" y="15.28" width="0.04" height="2.2"/><rect class="cls-30" x="30.86" y="15.28" width="0.04" height="2.2"/><rect class="cls-31" x="30.9" y="15.28" width="0.04" height="2.2"/><rect class="cls-32" x="30.94" y="15.28" width="0.04" height="2.2"/><rect class="cls-33" x="30.99" y="15.28" width="0.04" height="2.2"/><rect class="cls-33" x="31.03" y="15.28" width="0.04" height="2.2"/></g><g class="cls-44"><rect class="cls-3" x="24.46" y="15.24" width="0.01" height="2.17"/><rect class="cls-3" x="24.47" y="15.24" width="0.04" height="2.17"/><rect class="cls-3" x="24.51" y="15.24" width="0.04" height="2.17"/><rect class="cls-4" x="24.56" y="15.24" width="0.04" height="2.17"/><rect class="cls-5" x="24.6" y="15.24" width="0.04" height="2.17"/><rect class="cls-6" x="24.64" y="15.24" width="0.04" height="2.17"/><rect class="cls-7" x="24.68" y="15.24" width="0.04" height="2.17"/><rect class="cls-8" x="24.73" y="15.24" width="0.04" height="2.17"/><rect class="cls-9" x="24.77" y="15.24" width="0.04" height="2.17"/><rect class="cls-10" x="24.81" y="15.24" width="0.04" height="2.17"/><rect class="cls-11" x="24.85" y="15.24" width="0.04" height="2.17"/><rect class="cls-12" x="24.9" y="15.24" width="0.04" height="2.17"/><rect class="cls-13" x="24.94" y="15.24" width="0.04" height="2.17"/><rect class="cls-14" x="24.98" y="15.24" width="0.04" height="2.17"/><rect class="cls-15" x="25.02" y="15.24" width="0.04" height="2.17"/><rect class="cls-16" x="25.07" y="15.24" width="0.04" height="2.17"/><rect class="cls-17" x="25.11" y="15.24" width="0.04" height="2.17"/><rect class="cls-18" x="25.15" y="15.24" width="0.04" height="2.17"/><rect class="cls-19" x="25.19" y="15.24" width="0.04" height="2.17"/><rect class="cls-20" x="25.24" y="15.24" width="0.04" height="2.17"/><rect class="cls-21" x="25.28" y="15.24" width="0.04" height="2.17"/><rect class="cls-22" x="25.32" y="15.24" width="0.04" height="2.17"/><rect class="cls-23" x="25.36" y="15.24" width="0.04" height="2.17"/><rect class="cls-24" x="25.41" y="15.24" width="0.04" height="2.17"/><rect class="cls-25" x="25.45" y="15.24" width="0.04" height="2.17"/><rect class="cls-26" x="25.49" y="15.24" width="0.04" height="2.17"/><rect class="cls-27" x="25.53" y="15.24" width="0.04" height="2.17"/><rect class="cls-28" x="25.58" y="15.24" width="0.04" height="2.17"/><rect class="cls-29" x="25.62" y="15.24" width="0.04" height="2.17"/><rect class="cls-30" x="25.66" y="15.24" width="0.04" height="2.17"/><rect class="cls-31" x="25.7" y="15.24" width="0.04" height="2.17"/><rect class="cls-32" x="25.75" y="15.24" width="0.04" height="2.17"/><rect class="cls-33" x="25.79" y="15.24" width="0.04" height="2.17"/><rect class="cls-33" x="25.83" y="15.24" width="0.03" height="2.17"/></g><g class="cls-45"><rect class="cls-3" x="26.15" y="15.32" width="0.02" height="2.13"/><rect class="cls-3" x="26.17" y="15.32" width="0.02" height="2.13"/><rect class="cls-4" x="26.19" y="15.32" width="0.02" height="2.13"/><rect class="cls-5" x="26.21" y="15.32" width="0.02" height="2.13"/><rect class="cls-6" x="26.23" y="15.32" width="0.02" height="2.13"/><rect class="cls-7" x="26.25" y="15.32" width="0.02" height="2.13"/><rect class="cls-8" x="26.26" y="15.32" width="0.02" height="2.13"/><rect class="cls-9" x="26.28" y="15.32" width="0.02" height="2.13"/><rect class="cls-10" x="26.3" y="15.32" width="0.02" height="2.13"/><rect class="cls-11" x="26.32" y="15.32" width="0.02" height="2.13"/><rect class="cls-12" x="26.34" y="15.32" width="0.02" height="2.13"/><rect class="cls-13" x="26.36" y="15.32" width="0.02" height="2.13"/><rect class="cls-14" x="26.38" y="15.32" width="0.02" height="2.13"/><rect class="cls-15" x="26.4" y="15.32" width="0.02" height="2.13"/><rect class="cls-16" x="26.42" y="15.32" width="0.02" height="2.13"/><rect class="cls-17" x="26.43" y="15.32" width="0.02" height="2.13"/><rect class="cls-18" x="26.45" y="15.32" width="0.02" height="2.13"/><rect class="cls-19" x="26.47" y="15.32" width="0.02" height="2.13"/><rect class="cls-20" x="26.49" y="15.32" width="0.02" height="2.13"/><rect class="cls-21" x="26.51" y="15.32" width="0.02" height="2.13"/><rect class="cls-22" x="26.53" y="15.32" width="0.02" height="2.13"/><rect class="cls-23" x="26.55" y="15.32" width="0.02" height="2.13"/><rect class="cls-24" x="26.57" y="15.32" width="0.02" height="2.13"/><rect class="cls-25" x="26.59" y="15.32" width="0.02" height="2.13"/><rect class="cls-26" x="26.6" y="15.32" width="0.02" height="2.13"/><rect class="cls-27" x="26.62" y="15.32" width="0.02" height="2.13"/><rect class="cls-28" x="26.64" y="15.32" width="0.02" height="2.13"/><rect class="cls-29" x="26.66" y="15.32" width="0.02" height="2.13"/><rect class="cls-30" x="26.68" y="15.32" width="0.02" height="2.13"/><rect class="cls-31" x="26.7" y="15.32" width="0.02" height="2.13"/><rect class="cls-32" x="26.72" y="15.32" width="0.02" height="2.13"/><rect class="cls-33" x="26.74" y="15.32" width="0.02" height="2.13"/><rect class="cls-33" x="26.76" y="15.32" height="2.13"/></g></svg>