<svg id="Layer_1" data-name="Layer 1" xmlns="http://www.w3.org/2000/svg" viewBox="0 0 68 70"><defs><style>.cls-1{fill:#c2e2f6;}.cls-2{fill:#2f8ecd;}</style></defs><title>See our services</title><g id="_614_Aerosol_Bottle_Cleaning_Spray" data-name="614, Aerosol, Bottle, Cleaning, Spray"><path class="cls-1" d="M44.79,38.2a9.13,9.13,0,1,1,0,18.25,9,9,0,0,1-6.07-2.28,9.31,9.31,0,0,1-3-6v-.73a8.87,8.87,0,0,1,3-6.74A8.08,8.08,0,0,1,44.79,38.2Z"/><path class="cls-1" d="M44.79,31.67a15.56,15.56,0,1,1,0,31.11,15.81,15.81,0,0,1-10.47-3.94,15.26,15.26,0,0,1-5.13-10.27c0-.41-.11-.83-.11-1.35A15.61,15.61,0,0,1,44.79,31.67ZM53.9,47.22a9.17,9.17,0,0,0-9.21-9.12,9,9,0,0,0-9.12,9v.72a9.35,9.35,0,0,0,3,6,9,9,0,0,0,6.08,2.28A8.88,8.88,0,0,0,53.9,47.22Z"/><path class="cls-1" d="M53.9,12.28a2.59,2.59,0,1,1,0,5.18,2.65,2.65,0,0,1-2.62-2.59A2.58,2.58,0,0,1,53.9,12.28Z"/><path class="cls-1" d="M42.8,21.3a2,2,0,0,1,2,2,1.92,1.92,0,0,1-2,2,2,2,0,1,1,0-3.94Z"/><polygon class="cls-1" points="26.46 9.68 26.46 13.52 19.86 13.52 19.86 7.09 26.46 7.09 26.46 9.68"/><polygon class="cls-1" points="29.08 13.52 29.08 17.46 17.25 17.46 17.25 13.52 19.86 13.52 26.46 13.52 29.08 13.52"/><path class="cls-1" d="M29.08,48.57H10.75v-13H34.32v.1a15.2,15.2,0,0,0-5.24,11.61Z"/><path class="cls-1" d="M29.08,48.57a15.79,15.79,0,0,0,5.13,10.27v3.94H10.75V48.57Z"/><path class="cls-1" d="M34.32,27.73v7.88H10.75V28.35a14.3,14.3,0,0,1,1.37-5.91l2.09-4.88H31.8l1.68,5.29A15.54,15.54,0,0,1,34.32,27.73Z"/><path class="cls-2" d="M17.25,18.7a1.37,1.37,0,0,1-1.36-1.34V13.52a1.37,1.37,0,0,1,1.36-1.35h2.62a1.35,1.35,0,1,1,0,2.7H18.5v2.59A1.19,1.19,0,0,1,17.25,18.7Z"/><path class="cls-2" d="M29.08,18.7a1.38,1.38,0,0,1-1.36-1.34v-2.6H26.36a1.35,1.35,0,1,1,0-2.69H29a1.38,1.38,0,0,1,1.36,1.35v3.94A1.36,1.36,0,0,1,29.08,18.7Z"/><path class="cls-2" d="M26.46,14.87H19.87a1.38,1.38,0,0,1-1.37-1.35V7a1.38,1.38,0,0,1,1.37-1.35h6.59A1.38,1.38,0,0,1,27.83,7v6.53A1.56,1.56,0,0,1,26.46,14.87Zm-5.23-2.59H25.1V8.33h-4v3.95Z"/><path class="cls-2" d="M40.81,16.11a1.38,1.38,0,0,1-1.36-1.35V10.82h-13a1.35,1.35,0,1,1,0-2.69H40.81a1.38,1.38,0,0,1,1.36,1.35v5.18A1.4,1.4,0,0,1,40.81,16.11Z"/><path class="cls-2" d="M34.32,64.12H10.75a1.38,1.38,0,0,1-1.36-1.34V48.57a1.37,1.37,0,0,1,2.73,0v13H33.06V58.84a1.38,1.38,0,0,1,1.36-1.35,1.2,1.2,0,0,1,1.15,1.35v3.94A1.35,1.35,0,0,1,34.32,64.12Z"/><path class="cls-2" d="M34.32,36.85A1.37,1.37,0,0,1,33,35.5V27.62a12.77,12.77,0,0,0-.74-4.46L30.65,18.7H14.94l-1.78,4.15a13.64,13.64,0,0,0-1.25,5.5v7.26A1.38,1.38,0,0,1,10.54,37a1.26,1.26,0,0,1-1.15-1.34V28.35a18.33,18.33,0,0,1,1.36-6.43l2.1-4.87a1.26,1.26,0,0,1,1.26-.83H31.7a1.32,1.32,0,0,1,1.26.93l1.78,5.39a15.47,15.47,0,0,1,.83,5.29v7.88A1.33,1.33,0,0,1,34.32,36.85Z"/><path class="cls-2" d="M29.08,49.81H10.75a1.38,1.38,0,0,1-1.36-1.34V35.61a1.38,1.38,0,0,1,1.36-1.35H34.32a1.38,1.38,0,0,1,1.36,1.35v.1a1.38,1.38,0,0,1-1.36,1.35A.6.6,0,0,1,33.9,37H12V47.32H29.08a1.39,1.39,0,0,1,1.36,1.35A1.36,1.36,0,0,1,29.08,49.81Z"/><path class="cls-2" d="M44.79,64.12a16.94,16.94,0,0,1-17-15.45c0-.51-.11-.93-.11-1.45a17,17,0,1,1,17.07,16.9Zm0-31.11a14.46,14.46,0,0,0-9.63,3.63,14.19,14.19,0,0,0-4.82,10.58v1.14a14.43,14.43,0,0,0,28.8-1.24A14.22,14.22,0,0,0,44.79,33Z"/><path class="cls-2" d="M44.79,57.59a10.84,10.84,0,0,1-7-2.59,10.33,10.33,0,0,1-3.45-6.84v-.84a10.54,10.54,0,0,1,3.45-7.77,10.66,10.66,0,0,1,7-2.6,10.32,10.32,0,1,1,0,20.64Zm0-18.15a8.25,8.25,0,0,0-5.24,2,7.78,7.78,0,0,0-2.61,5.81v.62A7.81,7.81,0,0,0,39.55,53a8.25,8.25,0,0,0,5.24,2,7.78,7.78,0,1,0,0-15.56Z"/><path class="cls-2" d="M48.67,48.57a1.38,1.38,0,0,1-1.37-1.35,2.58,2.58,0,0,0-2.61-2.59,1.35,1.35,0,1,1,0-2.7,5.16,5.16,0,0,1,5.23,5.19A1.26,1.26,0,0,1,48.67,48.57Z"/><path class="cls-2" d="M26.46,42H10.75a1.35,1.35,0,1,1,0-2.7H26.46a1.38,1.38,0,0,1,1.37,1.35A1.47,1.47,0,0,1,26.46,42Z"/><path class="cls-2" d="M42.8,26.48a3.22,3.22,0,1,1,3.25-3.21A3.25,3.25,0,0,1,42.8,26.48Zm0-3.84a.69.69,0,0,0-.63.63.63.63,0,0,0,1.26,0A.61.61,0,0,0,42.8,22.64Z"/><path class="cls-2" d="M53.9,18.7a3.94,3.94,0,1,1,4-3.94A4,4,0,0,1,53.9,18.7Zm0-5.18a1.35,1.35,0,1,0,1.36,1.35A1.38,1.38,0,0,0,53.9,13.52Z"/></g></svg>