<svg id="Layer_1" data-name="Layer 1" xmlns="http://www.w3.org/2000/svg" xmlns:xlink="http://www.w3.org/1999/xlink" viewBox="0 0 150 54"><defs><style>.cls-1{fill:url(#Degradado_sin_nombre_50);}.cls-2{fill:url(#Degradado_sin_nombre_50-2);}.cls-3{fill:url(#Degradado_sin_nombre_51);}.cls-4{fill:url(#Degradado_sin_nombre_51-2);}.cls-5{fill:url(#Degradado_sin_nombre_50-3);}.cls-6{fill:#aeadae;}.cls-7{fill:url(#Degradado_sin_nombre_51-3);}.cls-8{fill:url(#Degradado_sin_nombre_51-4);}.cls-9{fill:url(#Degradado_sin_nombre_51-5);}.cls-10{font-size:11.53px;fill:#fff;font-family:Verdana-Bold, Verdana;font-weight:700;}.cls-11{fill:url(#linear-gradient);}.cls-12{fill:url(#linear-gradient-2);}.cls-13{fill:url(#linear-gradient-3);}.cls-14{fill:url(#linear-gradient-4);}.cls-15{fill:url(#linear-gradient-5);}.cls-16{fill:url(#linear-gradient-6);}.cls-17{fill:url(#linear-gradient-7);}.cls-18{fill:url(#linear-gradient-8);}</style><linearGradient id="Degradado_sin_nombre_50" x1="20.41" y1="2.32" x2="20.41" y2="54.32" gradientUnits="userSpaceOnUse"><stop offset="0" stop-color="#2d2f78"/><stop offset="0.44" stop-color="#2a2a6d"/><stop offset="1" stop-color="#242158"/></linearGradient><linearGradient id="Degradado_sin_nombre_50-2" x1="41.45" y1="2.32" x2="41.45" y2="54.32" xlink:href="#Degradado_sin_nombre_50"/><linearGradient id="Degradado_sin_nombre_51" x1="57.98" y1="43.76" x2="57.98" y2="53.53" gradientUnits="userSpaceOnUse"><stop offset="0" stop-color="#0fbdcb"/><stop offset="0.35" stop-color="#10bbcb"/><stop offset="0.56" stop-color="#12b2c9"/><stop offset="0.73" stop-color="#16a4c6"/><stop offset="0.88" stop-color="#1b90c2"/><stop offset="1" stop-color="#2279be"/></linearGradient><linearGradient id="Degradado_sin_nombre_51-2" x1="48.58" y1="18.68" x2="43.69" y2="28.78" xlink:href="#Degradado_sin_nombre_51"/><linearGradient id="Degradado_sin_nombre_50-3" x1="42.84" y1="-0.05" x2="42.84" y2="54.52" xlink:href="#Degradado_sin_nombre_50"/><linearGradient id="Degradado_sin_nombre_51-3" x1="59.8" y1="22.75" x2="59.8" y2="36.63" xlink:href="#Degradado_sin_nombre_51"/><linearGradient id="Degradado_sin_nombre_51-4" x1="55.76" y1="22.75" x2="55.76" y2="36.63" xlink:href="#Degradado_sin_nombre_51"/><linearGradient id="Degradado_sin_nombre_51-5" x1="62.66" y1="22.75" x2="62.66" y2="36.63" xlink:href="#Degradado_sin_nombre_51"/><linearGradient id="linear-gradient" x1="116.75" y1="31.78" x2="126.55" y2="31.78" gradientUnits="userSpaceOnUse"><stop offset="0.01" stop-color="#ee4036"/><stop offset="0.39" stop-color="#ec3e36"/><stop offset="0.62" stop-color="#e33935"/><stop offset="0.8" stop-color="#d53033"/><stop offset="0.96" stop-color="#c12431"/><stop offset="1" stop-color="#bb2030"/></linearGradient><linearGradient id="linear-gradient-2" x1="127.75" y1="31.78" x2="134.56" y2="31.78" xlink:href="#linear-gradient"/><linearGradient id="linear-gradient-3" x1="135.6" y1="31.78" x2="142.4" y2="31.78" xlink:href="#linear-gradient"/><linearGradient id="linear-gradient-4" x1="77" y1="26.19" x2="77" y2="37.17" gradientUnits="userSpaceOnUse"><stop offset="0" stop-color="#0fbdcb"/><stop offset="0.23" stop-color="#10b8ca"/><stop offset="0.48" stop-color="#14abc8"/><stop offset="0.75" stop-color="#1a94c3"/><stop offset="1" stop-color="#2279be"/></linearGradient><linearGradient id="linear-gradient-5" x1="86.84" y1="26.19" x2="86.84" y2="37.37" xlink:href="#linear-gradient-4"/><linearGradient id="linear-gradient-6" x1="96.13" y1="25.98" x2="96.13" y2="37.37" xlink:href="#linear-gradient-4"/><linearGradient id="linear-gradient-7" x1="104.31" y1="26.19" x2="104.31" y2="37.17" xlink:href="#linear-gradient-4"/><linearGradient id="linear-gradient-8" x1="111.81" y1="32.03" x2="111.81" y2="33.78" xlink:href="#linear-gradient-4"/></defs><title>dust off images</title><path class="cls-1" d="M27.29,39.51l-2.87-14H27a1,1,0,0,0,1-1.3L25.42,11.6a1.68,1.68,0,0,0-1.57-1.29H21.29L20.1,4.53a3.92,3.92,0,0,0-3.67-3.05H12.79l.55,2.71h2.41a2,2,0,0,1,1.9,1.58l7,34a7.6,7.6,0,0,1,1.92-.24Z"/><path class="cls-2" d="M49.45,52a4.23,4.23,0,0,1-.14-1.06,4.18,4.18,0,0,1,.94-2.63h-16A7.64,7.64,0,0,1,32.64,52Z"/><path class="cls-3" d="M61.85,48.05a2.77,2.77,0,0,0-1,.18,3.74,3.74,0,0,0-6.81.19h-.15A2.61,2.61,0,0,0,51.32,51a2.66,2.66,0,0,0,.18.94H64.4a2.62,2.62,0,0,0,.24-1.12A2.79,2.79,0,0,0,61.85,48.05Z"/><path class="cls-4" d="M46.8,31.32,50.92,33a3.25,3.25,0,0,0,.52-1.77A3.31,3.31,0,0,0,48.79,28a4.37,4.37,0,0,0-7.64-3.69A3.29,3.29,0,0,0,35.81,26h4.1A7.39,7.39,0,0,1,46.8,31.32Z"/><path class="cls-5" d="M57.43,39.22a5,5,0,0,0-3-3.49l-8.58-3.6-.09-.43A6.14,6.14,0,0,0,40.09,27H28.91a1.63,1.63,0,0,0-1.59,2L28,32.13l1.55,7.54a8.11,8.11,0,0,1,4.67,6.18H54.37a5.69,5.69,0,0,1,4-1.92ZM43.27,33.13H37.19l4.46-.49a.5.5,0,0,0,.43-.6,5.2,5.2,0,0,0-3.87-3.69h1.37A4.74,4.74,0,0,1,43.93,32l.06.28A.73.73,0,0,1,43.27,33.13Zm10.6,7.23-.17-.8a3.62,3.62,0,0,0-2.12-2.48l-6.23-2.62h.16a9.12,9.12,0,0,1,3.53.71L53.43,37a3.62,3.62,0,0,1,2.12,2.48l.55,2.68A2.28,2.28,0,0,1,53.87,40.36Z"/><path class="cls-6" d="M26.54,41.75A5.47,5.47,0,1,0,32,47.22,5.47,5.47,0,0,0,26.54,41.75Zm0,7.6a2.14,2.14,0,1,1,2.14-2.13A2.13,2.13,0,0,1,26.54,49.35Z"/><path class="cls-6" d="M9,4.19H12l-.56-2.71H9A1.35,1.35,0,0,0,7.6,2.84h0A1.35,1.35,0,0,0,9,4.19Z"/><circle class="cls-7" cx="59.8" cy="23.78" r="3.38"/><circle class="cls-8" cx="55.76" cy="28.91" r="2.69"/><circle class="cls-9" cx="62.66" cy="30.81" r="2.69"/><text class="cls-10" transform="translate(80.01 50.65)">Cleaning</text><path class="cls-11" d="M116.75,31.73c0-3.52,2-5.54,4.9-5.54s4.9,2,4.9,5.54-2,5.64-4.9,5.64S116.75,35.25,116.75,31.73Zm7.3,0c0-2.16-.93-3.44-2.4-3.44s-2.4,1.28-2.4,3.44.93,3.53,2.4,3.53S124.05,33.89,124.05,31.73Z"/><path class="cls-12" d="M127.75,26.39h6.81v2h-4.37v2.5h3.73v2h-3.73v4.19h-2.44Z"/><path class="cls-13" d="M135.6,26.39h6.8v2H138v2.5h3.73v2H138v4.19H135.6Z"/><path class="cls-14" d="M72.69,26.19h3.1c3.36,0,5.52,1.67,5.52,5.44s-2.16,5.54-5.38,5.54H72.69Zm3,9c1.86,0,3.12-.91,3.12-3.54s-1.26-3.44-3.12-3.44h-.47v7Z"/><path class="cls-15" d="M82.48,32.08V26.19H85v6.14c0,2.15.68,2.9,1.91,2.9s1.95-.75,1.95-2.9V26.19h2.39v5.89c0,3.69-1.5,5.29-4.34,5.29S82.48,35.77,82.48,32.08Z"/><path class="cls-16" d="M92,35.78l1.42-1.7a4.36,4.36,0,0,0,2.7,1.15c1,0,1.54-.41,1.54-1.06s-.62-.92-1.58-1.31l-1.43-.61a3.19,3.19,0,0,1-2.21-3c0-1.82,1.62-3.28,3.91-3.28a5.09,5.09,0,0,1,3.53,1.44L98.66,29a3.58,3.58,0,0,0-2.28-.86c-.86,0-1.4.35-1.4,1s.71.92,1.67,1.3l1.4.57a3,3,0,0,1,2.18,3c0,1.82-1.52,3.4-4.14,3.4A6,6,0,0,1,92,35.78Z"/><path class="cls-17" d="M103.07,28.27h-3V26.19h8.53v2.08h-3v8.9h-2.48Z"/><path class="cls-18" d="M109.74,32h4.14v1.75h-4.14Z"/></svg>