<svg width="150" height="60" viewBox="0 0 150 60" fill="none" xmlns="http://www.w3.org/2000/svg">
<path d="M55.5056 20.9874V17.7403H58.9241C59.3475 17.7403 59.7299 17.6589 60.0717 17.4962C60.4297 17.3171 60.7149 17.0567 60.9263 16.7149C61.1378 16.3731 61.2438 15.9499 61.2438 15.4454C61.2438 14.9408 61.1378 14.5176 60.9263 14.1758C60.7149 13.8178 60.4297 13.5573 60.0717 13.3946C59.7299 13.2155 59.3475 13.126 58.9241 13.126H55.5056V9.87891H59.681C60.7881 9.87891 61.7893 10.1068 62.6844 10.5625C63.5795 11.002 64.2876 11.6367 64.8087 12.4668C65.3298 13.2807 65.5901 14.2735 65.5901 15.4454C65.5901 16.5847 65.3298 17.5776 64.8087 18.4239C64.2876 19.254 63.5795 19.8888 62.6844 20.3282C61.7893 20.7677 60.7881 20.9874 59.681 20.9874H55.5056ZM52.0383 27.1887V9.87891H56.4091V27.1887H52.0383ZM67.5141 27.1887V9.87891H71.8848V27.1887H67.5141ZM70.9814 27.1887V23.4289H79.3322V27.1887H70.9814ZM87.9017 27.4572C86.4366 27.4572 85.1425 27.1561 84.0193 26.5539C82.9127 25.9354 82.0498 25.0809 81.431 23.9904C80.8128 22.8999 80.5031 21.6629 80.5031 20.2794V9.87891H84.8495V20.5968C84.8495 21.2153 84.9799 21.7524 85.2401 22.2081C85.5171 22.6476 85.8833 22.9894 86.3389 23.2335C86.8112 23.4614 87.3323 23.5753 87.9017 23.5753C88.4877 23.5753 89.0005 23.4614 89.44 23.2335C89.8795 22.9894 90.2297 22.6476 90.4899 22.2081C90.7508 21.7687 90.8806 21.2397 90.8806 20.6212V9.87891H95.2758V20.3038C95.2758 21.6873 94.9667 22.9243 94.3479 24.0148C93.7297 25.089 92.8668 25.9354 91.7596 26.5539C90.6692 27.1561 89.3834 27.4572 87.9017 27.4572ZM98.0599 27.1887V9.87891H101.21L107.851 19.9132H106.362L112.979 9.87891H116.129V27.1887H111.807V17.1055L112.491 17.3009L108.511 23.2824H105.678L101.723 17.3009L102.406 17.1055V27.1887H98.0599ZM119.211 27.1887V9.87891H123.581V27.1887H119.211ZM122.678 27.1887V23.5021H132.054V27.1887H122.678ZM122.678 20.1573V16.5684H131.175V20.1573H122.678ZM122.678 13.5655V9.87891H131.908V13.5655H122.678ZM137.987 20.1818V17.0567H141.283C141.999 17.0567 142.544 16.8858 142.919 16.544C143.31 16.186 143.505 15.7058 143.505 15.1036C143.505 14.5176 143.31 14.0456 142.919 13.6875C142.544 13.3132 141.999 13.126 141.283 13.126H137.987V9.87891H141.893C143.065 9.87891 144.091 10.0986 144.97 10.5381C145.865 10.9776 146.565 11.5798 147.07 12.3448C147.574 13.1098 147.827 14.0049 147.827 15.0303C147.827 16.0557 147.567 16.9591 147.046 17.7403C146.541 18.5053 145.833 19.1075 144.921 19.547C144.009 19.9702 142.943 20.1818 141.722 20.1818H137.987ZM134.519 27.1887V9.87891H138.89V27.1887H134.519ZM143.896 27.1887L138.866 19.7667L142.797 18.8146L148.95 27.1887H143.896Z" fill="white"/>
<path d="M54.6491 38.1519H53.0059V37.2892H54.6491C54.9352 37.2892 55.1664 37.243 55.3427 37.1505C55.5189 37.0581 55.6476 36.9309 55.7286 36.769C55.8124 36.6043 55.8541 36.4165 55.8541 36.2055C55.8541 36.0061 55.8124 35.8197 55.7286 35.6463C55.6476 35.47 55.5189 35.3284 55.3427 35.2215C55.1664 35.1146 54.9352 35.0611 54.6491 35.0611H53.3397V40.5058H52.2515V34.1941H54.6491C55.1375 34.1941 55.5522 34.2808 55.8935 34.4542C56.2375 34.6247 56.4989 34.8617 56.6782 35.1651C56.8574 35.4657 56.9467 35.8096 56.9467 36.1968C56.9467 36.6043 56.8574 36.954 56.6782 37.2459C56.4989 37.5377 56.2375 37.7617 55.8935 37.9178C55.5522 38.0739 55.1375 38.1519 54.6491 38.1519ZM61.8763 39.6431V40.5058H58.707V39.6431H61.8763ZM59.0106 34.1941V40.5058H57.9223V34.1941H59.0106ZM66.0773 34.1941H67.1611V38.412C67.1611 38.8917 67.0573 39.2934 66.8492 39.6171C66.6411 39.9408 66.3581 40.185 65.9996 40.3497C65.6438 40.5115 65.2465 40.5924 64.807 40.5924C64.3536 40.5924 63.9485 40.5115 63.5933 40.3497C63.2376 40.185 62.9574 39.9408 62.752 39.6171C62.55 39.2934 62.4485 38.8917 62.4485 38.412V34.1941H63.5323V38.412C63.5323 38.7154 63.5844 38.9654 63.6888 39.1619C63.7925 39.3556 63.9402 39.4986 64.1305 39.5911C64.3214 39.6835 64.5467 39.7298 64.807 39.7298C65.0673 39.7298 65.2915 39.6835 65.479 39.5911C65.6699 39.4986 65.8175 39.3556 65.9213 39.1619C66.0256 38.9654 66.0773 38.7154 66.0773 38.412V34.1941ZM68.7871 34.1941H69.7582L71.5834 39.0622L73.4042 34.1941H74.3753L71.9652 40.5058H71.1933L68.7871 34.1941ZM68.3448 34.1941H69.2682L69.4286 38.4077V40.5058H68.3448V34.1941ZM73.8942 34.1941H74.8221V40.5058H73.7338V38.4077L73.8942 34.1941ZM78.4814 37.6534H76.8726L76.8643 36.8601H78.2688C78.5058 36.8601 78.7067 36.8254 78.8715 36.756C79.0391 36.6838 79.1662 36.5812 79.2528 36.4483C79.3399 36.3124 79.3832 36.1491 79.3832 35.9584C79.3832 35.7475 79.3427 35.5755 79.2616 35.4426C79.1806 35.3096 79.0563 35.2128 78.8887 35.1521C78.7239 35.0914 78.513 35.0611 78.2561 35.0611H77.2022V40.5058H76.114V34.1941H78.2561C78.6029 34.1941 78.912 34.2273 79.184 34.2938C79.4581 34.3603 79.6912 34.4643 79.8815 34.6059C80.0752 34.7446 80.2211 34.9209 80.3194 35.1348C80.4209 35.3486 80.4714 35.603 80.4714 35.8977C80.4714 36.1578 80.4093 36.3963 80.285 36.613C80.1607 36.8268 79.977 37.0017 79.7345 37.1375C79.4914 37.2734 79.1895 37.3543 78.8282 37.3803L78.4814 37.6534ZM78.4337 40.5058H76.5302L77.0202 39.6431H78.4337C78.6795 39.6431 78.8843 39.6026 79.0491 39.5217C79.2139 39.4379 79.3371 39.3238 79.4176 39.1793C79.5014 39.0319 79.5436 38.86 79.5436 38.6634C79.5436 38.4582 79.5075 38.2805 79.4353 38.1302C79.3626 37.977 79.2489 37.86 79.0924 37.7791C78.9364 37.6953 78.7328 37.6534 78.4814 37.6534H77.2588L77.2672 36.8601H78.8588L79.1057 37.1592C79.4525 37.1708 79.7372 37.2473 79.9598 37.3889C80.1851 37.5305 80.3527 37.7141 80.4625 37.9395C80.5724 38.1649 80.6274 38.4077 80.6274 38.6677C80.6274 39.0695 80.5391 39.4061 80.3626 39.6778C80.1895 39.9494 79.9392 40.1561 79.6129 40.2977C79.2861 40.4364 78.8932 40.5058 78.4337 40.5058ZM82.886 34.1941V40.5058H81.7977V34.1941H82.886ZM89.2462 34.1941V40.5058H88.158L85.3272 35.9844V40.5058H84.2389V34.1941H85.3272L88.1668 38.7241V34.1941H89.2462ZM95.39 37.2806V39.6908C95.3001 39.8093 95.1603 39.9393 94.9694 40.0809C94.7812 40.2197 94.5315 40.3396 94.2191 40.4407C93.9072 40.5419 93.5182 40.5924 93.0531 40.5924C92.6569 40.5924 92.294 40.526 91.9649 40.3931C91.6352 40.2572 91.3506 40.0592 91.1108 39.7992C90.8739 39.5391 90.6902 39.2226 90.5603 38.8498C90.4299 38.4741 90.365 38.0464 90.365 37.5667V37.1289C90.365 36.652 90.4244 36.2272 90.5426 35.8544C90.6641 35.4787 90.8378 35.1608 91.0631 34.9007C91.2884 34.6406 91.5603 34.4441 91.8778 34.3111C92.1991 34.1753 92.5615 34.1074 92.966 34.1074C93.4838 34.1074 93.9116 34.1941 94.2496 34.3675C94.5909 34.538 94.8534 34.775 95.0387 35.0784C95.2235 35.3818 95.3406 35.7286 95.39 36.1188H94.3234C94.2884 35.8992 94.2207 35.7027 94.1197 35.5292C94.021 35.3559 93.8794 35.2201 93.6947 35.1218C93.5126 35.0206 93.2757 34.97 92.9838 34.97C92.7324 34.97 92.511 35.0177 92.32 35.1131C92.1297 35.2085 91.9704 35.3486 91.8434 35.5336C91.719 35.7185 91.6253 35.9439 91.5614 36.2098C91.4982 36.4757 91.466 36.7792 91.466 37.1202V37.5667C91.466 37.9135 91.5021 38.2212 91.5748 38.49C91.6497 38.7588 91.7568 38.9856 91.8955 39.1706C92.037 39.3556 92.2091 39.4957 92.4111 39.5911C92.6136 39.6835 92.8417 39.7298 93.0964 39.7298C93.345 39.7298 93.5487 39.7096 93.7074 39.6691C93.8667 39.6258 93.9921 39.5752 94.0848 39.5174C94.1802 39.4567 94.254 39.3989 94.3062 39.344V38.0912H92.9921V37.2806H95.39ZM99.7818 37.0725L100.87 36.3399C101.052 36.2185 101.182 36.1 101.26 35.9844C101.338 35.8659 101.377 35.7185 101.377 35.5423C101.377 35.392 101.32 35.2533 101.204 35.1261C101.088 34.9989 100.925 34.9353 100.714 34.9353C100.567 34.9353 100.442 34.97 100.341 35.0394C100.24 35.1059 100.163 35.1955 100.111 35.3082C100.062 35.418 100.038 35.5408 100.038 35.6767C100.038 35.8067 100.071 35.941 100.137 36.0798C100.204 36.2156 100.295 36.3586 100.411 36.509C100.526 36.6563 100.656 36.8153 100.801 36.9858L103.784 40.5058H102.574L100.137 37.6403C99.9261 37.386 99.7397 37.1534 99.5782 36.9424C99.4161 36.7286 99.2902 36.5219 99.2008 36.3225C99.1109 36.1203 99.0665 35.9122 99.0665 35.6983C99.0665 35.3689 99.1342 35.0857 99.2702 34.8487C99.4061 34.6117 99.5982 34.4296 99.8468 34.3025C100.095 34.1724 100.386 34.1074 100.718 34.1074C101.039 34.1074 101.315 34.1724 101.546 34.3025C101.78 34.4296 101.959 34.5987 102.084 34.8097C102.211 35.0206 102.275 35.2518 102.275 35.5033C102.275 35.7027 102.239 35.8847 102.166 36.0495C102.094 36.2142 101.994 36.3645 101.867 36.5002C101.74 36.6361 101.593 36.7647 101.425 36.8861L100.103 37.8484C99.9494 37.9727 99.8351 38.0926 99.7602 38.2083C99.6875 38.3209 99.6398 38.425 99.617 38.5204C99.5937 38.6157 99.5821 38.6995 99.5821 38.7718C99.5821 38.9567 99.6215 39.1243 99.6992 39.2746C99.7802 39.4249 99.8973 39.5448 100.05 39.6344C100.206 39.7211 100.396 39.7645 100.618 39.7645C100.858 39.7645 101.091 39.711 101.316 39.6041C101.542 39.4943 101.744 39.3396 101.923 39.1403C102.103 38.9408 102.244 38.7024 102.348 38.425C102.455 38.1475 102.509 37.8398 102.509 37.5016H103.411C103.411 37.808 103.38 38.0984 103.32 38.3729C103.262 38.6475 103.168 38.9018 103.038 39.1359C102.911 39.37 102.743 39.5795 102.535 39.7645C102.514 39.7847 102.492 39.8107 102.466 39.8425C102.442 39.8714 102.419 39.8959 102.396 39.9162C102.148 40.1445 101.868 40.315 101.559 40.4277C101.253 40.5375 100.926 40.5924 100.579 40.5924C100.16 40.5924 99.7974 40.5159 99.4911 40.3627C99.1847 40.2095 98.9478 39.9985 98.7802 39.7298C98.6153 39.461 98.5332 39.1533 98.5332 38.8065C98.5332 38.5493 98.5865 38.3238 98.6936 38.1302C98.8001 37.9337 98.9461 37.7516 99.1314 37.584C99.319 37.4135 99.536 37.243 99.7818 37.0725ZM106.714 34.1941H108.947C109.427 34.1941 109.836 34.2663 110.174 34.4108C110.512 34.5553 110.771 34.7692 110.95 35.0524C111.132 35.3327 111.223 35.6795 111.223 36.0928C111.223 36.4078 111.165 36.6852 111.049 36.9251C110.934 37.165 110.771 37.3673 110.56 37.532C110.349 37.6938 110.097 37.8196 109.805 37.9091L109.476 38.0695H107.468L107.46 37.2069H108.965C109.224 37.2069 109.441 37.1607 109.614 37.0682C109.788 36.9757 109.918 36.85 110.005 36.691C110.094 36.5292 110.139 36.3471 110.139 36.1448C110.139 35.9252 110.096 35.7344 110.009 35.5726C109.925 35.4079 109.795 35.2821 109.619 35.1955C109.443 35.1059 109.219 35.0611 108.947 35.0611H107.802V40.5058H106.714V34.1941ZM110.317 40.5058L108.834 37.6707L109.975 37.6664L111.479 40.4494V40.5058H110.317ZM116.439 39.6431V40.5058H113.087V39.6431H116.439ZM113.395 34.1941V40.5058H112.307V34.1941H113.395ZM116.001 36.8297V37.6793H113.087V36.8297H116.001ZM116.417 34.1941V35.0611H113.087V34.1941H116.417ZM119.725 38.1519H118.082V37.2892H119.725C120.011 37.2892 120.242 37.243 120.419 37.1505C120.595 37.0581 120.724 36.9309 120.805 36.769C120.889 36.6043 120.93 36.4165 120.93 36.2055C120.93 36.0061 120.889 35.8197 120.805 35.6463C120.724 35.47 120.595 35.3284 120.419 35.2215C120.242 35.1146 120.011 35.0611 119.725 35.0611H118.416V40.5058H117.328V34.1941H119.725C120.213 34.1941 120.628 34.2808 120.969 34.4542C121.313 34.6247 121.575 34.8617 121.754 35.1651C121.933 35.4657 122.023 35.8096 122.023 36.1968C122.023 36.6043 121.933 36.954 121.754 37.2459C121.575 37.5377 121.313 37.7617 120.969 37.9178C120.628 38.0739 120.213 38.1519 119.725 38.1519ZM124.798 35.0351L122.911 40.5058H121.772L124.147 34.1941H124.875L124.798 35.0351ZM126.376 40.5058L124.485 35.0351L124.403 34.1941H125.136L127.52 40.5058H126.376ZM126.284 38.1649V39.0275H122.851V38.1649H126.284ZM129.389 34.1941V40.5058H128.3V34.1941H129.389ZM130.742 34.1941H132.974C133.454 34.1941 133.863 34.2663 134.201 34.4108C134.54 34.5553 134.798 34.7692 134.978 35.0524C135.16 35.3327 135.251 35.6795 135.251 36.0928C135.251 36.4078 135.193 36.6852 135.077 36.9251C134.961 37.165 134.798 37.3673 134.587 37.532C134.376 37.6938 134.125 37.8196 133.833 37.9091L133.503 38.0695H131.496L131.488 37.2069H132.991C133.252 37.2069 133.469 37.1607 133.642 37.0682C133.816 36.9757 133.945 36.85 134.032 36.691C134.122 36.5292 134.167 36.3471 134.167 36.1448C134.167 35.9252 134.124 35.7344 134.036 35.5726C133.953 35.4079 133.823 35.2821 133.646 35.1955C133.47 35.1059 133.246 35.0611 132.974 35.0611H131.83V40.5058H130.742V34.1941ZM134.344 40.5058L132.862 37.6707L134.002 37.6664L135.506 40.4494V40.5058H134.344ZM137.496 34.1941V40.5058H136.408V34.1941H137.496ZM143.857 34.1941V40.5058H142.768L139.937 35.9844V40.5058H138.849V34.1941H139.937L142.777 38.7241V34.1941H143.857ZM150 37.2806V39.6908C149.91 39.8093 149.77 39.9393 149.579 40.0809C149.392 40.2197 149.141 40.3396 148.83 40.4407C148.517 40.5419 148.128 40.5924 147.663 40.5924C147.267 40.5924 146.904 40.526 146.575 40.3931C146.245 40.2572 145.96 40.0592 145.721 39.7992C145.484 39.5391 145.3 39.2226 145.17 38.8498C145.04 38.4741 144.975 38.0464 144.975 37.5667V37.1289C144.975 36.652 145.034 36.2272 145.152 35.8544C145.274 35.4787 145.448 35.1608 145.673 34.9007C145.898 34.6406 146.17 34.4441 146.488 34.3111C146.809 34.1753 147.172 34.1074 147.576 34.1074C148.094 34.1074 148.522 34.1941 148.86 34.3675C149.201 34.538 149.464 34.775 149.649 35.0784C149.833 35.3818 149.951 35.7286 150 36.1188H148.933C148.898 35.8992 148.831 35.7027 148.73 35.5292C148.631 35.3559 148.49 35.2201 148.305 35.1218C148.123 35.0206 147.886 34.97 147.594 34.97C147.342 34.97 147.121 35.0177 146.931 35.1131C146.74 35.2085 146.58 35.3486 146.453 35.5336C146.329 35.7185 146.235 35.9439 146.171 36.2098C146.108 36.4757 146.076 36.7792 146.076 37.1202V37.5667C146.076 37.9135 146.113 38.2212 146.185 38.49C146.26 38.7588 146.367 38.9856 146.505 39.1706C146.647 39.3556 146.819 39.4957 147.022 39.5911C147.224 39.6835 147.452 39.7298 147.706 39.7298C147.955 39.7298 148.159 39.7096 148.318 39.6691C148.477 39.6258 148.603 39.5752 148.695 39.5174C148.79 39.4567 148.864 39.3989 148.916 39.344V38.0912H147.603V37.2806H150Z" fill="#FF9D15"/>
<path fill-rule="evenodd" clip-rule="evenodd" d="M3.24867 10.4617L20.3391 0.598595C21.7223 -0.199532 23.3056 -0.199532 24.6895 0.598595L41.7799 10.4617C43.1637 11.2604 43.9558 12.6318 43.9558 14.2293V19.4206H43.9813H44.2923C44.6976 19.4206 45.0286 19.7522 45.0286 20.1568V20.258C45.0286 20.6632 44.6969 20.9942 44.2923 20.9942H44.1361H43.9806H43.9558V21.8542C44.7176 21.8928 45.3279 22.5271 45.3279 23.2977V28.1773C45.3279 28.9479 44.7169 29.5823 43.9558 29.6208V30.4809H43.9813H44.2923C44.6976 30.4809 45.0286 30.8125 45.0286 31.2171V31.3182C45.0286 31.7228 44.6969 32.0544 44.2923 32.0544H44.1361H43.9806H43.9558V38.1587C43.9558 40.5551 42.0015 42.5092 39.6048 42.5092H32.4798V38.1594V38.1587H38.0826C38.9214 38.1587 39.6054 37.4748 39.6054 36.6361V32.0544H39.2689C38.8643 32.0544 38.5326 31.7228 38.5326 31.3182V31.2171C38.5326 30.8125 38.8643 30.4809 39.2689 30.4809H39.6054V29.6208C38.8444 29.5823 38.2333 28.9479 38.2333 28.1773V23.2977C38.2333 22.5271 38.8444 21.8934 39.6054 21.8542V20.9942H39.2689C38.8643 20.9942 38.5326 20.6632 38.5326 20.258V20.1568C38.5326 19.7522 38.8643 19.4206 39.2689 19.4206H39.6054V15.108C39.6054 14.5486 39.3281 14.0684 38.8437 13.789C33.6545 10.7947 28.4646 7.7996 23.2754 4.80527C22.7916 4.52593 22.237 4.52593 21.7532 4.80527L6.18564 13.7897C5.70117 14.069 5.42386 14.5493 5.42386 15.1087V25.0997H5.44932H5.76033C6.16566 25.0997 6.49663 25.4314 6.49663 25.8359V25.9371C6.49663 26.3423 6.16566 26.6733 5.76033 26.6733H5.60417H5.44863H5.42386V36.6361C5.42386 37.4748 6.10784 38.1587 6.94669 38.1587H10.3309V38.1443V37.8333C10.3309 37.428 10.6626 37.0971 11.0672 37.0971H11.1684C11.5737 37.0971 11.9047 37.428 11.9047 37.8333V37.9895V38.145V38.1587H13.3952C13.5149 38.1587 13.6126 38.2564 13.6126 38.3761V42.2911C13.6126 42.4108 13.5149 42.5085 13.3952 42.5085H11.9047V42.856C11.9047 43.2605 11.573 43.5922 11.1684 43.5922H11.0672C10.6626 43.5922 10.3309 43.2605 10.3309 42.856V42.5085H5.42386C3.02778 42.5085 1.0728 40.5545 1.0728 38.1581V26.6725H0.736301C0.33168 26.6725 0 26.3416 0 25.9363V25.8352C0 25.4306 0.33168 25.099 0.736301 25.099H1.0728V14.2293C1.0728 12.6318 1.86484 11.2604 3.24867 10.4617Z" fill="#FF9D15"/>
<path fill-rule="evenodd" clip-rule="evenodd" d="M17.9121 44.2204C18.089 43.1973 18.5576 42.0511 19.3428 41.1614C19.984 40.4335 20.836 39.8734 21.9115 39.6814C21.9721 39.6704 22.0285 39.6842 22.0787 39.72C22.1283 39.7571 22.1579 39.8074 22.1654 39.8686L22.1826 40.0055C22.1971 40.1204 22.1194 40.2264 22.0058 40.247C21.0755 40.4156 20.335 40.9048 19.7735 41.5412C19.0633 42.3469 18.6381 43.3852 18.4778 44.3127C18.4578 44.4276 18.3511 44.506 18.2355 44.4915L18.0979 44.4736C18.0374 44.4654 17.9878 44.4365 17.9506 44.3869C17.9149 44.3367 17.9018 44.281 17.9121 44.2204ZM26.1422 33.3955H26.8929C27.0278 33.3955 27.1386 33.5056 27.1386 33.6411V34.3326C27.6602 34.142 28.5424 34.0168 29.5422 34.0168C31.1449 34.0168 32.4441 34.3381 32.4441 34.7351C32.4441 35.1314 31.1449 35.4534 29.5422 35.4534C28.5424 35.4534 27.6602 35.3282 27.1386 35.1369V37.4082H28.1708C28.3855 37.4082 28.5609 37.5829 28.5609 37.7976V38.1588H30.9068V37.8478C30.9068 37.4426 31.2384 37.1116 31.6431 37.1116H31.7442C32.1496 37.1116 32.4805 37.4426 32.4805 37.8478V38.004V38.1595V42.5238V42.8705C32.4805 43.2751 32.1496 43.6067 31.7442 43.6067H31.6431C31.2384 43.6067 30.9068 43.2751 30.9068 42.8705V42.523H25.7313C22.3856 42.523 20.9571 44.0237 20.9571 47.2967V47.5251C20.9571 47.6448 20.8594 47.7425 20.7397 47.7425H16.809C16.6893 47.7425 16.5916 47.6448 16.5916 47.5251V47.2967C16.5916 41.2605 19.8898 38.2778 24.2587 38.2778V37.7969C24.2587 37.5822 24.4342 37.4074 24.6489 37.4074H25.8972V35.1177C25.3859 35.322 24.4714 35.459 23.4289 35.459C21.8262 35.459 20.527 35.1369 20.527 34.74C20.527 34.3436 21.8262 34.0216 23.4289 34.0216C24.4721 34.0216 25.3859 34.1578 25.8972 34.3622V33.6398C25.8965 33.5056 26.0066 33.3955 26.1422 33.3955Z" fill="white"/>
<path fill-rule="evenodd" clip-rule="evenodd" d="M16.8586 58.317C14.6985 56.2418 17.663 53.8557 17.7022 52.4686C18.1275 55.1141 15.8105 55.2421 16.8586 58.317ZM15.4961 56.6397C15.4052 54.1949 17.6451 52.17 18.7365 48.8839C19.8279 52.17 22.067 54.1949 21.9769 56.6397C21.8104 61.1202 15.6619 61.1202 15.4961 56.6397Z" fill="white"/>
<path fill-rule="evenodd" clip-rule="evenodd" d="M19.8423 20.4464L20.1217 20.0797L20.3103 20.2235L20.1513 20.4326L21.1037 21.1579L21.2888 20.915L21.4876 21.0664L21.1608 21.495L19.821 20.4746L19.8423 20.4464ZM31.3128 31.2067C31.1408 31.4317 31.2625 31.8128 31.5825 32.0571C31.9032 32.3013 32.3023 32.3172 32.4744 32.0915C32.6464 31.8665 32.5253 31.4853 32.2046 31.2411C31.884 30.9968 31.4849 30.9817 31.3128 31.2067ZM22.535 22.8566C21.8971 22.3605 21.9501 21.9023 22.1985 21.6085L22.4627 21.8094C23.5817 22.6619 24.8375 21.1585 23.6491 20.2531L22.4744 19.3586L22.7339 19.0181L21.7815 18.2928L21.5124 18.6458L21.3239 18.502C21.4656 18.3059 21.3418 17.6853 20.8387 17.0448C20.1479 16.1647 18.9092 15.3164 18.1915 16.1117C17.0678 15.2551 16.6522 14.9648 15.602 14.1646C13.7819 13.7821 12.5929 15.1396 12.2605 18.2674L12.93 18.7772L14.8912 16.0863C14.9504 16.171 15.1059 16.2583 15.1926 16.3237L16.7567 17.5161L16.293 17.9729L15.8374 17.6262L14.6352 20.0012L15.346 20.3652L20.6089 24.3717L20.8704 24.166L16.9481 21.1778C16.8448 21.0987 16.8242 20.9494 16.9033 20.8455L17.0148 20.6989C17.0939 20.5957 17.2432 20.5751 17.3465 20.6549L21.4037 23.7463L22.535 22.8566ZM31.3603 32.8449C32.7641 33.9141 34.3812 31.7922 32.9767 30.723L24.759 24.4646L22.5962 26.1668L31.3603 32.8449Z" fill="#0052DA"/>
<path fill-rule="evenodd" clip-rule="evenodd" d="M14.9539 30.508L14.1295 30.1909L13.3051 29.8737L12.6177 30.4289L11.9303 30.9842L12.0672 31.8566L12.2048 32.729L13.0299 33.0469L13.8543 33.3648L14.5417 32.8089L15.2292 32.2536L15.0916 31.3812L14.9539 30.508ZM31.9164 14.8978C31.0988 14.7017 30.3006 14.7952 29.4997 15.4427C28.6986 16.0902 28.2692 17.3355 28.5624 18.3807L28.4186 18.4969L28.2025 18.671L14.5073 29.4464C13.729 29.1141 12.9528 29.0872 12.094 29.7815C11.2346 30.4757 10.9215 32.0885 11.741 33.1033C12.5613 34.1182 14.2045 34.1505 15.0633 33.4563C15.9228 32.762 16.059 31.9976 15.898 31.1672L29.9524 20.1014C30.913 20.6071 32.2205 20.4496 33.0215 19.8021C33.8225 19.1547 34.0819 18.3937 34.062 17.5543L32.1421 19.0955L31.2042 18.746L30.3095 18.3903L30.1431 17.4036L30.004 16.4514L31.9164 14.8978Z" fill="#0052DA"/>
</svg>
