<svg id="Layer_1" data-name="Layer 1" xmlns="http://www.w3.org/2000/svg" xmlns:xlink="http://www.w3.org/1999/xlink" viewBox="0 0 200 70"><defs><style>.cls-1{fill:url(#Degradado_sin_nombre_50);}.cls-2{fill:url(#Degradado_sin_nombre_50-2);}.cls-3{fill:url(#Degradado_sin_nombre_51);}.cls-4{fill:url(#Degradado_sin_nombre_51-2);}.cls-5{fill:url(#Degradado_sin_nombre_50-3);}.cls-6{fill:#aeadae;}.cls-7{fill:url(#Degradado_sin_nombre_51-3);}.cls-8{fill:url(#Degradado_sin_nombre_51-4);}.cls-9{fill:url(#Degradado_sin_nombre_51-5);}.cls-10{font-size:13.98px;font-family:Verdana-Bold, Verdana;font-weight:700;}.cls-11{fill:url(#linear-gradient);}.cls-12{fill:url(#linear-gradient-2);}.cls-13{fill:url(#linear-gradient-3);}.cls-14{fill:url(#linear-gradient-4);}.cls-15{fill:url(#linear-gradient-5);}.cls-16{fill:url(#linear-gradient-6);}.cls-17{fill:url(#linear-gradient-7);}.cls-18{fill:url(#linear-gradient-8);}</style><linearGradient id="Degradado_sin_nombre_50" x1="33.83" y1="4.09" x2="33.83" y2="67.13" gradientUnits="userSpaceOnUse"><stop offset="0" stop-color="#2d2f78"/><stop offset="0.44" stop-color="#2a2a6d"/><stop offset="1" stop-color="#242158"/></linearGradient><linearGradient id="Degradado_sin_nombre_50-2" x1="59.33" y1="4.09" x2="59.33" y2="67.13" xlink:href="#Degradado_sin_nombre_50"/><linearGradient id="Degradado_sin_nombre_51" x1="79.37" y1="54.33" x2="79.37" y2="66.17" gradientUnits="userSpaceOnUse"><stop offset="0" stop-color="#0fbdcb"/><stop offset="0.35" stop-color="#10bbcb"/><stop offset="0.56" stop-color="#12b2c9"/><stop offset="0.73" stop-color="#16a4c6"/><stop offset="0.88" stop-color="#1b90c2"/><stop offset="1" stop-color="#2279be"/></linearGradient><linearGradient id="Degradado_sin_nombre_51-2" x1="67.97" y1="23.92" x2="62.05" y2="36.17" xlink:href="#Degradado_sin_nombre_51"/><linearGradient id="Degradado_sin_nombre_50-3" x1="61.02" y1="1.22" x2="61.02" y2="67.37" xlink:href="#Degradado_sin_nombre_50"/><linearGradient id="Degradado_sin_nombre_51-3" x1="81.58" y1="28.87" x2="81.58" y2="45.69" xlink:href="#Degradado_sin_nombre_51"/><linearGradient id="Degradado_sin_nombre_51-4" x1="76.67" y1="28.87" x2="76.67" y2="45.69" xlink:href="#Degradado_sin_nombre_51"/><linearGradient id="Degradado_sin_nombre_51-5" x1="85.04" y1="28.87" x2="85.04" y2="45.69" xlink:href="#Degradado_sin_nombre_51"/><linearGradient id="linear-gradient" x1="150.61" y1="39.8" x2="162.49" y2="39.8" gradientUnits="userSpaceOnUse"><stop offset="0.01" stop-color="#ee4036"/><stop offset="0.39" stop-color="#ec3e36"/><stop offset="0.62" stop-color="#e33935"/><stop offset="0.8" stop-color="#d53033"/><stop offset="0.96" stop-color="#c12431"/><stop offset="1" stop-color="#bb2030"/></linearGradient><linearGradient id="linear-gradient-2" x1="163.95" y1="39.8" x2="172.2" y2="39.8" xlink:href="#linear-gradient"/><linearGradient id="linear-gradient-3" x1="173.46" y1="39.8" x2="181.71" y2="39.8" xlink:href="#linear-gradient"/><linearGradient id="linear-gradient-4" x1="102.42" y1="33.03" x2="102.42" y2="46.34" gradientUnits="userSpaceOnUse"><stop offset="0" stop-color="#0fbdcb"/><stop offset="0.23" stop-color="#10b8ca"/><stop offset="0.48" stop-color="#14abc8"/><stop offset="0.75" stop-color="#1a94c3"/><stop offset="1" stop-color="#2279be"/></linearGradient><linearGradient id="linear-gradient-5" x1="114.36" y1="33.03" x2="114.36" y2="46.58" xlink:href="#linear-gradient-4"/><linearGradient id="linear-gradient-6" x1="125.61" y1="32.78" x2="125.61" y2="46.58" xlink:href="#linear-gradient-4"/><linearGradient id="linear-gradient-7" x1="135.53" y1="33.03" x2="135.53" y2="46.34" xlink:href="#linear-gradient-4"/><linearGradient id="linear-gradient-8" x1="144.62" y1="40.1" x2="144.62" y2="42.23" xlink:href="#linear-gradient-4"/></defs><title>hero_overlay_1</title><path class="cls-1" d="M42.16,49.18,38.69,32.24h3.1A1.24,1.24,0,0,0,43,30.67L39.89,15.35A2,2,0,0,0,38,13.78H34.89l-1.43-7A4.77,4.77,0,0,0,29,3.08H24.59l.67,3.28h2.91a2.48,2.48,0,0,1,2.31,1.92l8.45,41.15a9.35,9.35,0,0,1,2.33-.29A8.9,8.9,0,0,1,42.16,49.18Z"/><path class="cls-2" d="M69,64.29a5.21,5.21,0,0,1-.17-1.3A5,5,0,0,1,70,59.81H50.55a9.38,9.38,0,0,1-1.9,4.48Z"/><path class="cls-3" d="M84.06,59.53a3.29,3.29,0,0,0-1.17.22,4.54,4.54,0,0,0-8.25.22h-.18a3.16,3.16,0,0,0-3.16,3.17,3.08,3.08,0,0,0,.21,1.14H87.16a3.39,3.39,0,0,0-3.1-4.74Z"/><path class="cls-4" d="M65.82,39.25l5,2.09a4,4,0,0,0-2.58-6.08,5.49,5.49,0,0,0,.11-1.08A5.3,5.3,0,0,0,59,30.79a4,4,0,0,0-6.48,2h5A9,9,0,0,1,65.82,39.25Z"/><path class="cls-5" d="M78.7,48.82a6.07,6.07,0,0,0-3.58-4.23l-10.4-4.36-.1-.52A7.43,7.43,0,0,0,57.68,34H44.13a2,2,0,0,0-1.93,2.37l.8,3.9,1.88,9.14a9.85,9.85,0,0,1,5.67,7.49H75a6.86,6.86,0,0,1,4.89-2.32ZM61.54,41.44H54.16l5.42-.6a.6.6,0,0,0,.52-.71,6.33,6.33,0,0,0-4.7-4.48h1.66a5.76,5.76,0,0,1,5.28,4.4l.07.33A.89.89,0,0,1,61.54,41.44Zm12.85,8.77-.2-1a4.43,4.43,0,0,0-2.58-3l-7.55-3.18h.19a11.05,11.05,0,0,1,4.28.86l5.32,2.25a4.41,4.41,0,0,1,2.58,3l.66,3.26A2.76,2.76,0,0,1,74.39,50.21Z"/><path class="cls-6" d="M41.26,51.89a6.63,6.63,0,1,0,6.63,6.63A6.63,6.63,0,0,0,41.26,51.89Zm0,9.22a2.59,2.59,0,1,1,2.59-2.59A2.59,2.59,0,0,1,41.26,61.11Z"/><path class="cls-6" d="M19.94,6.36h3.69L23,3.08h-3a1.64,1.64,0,0,0-1.65,1.64h0A1.64,1.64,0,0,0,19.94,6.36Z"/><circle class="cls-7" cx="81.58" cy="30.11" r="4.1"/><circle class="cls-8" cx="76.67" cy="36.33" r="3.26"/><circle class="cls-9" cx="85.04" cy="38.63" r="3.26"/><text class="cls-10" transform="translate(106.08 62.68)">Cleaning</text><path class="cls-11" d="M150.61,39.75c0-4.27,2.41-6.72,5.94-6.72s5.94,2.46,5.94,6.72-2.41,6.83-5.94,6.83S150.61,44,150.61,39.75Zm8.85,0c0-2.62-1.13-4.17-2.91-4.17s-2.91,1.55-2.91,4.17S154.77,44,156.55,44,159.46,42.37,159.46,39.75Z"/><path class="cls-12" d="M164,33.27h8.25v2.48h-5.3v3h4.53v2.48H166.9v5.08h-3Z"/><path class="cls-13" d="M173.46,33.27h8.25v2.48h-5.3v3h4.52v2.48h-4.52v5.08h-2.95Z"/><path class="cls-14" d="M97.2,33H101c4.06,0,6.68,2,6.68,6.59s-2.62,6.72-6.51,6.72H97.2Zm3.58,10.88c2.25,0,3.78-1.1,3.78-4.29s-1.53-4.17-3.78-4.17h-.57v8.46Z"/><path class="cls-15" d="M109.07,40.17V33h3v7.45c0,2.6.82,3.5,2.31,3.5s2.36-.9,2.36-3.5V33h2.9v7.14c0,4.47-1.82,6.41-5.26,6.41S109.07,44.64,109.07,40.17Z"/><path class="cls-16" d="M120.64,44.66l1.73-2.07A5.24,5.24,0,0,0,125.64,44c1.25,0,1.87-.49,1.87-1.28s-.76-1.11-1.92-1.59l-1.73-.73a3.89,3.89,0,0,1-2.69-3.63c0-2.21,2-4,4.74-4a6.15,6.15,0,0,1,4.28,1.75l-1.52,1.89a4.33,4.33,0,0,0-2.76-1c-1,0-1.7.43-1.7,1.19s.87,1.12,2,1.58l1.69.69a3.66,3.66,0,0,1,2.64,3.62c0,2.21-1.84,4.12-5,4.12A7.33,7.33,0,0,1,120.64,44.66Z"/><path class="cls-17" d="M134,35.55h-3.67V33H140.7v2.52H137V46.34h-3Z"/><path class="cls-18" d="M142.11,40.1h5v2.13h-5Z"/></svg>