<svg width="100" height="100" viewBox="0 0 100 100" fill="none" xmlns="http://www.w3.org/2000/svg">
<path d="M18.1747 60.1502L20.4799 62.4663L20.0251 62.9233C19.3024 63.0047 18.4488 63.1361 17.5641 63.2363L14.9348 59.4491C14.941 59.4554 15.9629 59.9687 18.1747 60.1502ZM21.1279 62.4726L20.3616 63.2425L21.7821 64.6697L22.5485 63.8998L24.0812 62.3599L16.8102 53.6088L15.5267 53.0141L14.7292 56.0501L21.1279 62.4726ZM30.6668 68.6071L28.4924 70.7918L30.0251 72.3317L32.1995 70.147L30.6668 68.6071ZM29.4581 68.5383C29.4207 68.5007 29.3833 68.4631 29.3459 68.4256C29.3771 68.3317 29.3771 68.2503 29.3397 68.2128C29.2961 68.1689 29.2213 68.1689 29.1279 68.2065C29.0905 68.1689 29.0531 68.1314 29.0157 68.0938C29.0469 67.9999 29.0469 67.9186 29.0095 67.881C28.9659 67.8372 28.8911 67.8372 28.7977 67.8747C28.7603 67.8372 28.7229 67.7996 28.6855 67.7621C28.7167 67.6682 28.7167 67.5868 28.6793 67.5492C28.6357 67.5054 28.5609 67.5054 28.4674 67.543C28.4301 67.5054 28.3927 67.4678 28.3553 67.4303C28.3864 67.3364 28.3864 67.255 28.3491 67.2175C28.3054 67.1736 28.2307 67.1736 28.1372 67.2112C28.0998 67.1736 28.0625 67.1361 28.0251 67.0985C28.0562 67.0046 28.0562 66.9233 28.0188 66.8857C27.9752 66.8419 27.9005 66.8419 27.807 66.8794C27.7696 66.8419 27.7322 66.8043 27.6949 66.7668C27.726 66.6729 27.726 66.5915 27.6886 66.5539C27.645 66.5101 27.5702 66.5101 27.4768 66.5477C27.4394 66.5101 27.402 66.4726 27.3646 66.435C27.3958 66.3411 27.3958 66.2597 27.3584 66.2222C27.3148 66.1783 27.24 66.1783 27.1466 66.2159C27.1092 66.1783 27.0718 66.1408 27.0344 66.1032C27.0656 66.0093 27.0656 65.928 27.0282 65.8904C26.9846 65.8466 26.9098 65.8466 26.8164 65.8841C26.779 65.8466 26.7416 65.809 26.7042 65.7715C26.7354 65.6776 26.7354 65.5962 26.698 65.5586C26.6544 65.5148 26.5796 65.5148 26.4861 65.5524C26.4488 65.5148 26.4114 65.4773 26.374 65.4397C26.4052 65.3458 26.4051 65.2644 26.3678 65.2269C26.3242 65.183 26.2494 65.183 26.1559 65.2206C26.1185 65.183 26.0812 65.1455 26.0438 65.1079C26.0749 65.014 26.0749 64.9327 26.0375 64.8951C25.9939 64.8513 25.9192 64.8513 25.8257 64.8888C25.7883 64.8513 25.751 64.8137 25.7136 64.7762C25.7447 64.6823 25.7447 64.6009 25.7073 64.5633C25.6637 64.5195 25.589 64.5195 25.4955 64.5571C25.4581 64.5195 25.4207 64.482 25.3834 64.4444C25.4145 64.3505 25.4145 64.2691 25.3771 64.2316C25.3335 64.1877 25.2587 64.1877 25.1653 64.2253C25.1279 64.1877 25.0905 64.1502 25.0531 64.1126C25.0843 64.0187 25.0843 63.9374 25.0469 63.8998C25.0033 63.856 24.9285 63.856 24.8351 63.8935C24.7977 63.856 24.7603 63.8184 24.7229 63.7809C24.7541 63.687 24.7541 63.6056 24.7167 63.568C24.6731 63.5242 24.5983 63.5242 24.5049 63.5618C24.4675 63.5242 24.4301 63.4867 24.3927 63.4491C24.4238 63.3552 24.4239 63.2738 24.3865 63.2363C24.3429 63.1924 24.2681 63.1924 24.1746 63.23C24.1435 63.1987 24.1061 63.1612 24.0749 63.1299L23.0344 64.1752C23.0656 64.2065 23.0967 64.2378 23.1279 64.2691C23.0843 64.3818 23.0781 64.4694 23.1279 64.5133C23.1715 64.5571 23.2588 64.5571 23.3709 64.5133C23.4021 64.5446 23.4332 64.5758 23.4644 64.6071C23.4207 64.7198 23.4145 64.8075 23.4644 64.8513C23.508 64.8951 23.5952 64.8951 23.7074 64.8513C23.7385 64.8826 23.7697 64.9139 23.8008 64.9452C23.7572 65.0578 23.751 65.1455 23.8008 65.1893C23.8444 65.2331 23.9316 65.2269 24.0438 65.1893C24.0749 65.2206 24.1061 65.2519 24.1373 65.2832C24.0936 65.3959 24.0874 65.4835 24.1373 65.5273C24.1809 65.5711 24.2681 65.5711 24.3802 65.5273C24.4114 65.5586 24.4425 65.5899 24.4737 65.6212C24.4301 65.7339 24.4238 65.8215 24.4737 65.8654C24.5173 65.9092 24.6045 65.9092 24.7167 65.8654C24.7478 65.8967 24.779 65.928 24.8101 65.9593C24.7665 66.0719 24.7603 66.1596 24.8101 66.2034C24.8538 66.2472 24.941 66.2409 25.0531 66.2034C25.0843 66.2347 25.1154 66.266 25.1466 66.2973C25.103 66.41 25.0968 66.4976 25.1466 66.5414C25.1902 66.5852 25.2774 66.5852 25.3896 66.5414C25.4207 66.5727 25.4519 66.604 25.483 66.6353C25.4394 66.748 25.4332 66.8356 25.483 66.8794C25.5266 66.9233 25.6139 66.917 25.726 66.8794C25.7572 66.9107 25.7883 66.942 25.8195 66.9733C25.7759 67.086 25.7696 67.1736 25.8195 67.2175C25.8631 67.2613 25.9503 67.255 26.0625 67.2175C26.0936 67.2488 26.1248 67.2801 26.1559 67.3114C26.1123 67.424 26.1061 67.5117 26.1559 67.5555C26.1995 67.5993 26.2868 67.5993 26.3989 67.5555C26.4301 67.5868 26.4612 67.6181 26.4924 67.6494C26.4488 67.7621 26.4425 67.8497 26.4924 67.8935C26.536 67.9373 26.6232 67.9311 26.7354 67.8935C26.7665 67.9248 26.7977 67.9561 26.8288 67.9874C26.7852 68.1001 26.779 68.1877 26.8288 68.2315C26.8724 68.2754 26.9597 68.2754 27.0718 68.2315C27.103 68.2628 27.1341 68.2941 27.1653 68.3254C27.1217 68.4381 27.1154 68.5257 27.1653 68.5696C27.2089 68.6134 27.2961 68.6134 27.4083 68.5696C27.4394 68.6009 27.4706 68.6322 27.5017 68.6635C27.4581 68.7761 27.4519 68.8638 27.5017 68.9076C27.5453 68.9514 27.6325 68.9451 27.7447 68.9076C27.7758 68.9389 27.807 68.9702 27.8382 69.0015C27.7946 69.1142 27.7883 69.2018 27.8382 69.2456C27.8818 69.2894 27.969 69.2894 28.0811 69.2456C28.1123 69.2769 28.1435 69.3082 28.1746 69.3395C28.131 69.4522 28.1248 69.5398 28.1746 69.5836C28.2182 69.6275 28.3055 69.6275 28.4176 69.5836C28.4488 69.6149 28.4799 69.6462 28.5111 69.6775C28.4674 69.7902 28.4612 69.8778 28.5111 69.9217C28.5547 69.9655 28.6419 69.9592 28.754 69.9217C28.7852 69.953 28.8101 69.978 28.8413 70.0093L29.8818 68.9639C29.8506 68.9326 29.8194 68.9013 29.7883 68.87C29.8194 68.7761 29.8195 68.6948 29.7821 68.6572C29.6325 68.5007 29.5578 68.5007 29.4581 68.5383ZM31.321 72.4944C31.3522 72.5257 31.3833 72.557 31.4145 72.5883C31.3709 72.701 31.3646 72.7886 31.4145 72.8324C31.4581 72.8763 31.5453 72.87 31.6574 72.8324C31.6886 72.8637 31.7198 72.895 31.7509 72.9263C31.7073 73.039 31.7011 73.1267 31.7509 73.1705C31.7945 73.2143 31.8817 73.208 31.9939 73.1705C32.025 73.2018 32.0562 73.2331 32.0873 73.2644C32.0437 73.377 32.0375 73.4647 32.0873 73.5085C32.131 73.5523 32.2182 73.5461 32.3303 73.5085C32.3615 73.5398 32.3926 73.5711 32.4238 73.6024C32.3802 73.7151 32.374 73.8027 32.4238 73.8465C32.4674 73.8903 32.5547 73.8903 32.6668 73.8465C32.698 73.8778 32.7291 73.9091 32.7603 73.9404C32.7166 74.0531 32.7104 74.1407 32.7603 74.1845C32.8039 74.2284 32.8911 74.2284 33.0032 74.1845C33.0344 74.2158 33.0655 74.2471 33.0967 74.2784C33.0531 74.3911 33.0468 74.4788 33.0967 74.5226C33.1403 74.5664 33.2275 74.5664 33.3397 74.5226C33.3708 74.5539 33.402 74.5852 33.4331 74.6165C33.3895 74.7291 33.3833 74.8168 33.4331 74.8606C33.4768 74.9044 33.564 74.8982 33.6761 74.8606C33.7073 74.8919 33.7384 74.9232 33.7696 74.9545C33.726 75.0672 33.7197 75.1548 33.7696 75.1986C33.8132 75.2424 33.9004 75.2424 34.0126 75.1986C34.0437 75.2299 34.0749 75.2612 34.106 75.2925C34.0624 75.4052 34.0562 75.4928 34.106 75.5367C34.1497 75.5805 34.2369 75.5805 34.349 75.5367C34.3802 75.568 34.4113 75.5992 34.4425 75.6305C34.3989 75.7432 34.3926 75.8309 34.4425 75.8747C34.4861 75.9185 34.5733 75.9122 34.6855 75.8747C40.4798 81.6962 45.6511 86.8918 45.6511 86.8918L46.6916 85.8464C46.6916 85.8464 41.539 80.6696 35.7197 74.823C35.7509 74.7291 35.7509 74.6478 35.7135 74.6102C35.6699 74.5664 35.5951 74.5664 35.5017 74.604C35.4643 74.5664 35.4269 74.5288 35.3895 74.4913C35.4207 74.3974 35.4207 74.316 35.3833 74.2784C35.3397 74.2346 35.2649 74.2346 35.1714 74.2722C35.1341 74.2346 35.0967 74.1971 35.0593 74.1595C35.0905 74.0656 35.0905 73.9842 35.0531 73.9467C35.0095 73.9029 34.9347 73.9029 34.8412 73.9404C34.8039 73.9029 34.7665 73.8653 34.7291 73.8277C34.7602 73.7339 34.7602 73.6525 34.7229 73.6149C34.6792 73.5711 34.6045 73.5711 34.511 73.6087C34.4736 73.5711 34.4363 73.5335 34.3989 73.496C34.43 73.4021 34.43 73.3207 34.3926 73.2831C34.3553 73.2456 34.2743 73.2393 34.1808 73.2769C34.1434 73.2393 34.106 73.2018 34.0687 73.1642C34.0998 73.0703 34.0998 72.9889 34.0624 72.9514C34.0188 72.9076 33.944 72.9076 33.8506 72.9451C33.8132 72.9076 33.7758 72.87 33.7384 72.8324C33.7696 72.7385 33.7696 72.6572 33.7322 72.6196C33.6886 72.5758 33.6138 72.5758 33.5204 72.6134C33.483 72.5758 33.4456 72.5382 33.4082 72.5007C33.4394 72.4068 33.4394 72.3254 33.402 72.2878C33.3584 72.244 33.2836 72.244 33.1902 72.2816C33.1528 72.244 33.1154 72.2065 33.078 72.1689C33.1091 72.075 33.1092 71.9936 33.0718 71.9561C33.0344 71.9185 32.9534 71.9123 32.8599 71.9498C32.8226 71.9123 32.7852 71.8747 32.7478 71.8371C32.7789 71.7433 32.7789 71.6619 32.7416 71.6243C32.7042 71.5868 32.6232 71.5805 32.5297 71.6181C32.4923 71.5805 32.4549 71.5429 32.4176 71.5054C32.4487 71.4115 32.4487 71.3301 32.4113 71.2926C32.3677 71.2487 32.293 71.2487 32.1995 71.2863C32.1621 71.2487 32.1247 71.2112 32.0873 71.1736C32.106 71.111 32.1123 71.0609 32.106 71.0171L30.8724 72.2565C30.9223 72.2628 30.9783 72.2565 31.0531 72.2252C31.0842 72.2565 31.1154 72.2879 31.1466 72.3191C31.1029 72.4318 31.0967 72.5195 31.1466 72.5633C31.1279 72.5445 31.2151 72.5382 31.321 72.4944ZM9.89435 45.2395L9.83828 44.8702L9.53299 44.5635C9.53299 44.5635 9.43952 44.4696 9.28999 44.3193C8.89747 43.925 8.10621 43.13 7.45201 42.4727C6.36167 41.3773 3.43956 43.5369 1.3835 45.6026C-0.585338 47.5807 -0.367275 49.8905 1.49564 51.7559C3.52055 53.7903 5.64516 55.9249 7.83829 58.1283L8.99716 53.3584C7.20901 51.5619 5.8196 50.1659 5.8196 50.1659V48.3005L6.0626 48.0564L6.97225 48.1879L7.42084 47.7371L7.35853 47.2927L7.80091 47.3553L8.24951 46.9046L8.1872 46.4602L8.62956 46.5228L9.07816 46.0721L9.01585 45.6276L9.45823 45.6902L9.89435 45.2395ZM36.8038 95.8996C32.7852 90.5976 8.17473 58.6729 8.17473 58.6729L9.78844 52.0126L9.05323 50.8921L8.86008 49.7653L9.30868 49.3146L9.75104 49.3772L9.68875 48.9328L10.1373 48.4821L10.5797 48.5447L10.5174 48.1002L10.966 47.6495L11.4084 47.7121L11.3461 47.2677L11.7947 46.817L12.1623 46.867L12.7105 47.4179L15.0657 52.9828L13.6513 58.385L39.7633 96.0248C39.7633 96.0248 38.1185 97.6335 36.8038 95.8996ZM13.6763 53.6902C14.1249 53.2395 14.1249 52.5071 13.6763 52.0564C13.2277 51.6057 12.4987 51.6057 12.0501 52.0564C11.6015 52.5071 11.6015 53.2395 12.0501 53.6902C12.5049 54.1409 13.2277 54.1409 13.6763 53.6902Z" fill="#FF9D15"/>
<path d="M39.6698 18.26L37.3645 20.5761L36.9097 20.1191C36.8287 19.393 36.6979 18.5354 36.5982 17.6465L40.3676 15.0049C40.3614 15.0112 39.8505 16.0378 39.6698 18.26ZM37.3583 21.2271L36.592 20.4572L35.1714 21.8844L35.9378 22.6543L37.4705 24.1942L46.1807 16.8891L46.7726 15.5996L43.7508 14.7984L37.3583 21.2271ZM31.2524 30.8108L29.078 28.6261L27.5453 30.166L29.7197 32.3507L31.2524 30.8108ZM31.321 29.5964C31.3583 29.5588 31.3957 29.5213 31.4331 29.4837C31.5266 29.515 31.6076 29.515 31.6449 29.4774C31.6886 29.4336 31.6886 29.3585 31.6512 29.2646C31.6886 29.2271 31.7259 29.1895 31.7633 29.1519C31.8568 29.1832 31.9378 29.1832 31.9752 29.1457C32.0125 29.1081 32.0188 29.0267 31.9814 28.9328C32.0188 28.8953 32.0562 28.8577 32.0935 28.8202C32.187 28.8515 32.268 28.8515 32.3054 28.8139C32.349 28.7701 32.349 28.695 32.3116 28.6011C32.349 28.5635 32.3864 28.526 32.4238 28.4884C32.5172 28.5197 32.5982 28.5197 32.6356 28.4821C32.673 28.4446 32.6792 28.3632 32.6418 28.2693C32.6792 28.2318 32.7166 28.1942 32.754 28.1566C32.8474 28.1879 32.9284 28.1879 32.9658 28.1504C33.0094 28.1066 33.0094 28.0314 32.972 27.9375C33.0094 27.9 33.0468 27.8624 33.0842 27.8249C33.1776 27.8562 33.2586 27.8562 33.296 27.8186C33.3396 27.7748 33.3396 27.6997 33.3023 27.6058C33.3396 27.5682 33.377 27.5307 33.4144 27.4931C33.5079 27.5244 33.5888 27.5244 33.6262 27.4868C33.6698 27.443 33.6699 27.3679 33.6325 27.274C33.6699 27.2365 33.7072 27.1989 33.7446 27.1613C33.8381 27.1926 33.9191 27.1926 33.9564 27.1551C34.0001 27.1113 34.0001 27.0361 33.9627 26.9422C34.0001 26.9047 34.0374 26.8671 34.0748 26.8296C34.1683 26.8609 34.2493 26.8609 34.2867 26.8233C34.3303 26.7795 34.3303 26.7044 34.2929 26.6105C34.3303 26.5729 34.3677 26.5354 34.405 26.4978C34.4985 26.5291 34.5795 26.5291 34.6169 26.4915C34.6605 26.4477 34.6605 26.3726 34.6231 26.2787C34.6605 26.2412 34.6979 26.2036 34.7353 26.166C34.8287 26.1973 34.9097 26.1973 34.9471 26.1598C34.9907 26.116 34.9907 26.0408 34.9533 25.9469C34.9907 25.9094 35.0281 25.8718 35.0655 25.8343C35.1589 25.8656 35.2399 25.8656 35.2773 25.828C35.3209 25.7842 35.3209 25.7091 35.2835 25.6152C35.3209 25.5776 35.3583 25.5401 35.3957 25.5025C35.4891 25.5338 35.5701 25.5338 35.6075 25.4962C35.6511 25.4524 35.6511 25.3773 35.6138 25.2834C35.6511 25.2459 35.6885 25.2083 35.7259 25.1707C35.8194 25.202 35.9004 25.202 35.9378 25.1645C35.9814 25.1207 35.9814 25.0455 35.944 24.9516C35.9814 24.9141 36.0187 24.8765 36.0561 24.839C36.1496 24.8703 36.2306 24.8703 36.268 24.8327C36.3116 24.7889 36.3116 24.7138 36.2742 24.6199C36.3116 24.5823 36.349 24.5448 36.3863 24.5072C36.4798 24.5385 36.5608 24.5385 36.5982 24.5009C36.6418 24.4571 36.6418 24.382 36.6044 24.2881C36.6356 24.2568 36.6729 24.2193 36.7041 24.188L35.6636 23.1426C35.6325 23.1739 35.6013 23.2052 35.5701 23.2365C35.458 23.1927 35.3708 23.1864 35.3272 23.2365C35.2835 23.2803 35.2835 23.3679 35.3272 23.4806C35.296 23.5119 35.2649 23.5432 35.2337 23.5745C35.1216 23.5307 35.0343 23.5244 34.9907 23.5745C34.9471 23.6183 34.9471 23.706 34.9907 23.8186C34.9596 23.8499 34.9284 23.8812 34.8973 23.9125C34.7851 23.8687 34.6979 23.8625 34.6543 23.9125C34.6106 23.9564 34.6106 24.044 34.6543 24.1567C34.6231 24.188 34.592 24.2193 34.5608 24.2506C34.4487 24.2067 34.3614 24.2005 34.3178 24.2506C34.2742 24.2944 34.2804 24.382 34.3178 24.4947C34.2867 24.526 34.2555 24.5573 34.2244 24.5886C34.1122 24.5448 34.025 24.5385 33.9814 24.5886C33.9378 24.6324 33.944 24.72 33.9814 24.8327C33.9502 24.864 33.9191 24.8953 33.8879 24.9266C33.7758 24.8828 33.6885 24.8765 33.6449 24.9266C33.6013 24.9704 33.6075 25.0581 33.6449 25.1707C33.6138 25.202 33.5826 25.2333 33.5515 25.2646C33.4393 25.2208 33.3521 25.2146 33.3085 25.2646C33.2649 25.3085 33.2649 25.3961 33.3085 25.5088C33.2773 25.5401 33.2462 25.5714 33.215 25.6027C33.1029 25.5588 33.0157 25.5526 32.972 25.6027C32.9284 25.6465 32.9284 25.7341 32.972 25.8468C32.9409 25.8781 32.9097 25.9094 32.8786 25.9407C32.7664 25.8969 32.6792 25.8906 32.6356 25.9407C32.592 25.9845 32.592 26.0721 32.6356 26.1848C32.6044 26.2161 32.5733 26.2474 32.5421 26.2787C32.43 26.2349 32.3427 26.2286 32.2991 26.2787C32.2555 26.3225 32.2555 26.4102 32.2991 26.5228C32.268 26.5541 32.2368 26.5854 32.2057 26.6167C32.0935 26.5729 32.0063 26.5667 31.9627 26.6167C31.9191 26.6606 31.9253 26.7482 31.9627 26.8609C31.9315 26.8922 31.9004 26.9235 31.8692 26.9548C31.7571 26.9109 31.6699 26.9047 31.6262 26.9548C31.5826 26.9986 31.5826 27.0862 31.6262 27.1989C31.5951 27.2302 31.5639 27.2615 31.5328 27.2928C31.4206 27.249 31.3334 27.2427 31.2898 27.2928C31.2462 27.3366 31.2524 27.4242 31.2898 27.5369C31.2586 27.5682 31.2275 27.5995 31.1963 27.6308C31.0842 27.587 30.997 27.5807 30.9534 27.6308C30.9098 27.6746 30.916 27.7623 30.9534 27.8749C30.9222 27.9062 30.891 27.9375 30.8599 27.9688C30.7477 27.925 30.6605 27.9188 30.6169 27.9688C30.5733 28.0127 30.5733 28.1003 30.6169 28.213C30.5858 28.2443 30.5546 28.2756 30.5235 28.3069C30.4113 28.263 30.3241 28.2568 30.2805 28.3069C30.2368 28.3507 30.2368 28.4383 30.2805 28.551C30.2493 28.5823 30.2182 28.6136 30.187 28.6449C30.0749 28.6011 29.9876 28.5948 29.944 28.6449C29.9004 28.6887 29.9004 28.7763 29.944 28.889C29.9129 28.9203 29.8879 28.9454 29.8568 28.9767L30.8973 30.022C30.9284 29.9907 30.9596 29.9594 30.9907 29.9281C31.0842 29.9594 31.1652 29.9594 31.2026 29.9219C31.3583 29.7716 31.3583 29.6965 31.321 29.5964ZM27.3833 31.468C27.3521 31.4993 27.321 31.5306 27.2898 31.5619C27.1777 31.5181 27.0904 31.5119 27.0468 31.5619C27.0032 31.6058 27.0032 31.6934 27.0468 31.8061C27.0157 31.8374 26.9845 31.8687 26.9534 31.9C26.8412 31.8561 26.754 31.8499 26.7104 31.9C26.6668 31.9438 26.6668 32.0314 26.7104 32.1441C26.6792 32.1754 26.6481 32.2067 26.6169 32.238C26.5048 32.1942 26.4176 32.1879 26.374 32.238C26.3303 32.2818 26.3366 32.3694 26.374 32.4821C26.3428 32.5134 26.3116 32.5447 26.2805 32.576C26.1683 32.5322 26.0811 32.5259 26.0375 32.576C25.9939 32.6198 26.0001 32.7075 26.0375 32.8201C26.0063 32.8514 25.9752 32.8827 25.944 32.914C25.8319 32.8702 25.7447 32.864 25.701 32.914C25.6574 32.9579 25.6637 33.0455 25.701 33.1582C25.6699 33.1895 25.6387 33.2208 25.6076 33.2521C25.4954 33.2082 25.4082 33.202 25.3646 33.2521C25.321 33.2959 25.3272 33.3835 25.3646 33.4962C25.3335 33.5275 25.3023 33.5588 25.2711 33.5901C25.159 33.5463 25.0718 33.54 25.0282 33.5901C24.9845 33.6339 24.9908 33.7215 25.0282 33.8342C24.997 33.8655 24.9659 33.8968 24.9347 33.9281C24.8226 33.8843 24.7353 33.878 24.6917 33.9281C24.6481 33.9719 24.6481 34.0596 24.6917 34.1722C24.6606 34.2035 24.6294 34.2348 24.5983 34.2661C24.4861 34.2223 24.3989 34.2161 24.3553 34.2661C24.3116 34.31 24.3116 34.3976 24.3553 34.5103C24.3241 34.5416 24.293 34.5729 24.2618 34.6042C24.1497 34.5603 24.0624 34.5541 24.0188 34.6042C23.9752 34.648 23.9814 34.7356 24.0188 34.8483C18.2245 40.6699 13.0532 45.8654 13.0532 45.8654L14.0936 46.9108C14.0936 46.9108 19.2463 41.734 25.0655 35.8874C25.159 35.9187 25.24 35.9187 25.2774 35.8812C25.321 35.8373 25.321 35.7622 25.2836 35.6683C25.321 35.6308 25.3584 35.5932 25.3958 35.5556C25.4892 35.5869 25.5702 35.5869 25.6076 35.5494C25.6512 35.5056 25.6512 35.4305 25.6138 35.3366C25.6512 35.299 25.6886 35.2614 25.726 35.2239C25.8194 35.2552 25.9004 35.2552 25.9378 35.2176C25.9814 35.1738 25.9814 35.0987 25.944 35.0048C25.9814 34.9672 26.0188 34.9297 26.0562 34.8921C26.1496 34.9234 26.2306 34.9234 26.268 34.8859C26.3116 34.842 26.3116 34.7669 26.2743 34.673C26.3116 34.6355 26.349 34.5979 26.3864 34.5603C26.4799 34.5916 26.5609 34.5916 26.5982 34.5541C26.6419 34.5103 26.6419 34.4352 26.6045 34.3413C26.6419 34.3037 26.6792 34.2661 26.7166 34.2286C26.8101 34.2599 26.8911 34.2599 26.9285 34.2223C26.9721 34.1785 26.9721 34.1034 26.9347 34.0095C26.9721 33.9719 27.0095 33.9344 27.0468 33.8968C27.1403 33.9281 27.2213 33.9281 27.2587 33.8906C27.3023 33.8467 27.3023 33.7716 27.2649 33.6777C27.3023 33.6402 27.3397 33.6026 27.3771 33.565C27.4705 33.5963 27.5515 33.5963 27.5889 33.5588C27.6325 33.515 27.6325 33.4399 27.5951 33.346C27.6325 33.3084 27.6699 33.2708 27.7073 33.2333C27.8007 33.2646 27.8817 33.2646 27.9191 33.227C27.9627 33.1832 27.9627 33.1081 27.9253 33.0142C27.9627 32.9766 28.0001 32.9391 28.0375 32.9015C28.1309 32.9328 28.2119 32.9328 28.2493 32.8953C28.2929 32.8514 28.2929 32.7763 28.2556 32.6824C28.2929 32.6449 28.3303 32.6073 28.3677 32.5698C28.4612 32.6011 28.5421 32.6011 28.5795 32.5635C28.6231 32.5197 28.6232 32.4446 28.5858 32.3507C28.6232 32.3131 28.6605 32.2755 28.6979 32.238C28.7602 32.2568 28.8101 32.263 28.8537 32.2568L27.62 31.0173C27.6138 31.0674 27.62 31.1238 27.6512 31.1989C27.62 31.2302 27.5889 31.2615 27.5577 31.2928C27.4456 31.2489 27.3584 31.2427 27.3147 31.2928C27.3334 31.2677 27.3397 31.3554 27.3833 31.468ZM54.5108 9.94079L54.8784 9.88446L55.1837 9.57773C55.1837 9.57773 55.2772 9.48383 55.4267 9.3336C55.8192 8.93924 56.6105 8.14425 57.2647 7.48698C58.355 6.39152 56.2055 3.4557 54.1495 1.38999C52.1806 -0.588088 49.8816 -0.368997 48.0249 1.50267C46 3.53708 43.8754 5.67165 41.6822 7.87508L46.4299 9.03939C48.218 7.24285 49.6074 5.84692 49.6074 5.84692H51.4641L51.7071 6.09105L51.5825 6.99872L52.0311 7.44942L52.4735 7.38682L52.4112 7.83126L52.8597 8.28196L53.3021 8.21937L53.2398 8.66381L53.6884 9.11451L54.1308 9.05191L54.0685 9.49635L54.5108 9.94079ZM4.08748 36.9766C9.3647 32.9391 41.1402 8.21311 41.1402 8.21311L47.7694 9.83438L48.8847 9.09573L50.0062 8.90168L50.4548 9.35238L50.3925 9.79682L50.8348 9.73422L51.2834 10.1849L51.2211 10.6294L51.6635 10.5668L52.1121 11.0175L52.0498 11.4619L52.4922 11.3993L52.9407 11.85L52.8909 12.2193L52.3426 12.7702L46.8037 15.1364L41.4268 13.7154L3.96288 39.95C3.96288 39.95 2.36163 38.2974 4.08748 36.9766ZM46.0997 13.7405C46.5483 14.1912 47.2772 14.1912 47.7258 13.7405C48.1744 13.2898 48.1744 12.5574 47.7258 12.1067C47.2772 11.656 46.5483 11.656 46.0997 12.1067C45.6511 12.5574 45.6511 13.2898 46.0997 13.7405Z" fill="#FF9D15"/>
<path d="M42.6792 37.4716V36.4074H41.0904V37.4716H40.5172V35.1242H43.2586V37.4716H42.6792ZM47.9938 44.5263H52.5358L50.2617 43.0991L47.9938 44.5263ZM62.0062 36.9458H60.1246V38.1664H56V36.9458H43.9378V38.1664H39.8132V36.9458H37.9316V44.5263H46.3053C46.1807 44.1945 46.2804 43.8127 46.5919 43.6186L48.8349 42.2102L48.1994 41.8096C47.6013 42.3166 46.7228 42.398 46.025 41.9598C45.6137 41.6969 45.3334 41.3025 45.2212 40.8644L46.6916 41.2775C46.6916 41.2775 47.2399 41.3839 47.4331 40.5514C47.6324 39.6813 47.1776 39.5436 47.1776 39.5436L45.6636 39.1179C46.2555 38.4794 47.2337 38.3292 48 38.8049C48.5795 39.168 48.891 39.8002 48.8723 40.445L50.2679 41.3213L51.6636 40.445C51.6449 39.8065 51.9502 39.1742 52.5358 38.8049C53.3022 38.3229 54.2804 38.4731 54.8723 39.1179L53.3583 39.5436C53.3583 39.5436 52.8972 39.6813 53.1028 40.5514C53.296 41.3839 53.8442 41.2775 53.8442 41.2775L55.3146 40.8644C55.1962 41.3025 54.9221 41.7032 54.5109 41.9598C53.8131 42.398 52.9346 42.3104 52.3364 41.8096L51.7009 42.2102L53.9439 43.6186C54.2555 43.8127 54.3614 44.1945 54.2305 44.5263H62.0249V36.9458H62.0062ZM59.433 37.4716V35.1242H56.6916V37.4716H57.2648V36.4074H58.8536V37.4716H59.433ZM46.7477 28.2009C46.7477 28.0256 46.891 27.8817 47.0655 27.8817H52.9221C53.0966 27.8817 53.2399 28.0256 53.2399 28.2009V29.1023H54.2804V27.7627C54.2804 27.2682 53.8816 26.8613 53.3894 26.8613H46.5483C46.0561 26.8613 45.6574 27.262 45.6574 27.7627V29.1023H46.7477V28.2009ZM39.8194 36.2948H37.2524V32.8957C37.2524 31.4309 38.43 30.2478 39.8879 30.2478H44.835V29.6907H55.1028V30.2478H60.0498C61.5077 30.2478 62.6853 31.4309 62.6853 32.8957V36.2948H60.1183V34.4294H55.9937V36.2948H43.9315V34.4294H39.8069V36.2948H39.8194ZM59.19 31.3683C59.19 31.7001 59.4579 31.9693 59.7881 31.9693C60.5171 31.9693 61.109 32.5639 61.109 33.2963C61.109 33.6281 61.3769 33.8973 61.7071 33.8973C62.0373 33.8973 62.3052 33.6281 62.3052 33.2963C62.3052 31.9004 61.1775 30.7674 59.7881 30.7674C59.4579 30.7674 59.19 31.0366 59.19 31.3683ZM41.8069 31.3683C41.8069 31.7001 42.0748 31.9693 42.405 31.9693H57.5015C57.8317 31.9693 58.0997 31.7001 58.0997 31.3683C58.0997 31.0366 57.8317 30.7674 57.5015 30.7674H42.405C42.0748 30.7674 41.8069 31.0366 41.8069 31.3683ZM40.2992 31.9693C40.6294 31.9693 40.8973 31.7001 40.8973 31.3683C40.8973 31.0366 40.6294 30.7674 40.2992 30.7674C38.9098 30.7674 37.782 31.9004 37.782 33.2963C37.782 33.6281 38.0499 33.8973 38.3802 33.8973C38.7104 33.8973 38.9783 33.6281 38.9783 33.2963C38.9783 32.5639 39.5702 31.9693 40.2992 31.9693Z" fill="#FF9D15"/>
<path d="M81.8316 39.849L79.5264 37.5329L79.9812 37.076C80.7039 36.9946 81.5575 36.8631 82.4422 36.763L85.0715 40.5501C85.0653 40.5501 84.0435 40.0306 81.8316 39.849ZM78.8784 37.5329L79.6447 36.763L78.2242 35.3358L77.4578 36.1057L75.9251 37.6456L83.1961 46.3967L84.4796 46.9914L85.2771 43.9554L78.8784 37.5329ZM69.3395 31.3984L71.514 29.2137L69.9813 27.6738L67.8068 29.8585L69.3395 31.3984ZM70.5482 31.4672C70.5856 31.5048 70.623 31.5424 70.6604 31.5799C70.6292 31.6738 70.6292 31.7552 70.6666 31.7927C70.7102 31.8366 70.785 31.8366 70.8784 31.799C70.9158 31.8366 70.9532 31.8741 70.9906 31.9117C70.9594 32.0056 70.9594 32.0869 70.9968 32.1245C71.0404 32.1683 71.1152 32.1683 71.2087 32.1308C71.246 32.1683 71.2834 32.2059 71.3208 32.2434C71.2897 32.3373 71.2897 32.4187 71.327 32.4563C71.3707 32.5001 71.4454 32.5001 71.5389 32.4625C71.5763 32.5001 71.6136 32.5377 71.651 32.5752C71.6199 32.6691 71.6199 32.7505 71.6573 32.788C71.7009 32.8319 71.7756 32.8319 71.8691 32.7943C71.9065 32.8319 71.9439 32.8694 71.9812 32.907C71.9501 33.0009 71.9501 33.0823 71.9875 33.1198C72.0311 33.1636 72.1059 33.1636 72.1993 33.1261C72.2367 33.1636 72.2741 33.2012 72.3115 33.2387C72.2803 33.3326 72.2803 33.414 72.3177 33.4516C72.3613 33.4954 72.4361 33.4954 72.5295 33.4578C72.5669 33.4954 72.6043 33.533 72.6417 33.5705C72.6105 33.6644 72.6105 33.7458 72.6479 33.7833C72.6915 33.8272 72.7663 33.8272 72.8597 33.7896C72.8971 33.8272 72.9345 33.8647 72.9719 33.9023C72.9407 33.9962 72.9407 34.0775 72.9781 34.1151C73.0155 34.1527 73.0965 34.1589 73.19 34.1214C73.2273 34.1589 73.2647 34.1965 73.3021 34.234C73.2709 34.3279 73.271 34.4093 73.3083 34.4469C73.3519 34.4907 73.4267 34.4907 73.5202 34.4531C73.5576 34.4907 73.5949 34.5282 73.6323 34.5658C73.6012 34.6597 73.6012 34.7411 73.6385 34.7786C73.6822 34.8225 73.7569 34.8225 73.8504 34.7849C73.8878 34.8225 73.9252 34.86 73.9625 34.8976C73.9314 34.9915 73.9314 35.0728 73.9688 35.1104C74.0124 35.1542 74.0871 35.1542 74.1806 35.1167C74.218 35.1542 74.2554 35.1918 74.2928 35.2293C74.2616 35.3232 74.2616 35.4046 74.299 35.4422C74.3426 35.486 74.4174 35.486 74.5108 35.4484C74.5482 35.486 74.5856 35.5235 74.623 35.5611C74.5918 35.655 74.5918 35.7364 74.6292 35.7739C74.6728 35.8178 74.7476 35.8178 74.841 35.7802C74.8784 35.8178 74.9158 35.8553 74.9532 35.8929C74.922 35.9868 74.922 36.0681 74.9594 36.1057C75.003 36.1495 75.0778 36.1495 75.1712 36.112C75.2086 36.1495 75.246 36.1871 75.2834 36.2246C75.2523 36.3185 75.2522 36.3999 75.2896 36.4375C75.3332 36.4813 75.408 36.4813 75.5015 36.4437C75.5389 36.4813 75.5762 36.5188 75.6136 36.5564C75.5825 36.6503 75.5825 36.7317 75.6198 36.7692C75.6635 36.8131 75.7382 36.8131 75.8317 36.7755C75.8628 36.8068 75.9002 36.8444 75.9314 36.8757L76.9719 35.8303C76.9407 35.799 76.9096 35.7677 76.8784 35.7364C76.922 35.6237 76.9283 35.5361 76.8784 35.4923C76.8348 35.4484 76.7476 35.4484 76.6354 35.4923C76.6043 35.461 76.5731 35.4297 76.542 35.3984C76.5856 35.2857 76.5918 35.198 76.542 35.1542C76.4921 35.1104 76.4111 35.1104 76.299 35.1542C76.2678 35.1229 76.2367 35.0916 76.2055 35.0603C76.2491 34.9477 76.2554 34.86 76.2055 34.8162C76.1619 34.7724 76.0747 34.7724 75.9625 34.8162C75.9314 34.7849 75.9002 34.7536 75.8691 34.7223C75.9127 34.6096 75.9189 34.522 75.8691 34.4782C75.8255 34.4344 75.7382 34.4406 75.6261 34.4782C75.5949 34.4469 75.5638 34.4156 75.5326 34.3843C75.5762 34.2716 75.5825 34.184 75.5326 34.1401C75.489 34.0963 75.4018 34.0963 75.2896 34.1401C75.2585 34.1088 75.2273 34.0775 75.1962 34.0462C75.2398 33.9336 75.246 33.8459 75.1962 33.8021C75.1526 33.7583 75.0653 33.7646 74.9532 33.8021C74.922 33.7708 74.8909 33.7395 74.8597 33.7082C74.9033 33.5956 74.9096 33.5079 74.8597 33.4641C74.8161 33.4203 74.7289 33.4265 74.6167 33.4641C74.5856 33.4328 74.5544 33.4015 74.5233 33.3702C74.5669 33.2575 74.5731 33.1699 74.5233 33.1261C74.4797 33.0823 74.3924 33.0823 74.2803 33.1261C74.2491 33.0948 74.218 33.0635 74.1868 33.0322C74.2304 32.9195 74.2367 32.8319 74.1868 32.788C74.1432 32.7442 74.056 32.7442 73.9439 32.788C73.9127 32.7567 73.8815 32.7254 73.8504 32.6941C73.894 32.5815 73.9002 32.4938 73.8504 32.45C73.8068 32.4062 73.7196 32.4125 73.6074 32.45C73.5763 32.4187 73.5451 32.3874 73.514 32.3561C73.5576 32.2434 73.5638 32.1558 73.514 32.112C73.4703 32.0682 73.3831 32.0682 73.271 32.112C73.2398 32.0807 73.2087 32.0494 73.1775 32.0181C73.2211 31.9054 73.2273 31.8178 73.1775 31.774C73.1339 31.7301 73.0466 31.7364 72.9345 31.774C72.9033 31.7427 72.8722 31.7114 72.841 31.6801C72.8847 31.5674 72.8909 31.4798 72.841 31.4359C72.7974 31.3921 72.7102 31.3984 72.5981 31.4359C72.5669 31.4046 72.5357 31.3733 72.5046 31.342C72.5482 31.2294 72.5544 31.1417 72.5046 31.0979C72.461 31.0541 72.3738 31.0541 72.2616 31.0979C72.2305 31.0666 72.1993 31.0353 72.1682 31.004C72.2118 30.8913 72.218 30.8037 72.1682 30.7599C72.1245 30.7161 72.0373 30.7223 71.9252 30.7599C71.894 30.7286 71.8629 30.6973 71.8317 30.666C71.8753 30.5533 71.8816 30.4657 71.8317 30.4219C71.7881 30.378 71.7009 30.3843 71.5887 30.4219C71.5576 30.3906 71.5264 30.3593 71.4953 30.328C71.5389 30.2153 71.5451 30.1277 71.4953 30.0838C71.4516 30.04 71.3644 30.0463 71.2523 30.0838C71.2211 30.0525 71.1962 30.0275 71.165 29.9962L70.1246 31.0416C70.1557 31.0729 70.1869 31.1042 70.218 31.1355C70.1869 31.2294 70.1869 31.3107 70.2243 31.3483C70.3738 31.4985 70.4485 31.4985 70.5482 31.4672ZM68.6853 27.5111C68.6542 27.4798 68.623 27.4485 68.5918 27.4172C68.6355 27.3045 68.6417 27.2169 68.5918 27.1731C68.5482 27.1292 68.461 27.1355 68.3489 27.1731C68.3177 27.1418 68.2866 27.1105 68.2554 27.0792C68.299 26.9665 68.3053 26.8788 68.2554 26.835C68.2118 26.7912 68.1246 26.7975 68.0124 26.835C67.9813 26.8037 67.9501 26.7724 67.919 26.7411C67.9626 26.6285 67.9688 26.5408 67.919 26.497C67.8754 26.4532 67.7881 26.4594 67.676 26.497C67.6448 26.4657 67.6137 26.4344 67.5825 26.4031C67.6261 26.2904 67.6324 26.2028 67.5825 26.159C67.5389 26.1152 67.4517 26.1152 67.3395 26.159C67.3084 26.1277 67.2772 26.0964 67.2461 26.0651C67.2897 25.9524 67.2959 25.8648 67.2461 25.821C67.2025 25.7771 67.1152 25.7771 67.0031 25.821C66.9719 25.7897 66.9408 25.7584 66.9096 25.7271C66.9532 25.6144 66.9595 25.5267 66.9096 25.4829C66.8598 25.4391 66.7788 25.4454 66.6666 25.4829C66.6355 25.4516 66.6043 25.4203 66.5732 25.389C66.6168 25.2764 66.623 25.1887 66.5732 25.1449C66.5296 25.1011 66.4423 25.1073 66.3302 25.1449C66.299 25.1136 66.2679 25.0823 66.2367 25.051C66.2803 24.9383 66.2866 24.8507 66.2367 24.8069C66.1931 24.7631 66.1059 24.7693 65.9937 24.8069C65.9626 24.7756 65.9314 24.7443 65.9003 24.713C65.9439 24.6003 65.9501 24.5127 65.9003 24.4688C65.8567 24.425 65.7694 24.4313 65.6573 24.4688C65.6261 24.4376 65.595 24.4063 65.5638 24.375C65.6075 24.2623 65.6137 24.1746 65.5638 24.1308C65.5202 24.087 65.433 24.0933 65.3208 24.1308C59.5265 18.3093 54.3552 13.1137 54.3552 13.1137L53.3147 14.1591C53.3147 14.1591 58.4673 19.3359 64.2866 25.1825C64.2554 25.2764 64.2554 25.3577 64.2928 25.3953C64.3364 25.4391 64.4112 25.4391 64.5047 25.4015C64.542 25.4391 64.5794 25.4767 64.6168 25.5142C64.5857 25.6081 64.5856 25.6895 64.623 25.7271C64.6604 25.7646 64.7414 25.7709 64.8349 25.7333C64.8722 25.7709 64.9096 25.8084 64.947 25.846C64.9159 25.9399 64.9159 26.0213 64.9532 26.0588C64.9969 26.1026 65.0716 26.1026 65.1651 26.0651C65.2025 26.1026 65.2399 26.1402 65.2772 26.1778C65.2461 26.2717 65.2461 26.353 65.2835 26.3906C65.3271 26.4344 65.4018 26.4344 65.4953 26.3968C65.5327 26.4344 65.5701 26.472 65.6075 26.5095C65.5763 26.6034 65.5763 26.6848 65.6137 26.7224C65.6573 26.7662 65.7321 26.7662 65.8255 26.7286C65.8629 26.7662 65.9003 26.8037 65.9377 26.8413C65.9065 26.9352 65.9065 27.0166 65.9439 27.0541C65.9875 27.0979 66.0623 27.0979 66.1557 27.0604C66.1931 27.0979 66.2305 27.1355 66.2679 27.1731C66.2367 27.267 66.2367 27.3483 66.2741 27.3859C66.3177 27.4297 66.3925 27.4297 66.486 27.3921C66.5233 27.4297 66.5607 27.4673 66.5981 27.5048C66.567 27.5987 66.5669 27.6801 66.6043 27.7177C66.6479 27.7615 66.7227 27.7615 66.8162 27.7239C66.8536 27.7615 66.8909 27.799 66.9283 27.8366C66.8972 27.9305 66.8972 28.0119 66.9346 28.0494C66.9719 28.087 67.0529 28.0932 67.1464 28.0557C67.1838 28.0932 67.2212 28.1308 67.2585 28.1684C67.2274 28.2623 67.2274 28.3436 67.2648 28.3812C67.3084 28.425 67.3831 28.425 67.4766 28.3874C67.514 28.425 67.5514 28.4626 67.5887 28.5001C67.5576 28.594 67.5576 28.6754 67.595 28.713C67.6386 28.7568 67.7134 28.7568 67.8068 28.7192C67.8442 28.7568 67.8816 28.7943 67.919 28.8319C67.9003 28.8945 67.894 28.9446 67.9003 28.9884L69.1339 27.749C69.0841 27.7427 69.028 27.749 68.9532 27.7802C68.9221 27.749 68.8909 27.7177 68.8598 27.6864C68.9034 27.5737 68.9096 27.486 68.8598 27.4422C68.8847 27.461 68.7975 27.4673 68.6853 27.5111ZM90.112 54.766L90.1618 55.1353L90.4671 55.442C90.4671 55.442 90.5606 55.5359 90.7101 55.6862C91.1026 56.0805 91.8939 56.8755 92.5481 57.5328C93.6384 58.6282 96.5605 56.4686 98.6166 54.4029C100.585 52.4248 100.367 50.115 98.5044 48.2496C96.4795 46.2152 94.3549 44.0806 92.1618 41.8772L91.0029 46.6471C92.7911 48.4437 94.1805 49.8396 94.1805 49.8396V51.705L93.9499 51.9491L93.0403 51.8177L92.5917 52.2684L92.654 52.7128L92.2116 52.6502L91.763 53.1009L91.8253 53.5453L91.383 53.4827L90.9344 53.9334L90.9967 54.3779L90.5543 54.3153L90.112 54.766ZM63.2025 4.10592C67.2211 9.40792 91.8316 41.3326 91.8316 41.3326L90.2179 47.993L90.9531 49.1134L91.1462 50.2402L90.6976 50.6909L90.2553 50.6283L90.3176 51.0727L89.869 51.5234L89.4266 51.4608L89.4889 51.9053L89.0403 52.356L88.598 52.2934L88.6603 52.7378L88.2117 53.1885L87.8441 53.1385L87.2958 52.5876L84.9407 47.0227L86.355 41.6205L60.243 3.97446C60.243 3.97446 61.8878 2.36571 63.2025 4.10592ZM86.3301 46.3153C85.8815 46.766 85.8815 47.4984 86.3301 47.9491C86.7786 48.3998 87.5076 48.3998 87.9562 47.9491C88.4048 47.4984 88.4048 46.766 87.9562 46.3153C87.5076 45.8646 86.7786 45.8646 86.3301 46.3153Z" fill="#FF9D15"/>
<path d="M60.3426 81.7403L62.6479 79.4242L63.1027 79.8811C63.1837 80.6073 63.3145 81.4648 63.4142 82.3537L59.6448 84.9953C59.6448 84.9953 60.1557 83.9687 60.3426 81.7403ZM62.6479 78.7794L63.4142 79.5494L64.8348 78.1221L64.0684 77.3522L62.5357 75.8123L53.8255 83.1174L53.2336 84.4069L56.2554 85.2082L62.6479 78.7794ZM68.7538 69.1958L70.9282 71.3804L72.4609 69.8405L70.2865 67.6559L68.7538 69.1958ZM68.6852 70.4101C68.6479 70.4477 68.6105 70.4853 68.5731 70.5228C68.4796 70.4915 68.3986 70.4915 68.3612 70.5291C68.3176 70.5729 68.3176 70.648 68.355 70.7419C68.3176 70.7795 68.2802 70.817 68.2429 70.8546C68.1494 70.8233 68.0684 70.8233 68.031 70.8608C67.9874 70.9047 67.9874 70.9798 68.0248 71.0737C67.9874 71.1112 67.95 71.1488 67.9126 71.1864C67.8192 71.1551 67.7382 71.1551 67.7008 71.1926C67.6634 71.2302 67.6572 71.3115 67.6946 71.4054C67.6572 71.443 67.6198 71.4806 67.5824 71.5181C67.489 71.4868 67.408 71.4868 67.3706 71.5244C67.327 71.5682 67.327 71.6433 67.3644 71.7372C67.327 71.7748 67.2896 71.8123 67.2522 71.8499C67.1588 71.8186 67.0778 71.8186 67.0404 71.8561C66.9968 71.9 66.9968 71.9751 67.0341 72.069C66.9968 72.1065 66.9594 72.1441 66.922 72.1817C66.8285 72.1504 66.7475 72.1503 66.7102 72.1879C66.6666 72.2317 66.6665 72.3068 66.7039 72.4007C66.6665 72.4383 66.6292 72.4759 66.5918 72.5134C66.4983 72.4821 66.4173 72.4821 66.38 72.5197C66.3363 72.5635 66.3363 72.6386 66.3737 72.7325C66.3363 72.7701 66.299 72.8076 66.2616 72.8452C66.1681 72.8139 66.0871 72.8139 66.0497 72.8514C66.0061 72.8953 66.0061 72.9704 66.0435 73.0643C66.0061 73.1018 65.9687 73.1394 65.9314 73.1769C65.8379 73.1456 65.7569 73.1456 65.7195 73.1832C65.6759 73.227 65.6759 73.3021 65.7133 73.396C65.6759 73.4336 65.6385 73.4712 65.6011 73.5087C65.5077 73.4774 65.4267 73.4774 65.3893 73.515C65.3457 73.5588 65.3457 73.6339 65.3831 73.7278C65.3457 73.7654 65.3083 73.8029 65.2709 73.8405C65.1775 73.8092 65.0965 73.8092 65.0591 73.8467C65.0155 73.8906 65.0155 73.9657 65.0529 74.0596C65.0155 74.0971 64.9781 74.1347 64.9407 74.1722C64.8473 74.1409 64.7663 74.141 64.7289 74.1785C64.6853 74.2223 64.6853 74.2974 64.7226 74.3913C64.6853 74.4289 64.6479 74.4665 64.6105 74.504C64.517 74.4727 64.436 74.4727 64.3987 74.5103C64.355 74.5541 64.355 74.6292 64.3924 74.7231C64.355 74.7607 64.3177 74.7982 64.2803 74.8358C64.1868 74.8045 64.1058 74.8045 64.0684 74.842C64.0248 74.8859 64.0248 74.961 64.0622 75.0549C64.0248 75.0924 63.9874 75.13 63.9501 75.1676C63.8566 75.1363 63.7756 75.1362 63.7382 75.1738C63.6946 75.2176 63.6946 75.2927 63.732 75.3866C63.6946 75.4242 63.6572 75.4618 63.6198 75.4993C63.5264 75.468 63.4454 75.468 63.408 75.5056C63.3644 75.5494 63.3644 75.6245 63.4018 75.7184C63.3706 75.7497 63.3332 75.7873 63.3021 75.8186L64.3426 76.8639C64.3737 76.8326 64.4049 76.8013 64.436 76.77C64.5482 76.8139 64.6354 76.8201 64.679 76.77C64.7226 76.7262 64.7226 76.6386 64.679 76.5259C64.7102 76.4946 64.7413 76.4633 64.7725 76.432C64.8846 76.4758 64.9719 76.4821 65.0155 76.432C65.0591 76.3882 65.0529 76.3006 65.0155 76.1879C65.0466 76.1566 65.0778 76.1253 65.1089 76.094C65.2211 76.1378 65.3083 76.1441 65.3519 76.094C65.3955 76.0502 65.3893 75.9625 65.3519 75.8499C65.3831 75.8186 65.4142 75.7873 65.4454 75.756C65.5575 75.7998 65.6448 75.806 65.6884 75.756C65.732 75.7121 65.7258 75.6245 65.6884 75.5118C65.7195 75.4805 65.7507 75.4492 65.7818 75.4179C65.894 75.4618 65.9812 75.468 66.0248 75.4179C66.0684 75.3741 66.0622 75.2865 66.0248 75.1738C66.056 75.1425 66.0871 75.1112 66.1183 75.0799C66.2304 75.1237 66.3176 75.13 66.3613 75.0799C66.4049 75.0361 66.4049 74.9485 66.3613 74.8358C66.3924 74.8045 66.4236 74.7732 66.4547 74.7419C66.5669 74.7857 66.6541 74.792 66.6977 74.7419C66.7413 74.6981 66.7413 74.6104 66.6977 74.4978C66.7289 74.4665 66.76 74.4352 66.7912 74.4039C66.9033 74.4477 66.9905 74.4539 67.0341 74.4039C67.0778 74.36 67.0778 74.2724 67.0341 74.1597C67.0653 74.1284 67.0965 74.0971 67.1276 74.0658C67.2398 74.1096 67.327 74.1159 67.3706 74.0658C67.4142 74.022 67.4142 73.9344 67.3706 73.8217C67.4017 73.7904 67.4329 73.7591 67.4641 73.7278C67.5762 73.7716 67.6634 73.7779 67.707 73.7278C67.7507 73.684 67.7444 73.5964 67.707 73.4837C67.7382 73.4524 67.7694 73.4211 67.8005 73.3898C67.9127 73.4336 67.9999 73.4399 68.0435 73.3898C68.0871 73.346 68.0809 73.2583 68.0435 73.1456C68.0747 73.1143 68.1058 73.0831 68.137 73.0518C68.2491 73.0956 68.3363 73.1018 68.3799 73.0518C68.4235 73.0079 68.4173 72.9203 68.3799 72.8076C68.4111 72.7763 68.4422 72.745 68.4734 72.7137C68.5855 72.7575 68.6728 72.7638 68.7164 72.7137C68.76 72.6699 68.7538 72.5823 68.7164 72.4696C68.7475 72.4383 68.7787 72.407 68.8098 72.3757C68.922 72.4195 69.0092 72.4258 69.0528 72.3757C69.0965 72.3319 69.0965 72.2442 69.0528 72.1316C69.084 72.1003 69.1151 72.069 69.1463 72.0377C69.2584 72.0815 69.3457 72.0878 69.3893 72.0377C69.4329 71.9939 69.4329 71.9062 69.3893 71.7936C69.4204 71.7623 69.4516 71.7309 69.4827 71.6996C69.5949 71.7435 69.6821 71.7497 69.7257 71.6996C69.7693 71.6558 69.7693 71.5682 69.7257 71.4555C69.7569 71.4242 69.788 71.3929 69.8192 71.3616C69.9313 71.4054 70.0186 71.4117 70.0622 71.3616C70.1058 71.3115 70.1058 71.2302 70.0622 71.1175C70.0933 71.0862 70.1182 71.0612 70.1494 71.0299L69.1089 69.9845C69.0778 70.0158 69.0466 70.0471 69.0155 70.0784C68.922 70.0471 68.841 70.0471 68.8036 70.0846C68.6479 70.2349 68.6541 70.31 68.6852 70.4101ZM72.6229 68.5385C72.654 68.5072 72.6852 68.4759 72.7164 68.4446C72.8285 68.4884 72.9157 68.4947 72.9593 68.4446C73.003 68.4008 73.003 68.3131 72.9593 68.2005C72.9905 68.1692 73.0216 68.1379 73.0528 68.1066C73.1649 68.1504 73.2522 68.1566 73.2958 68.1066C73.3394 68.0627 73.3332 67.9751 73.2958 67.8624C73.327 67.8311 73.3581 67.7998 73.3893 67.7685C73.5014 67.8124 73.5886 67.8186 73.6323 67.7685C73.6759 67.7247 73.6759 67.6371 73.6323 67.5244C73.6634 67.4931 73.6946 67.4618 73.7257 67.4305C73.8379 67.4743 73.9251 67.4806 73.9687 67.4305C74.0123 67.3867 74.0061 67.2991 73.9687 67.1864C73.9998 67.1551 74.031 67.1238 74.0621 67.0925C74.1743 67.1363 74.2615 67.1426 74.3051 67.0925C74.3487 67.0487 74.3425 66.961 74.3051 66.8484C74.3363 66.8171 74.3674 66.7858 74.3986 66.7545C74.5107 66.7983 74.598 66.8045 74.6416 66.7545C74.6852 66.7106 74.6852 66.623 74.6416 66.5103C74.6727 66.479 74.7039 66.4477 74.735 66.4164C74.8472 66.4603 74.9344 66.4665 74.978 66.4164C75.0216 66.3726 75.0216 66.285 74.978 66.1723C75.0092 66.141 75.0403 66.1097 75.0715 66.0784C75.1836 66.1222 75.2709 66.1285 75.3145 66.0784C75.3581 66.0346 75.3581 65.947 75.3145 65.8343C75.3456 65.803 75.3768 65.7717 75.4079 65.7404C75.5201 65.7842 75.6073 65.7905 75.6509 65.7404C75.6945 65.6903 75.6945 65.6089 75.6509 65.4963C75.6821 65.465 75.7132 65.4337 75.7444 65.4024C75.8565 65.4462 75.9438 65.4524 75.9874 65.4024C76.031 65.3585 76.0248 65.2709 75.9874 65.1582C81.7817 59.3367 86.953 54.1411 86.953 54.1411L85.9125 53.0957C85.9125 53.0957 80.7599 58.2725 74.9406 64.1191C74.8472 64.0878 74.7662 64.0878 74.7288 64.1254C74.6852 64.1692 74.6852 64.2443 74.7226 64.3382C74.6852 64.3758 74.6478 64.4133 74.6104 64.4509C74.517 64.4196 74.436 64.4196 74.3986 64.4571C74.355 64.5009 74.355 64.5761 74.3924 64.67C74.355 64.7075 74.3176 64.7451 74.2802 64.7826C74.1868 64.7513 74.1058 64.7513 74.0684 64.7889C74.0248 64.8327 74.0248 64.9078 74.0621 65.0017C74.0248 65.0393 73.9874 65.0768 73.95 65.1144C73.8565 65.0831 73.7755 65.0831 73.7382 65.1207C73.6945 65.1645 73.6945 65.2396 73.7319 65.3335C73.6945 65.3711 73.6572 65.4086 73.6198 65.4462C73.5263 65.4149 73.4453 65.4149 73.4079 65.4524C73.3643 65.4963 73.3643 65.5714 73.4017 65.6653C73.3643 65.7028 73.3269 65.7404 73.2896 65.7779C73.1961 65.7466 73.1151 65.7466 73.0777 65.7842C73.0341 65.828 73.0341 65.9031 73.0715 65.997C73.0341 66.0346 72.9967 66.0721 72.9593 66.1097C72.8659 66.0784 72.7849 66.0784 72.7475 66.116C72.7039 66.1598 72.7039 66.2349 72.7413 66.3288C72.7039 66.3664 72.6665 66.4039 72.6291 66.4415C72.5357 66.4102 72.4547 66.4102 72.4173 66.4477C72.3737 66.4915 72.3737 66.5667 72.4111 66.6606C72.3737 66.6981 72.3363 66.7357 72.2989 66.7732C72.2055 66.7419 72.1245 66.7419 72.0871 66.7795C72.0435 66.8233 72.0435 66.8984 72.0808 66.9923C72.0435 67.0299 72.0061 67.0674 71.9687 67.105C71.8752 67.0737 71.7942 67.0737 71.7569 67.1113C71.7133 67.1551 71.7132 67.2302 71.7506 67.3241C71.7132 67.3617 71.6759 67.3992 71.6385 67.4368C71.545 67.4055 71.464 67.4055 71.4267 67.443C71.3893 67.4806 71.383 67.562 71.4204 67.6559C71.383 67.6934 71.3457 67.731 71.3083 67.7685C71.246 67.7498 71.1961 67.7435 71.1525 67.7498L72.3862 68.9892C72.3924 68.9391 72.3861 68.8765 72.355 68.8077C72.3861 68.7764 72.4173 68.7451 72.4484 68.7138C72.5606 68.7576 72.6478 68.7638 72.6914 68.7138C72.6727 68.7325 72.6665 68.6449 72.6229 68.5385ZM45.4954 90.0657L45.1278 90.1158L44.8225 90.4225C44.8225 90.4225 44.729 90.5164 44.5795 90.6667C44.187 91.061 43.3957 91.856 42.7415 92.5133C41.6511 93.6087 43.8007 96.5446 45.8567 98.6103C47.8256 100.588 50.1246 100.369 51.9813 98.4976C54.0062 96.4632 56.1308 94.3286 58.3239 92.1252L53.5763 90.9609C51.7882 92.7574 50.3988 94.1533 50.3988 94.1533H48.5421L48.2991 93.9092L48.4299 92.9953L47.9813 92.5446L47.539 92.6072L47.6012 92.1627L47.1527 91.712L46.7103 91.7746L46.7726 91.3302L46.324 90.8795L45.8816 90.9421L45.944 90.4976L45.4954 90.0657ZM95.9187 63.0299C90.6415 67.0674 58.866 91.7934 58.866 91.7934L52.2367 90.1721L51.1215 90.9108L50 91.1048L49.5514 90.6541L49.6137 90.2097L49.1713 90.2723L48.7227 89.8216L48.7851 89.3772L48.3427 89.4397L47.8941 88.989L47.9564 88.5446L47.514 88.6072L47.0654 88.1565L47.1153 87.7872L47.6636 87.2363L53.2025 84.8701L58.5794 86.2911L96.0433 60.0565C96.0433 60.0565 97.6508 61.7091 95.9187 63.0299ZM53.9065 86.2598C53.4579 85.8091 52.7289 85.8091 52.2804 86.2598C51.8318 86.7105 51.8318 87.4429 52.2804 87.8936C52.7289 88.3443 53.4579 88.3443 53.9065 87.8936C54.3551 87.4429 54.3551 86.7105 53.9065 86.2598Z" fill="#FF9D15"/>
<path d="M50.137 15.4375L15.9254 49.8097L50.137 84.182L84.3487 49.8035L50.137 15.4375ZM50.137 83.3056L16.8039 49.816L50.137 16.3264L83.4702 49.816L50.137 83.3056Z" fill="#FF9D15"/>
<path d="M27.4332 53.277H23.7759V51.8936H24.2805V48.1002H23.7759V46.7168H27.5391C27.8818 46.7168 28.1871 46.7544 28.4674 46.8232C28.7416 46.8921 28.9783 47.0047 29.1652 47.1612C29.3522 47.3177 29.5017 47.5243 29.6076 47.7747C29.7135 48.0251 29.7634 48.3318 29.7634 48.6949C29.7634 49.0579 29.7135 49.3647 29.6076 49.6151C29.5017 49.8654 29.3584 50.0658 29.1652 50.2285C28.9721 50.385 28.7416 50.4977 28.4674 50.5665C28.1933 50.6354 27.8818 50.673 27.5391 50.673H26.6232V51.8873H27.427V53.277H27.4332ZM26.9098 49.4899C27.0656 49.4899 27.184 49.446 27.2712 49.3647C27.3522 49.2833 27.3958 49.1456 27.3958 48.9515V48.6448C27.3958 48.457 27.3522 48.3193 27.2712 48.2317C27.1902 48.1503 27.0656 48.1065 26.9036 48.1065H26.617V49.4899H26.9098Z" fill="#FF9D15"/>
<path d="M30.0812 46.7227H33.7073V48.1061H32.9348V51.8995H33.6886V51.1233H35.3584V53.2829H30.0812V51.8995H30.5858V48.1061H30.0812V46.7227Z" fill="#FF9D15"/>
<path d="M41.6201 50.9292C41.6201 51.3862 41.5577 51.768 41.4331 52.081C41.3085 52.394 41.1278 52.6444 40.8911 52.8447C40.6543 53.0387 40.3739 53.1827 40.0375 53.2703C39.7073 53.358 39.3335 53.4018 38.9285 53.4018C38.511 53.4018 38.131 53.358 37.7945 53.2703C37.4581 53.1827 37.1715 53.0387 36.9285 52.8447C36.6917 52.6506 36.5048 52.394 36.374 52.081C36.2431 51.768 36.1746 51.3862 36.1746 50.9292V48.1061H35.6699V46.7227H38.8599V48.1061H38.5235V51.3611C38.5235 51.5552 38.5671 51.6929 38.6481 51.7743C38.7291 51.8556 38.8537 51.8995 39.0157 51.8995C39.1777 51.8995 39.3023 51.8556 39.3771 51.7743C39.4581 51.6929 39.5017 51.5552 39.5017 51.3611V48.1061H39.1652V46.7227H42.1247V48.1061H41.6201V50.9292Z" fill="#FF9D15"/>
<path d="M42.3616 46.7227H46.3678L47.3273 49.6147L48.2494 46.7227H52.1185V48.1061H51.6138V51.8995H52.1185V53.2829H48.7665V51.8995H49.2712V48.5693L47.6014 53.2829H46.698L44.8039 48.5568V51.8995H45.3086V53.2829H42.374V51.8995H42.8787V48.1061H42.374V46.7227H42.3616Z" fill="#FF9D15"/>
<path d="M52.4674 46.7227H56.3988C57.0842 46.7227 57.6262 46.8604 58.025 47.1421C58.4237 47.4238 58.6231 47.8369 58.6231 48.3815C58.6231 48.6507 58.5733 48.8823 58.4736 49.0701C58.3739 49.2641 58.2493 49.4206 58.106 49.5395C57.9627 49.6647 57.8069 49.7586 57.6512 49.8275C57.4892 49.8963 57.3521 49.9402 57.2337 49.9652V50.0466C57.3583 50.0591 57.5079 50.0841 57.6885 50.128C57.8692 50.1718 58.0375 50.2469 58.1994 50.3533C58.3614 50.4597 58.4985 50.6162 58.6169 50.8103C58.729 51.0043 58.7913 51.261 58.7913 51.574C58.7913 51.8869 58.729 52.1561 58.5982 52.3689C58.4674 52.588 58.2991 52.7633 58.0811 52.8948C57.863 53.0262 57.6075 53.1264 57.3209 53.1827C57.0343 53.239 56.7291 53.2703 56.4113 53.2703H52.4799V51.8869H52.9845V48.0935H52.4799V46.7227H52.4674ZM55.7696 49.4895C55.9316 49.4895 56.0562 49.4456 56.1309 49.3643C56.2119 49.2829 56.2555 49.1452 56.2555 48.9511V48.6444C56.2555 48.4566 56.2119 48.3189 56.1309 48.2313C56.0499 48.1499 55.9253 48.1061 55.7696 48.1061H55.321V49.4895H55.7696ZM55.8319 51.8995C55.9939 51.8995 56.1185 51.8556 56.1995 51.7743C56.2805 51.6929 56.3241 51.5552 56.3241 51.3611V50.9918C56.3241 50.7977 56.2805 50.66 56.1995 50.5787C56.1185 50.4973 55.9939 50.4535 55.8319 50.4535H55.321V51.9057H55.8319V51.8995Z" fill="#FF9D15"/>
<path d="M59.1152 46.7227H62.4672V48.1061H61.9626V51.8995H62.4672V53.2829H59.1152V51.8995H59.6199V48.1061H59.1152V46.7227Z" fill="#FF9D15"/>
<path d="M67.5886 46.7227H70.5232V48.1061H70.0185V53.2829H67.6634L65.2086 49.4832V51.8995H65.7132V53.2829H62.7787V51.8995H63.2834V48.1061H62.7787V46.7227H65.8877L68.0933 50.1092V48.1061H67.5886V46.7227Z" fill="#FF9D15"/>
<path d="M74.1495 49.9149H77.1215V51.1731H76.704V52.857C76.5732 52.9196 76.4237 52.9822 76.2554 53.0448C76.0872 53.1074 75.8878 53.17 75.6698 53.2201C75.4455 53.2701 75.2025 53.314 74.9283 53.3453C74.6542 53.3766 74.3489 53.3953 74.0125 53.3953C73.5078 53.3953 73.0592 53.3327 72.6542 53.2075C72.2492 53.0823 71.9066 52.8883 71.6262 52.6191C71.3458 52.35 71.1277 51.9994 70.9782 51.5675C70.8287 51.1356 70.7539 50.616 70.7539 49.9963C70.7539 49.3828 70.8287 48.8633 70.9782 48.4314C71.1277 47.9994 71.3458 47.6489 71.6262 47.3797C71.9066 47.1106 72.2492 46.9102 72.648 46.7913C73.053 46.6661 73.5016 46.6035 74 46.6035C74.3427 46.6035 74.648 46.6223 74.9283 46.6536C75.2025 46.6849 75.4517 46.7287 75.676 46.785C75.8941 46.8351 76.0934 46.8977 76.2617 46.9603C76.4299 47.0229 76.5794 47.0855 76.7103 47.1481V49.1637H74.6106V48.7694C74.6106 48.5253 74.5607 48.3562 74.4611 48.2561C74.3614 48.1559 74.2056 48.1059 73.9938 48.1059C73.7819 48.1059 73.6262 48.1559 73.5265 48.2561C73.4268 48.3562 73.377 48.5315 73.377 48.7694V51.2295C73.377 51.4736 73.4268 51.6426 73.5265 51.7428C73.6262 51.8429 73.7819 51.893 73.9938 51.893C74.2056 51.893 74.3614 51.8429 74.4611 51.7428C74.5607 51.6426 74.6106 51.4736 74.6106 51.2295V51.1731H74.1558V49.9149H74.1495Z" fill="#FF9D15"/>
<path d="M33.5888 61.3942L32.4237 56.2174H32.0873V54.834H35.4144V56.2174H34.8661L35.2773 59.3786H35.3583L36.324 54.834H38.7415L39.6449 59.3786H39.7259L40.1371 56.2174H39.5888V54.834H42.4984V56.2174H42.162L41.0779 61.3942H38.1496L37.3894 57.92H37.3084L36.5047 61.3942H33.5888Z" fill="#FF9D15"/>
<path d="M49.0904 58.1213C49.0904 58.741 49.0156 59.2606 48.8661 59.6925C48.7165 60.1244 48.5047 60.475 48.2243 60.7441C47.9439 61.0133 47.6075 61.2136 47.215 61.3325C46.8162 61.4577 46.3739 61.5203 45.8879 61.5203C45.4019 61.5203 44.9596 61.4577 44.5608 61.3325C44.1621 61.2073 43.8256 61.0133 43.5515 60.7441C43.2773 60.475 43.0592 60.1244 42.9097 59.6925C42.7602 59.2606 42.6854 58.741 42.6854 58.1213C42.6854 57.5078 42.7602 56.9883 42.9097 56.5564C43.0592 56.1244 43.2773 55.7739 43.5515 55.5047C43.8256 55.2356 44.1683 55.0352 44.5608 54.9163C44.9596 54.7911 45.4019 54.7285 45.8879 54.7285C46.3739 54.7285 46.8162 54.7911 47.215 54.9163C47.6137 55.0415 47.9502 55.2356 48.2243 55.5047C48.4985 55.7739 48.7165 56.1244 48.8661 56.5564C49.0156 56.982 49.0904 57.5078 49.0904 58.1213ZM45.8879 60.0117C46.0748 60.0117 46.2181 59.9617 46.3178 59.8615C46.4112 59.7613 46.4611 59.6049 46.4611 59.3858V56.838C46.4611 56.619 46.4112 56.4625 46.3178 56.3623C46.2243 56.2622 46.081 56.2121 45.8879 56.2121C45.6947 56.2121 45.5577 56.2622 45.458 56.3623C45.3645 56.4625 45.3147 56.619 45.3147 56.838V59.3858C45.3147 59.6049 45.3645 59.7613 45.458 59.8615C45.5577 59.9679 45.6947 60.0117 45.8879 60.0117Z" fill="#FF9D15"/>
<path d="M52.2803 60.0108H52.8348V61.3942H49.4268V60.0108H49.9314V56.2174H49.4268V54.834H53.3582C53.7009 54.834 54.0062 54.8653 54.2865 54.9341C54.5607 55.003 54.7974 55.1094 54.9843 55.2596C55.1713 55.4099 55.3208 55.6039 55.4267 55.8481C55.5326 56.0922 55.5825 56.3864 55.5825 56.7307C55.5825 57.1 55.5077 57.4255 55.3582 57.7009C55.2086 57.9764 54.9968 58.1704 54.7102 58.2831L54.7164 58.3645C55.2523 58.4459 55.5202 58.7776 55.5202 59.3598V60.0108H55.9127V61.3942H53.2523V59.4161C53.2523 59.2471 53.2336 59.1094 53.1962 59.0092C53.1588 58.9028 53.1027 58.8277 53.0217 58.7714C52.9407 58.7213 52.8411 58.6837 52.7165 58.6649C52.5918 58.6462 52.4423 58.6336 52.2741 58.6336V60.0108H52.2803ZM52.7289 57.607C52.8909 57.607 53.0155 57.5632 53.0903 57.4819C53.1713 57.4005 53.2149 57.2628 53.2149 57.0687V56.762C53.2149 56.5742 53.1713 56.4365 53.0903 56.3488C53.0093 56.2675 52.8847 56.2236 52.7289 56.2236H52.2741V57.607H52.7289Z" fill="#FF9D15"/>
<path d="M62.4672 56.2236L61.1525 57.9263L62.598 60.017H62.9345V61.4005H60.436L59.1089 59.0906V61.4005H56.2554V60.0108H56.76V56.2174H56.2554V54.834H59.1089V57.1L60.6416 54.834H62.8036V56.2174H62.4672V56.2236Z" fill="#FF9D15"/>
<path d="M65.6572 59.8865C65.8441 59.8865 65.9749 59.8615 66.0497 59.8052C66.1307 59.7488 66.1681 59.6674 66.1681 59.5548C66.1681 59.4734 66.1369 59.4045 66.0684 59.3482C66.0061 59.2919 65.8753 59.223 65.6759 59.1416C65.2647 58.9851 64.8971 58.8349 64.5918 58.6909C64.2803 58.547 64.0248 58.3905 63.8192 58.2152C63.6136 58.0399 63.4641 57.8396 63.3644 57.6017C63.2647 57.3701 63.2148 57.0884 63.2148 56.7567C63.2148 56.4437 63.2647 56.162 63.3644 55.9116C63.4641 55.6612 63.6198 55.4484 63.8441 55.2731C64.0622 55.0978 64.3612 54.9601 64.7226 54.8662C65.0902 54.7723 65.5388 54.7285 66.0746 54.7285C66.5606 54.7285 67.0217 54.7786 67.4516 54.8788C67.8815 54.9789 68.2366 55.1104 68.5232 55.2731V56.7817H66.76C66.76 56.619 66.7164 56.5063 66.6291 56.4499C66.5419 56.3936 66.4298 56.3623 66.2989 56.3623C66.112 56.3623 65.9812 56.3873 65.9002 56.4312C65.8192 56.4812 65.7756 56.5626 65.7756 56.6816C65.7756 56.7755 65.8192 56.8443 65.9064 56.8944C65.9936 56.9382 66.1245 56.9883 66.2989 57.0446C66.6229 57.151 66.9282 57.2637 67.2148 57.3826C67.5014 57.5016 67.7569 57.6456 67.9749 57.8208C68.193 57.9961 68.3675 58.2027 68.4921 58.4531C68.6167 58.7035 68.679 59.0039 68.679 59.3607C68.679 60.0931 68.4422 60.6377 67.9749 60.9945C67.5076 61.3513 66.8161 61.5266 65.9126 61.5266C65.3955 61.5266 64.9033 61.4828 64.4298 61.3889C63.9563 61.3012 63.5762 61.1948 63.2896 61.0696V59.3983H65.1338C65.1338 59.5673 65.165 59.6925 65.2335 59.7739C65.3021 59.849 65.4453 59.8865 65.6572 59.8865Z" fill="#FF9D15"/>
<path d="M39.564 68.3818C40.0001 68.0125 40.3989 67.6557 40.7665 67.3239C41.1278 66.9922 41.4456 66.6792 41.7072 66.3975C41.9689 66.1158 42.1745 65.8654 42.3178 65.6463C42.4611 65.4272 42.5359 65.252 42.5359 65.1205C42.5359 64.9014 42.4861 64.7449 42.3926 64.6448C42.2991 64.5446 42.1558 64.4945 41.9627 64.4945C41.7696 64.4945 41.6325 64.5446 41.5328 64.6448C41.4393 64.7449 41.3895 64.9014 41.3895 65.1205V65.5399H39.7135V63.543C39.8568 63.4679 40.0188 63.4053 40.1932 63.3427C40.3677 63.2864 40.5733 63.2238 40.8038 63.1675C41.0406 63.1111 41.2898 63.0673 41.5515 63.036C41.8194 63.0047 42.0873 62.9922 42.3615 62.9922C43.1527 62.9922 43.7508 63.1549 44.1371 63.4742C44.5297 63.7997 44.7228 64.2754 44.7228 64.9014C44.7228 65.2457 44.6418 65.5712 44.486 65.8842C44.324 66.1972 44.1247 66.4914 43.8755 66.7793C43.6262 67.061 43.3583 67.3302 43.0655 67.5806C42.7727 67.831 42.4923 68.0626 42.2244 68.2817H43.2462V67.7934H44.8848V69.6651H39.5577V68.3818H39.564Z" fill="#FF9D15"/>
<path d="M50.9284 66.3908C50.9284 67.0105 50.8598 67.5301 50.7165 67.962C50.5794 68.3939 50.3801 68.7445 50.1246 69.0137C49.8692 69.2828 49.5639 69.4831 49.1963 69.6021C48.8349 69.7273 48.4237 69.7899 47.9689 69.7899C47.5141 69.7899 47.1091 69.7273 46.7477 69.6021C46.3863 69.4769 46.0748 69.2828 45.8194 69.0137C45.5639 68.7445 45.3708 68.3939 45.2275 67.962C45.0904 67.5301 45.0156 67.0105 45.0156 66.3908C45.0156 65.7774 45.0842 65.2578 45.2275 64.8259C45.3645 64.394 45.5639 64.0434 45.8194 63.7743C46.0748 63.5051 46.3801 63.311 46.7477 63.1858C47.1091 63.0606 47.5203 62.998 47.9689 62.998C48.4237 62.998 48.8287 63.0606 49.1963 63.1858C49.5577 63.311 49.8692 63.5051 50.1246 63.7743C50.3801 64.0434 50.5732 64.394 50.7165 64.8259C50.8598 65.2578 50.9284 65.7774 50.9284 66.3908ZM47.9751 68.2875C48.1683 68.2875 48.3053 68.2375 48.405 68.1373C48.4985 68.0371 48.5483 67.8806 48.5483 67.6616V65.1138C48.5483 64.8948 48.4985 64.7383 48.405 64.6381C48.3116 64.5379 48.1683 64.4879 47.9751 64.4879C47.7882 64.4879 47.6449 64.5379 47.5452 64.6381C47.4517 64.7383 47.4019 64.8948 47.4019 65.1138V67.6616C47.4019 67.8806 47.4517 68.0371 47.5452 68.1373C47.6449 68.2375 47.7882 68.2875 47.9751 68.2875Z" fill="#FF9D15"/>
<path d="M51.165 63.5433L53.028 63.1113H54.6479V68.2881H55.3519V69.6715H51.4205V68.2881H52.2242V64.4947H51.165V63.5433Z" fill="#FF9D15"/>
<path d="M60.8161 64.7754C60.623 64.7128 60.38 64.6502 60.0934 64.5876C59.8068 64.525 59.4952 64.4937 59.165 64.4937C58.76 64.4937 58.4672 64.6001 58.2865 64.8192C58.1058 65.0321 58.0124 65.3138 58.0124 65.6518V65.8959C58.1806 65.8333 58.3737 65.777 58.598 65.7332C58.8223 65.6831 59.0342 65.6643 59.246 65.6643C59.4952 65.6643 59.7445 65.6893 59.9812 65.7457C60.218 65.802 60.4298 65.9022 60.6167 66.0461C60.8036 66.1901 60.9469 66.3842 61.0591 66.622C61.1712 66.8662 61.2273 67.1729 61.2273 67.5422C61.2273 68.3247 60.9968 68.8943 60.542 69.2511C60.0809 69.6079 59.4329 69.7895 58.5856 69.7895C58.1307 69.7895 57.7258 69.7331 57.3644 69.6142C57.003 69.4953 56.6915 69.3137 56.4361 69.0759C56.1806 68.8317 55.9812 68.5313 55.8442 68.1619C55.7071 67.7926 55.6323 67.3607 55.6323 66.8599C55.6323 66.1713 55.7071 65.5767 55.8628 65.0884C56.0186 64.6001 56.2305 64.1995 56.5108 63.8928C56.7912 63.5861 57.1214 63.3607 57.5077 63.2167C57.894 63.0728 58.3239 63.0039 58.7912 63.0039C59.0342 63.0039 59.2522 63.0164 59.4516 63.0415C59.651 63.0665 59.8379 63.0978 60.0061 63.1416C60.1743 63.1854 60.3239 63.2293 60.4547 63.2793C60.5856 63.3294 60.7039 63.3795 60.8099 63.4233V64.7754H60.8161ZM58.5607 66.9788C58.4921 66.9788 58.4111 66.9851 58.3177 67.0039C58.2242 67.0227 58.1245 67.0477 58.0186 67.0853V67.6612C58.0186 67.8802 58.0684 68.0367 58.1619 68.1369C58.2554 68.2371 58.3987 68.2871 58.5918 68.2871C58.785 68.2871 58.922 68.2371 59.0217 68.1369C59.1152 68.0367 59.165 67.8802 59.165 67.6612C59.1588 67.2105 58.9594 66.9788 58.5607 66.9788Z" fill="#FF9D15"/>
<path d="M42.5919 72.4316L50.137 80.0122L57.6822 72.4316H42.5919Z" fill="#FF9D15"/>
</svg>
