<svg width="100" height="100" viewBox="0 0 100 100" fill="none" xmlns="http://www.w3.org/2000/svg">
<path d="M8.61458 50.1764L50.0257 8.76269L91.4367 50.1764H96.1855L50.0257 4.01367L3.87231 50.1764H8.61458Z" fill="#FF9D15"/>
<path d="M27.3906 76.8616C27.7837 77.8024 27.3004 78.5112 26.3725 78.9043L25.9343 79.0847L26.4949 80.4314L25.5413 80.8309L23.853 76.7972L25.1547 76.2495C26.1985 75.8177 27.0169 75.9788 27.3906 76.8616ZM26.4047 77.274C26.2243 76.8423 25.9021 76.7392 25.4317 76.9389L25.0967 77.0807L25.6508 78.4017L26.0052 78.2535C26.4305 78.073 26.6174 77.7831 26.4047 77.274Z" fill="white"/>
<path d="M29.7037 78.3369L31.3211 77.802L31.4757 78.6139L28.9755 79.4387L27.603 75.289L28.5825 74.9668L29.7037 78.3369Z" fill="white"/>
<path d="M34.865 76.2233C35.0841 77.0803 34.7039 77.8729 33.5956 78.1564C32.4872 78.4399 31.7849 77.9631 31.5593 77.0675L30.8376 74.2387L31.8429 73.9809L32.5581 76.771C32.6999 77.3123 32.9576 77.5249 33.4151 77.4154C33.8726 77.2994 34.0015 76.9837 33.8662 76.4424L33.1509 73.6523L34.1562 73.3945L34.865 76.2233Z" fill="white"/>
<path d="M40.1485 76.7261L39.1498 76.9065L38.776 75.2376C38.6407 74.6383 38.5183 74.0197 38.4538 73.4785L38.3185 76.5843L37.3584 76.7519L36.1212 73.8909C36.2759 74.5159 36.3725 75.0507 36.4563 75.6564L36.6754 77.3382L35.683 77.5122L35.2449 73.1498L36.5336 72.9243L37.6999 75.7273L37.7837 72.6988L39.0789 72.4668L40.1485 76.7261Z" fill="white"/>
<path d="M43.879 75.0432C43.9886 76.0356 43.2153 76.3964 42.1263 76.5189L40.7281 76.6735L40.2512 72.324L41.482 72.1887C42.6483 72.0598 43.3958 72.2789 43.486 73.0908C43.544 73.645 43.1831 73.9736 42.79 74.1153C43.2862 74.154 43.8081 74.3409 43.879 75.0432ZM41.3595 72.9361L41.4691 73.9478L41.8493 73.9027C42.2745 73.8576 42.4807 73.6707 42.4421 73.3034C42.4034 72.9426 42.1521 72.8459 41.656 72.8975L41.3595 72.9361ZM42.8158 75.1012C42.7707 74.6631 42.4421 74.5342 41.9975 74.5793L41.5464 74.6308L41.6753 75.81L42.049 75.7714C42.5323 75.7134 42.8674 75.5781 42.8158 75.1012Z" fill="white"/>
<path d="M45.5929 76.2159L44.5619 76.2868L44.259 71.9244L45.29 71.8535L45.5929 76.2159Z" fill="white"/>
<path d="M49.7296 76.0544L48.4151 76.093L47.0619 72.7423C47.1263 73.1354 47.223 73.7153 47.2423 74.5208L47.2874 76.1188L46.366 76.151L46.2435 71.7822L47.5323 71.7435L48.9177 75.1007C48.8532 74.7463 48.7501 74.1793 48.7308 73.4769L48.6793 71.7113L49.6071 71.6855L49.7296 76.0544Z" fill="white"/>
<path d="M53.937 72.2149L53.3829 72.7626C53.1058 72.5177 52.8674 72.4017 52.5194 72.3889C51.9073 72.3695 51.4433 72.8141 51.4111 73.8967C51.3789 75.0437 51.6689 75.4432 52.2746 75.4625C52.4872 75.4689 52.687 75.4303 52.8738 75.3336L52.8996 74.3413L52.3326 74.322L52.2552 73.5874L53.9242 73.6325L53.8662 75.7911C53.4087 76.0682 52.8416 76.2229 52.2681 76.2035C50.9536 76.1649 50.3028 75.3465 50.3479 73.8516C50.3866 72.3695 51.3402 71.5898 52.5001 71.6221C53.1187 71.6543 53.5891 71.8927 53.937 72.2149Z" fill="white"/>
<path d="M60.0775 76.7511L58.7436 76.5965L58.5825 73.2135L57.6289 76.4676L56.3272 76.3194L56.1082 71.8926L57.1391 72.0086L57.1649 75.6299L58.1766 72.131L59.2527 72.2534L59.4073 75.8877L60.3223 72.3759L61.3018 72.4854L60.0775 76.7511Z" fill="white"/>
<path d="M65.2192 75.4503C64.955 76.8614 64.0723 77.5702 62.8544 77.3447C61.643 77.1192 61.0759 76.1591 61.3401 74.7221C61.6043 73.3174 62.4871 72.6021 63.6985 72.8341C64.9164 73.0596 65.4834 74.0133 65.2192 75.4503ZM62.4098 74.9219C62.2036 76.0109 62.4355 76.4941 62.9961 76.5972C63.5761 76.7068 63.9498 76.3395 64.156 75.2441C64.3558 74.1551 64.1431 73.6782 63.5632 73.5751C62.9897 73.472 62.6095 73.8329 62.4098 74.9219Z" fill="white"/>
<path d="M67.1521 76.475L66.7591 76.3719L66.3402 77.9893L65.3414 77.7316L66.4369 73.498L67.8223 73.8589C68.9692 74.1553 69.459 74.7159 69.227 75.5987C69.0852 76.1529 68.7373 76.417 68.1187 76.533L68.7244 78.6144L67.5967 78.3244L67.1521 76.475ZM66.9395 75.6825L67.3583 75.792C67.7965 75.908 68.08 75.7791 68.196 75.3281C68.2991 74.9221 68.1122 74.6837 67.6161 74.5548L67.2552 74.4646L66.9395 75.6825Z" fill="white"/>
<path d="M70.0064 79.052L69.027 78.717L70.4446 74.5801L71.424 74.9151L70.0064 79.052ZM71.8493 77.1318L72.4937 79.9026L71.3596 79.516L70.799 76.8547L72.7708 75.3791L73.8018 75.7335L71.8493 77.1318Z" fill="white"/>
<path d="M76.9655 77.6213L76.3018 77.937C76.1278 77.589 75.8959 77.3571 75.5737 77.2153C75.245 77.0671 74.9744 77.1122 74.8649 77.37C74.7489 77.6213 74.8584 77.7952 75.3933 78.2656C76.0376 78.8456 76.334 79.3482 76.0054 80.0828C75.6768 80.8238 74.8584 81.0815 73.8596 80.6369C73.1702 80.3276 72.7835 79.8572 72.5967 79.3933L73.3055 79.084C73.4859 79.4642 73.7437 79.7477 74.1367 79.9217C74.5298 80.0957 74.852 80.0183 74.9873 79.7155C75.1162 79.4191 75.026 79.2193 74.5233 78.7811C73.7565 78.1045 73.589 77.589 73.8532 76.9962C74.1689 76.2939 74.9744 76.1134 75.8057 76.4872C76.4242 76.7642 76.7658 77.1251 76.9655 77.6213Z" fill="white"/>
<path d="M71.9781 35.3832H51.701V28.4434C51.701 28.4434 47.2422 28.4434 47.0425 28.4434C46.5206 28.4434 46.0953 28.8686 46.0953 29.3906V30.5247H46.1984V30.6793H47.8608V30.5247H47.9897V30.3443H48.5502V35.3832H28.0412C26.9007 35.3832 25.9536 36.3111 26.0825 37.4452C26.9265 44.8942 32.5902 46.0669 40.5154 52.3044C41.0824 52.7555 41.585 53.2774 42.0361 53.8445H58.0412C58.4729 53.2774 58.9562 52.7555 59.5167 52.3044C67.326 45.9896 73.0863 44.8813 73.9433 37.4452C74.0657 36.3176 73.125 35.3832 71.9781 35.3832ZM47.3324 29.7128C47.1069 29.7128 46.9265 29.6097 46.9265 29.4808C46.9265 29.4615 46.9394 29.4421 46.9459 29.4228C46.6108 29.4035 46.3466 29.223 46.3466 28.9846C46.3466 28.7398 46.6366 28.54 46.991 28.54C47.3453 28.54 47.6353 28.7398 47.6353 28.9846C47.6353 29.0942 47.5709 29.1844 47.4806 29.2617C47.6288 29.2939 47.7319 29.3777 47.7319 29.4743C47.7384 29.6097 47.558 29.7128 47.3324 29.7128ZM60.683 36.3433H67.1005C67.4227 36.3433 67.6804 36.6011 67.6804 36.9233C67.6804 37.2455 67.4227 37.5032 67.1005 37.5032H60.683C60.3608 37.5032 60.1031 37.2455 60.1031 36.9233C60.1031 36.6011 60.3608 36.3433 60.683 36.3433ZM28.1507 37.5032C27.8286 37.5032 27.5709 37.2455 27.5709 36.9233C27.5709 36.6011 27.8286 36.3433 28.1507 36.3433H58.4149C58.7371 36.3433 58.9948 36.6011 58.9948 36.9233C58.9948 37.2455 58.7371 37.5032 58.4149 37.5032H28.1507ZM41.6946 46.9368C41.2113 47.9614 39.0206 47.9485 36.8041 46.9046C34.5876 45.8607 33.183 44.1789 33.6727 43.1543C34.1559 42.1298 36.3466 42.1427 38.5631 43.1866C40.7796 44.2305 42.1778 45.9123 41.6946 46.9368ZM44.4781 44.7588C44.2526 45.2614 43.1894 45.2808 42.1005 44.7975C41.0116 44.3142 40.3093 43.5152 40.5283 43.0061C40.7538 42.5035 41.817 42.4842 42.9059 42.9675C43.9948 43.4508 44.6971 44.2562 44.4781 44.7588ZM49.7358 40.1258C41.3209 40.1258 29.6392 39.9325 29.6392 38.8693H68.9755C68.9755 40.0485 58.1507 40.1258 49.7358 40.1258Z" fill="#FF9D15"/>
<path d="M48.4795 27.9784L51.8238 26.87L51.4951 25.8842C51.4758 25.8262 51.45 25.7811 51.4242 25.7295L56.0508 24.1637C56.1088 24.1444 56.141 24.0864 56.1217 24.0284L55.9993 23.6546C55.98 23.5966 55.922 23.5644 55.864 23.5837L50.9925 25.2269C50.6703 25.0078 50.2644 24.9369 49.8649 25.0658L48.9563 25.3687C48.2797 25.5942 47.9189 26.3223 48.138 26.9925L48.4795 27.9784ZM48.9756 25.5942L50.0582 25.2333C50.2322 25.1753 50.419 25.272 50.4706 25.446C50.5286 25.62 50.4319 25.8068 50.2579 25.8584L49.1754 26.2192C49.0014 26.2772 48.8145 26.1806 48.763 26.0066C48.7114 25.8326 48.8081 25.6457 48.9756 25.5942Z" fill="#FF9D15"/>
<path d="M21.1665 64.3852H16.5012V62.6326H17.1456V57.8191H16.5012V56.0664H21.3018C21.7335 56.0664 22.133 56.1115 22.481 56.2017C22.8354 56.292 23.1318 56.4337 23.3767 56.6335C23.6215 56.8332 23.8084 57.091 23.9373 57.4132C24.0661 57.7353 24.137 58.122 24.137 58.5795C24.137 59.0434 24.0726 59.4365 23.9373 59.7522C23.8019 60.068 23.6151 60.3257 23.3767 60.5255C23.1318 60.7252 22.8354 60.867 22.481 60.9572C22.1266 61.0474 21.7335 61.0925 21.3018 61.0925H20.1355V62.6326H21.16V64.3852H21.1665ZM20.5028 59.5718C20.7025 59.5718 20.8572 59.5202 20.9603 59.4107C21.0698 59.3012 21.1214 59.1272 21.1214 58.8888V58.5021C21.1214 58.2573 21.0698 58.0833 20.9667 57.9802C20.8636 57.8706 20.709 57.8191 20.5028 57.8191H20.1419V59.5718H20.5028Z" fill="#FF9D15"/>
<path d="M24.549 56.0605H29.1691V57.8132H28.1832V62.6267H29.1433V61.6408H31.2697V64.3794H24.549V62.6267H25.1933V57.8132H24.549V56.0605Z" fill="#FF9D15"/>
<path d="M39.2659 61.3959C39.2659 61.9759 39.1886 62.4591 39.0275 62.8587C38.8664 63.2517 38.6344 63.5739 38.338 63.8252C38.0416 64.0765 37.6743 64.2569 37.2555 64.3665C36.8302 64.476 36.3598 64.534 35.8378 64.534C35.303 64.534 34.8197 64.476 34.388 64.3665C33.9563 64.2569 33.589 64.0765 33.2861 63.8252C32.9833 63.5739 32.7449 63.2517 32.5773 62.8587C32.4098 62.4656 32.326 61.9759 32.326 61.3959V57.8132H31.6816V56.0605H35.7476V57.8132H35.3223V61.9437C35.3223 62.1885 35.3739 62.3625 35.477 62.4656C35.5801 62.5751 35.7347 62.6267 35.9409 62.6267C36.1471 62.6267 36.3018 62.5751 36.4049 62.4656C36.508 62.3561 36.5595 62.1821 36.5595 61.9437V57.8132H36.1342V56.0605H39.9103V57.8132H39.2659V61.3959Z" fill="#FF9D15"/>
<path d="M40.2061 56.0605H45.3224L46.5402 59.727L47.7194 56.0605H52.6489V57.8132H52.0045V62.6267H52.6489V64.3794H48.3702V62.6267H49.0146V58.3996L46.8882 64.3794H45.7283L43.3119 58.3803V62.6267H43.9563V64.3794H40.2125V62.6267H40.8569V57.8132H40.2125V56.0605H40.2061Z" fill="#FF9D15"/>
<path d="M53.0991 56.0605H58.1188C58.9951 56.0605 59.6846 56.241 60.1937 56.5954C60.7027 56.9498 60.954 57.4782 60.954 58.1676C60.954 58.5092 60.8896 58.8056 60.7607 59.044C60.6318 59.2889 60.4772 59.4886 60.2903 59.6433C60.1034 59.7979 59.9101 59.9203 59.7104 60.0041C59.5042 60.0879 59.3302 60.1459 59.182 60.1781V60.2876C59.3366 60.3005 59.53 60.3392 59.7619 60.3907C59.9875 60.4423 60.2065 60.5389 60.4127 60.6807C60.6189 60.8224 60.7929 61.0093 60.9411 61.2606C61.0893 61.5055 61.1602 61.8277 61.1602 62.2272C61.1602 62.6267 61.0764 62.9618 60.9153 63.2388C60.7543 63.5159 60.5287 63.735 60.2516 63.909C59.9746 64.083 59.6524 64.2054 59.2851 64.2763C58.9178 64.3536 58.5312 64.3858 58.1252 64.3858H53.1056V62.6331H53.7499V57.8197H53.1056V56.0605H53.0991ZM57.3133 59.5724C57.5195 59.5724 57.6742 59.5208 57.7773 59.4113C57.8804 59.3017 57.9319 59.1277 57.9319 58.8893V58.5027C57.9319 58.2578 57.8804 58.0839 57.7773 57.9808C57.6742 57.8712 57.5195 57.8197 57.3133 57.8197H56.7334V59.5724H57.3133ZM57.3842 62.6267C57.5904 62.6267 57.745 62.5751 57.8481 62.4656C57.9512 62.3561 58.0028 62.1821 58.0028 61.9437V61.4733C58.0028 61.2284 57.9512 61.0544 57.8481 60.9513C57.745 60.8418 57.5904 60.7902 57.3842 60.7902H56.7334V62.6331H57.3842V62.6267Z" fill="#FF9D15"/>
<path d="M61.5786 56.0605H65.8572V57.8132H65.2129V62.6267H65.8572V64.3794H61.5786V62.6267H62.223V57.8132H61.5786V56.0605Z" fill="#FF9D15"/>
<path d="M72.3844 56.0592H76.1282V57.8119H75.4838V64.378H72.4746L69.343 59.5517V62.6189H69.9873V64.3716H66.2435V62.6189H66.8879V57.8054H66.2435V56.0527H70.2129L73.0288 60.3507V57.8054H72.3844V56.0592Z" fill="#FF9D15"/>
<path d="M80.7476 60.1132H84.5365V61.7048H84.0017V63.8441C83.8406 63.9214 83.6473 64.0052 83.4282 64.0825C83.2091 64.1663 82.9578 64.2372 82.6807 64.3016C82.3972 64.3661 82.0815 64.4176 81.7335 64.4627C81.3855 64.5078 80.9925 64.5272 80.5672 64.5272C79.9228 64.5272 79.3493 64.4498 78.8338 64.2887C78.3183 64.1341 77.8802 63.8828 77.5258 63.5413C77.1649 63.1997 76.8878 62.7551 76.6945 62.2074C76.5012 61.6597 76.4045 60.996 76.4045 60.2099C76.4045 59.4302 76.5012 58.7665 76.6945 58.2188C76.8878 57.6711 77.1585 57.2264 77.5193 56.8785C77.8737 56.5369 78.3119 56.2856 78.8274 56.131C79.3429 55.9763 79.9164 55.8926 80.5479 55.8926C80.9796 55.8926 81.3791 55.9119 81.7271 55.957C82.0815 56.0021 82.3972 56.0537 82.6807 56.1246C82.9642 56.189 83.2091 56.2663 83.4282 56.3501C83.6473 56.4338 83.8341 56.5112 84.0017 56.5885V59.1466H81.3275V58.644C81.3275 58.3347 81.2631 58.1221 81.1407 57.9932C81.0182 57.8644 80.8185 57.7999 80.5479 57.7999C80.2772 57.7999 80.0775 57.8644 79.955 57.9932C79.8326 58.1221 79.7682 58.3412 79.7682 58.644V61.7692C79.7682 62.0785 79.8326 62.2912 79.955 62.4201C80.0775 62.5489 80.2772 62.6134 80.5479 62.6134C80.8185 62.6134 81.0182 62.5489 81.1407 62.4201C81.2631 62.2912 81.3275 62.0721 81.3275 61.7692V61.6919H80.7476V60.1132Z" fill="#FF9D15"/>
<path d="M86.6623 76.7514L75.7603 84.9736L87.3647 73.5231C77.1263 68.7612 64.433 65.9453 50.6765 65.9453C36.527 65.9453 23.4987 68.9352 13.1185 73.942L24.0979 85.6438L13.0541 77.0349C10.6958 77.9371 8.79508 78.7747 6.63013 79.838L15.7796 83.73L17.5386 90.8567C22.9252 89.0847 28.7242 87.7315 34.8196 86.8552C34.5876 86.5459 34.3621 86.2301 34.143 85.9144L26.6752 85.7919C33.3827 83.5173 41.469 82.0546 50.6765 82.0546C59.8647 82.0546 67.9317 83.5109 74.6263 85.7791L66.1855 85.9208C65.8312 86.185 65.509 86.4814 65.1997 86.7972C71.4562 87.6735 77.4033 89.046 82.9252 90.8631L84.6843 83.7364L93.8337 79.8444C91.759 78.8199 88.9175 77.6278 86.6623 76.7514Z" fill="#FF9D15"/>
<path d="M50.0258 96.333L62.2616 84.0964C60.9149 83.9159 59.4716 83.7742 57.9575 83.6582L50.0322 91.584L42.2101 83.7613C40.7088 83.8966 39.2912 84.0706 37.9768 84.2704L50.0258 96.333Z" fill="#FF9D15"/>
<path d="M30.3739 80.0689L28.009 74.1923L27.6095 74.2567L27.3453 72.6265L31.2889 71.9885L31.5531 73.6188L30.9087 73.7219L31.9977 77.369L32.0944 77.3561L32.3779 71.8145L35.2389 71.357L37.172 76.5378L37.2687 76.5185L37.1527 72.7102L36.5083 72.8133L36.2441 71.1831L39.6915 70.6289L39.9557 72.2592L39.5562 72.3236L39.2533 78.632L35.7866 79.1926L34.2208 75.2426L34.1241 75.2555L33.8277 79.5019L30.3739 80.0689Z" fill="white"/>
<path d="M48.4607 74.1865C48.4993 74.9211 48.4413 75.5525 48.2867 76.0745C48.132 76.5964 47.9001 77.0282 47.5843 77.3697C47.2686 77.7112 46.8755 77.9625 46.4116 78.1365C45.9412 78.3104 45.4192 78.4135 44.8329 78.4393C44.2529 78.4715 43.7181 78.4264 43.2348 78.304C42.7515 78.1816 42.3327 77.9689 41.9847 77.6661C41.6368 77.3632 41.3597 76.9573 41.1471 76.4547C40.9409 75.952 40.812 75.3334 40.7733 74.5924C40.7347 73.8643 40.7927 73.2328 40.9473 72.7109C41.1019 72.1825 41.3339 71.7507 41.6497 71.4157C41.9654 71.0741 42.3585 70.8228 42.8224 70.6489C43.2928 70.4749 43.8147 70.3718 44.4011 70.346C44.9811 70.3138 45.5159 70.3589 45.9992 70.4813C46.4824 70.6038 46.9013 70.8164 47.2493 71.1193C47.5972 71.4221 47.8743 71.8281 48.0869 72.3371C48.2931 72.8397 48.422 73.4583 48.4607 74.1865ZM44.7362 76.6544C44.9617 76.6415 45.1293 76.5771 45.2388 76.4482C45.3484 76.3258 45.3935 76.1325 45.3806 75.8683L45.2195 72.8333C45.2066 72.5691 45.1357 72.3887 45.0197 72.2727C44.8973 72.1631 44.7233 72.1116 44.4978 72.1245C44.2723 72.1374 44.1047 72.2018 43.9952 72.3307C43.8856 72.4531 43.8405 72.6464 43.8534 72.9106L44.0145 75.9456C44.0274 76.2098 44.0983 76.3902 44.2143 76.5062C44.3302 76.6222 44.5107 76.6608 44.7362 76.6544Z" fill="white"/>
<path d="M52.3842 76.5315L53.0479 76.5508L53.0028 78.2004L48.9175 78.0908L48.9626 76.4413L49.5683 76.4541L49.6907 71.9242L49.085 71.9113L49.1301 70.2617L53.8469 70.3906C54.2529 70.4035 54.6266 70.4486 54.9552 70.5388C55.2839 70.629 55.561 70.7643 55.7865 70.9512C56.012 71.1381 56.1795 71.3701 56.2955 71.6665C56.4115 71.9564 56.4631 72.3108 56.4566 72.7297C56.4437 73.1743 56.3471 73.5545 56.1602 73.8767C55.9733 74.1988 55.7092 74.4244 55.3612 74.5532L55.3676 74.6563C56.012 74.7723 56.3213 75.1783 56.302 75.8678L56.2826 76.641L56.753 76.6539L56.7079 78.3035L53.5183 78.2197L53.5827 75.8549C53.5892 75.6551 53.5698 75.4876 53.5312 75.3651C53.4925 75.2427 53.4216 75.1461 53.325 75.0752C53.2283 75.0107 53.1059 74.9592 52.9641 74.9334C52.8159 74.9076 52.642 74.8883 52.4293 74.8819L52.3842 76.5315ZM53.0028 73.6704C53.1961 73.6769 53.3443 73.6318 53.4474 73.5287C53.5441 73.432 53.6021 73.2645 53.6085 73.039L53.6214 72.6781C53.6278 72.4526 53.5827 72.2851 53.4861 72.182C53.3894 72.0789 53.2477 72.0273 53.0543 72.0209L52.5131 72.008L52.468 73.6576L53.0028 73.6704Z" fill="white"/>
<path d="M65.0585 72.9947L63.2672 74.844L64.717 77.5182L65.1165 77.5633L64.9361 79.2064L61.9527 78.8778L60.6768 75.9588L60.374 78.6974L56.9717 78.3237L57.1521 76.6805L57.7514 76.745L58.2475 72.2408L57.6483 72.1763L57.8287 70.5332L61.231 70.9069L60.9346 73.6004L63.061 71.1131L65.6449 71.3967L65.4645 73.0398L65.0585 72.9947Z" fill="white"/>
<path d="M68.3444 78.0456C68.5634 78.0842 68.7245 78.0842 68.8276 78.0391C68.9307 77.994 68.9952 77.9038 69.021 77.7685C69.0403 77.6783 69.0145 77.5881 68.9565 77.5043C68.8921 77.4205 68.7568 77.311 68.5441 77.1757C68.0931 76.8986 67.7 76.6409 67.3649 76.4024C67.0298 76.164 66.7656 75.9192 66.5659 75.6679C66.3661 75.4165 66.2308 75.1459 66.1664 74.8495C66.1019 74.5531 66.1084 74.2116 66.1793 73.825C66.2502 73.4577 66.3726 73.1355 66.5466 72.8648C66.7205 72.5942 66.9525 72.3816 67.2554 72.2205C67.5582 72.0658 67.932 71.9692 68.383 71.9498C68.8341 71.9241 69.3753 71.9756 70.0133 72.098C70.5868 72.2076 71.1152 72.3687 71.5984 72.5813C72.0817 72.7939 72.4748 73.0324 72.7776 73.2837L72.4361 75.0557L70.3612 74.6562C70.3999 74.4629 70.3677 74.3276 70.2775 74.2373C70.1873 74.1471 70.0648 74.0891 69.9102 74.0569C69.6911 74.0118 69.53 74.0118 69.4269 74.0505C69.3174 74.0891 69.2529 74.1793 69.2271 74.3147C69.2078 74.4242 69.24 74.5209 69.3302 74.5917C69.4205 74.6626 69.5622 74.7528 69.7555 74.8559C70.1164 75.0557 70.4515 75.2554 70.7608 75.4616C71.0765 75.6678 71.3407 75.8934 71.5533 76.1511C71.7724 76.4024 71.9271 76.6924 72.0173 77.0081C72.1075 77.3239 72.1139 77.6976 72.0302 78.1165C71.8626 78.9735 71.4631 79.5598 70.8316 79.8691C70.2001 80.1784 69.3431 80.2364 68.2799 80.0302C67.6742 79.9143 67.1007 79.7467 66.5595 79.5341C66.0182 79.3214 65.5929 79.1088 65.29 78.8962L65.6702 76.9373L67.8417 77.3561C67.8031 77.5559 67.816 77.7105 67.874 77.82C67.9384 77.9167 68.0931 78.0005 68.3444 78.0456Z" fill="white"/>
<path d="M67.7319 81.3203L50 99.0534L33.5631 82.6155C33.3311 82.7057 33.0927 82.7831 32.8479 82.8475L50 100.001L68.4471 81.5587C68.2087 81.4814 67.9703 81.3976 67.7319 81.3203Z" fill="#FF9D15"/>
<path d="M50 0L0 50.0032L23.4343 73.439C23.5954 73.2779 23.75 73.1233 23.9111 72.9686L0.947164 50.0032L50 0.947217L99.0528 50.0032L77.9832 71.0742C78.1959 71.1773 78.4085 71.2803 78.6211 71.3899L100 50.0097L50 0Z" fill="#FF9D15"/>
</svg>
