<svg width="86" height="100" viewBox="0 0 86 100" fill="none" xmlns="http://www.w3.org/2000/svg">
<path d="M42.9999 5.1543L4.43213 27.5724V72.4148L42.9936 94.8329L81.5551 72.4148V27.5724L42.9999 5.1543ZM42.9999 91.0099L31.0695 84.074H54.9367L42.9999 91.0099ZM81.2215 72.2183H4.77839V27.7752L42.9999 5.54737L81.2215 27.7689V72.2183Z" fill="#BA8756"/>
<path d="M26.1778 44.4179C26.1778 41.4635 26.9333 38.6866 28.2554 36.2774H22.5829L18.7425 35.206L17.2693 50.6057L17.2882 34.8002H14.3103L12.3649 50.6501V34.3628H11.7731V33.8683C11.7731 33.621 11.578 33.4245 11.3324 33.4245H9.86551C9.61998 33.4245 9.42481 33.621 9.42481 33.8683V34.3628H8.83301V54.4097H9.42481V54.9042C9.42481 55.1515 9.61998 55.348 9.86551 55.348H11.3387C11.5843 55.348 11.7794 55.1515 11.7794 54.9042V54.4097H12.3712V53.9849H17.2882L22.5829 52.5141H28.2302C26.9207 50.1112 26.1778 47.3533 26.1778 44.4179ZM11.3513 45.9205C11.3513 46.358 10.9987 46.7067 10.5706 46.7067C10.1362 46.7067 9.78996 46.3516 9.78996 45.9205V36.2457C9.78996 35.8083 10.1425 35.4596 10.5706 35.4596C11.005 35.4596 11.3513 35.8146 11.3513 36.2457V45.9205ZM76.4809 34.3628V33.8683C76.4809 33.621 76.2857 33.4245 76.0402 33.4245H74.567C74.3215 33.4245 74.1263 33.621 74.1263 33.8683V34.3628H73.5345V50.6501L71.5891 34.8002H68.6112L68.6301 50.6057L67.1632 35.206L63.3228 36.2774H57.644C58.9661 38.693 59.7216 41.4699 59.7216 44.4243C59.7216 47.3597 58.9787 50.1175 57.6692 52.5204H63.3228L68.6175 53.9913H73.5345V54.416H74.1263V54.9106C74.1263 55.1578 74.3215 55.3543 74.567 55.3543H76.0402C76.2857 55.3543 76.4809 55.1578 76.4809 54.9106V54.416H77.0727V34.3628H76.4809ZM76.1158 45.9205C76.1158 46.358 75.7632 46.7067 75.3351 46.7067C74.9007 46.7067 74.5544 46.3516 74.5544 45.9205V36.2457C74.5544 35.8083 74.907 35.4596 75.3351 35.4596C75.7695 35.4596 76.1158 35.8146 76.1158 36.2457V45.9205ZM57.2222 44.4053C57.2222 42.6745 56.9011 41.0261 56.3408 39.4855C56.9704 38.6422 57.0774 37.4694 56.5171 36.493C55.9567 35.523 54.8928 35.0285 53.854 35.1553C51.7449 32.632 48.7859 30.8631 45.4302 30.2672C45.021 29.2908 44.0641 28.6061 42.9434 28.6061C41.8228 28.6061 40.8658 29.2908 40.4566 30.2672C37.1009 30.8631 34.1482 32.6383 32.0329 35.1553C30.9941 35.0285 29.9301 35.523 29.3698 36.493C28.8157 37.463 28.9228 38.6359 29.546 39.4855C28.9857 41.0261 28.6646 42.6745 28.6646 44.4053C28.6646 46.1234 28.9794 47.7718 29.5335 49.2997C28.9165 50.1429 28.8094 51.3095 29.3635 52.2731C29.9175 53.2368 30.9626 53.725 31.9888 53.6109C34.1042 56.1595 37.0821 57.9474 40.4692 58.5433C40.891 59.4943 41.8354 60.16 42.9308 60.16C44.0263 60.16 44.9769 59.4943 45.3925 58.5433C48.7733 57.9474 51.7512 56.1595 53.8728 53.6109C54.9054 53.725 55.9504 53.2305 56.4982 52.2731C57.0522 51.3095 56.9452 50.1429 56.3282 49.2997C56.9074 47.7718 57.2222 46.1234 57.2222 44.4053ZM45.2603 32.7144C47.8604 33.2343 50.1458 34.61 51.833 36.5437C51.6127 36.9431 51.4993 37.3869 51.493 37.8434L45.0651 41.584C44.8321 41.4065 44.5803 41.248 44.3096 41.1338V33.6654C44.6999 33.4308 45.0273 33.1075 45.2603 32.7144ZM46.4313 43.9424L52.8529 40.2082C53.2559 40.4365 53.7029 40.5569 54.1624 40.5632C54.5717 41.7678 54.8046 43.0612 54.8046 44.4053C54.8046 45.7366 54.578 47.011 54.175 48.2092C53.7092 48.2092 53.2559 48.3297 52.8466 48.5643L46.4313 44.83C46.4502 44.6906 46.4753 44.5447 46.4753 44.3989C46.4753 44.2468 46.4502 44.0946 46.4313 43.9424ZM44.9455 42.6174C44.9455 43.2958 44.0766 43.8473 43.0064 43.8473C41.9361 43.8473 41.0673 43.2958 41.0673 42.6174C41.0673 41.939 41.9361 41.3874 43.0064 41.3874C44.0766 41.3874 44.9455 41.939 44.9455 42.6174ZM43.0001 29.145C43.957 29.145 44.7314 29.6332 44.7314 30.2355C44.7314 30.8378 43.957 31.3259 43.0001 31.3259C42.0431 31.3259 41.2687 30.8378 41.2687 30.2355C41.275 29.6332 42.0494 29.145 43.0001 29.145ZM40.6392 32.7144C40.8721 33.1075 41.1995 33.4308 41.5898 33.6654V41.1275C41.3128 41.2416 41.0673 41.4001 40.8343 41.5776L34.4064 37.8371C34.4064 37.3806 34.2867 36.9368 34.0664 36.5374C35.7537 34.61 38.0453 33.2343 40.6392 32.7144ZM39.4682 44.83L33.0528 48.5643C32.6499 48.3297 32.1903 48.2092 31.7244 48.2092C31.3214 47.011 31.0948 45.7366 31.0948 44.4053C31.0948 43.0612 31.3277 41.7678 31.737 40.5632C32.1966 40.5569 32.6499 40.4365 33.0465 40.2082L39.4682 43.9424C39.4493 44.0946 39.4241 44.2468 39.4241 44.4053C39.4241 44.5511 39.4493 44.6906 39.4682 44.83ZM31.6111 35.5864C32.568 35.5864 33.3424 36.0746 33.3424 36.6769C33.3424 37.2792 32.568 37.7673 31.6111 37.7673C30.6541 37.7673 29.8797 37.2792 29.8797 36.6769C29.8797 36.0746 30.6541 35.5864 31.6111 35.5864ZM31.7747 50.9417C30.8178 50.9417 30.0434 50.4536 30.0434 49.8513C30.0434 49.249 30.8178 48.7608 31.7747 48.7608C32.7317 48.7608 33.5061 49.249 33.5061 49.8513C33.5061 50.4472 32.7317 50.9417 31.7747 50.9417ZM40.6203 56.0961C38.0201 55.5699 35.7348 54.1941 34.0538 52.2541C34.2805 51.8484 34.4001 51.3919 34.4064 50.9291L40.8092 47.2075C41.0484 47.3914 41.3065 47.5626 41.5898 47.6767V55.1071C41.1869 55.348 40.8595 55.684 40.6203 56.0961ZM43.0001 57.4592C42.0431 57.4592 41.2687 56.971 41.2687 56.3687C41.2687 55.7664 42.0431 55.2783 43.0001 55.2783C43.957 55.2783 44.7314 55.7664 44.7314 56.3687C44.7314 56.971 43.957 57.4592 43.0001 57.4592ZM45.2791 56.0961C45.0462 55.6904 44.7125 55.348 44.3096 55.1134V47.6767C44.5929 47.5562 44.851 47.3914 45.0903 47.2075L51.493 50.9291C51.493 51.3919 51.619 51.8484 51.8456 52.2541C50.1646 54.1878 47.8793 55.5699 45.2791 56.0961ZM54.2317 51.1066C53.2747 51.1066 52.5004 50.6184 52.5004 50.0161C52.5004 49.4138 53.2747 48.9256 54.2317 48.9256C55.1887 48.9256 55.963 49.4138 55.963 50.0161C55.9567 50.6121 55.1824 51.1066 54.2317 51.1066ZM54.2317 37.7673C53.2747 37.7673 52.5004 37.2792 52.5004 36.6769C52.5004 36.0746 53.2747 35.5864 54.2317 35.5864C55.1887 35.5864 55.963 36.0746 55.963 36.6769C55.9567 37.2792 55.1824 37.7673 54.2317 37.7673ZM42.9497 9.45312C38.1964 9.45312 34.3245 13.3459 34.3245 18.1389C34.3245 21.8794 36.6917 25.0684 39.997 26.2857V28.7583H40.6455C41.2624 28.194 42.0746 27.858 42.9497 27.858C43.8248 27.858 44.637 28.194 45.254 28.7583H45.9024V26.2857C49.2077 25.0684 51.5749 21.8794 51.5749 18.1389C51.5749 13.3459 47.703 9.45312 42.9497 9.45312ZM39.9026 22.6275H37.9383V19.9838H39.9026V22.6275ZM42.5279 22.6275H40.5636V19.9838H42.5279V22.6275ZM45.1469 22.6275H43.1827V19.9838H45.1469V22.6275ZM47.7723 22.6275H45.808V19.9838H47.7723V22.6275ZM46.979 18.0691C46.9601 16.8201 46.3809 15.7107 45.4806 14.9816C45.1784 14.7343 44.8258 14.5378 44.4607 14.3856L43.787 17.5239C43.913 17.6951 43.9885 17.9043 43.9885 18.1389C43.9885 18.7158 43.5226 19.1849 42.9497 19.1849C42.3768 19.1849 41.9109 18.7158 41.9109 18.1389C41.9109 17.6697 42.2194 17.2766 42.6412 17.1435L44.0892 14.2588C43.7241 14.151 43.3463 14.0813 42.9497 14.0813C41.9739 14.0813 41.0799 14.4363 40.381 15.0196C39.5059 15.755 38.9393 16.8518 38.9204 18.0818H35.6403C35.6592 15.9389 36.5973 14.0242 38.0642 12.6865C39.3611 11.5073 41.0673 10.7845 42.9497 10.7845C44.8132 10.7845 46.5131 11.4946 47.8037 12.6548C49.2895 13.9925 50.2402 15.9262 50.2591 18.0818H46.979V18.0691Z" fill="#BA8756"/>
<path d="M13.177 71.1142H8.43628V69.32H9.09104V64.3938H8.43628V62.5996H13.3218C13.7625 62.5996 14.1654 62.644 14.5243 62.7391C14.8831 62.8278 15.1853 62.98 15.4309 63.1829C15.6764 63.3858 15.8653 63.652 16.0038 63.9817C16.136 64.3114 16.2052 64.7108 16.2052 65.1736C16.2052 65.6491 16.136 66.0485 16.0038 66.3719C15.8716 66.6952 15.6764 66.9615 15.4309 67.1644C15.1853 67.3672 14.8831 67.5194 14.5243 67.6082C14.1654 67.6969 13.7625 67.7476 13.3218 67.7476H12.1319V69.3263H13.177V71.1142ZM12.5033 66.188C12.7048 66.188 12.8622 66.131 12.9692 66.0232C13.0763 65.9154 13.1329 65.7379 13.1329 65.4843V65.0912C13.1329 64.844 13.0825 64.6664 12.9755 64.5523C12.8685 64.4445 12.7111 64.3875 12.5033 64.3875H12.1319V66.1817H12.5033V66.188Z" fill="#BA8756"/>
<path d="M16.6145 62.6016H21.3111V64.3958H20.3101V69.3219H21.286V68.3139H23.4517V71.1161H16.6145V69.3219H17.2693V64.3958H16.6145V62.6016Z" fill="#BA8756"/>
<path d="M31.5795 68.0588C31.5795 68.6484 31.4976 69.1493 31.334 69.555C31.1703 69.9608 30.9373 70.2904 30.6351 70.544C30.3329 70.7976 29.9615 70.9815 29.5334 71.0956C29.099 71.2097 28.6205 71.2668 28.0916 71.2668C27.5502 71.2668 27.0591 71.2097 26.6184 71.0956C26.1777 70.9815 25.8063 70.7976 25.4978 70.544C25.1893 70.2904 24.9501 69.9608 24.7801 69.555C24.6101 69.1493 24.5219 68.6484 24.5219 68.0588V64.388H23.8672V62.5938H27.9972V64.388H27.5628V68.6167C27.5628 68.864 27.6132 69.0415 27.7202 69.1556C27.8272 69.2634 27.9846 69.3204 28.1924 69.3204C28.4001 69.3204 28.5575 69.2634 28.6646 69.1556C28.7716 69.0478 28.8219 68.864 28.8219 68.6167V64.388H28.3875V62.5938H32.2279V64.388H31.5732V68.0588H31.5795Z" fill="#BA8756"/>
<path d="M32.5364 62.6016H37.7367L38.9769 66.3548L40.1731 62.6016H45.1845V64.3958H44.5298V69.3219H45.1845V71.1161H40.8342V69.3219H41.4889V64.9981L39.3232 71.1225H38.1459L35.6905 64.979V69.3282H36.3453V71.1225H32.5364V69.3282H33.1911V64.4021H32.5364V62.6016Z" fill="#BA8756"/>
<path d="M45.6379 62.6016H50.7374C51.6314 62.6016 52.3303 62.7854 52.8465 63.1468C53.3628 63.5145 53.6209 64.0471 53.6209 64.7571C53.6209 65.1058 53.5579 65.4102 53.4257 65.6574C53.2935 65.9047 53.1361 66.1076 52.9473 66.2724C52.7584 66.4309 52.5632 66.5577 52.3555 66.6464C52.1477 66.7352 51.9714 66.7923 51.814 66.824V66.9317C51.9714 66.9444 52.1666 66.9825 52.3995 67.0332C52.6325 67.0902 52.8528 67.1853 53.0606 67.3312C53.2683 67.4706 53.4509 67.6735 53.5957 67.9208C53.7468 68.1744 53.8161 68.5041 53.8161 68.9098C53.8161 69.3219 53.7342 69.6643 53.5642 69.9432C53.4006 70.2222 53.1739 70.4504 52.8906 70.6279C52.6073 70.8055 52.2799 70.9323 51.9085 71.0083C51.537 71.0844 51.1404 71.1225 50.7312 71.1225H45.6316V69.3282H46.2864V64.4021H45.6316V62.6016H45.6379ZM49.9253 66.19C50.1331 66.19 50.2905 66.1329 50.3975 66.0251C50.5045 65.9174 50.5549 65.7398 50.5549 65.4862V65.0932C50.5549 64.8459 50.5045 64.6684 50.3975 64.5543C50.2905 64.4465 50.1331 64.3894 49.9253 64.3894H49.3398V66.1836H49.9253V66.19ZM50.0008 69.3219C50.2086 69.3219 50.366 69.2648 50.473 69.1571C50.5801 69.0493 50.6304 68.8654 50.6304 68.6182V68.1363C50.6304 67.8891 50.5801 67.7116 50.473 67.5974C50.366 67.4897 50.2086 67.4326 50.0008 67.4326H49.3398V69.3156H50.0008V69.3219Z" fill="#BA8756"/>
<path d="M54.2632 62.6016H58.6136V64.3958H57.9588V69.3219H58.6136V71.1161H54.2632V69.3219H54.9179V64.3958H54.2632V62.6016Z" fill="#BA8756"/>
<path d="M65.2428 62.6016H69.0517V64.3958H68.3969V71.1225H65.3435L62.1578 66.1836V69.3282H62.8126V71.1225H59.0037V69.3282H59.6584V64.4021H59.0037V62.6079H63.0392L65.8975 67.0078V64.4021H65.2428V62.6016Z" fill="#BA8756"/>
<path d="M73.7485 66.7467H77.5952V68.3761H77.0537V70.5634C76.8838 70.6458 76.6949 70.7282 76.4745 70.8106C76.2542 70.893 76.0024 70.9691 75.7128 71.0325C75.4231 71.0959 75.1084 71.153 74.7495 71.1974C74.3969 71.2417 74.0003 71.2608 73.5659 71.2608C72.9111 71.2608 72.3256 71.1783 71.8031 71.0198C71.2805 70.8613 70.8398 70.6014 70.4684 70.2527C70.1032 69.904 69.8199 69.4475 69.6248 68.8896C69.4296 68.3317 69.3289 67.6533 69.3289 66.8481C69.3289 66.0493 69.4296 65.3709 69.6248 64.813C69.8199 64.2488 70.0969 63.7923 70.4621 63.4436C70.8272 63.0949 71.2679 62.835 71.7905 62.6765C72.313 62.518 72.8985 62.4355 73.5407 62.4355C73.9814 62.4355 74.3843 62.4546 74.7432 62.499C75.1021 62.5433 75.4231 62.6004 75.7128 62.6701C75.9961 62.7399 76.2542 62.8159 76.4745 62.8984C76.6949 62.9808 76.8901 63.0632 77.0537 63.1456V65.764H74.334V65.2505C74.334 64.9335 74.271 64.7116 74.1451 64.5848C74.0192 64.4516 73.8177 64.3883 73.5407 64.3883C73.2637 64.3883 73.0622 64.4516 72.9363 64.5848C72.8104 64.7179 72.7474 64.9398 72.7474 65.2505V68.4458C72.7474 68.7628 72.8104 68.9847 72.9363 69.1115C73.0622 69.2447 73.2637 69.3081 73.5407 69.3081C73.8177 69.3081 74.0192 69.2447 74.1451 69.1115C74.271 68.9784 74.334 68.7565 74.334 68.4458V68.3697H73.7485V66.7467Z" fill="#BA8756"/>
<path d="M25.9197 81.3841L24.7487 76.1853H24.415V74.7969H27.7518V76.1853H27.2041L27.6133 79.3616H27.6951L28.6647 74.7969H31.0885L31.9951 79.3616H32.077L32.4862 76.1853H31.9385V74.7969H34.8534V76.1853H34.5197L33.4369 81.3841H30.503L29.7412 77.8971H29.6594L28.8535 81.3841H25.9197Z" fill="white"/>
<path d="M41.4515 78.0882C41.4515 78.7095 41.3759 79.2357 41.2248 79.6668C41.0737 80.0979 40.8597 80.4466 40.5826 80.7192C40.3056 80.9918 39.9657 81.1884 39.569 81.3088C39.1724 81.4356 38.7317 81.4927 38.2406 81.4927C37.7558 81.4927 37.3088 81.4293 36.9122 81.3088C36.5156 81.182 36.1756 80.9855 35.8986 80.7192C35.6216 80.4529 35.4075 80.0979 35.2564 79.6668C35.1053 79.2357 35.0298 78.7095 35.0298 78.0882C35.0298 77.4732 35.1053 76.947 35.2564 76.5158C35.4075 76.0847 35.6216 75.7297 35.8986 75.4571C36.1756 75.1845 36.5156 74.9879 36.9122 74.8675C37.3088 74.7407 37.7495 74.6836 38.2406 74.6836C38.7254 74.6836 39.1724 74.747 39.569 74.8675C39.9657 74.9943 40.3056 75.1908 40.5826 75.4571C40.8597 75.7297 41.0737 76.0784 41.2248 76.5158C41.3759 76.9533 41.4515 77.4732 41.4515 78.0882ZM38.2406 79.9965C38.4295 79.9965 38.5743 79.9458 38.6687 79.8507C38.7632 79.7492 38.8135 79.5907 38.8135 79.3752V76.8202C38.8135 76.5983 38.7632 76.4398 38.6687 76.3447C38.5743 76.2432 38.4295 76.1988 38.2406 76.1988C38.0517 76.1988 37.9069 76.2496 37.8125 76.3447C37.7181 76.4461 37.6677 76.6046 37.6677 76.8202V79.3752C37.6677 79.5971 37.7181 79.7556 37.8125 79.8507C37.9069 79.9458 38.0517 79.9965 38.2406 79.9965Z" fill="white"/>
<path d="M44.6495 79.9956H45.2036V81.3841H41.7913V79.9956H42.2949V76.1853H41.7913V74.7969H45.7324C46.0724 74.7969 46.3809 74.8286 46.6642 74.8983C46.9412 74.968 47.1741 75.0758 47.363 75.2217C47.5519 75.3738 47.703 75.5703 47.8037 75.8113C47.9107 76.0522 47.9611 76.3502 47.9611 76.6989C47.9611 77.0729 47.8855 77.3962 47.7407 77.6752C47.5896 77.9542 47.3756 78.1444 47.0923 78.2585L47.0986 78.3409C47.6337 78.4233 47.9044 78.7593 47.9044 79.3426V79.9956H48.3011V81.3841H45.638V79.3933C45.638 79.2222 45.6191 79.089 45.5813 78.9812C45.5435 78.8798 45.4869 78.7974 45.405 78.7467C45.3232 78.6959 45.2224 78.6579 45.0965 78.6389C44.9706 78.6199 44.8258 78.6072 44.6495 78.6072V79.9956ZM45.1028 77.5738C45.2665 77.5738 45.3861 77.5294 45.468 77.447C45.5498 77.3645 45.5876 77.2251 45.5876 77.0349V76.7306C45.5876 76.5404 45.5498 76.4009 45.468 76.3185C45.3861 76.236 45.2665 76.1917 45.1028 76.1917H44.6495V77.5801H45.1028V77.5738Z" fill="white"/>
<path d="M54.8612 76.1853L53.5391 77.8971L54.9871 79.9956H55.3208V81.3841H52.8151L51.4867 79.0637V81.3841H48.6284V79.9956H49.1321V76.1853H48.6284V74.7969H51.4867V77.0729L53.0229 74.7969H55.1886V76.1853H54.8612Z" fill="white"/>
<path d="M58.0534 79.8692C58.2359 79.8692 58.3681 79.8438 58.45 79.7868C58.5255 79.7297 58.5696 79.6473 58.5696 79.5332C58.5696 79.4571 58.5381 79.3874 58.4752 79.324C58.4122 79.2669 58.28 79.1972 58.0848 79.1147C57.6693 78.9562 57.3105 78.8041 56.9957 78.6646C56.6872 78.5188 56.429 78.3603 56.2213 78.1891C56.0135 78.0116 55.8624 77.8087 55.7617 77.5741C55.661 77.3395 55.6106 77.0542 55.6106 76.7246C55.6106 76.4076 55.661 76.1223 55.7554 75.875C55.8561 75.6214 56.0135 75.4122 56.2339 75.2347C56.4542 75.0572 56.7501 74.924 57.1153 74.8289C57.4804 74.7338 57.9337 74.6895 58.4752 74.6895C58.9599 74.6895 59.4195 74.7402 59.8539 74.8353C60.2883 74.9367 60.6409 75.0635 60.9305 75.2283V76.7436H59.1677C59.1677 76.5788 59.1236 76.471 59.0355 76.4076C58.9473 76.3505 58.834 76.3188 58.7081 76.3188C58.5255 76.3188 58.387 76.3442 58.3115 76.3886C58.2296 76.4393 58.1919 76.5217 58.1919 76.6358C58.1919 76.7309 58.2359 76.8007 58.3241 76.845C58.4122 76.8894 58.5381 76.9401 58.7144 76.9972C59.0418 77.105 59.344 77.2191 59.6336 77.3332C59.9232 77.4537 60.175 77.5995 60.3954 77.7707C60.6157 77.9482 60.7857 78.1574 60.9116 78.4047C61.0375 78.6519 61.1005 78.9562 61.1005 79.3176C61.1005 80.053 60.8676 80.5983 60.3954 80.9533C59.9232 81.3084 59.2369 81.4922 58.3304 81.4922C57.8141 81.4922 57.3167 81.4478 56.8446 81.3591C56.3661 81.2703 55.9883 81.1625 55.6987 81.0357V79.362H57.5497C57.5497 79.5332 57.5812 79.66 57.6504 79.736C57.7008 79.8248 57.8393 79.8692 58.0534 79.8692Z" fill="white"/>
<path d="M43 0L0 24.9984V75.0016L43 100L86 75.0016V24.9984L43 0ZM85.6537 74.7987L42.9937 99.6006L0.333675 74.7987V25.195L42.9937 0.393077L85.6537 25.195V74.7987Z" fill="#BA8756"/>
<path d="M42.9999 1.18555L1.02612 25.588V74.3993L42.9999 98.8081L84.9737 74.4056V25.588L42.9999 1.18555ZM82.2476 72.8143L42.9999 95.6317L3.75218 72.8143V27.1793L42.9999 4.36186L82.2476 27.1793V72.8143Z" fill="#BA8756"/>
</svg>
