<svg width="100" height="100" viewBox="0 0 100 100" fill="none" xmlns="http://www.w3.org/2000/svg">
<path d="M96.0282 52.3691H4.42773V61.7437H96.0282V52.3691Z" fill="#BA8756"/>
<path d="M11.4004 54.084C13.3568 54.084 13.7246 54.9228 13.7246 55.8868C13.7246 56.9979 12.7169 57.5571 11.5107 57.5571H10.8708V58.8596H11.3857V59.9707H8.67163V58.8596H9.14237V55.1877H8.67163V54.084H11.4004ZM10.8635 56.6447H11.2386C11.724 56.6447 12.0623 56.3945 12.0623 55.9456C12.0623 55.4526 11.7681 55.1804 11.2827 55.1804H10.8635V56.6447Z" fill="white"/>
<path d="M16.7181 54.084V55.1951H16.2694V58.8522H17.358V57.7852H18.7702V59.978H14.0555V58.8596H14.5189V55.2025H14.0555V54.0913H16.7181V54.084Z" fill="white"/>
<path d="M21.7858 54.084V55.173H21.3298V56.9905C21.3298 58.3445 21.6313 58.6315 22.1682 58.6315C22.6831 58.6315 23.0214 58.4254 23.0214 56.9832V55.1951H22.5654V54.084H25.0588V55.173H24.6028V57.2186C24.6028 59.2128 23.7717 60.1178 22.1903 60.1178C20.4913 60.0663 19.5793 59.176 19.5793 57.2628V55.1804H19.1085V54.084H21.7858Z" fill="white"/>
<path d="M31.2372 55.5699C31.171 55.9452 31.0533 56.5044 30.9945 56.6957L30.1119 59.9702H28.354L27.4125 56.6074C27.3684 56.4676 27.2581 55.982 27.236 55.5626H27.2066V58.8812H27.6847V59.9702H25.3899V58.8812H25.8459V55.1652H25.3973V54.0762H28.5894L29.4426 57.2255L30.2516 54.0762H33.4584V55.1652H32.9951V58.8738H33.4584V59.9702H30.7959V58.8738H31.2666V56.0629V55.5626H31.2372V55.5699Z" fill="white"/>
<path d="M33.8776 58.8816H34.363V55.173H33.8776V54.084H37.0182C38.4157 54.084 39.0776 54.6064 39.0776 55.5262C39.0776 56.2326 38.8864 56.5785 38.2538 56.8287C38.857 56.9979 39.3645 57.4394 39.3645 58.2635C39.3645 59.4482 38.7025 59.9707 37.077 59.9707H33.8776V58.8816ZM36.1062 56.4607H36.621C37.0697 56.4607 37.1947 56.2179 37.1947 55.8132C37.1947 55.4232 36.9593 55.1951 36.6431 55.1951H36.1135V56.4607H36.1062ZM36.7828 58.8816C37.1359 58.8816 37.4669 58.6094 37.4669 58.1605C37.4669 57.7337 37.2241 57.4173 36.7608 57.4173H36.1135V58.8816H36.7828Z" fill="white"/>
<path d="M42.4536 54.084V55.1951H41.9314V58.8522H42.4536V59.9707H39.6587V58.8522H40.1883V55.1951H39.6587V54.084H42.4536Z" fill="white"/>
<path d="M48.7642 55.1726V59.9702H46.9549L44.8072 56.762V58.8812H45.4545V59.9702H42.8728V58.8812H43.3656V55.1652H42.8802V54.0762H45.3L47.3594 57.1667V55.1652H46.7857V54.0762H49.3159V55.1652H48.7642V55.1726Z" fill="white"/>
<path d="M53.6554 59.4404C53.4716 59.7494 52.9494 60.0437 52.3021 60.0437C50.8311 60.0437 49.6616 58.8958 49.6616 57.0783C49.6616 55.2461 50.9341 53.9805 52.2433 53.9805C53.4642 53.9805 53.7511 54.5544 53.8834 54.6869L54.06 54.0835H55.3177V56.5706H53.8099C53.7878 55.8863 53.3465 55.5037 52.8537 55.5037C52.1697 55.5037 51.699 56.2468 51.699 57.0857C51.699 57.9466 52.1182 58.6383 52.8537 58.6383C53.3318 58.6383 53.5378 58.447 53.6628 58.2262V57.873H53.1479V56.9753H55.9429V57.873H55.6045V59.9775H53.9202L53.6554 59.4404Z" fill="white"/>
<path d="M60.9002 58.0722C60.9149 57.8368 61.1429 56.7845 61.3121 55.9825L61.7313 54.0913H63.4819L64.0114 56.4166C64.1291 56.9611 64.2247 57.6528 64.2615 58.0722H64.3056C64.3424 57.6896 64.4822 56.8139 64.5557 56.4607L64.8426 55.1804H64.3792V54.084H66.7843V55.1804H66.3209L65.0632 59.9707H63.07L62.5625 57.9692C62.4889 57.6822 62.3933 57.1892 62.3492 56.9243H62.3124C62.2756 57.1745 62.1726 57.7043 62.1138 57.9545L61.599 59.978H59.6425L58.5319 55.1877H58.0612V54.0913H60.8414V55.1877H60.3559L60.5766 56.4166C60.6722 56.8213 60.812 57.822 60.8487 58.0722H60.9002Z" fill="white"/>
<path d="M66.8358 56.9977C66.8358 55.1802 68.0494 53.9219 69.7926 53.9219C71.852 53.9219 72.8155 55.1581 72.8155 57.0565C72.8155 58.9624 71.7564 60.125 69.8514 60.125C68.0862 60.125 66.8358 59.1095 66.8358 56.9977ZM70.7046 57.0565C70.7046 56.0411 70.4251 55.2243 69.7779 55.2243C69.263 55.217 68.91 55.9602 68.91 56.9977C68.91 58.1014 69.3071 58.8005 69.8441 58.8005C70.3736 58.8005 70.7046 58.1014 70.7046 57.0565Z" fill="white"/>
<path d="M75.8825 54.084C77.839 54.084 78.2141 54.8566 78.2141 55.8206C78.2141 56.4755 77.6919 56.939 76.9932 57.0421C77.5742 57.123 78.0964 57.6307 78.0964 58.2414C78.0964 58.602 78.1479 58.8154 78.3024 58.8154C78.4274 58.8154 78.4936 58.7124 78.4936 58.5431V58.2635H79.06V58.7271C79.06 59.4261 78.7657 60.0737 77.8316 60.0737C76.7284 60.0737 76.1988 59.4924 76.1988 58.5064C76.1988 57.7411 76.1032 57.5571 75.3603 57.5571V58.8596H75.8752V59.9707H73.1538V58.8596H73.6245V55.1877H73.1538V54.084H75.8825ZM75.353 56.6153H75.7281C76.2135 56.6153 76.5372 56.3798 76.5372 55.9309C76.5372 55.4379 76.2577 55.1804 75.7722 55.1804H75.353V56.6153Z" fill="white"/>
<path d="M81.5461 55.1726V56.5486L83.1127 55.1726H82.5096V54.0835H85.3119V55.1726H84.8264L83.6055 56.2248L85.3045 58.8812H85.79V59.9776H82.5096V58.8812H83.0833L82.1713 57.4463L81.5461 57.9761V58.8738H82.0021V59.9702H79.3542V58.8738H79.8103V55.1652H79.3542V54.0762H82.0021V55.1652H81.5461V55.1726Z" fill="white"/>
<path d="M86.2092 57.8521H87.7759C87.7759 58.5585 88.482 58.6763 88.835 58.691C89.1292 58.691 89.5485 58.6248 89.5485 58.2716C89.5485 57.6167 86.3196 57.8889 86.3196 55.7476C86.3196 54.5041 87.4964 53.9375 88.3201 53.9375C89.0262 53.9375 89.7397 54.1656 90.078 54.7984L90.1589 54.092H91.6079V56.2039H90.0854C90.0854 55.5784 89.5999 55.2252 89.0115 55.2252C88.7688 55.2252 88.4305 55.3797 88.4305 55.6741C88.4305 56.5423 91.7623 56.3363 91.7623 58.3157C91.7623 59.6329 90.534 60.1038 89.5337 60.1038C88.6805 60.1038 88.0921 59.7064 87.7759 59.3312L87.6802 59.9787H86.2092V57.8521Z" fill="white"/>
<path d="M50.1987 89.8533L50.0148 86.7996C49.853 86.8069 49.6985 86.8143 49.544 86.8143H49.4999L49.4779 89.8753H49.544C49.7573 89.8753 49.978 89.868 50.1987 89.8533ZM48.9998 86.7996C48.8306 86.7848 48.6614 86.7701 48.4996 86.748L48.0951 89.7797C48.3305 89.8091 48.5658 89.8312 48.8012 89.8533L48.9998 86.7996ZM51.5961 89.684L51.0298 86.6745C50.8606 86.7039 50.6915 86.7333 50.5223 86.7554L50.8974 89.7944C51.1327 89.765 51.3608 89.7282 51.5961 89.684ZM47.9921 86.6597C47.823 86.623 47.6611 86.5862 47.4993 86.542L46.705 89.4927C46.933 89.5516 47.161 89.6104 47.3964 89.6546L47.9921 86.6597ZM52.9568 89.3382L52.0227 86.4243C51.8609 86.4758 51.6917 86.5273 51.5299 86.5641L52.2875 89.5295C52.5082 89.4706 52.7288 89.4118 52.9568 89.3382ZM47.0139 86.3948C46.8521 86.3433 46.6976 86.2771 46.5432 86.2182L45.3664 89.0438C45.5797 89.1321 45.8003 89.2204 46.0283 89.294L47.0139 86.3948ZM54.2587 88.8304L52.9936 86.049C52.8318 86.1226 52.6773 86.1888 52.5155 86.255L53.6261 89.1027C53.8321 89.0218 54.0454 88.9335 54.2587 88.8304ZM46.0872 86.0122C45.9327 85.9386 45.7856 85.8577 45.6459 85.7694L44.0939 88.4037C44.2999 88.5214 44.5058 88.6391 44.7191 88.7422L46.0872 86.0122ZM55.4796 88.1829L53.8983 85.5633C53.7438 85.6516 53.5967 85.7399 53.4423 85.8209L54.8839 88.5214C55.0824 88.411 55.281 88.3006 55.4796 88.1829ZM45.2266 85.5045C45.0869 85.4088 44.9545 85.3132 44.8221 85.2102L42.9171 87.6016C43.101 87.7488 43.2922 87.8886 43.4908 88.0284L45.2266 85.5045ZM56.627 87.3956L54.7662 84.9673C54.6264 85.0777 54.4867 85.1807 54.3469 85.2764L56.0754 87.8003C56.2519 87.6752 56.4431 87.5427 56.627 87.3956ZM44.447 84.8864C44.3219 84.776 44.2042 84.6583 44.0939 84.5332L41.858 86.6229C42.0198 86.7995 42.1889 86.9688 42.3655 87.1307L44.447 84.8864ZM57.6641 86.5126L55.5679 84.283C55.4355 84.4081 55.3031 84.5258 55.1707 84.6362L57.1492 86.9688C57.3257 86.8216 57.4949 86.6671 57.6641 86.5126ZM43.7703 84.1653C43.6673 84.0402 43.5717 83.9077 43.4761 83.7679L40.9533 85.4898C41.0857 85.6884 41.2328 85.8797 41.3872 86.0711L43.7703 84.1653ZM43.226 83.3558C43.1451 83.216 43.0716 83.0689 43.0054 82.9291L40.2398 84.2315C40.3428 84.4522 40.4531 84.673 40.5782 84.879L43.226 83.3558ZM42.8141 82.4802C42.7553 82.333 42.7038 82.1785 42.6597 82.0166L39.7176 82.8555C39.7838 83.0909 39.8574 83.319 39.9456 83.5472L42.8141 82.4802ZM42.5493 81.5457C42.5199 81.3912 42.4905 81.2293 42.4758 81.0674L39.4381 81.4279C39.4676 81.6708 39.5043 81.9136 39.5558 82.1491L42.5493 81.5457ZM42.4317 80.5817C42.4243 80.4934 42.4243 80.4125 42.4243 80.3242C42.4243 80.2433 42.4243 80.1623 42.4243 80.0814L39.3646 79.9931C39.3646 80.1035 39.3572 80.2138 39.3572 80.3168C39.3572 80.4493 39.3572 80.5744 39.3646 80.7068L42.4317 80.5817ZM42.5346 79.0954L39.5264 78.5656C39.4823 78.801 39.4528 79.0365 39.4308 79.2793L42.4758 79.581C42.4832 79.4191 42.5052 79.2572 42.5346 79.0954ZM60.2163 76.3801C60.0619 76.3728 59.9147 76.358 59.7529 76.3433L59.3484 79.375C59.5985 79.4118 59.8486 79.4338 60.0986 79.4412L60.2163 76.3801ZM61.6064 79.3529L61.121 76.3286C60.9739 76.3507 60.8268 76.3654 60.6723 76.3801L60.8488 79.4338C61.1063 79.4191 61.3563 79.3897 61.6064 79.3529ZM59.2822 76.255C59.1277 76.2182 58.9733 76.1815 58.8188 76.1299L57.9068 79.0512C58.1422 79.1248 58.3849 79.191 58.6202 79.2425L59.2822 76.255ZM63.0995 78.9408L61.9668 76.1005C61.8344 76.152 61.702 76.1962 61.5549 76.2403L62.3493 79.191C62.6067 79.1248 62.8568 79.0365 63.0995 78.9408ZM58.3555 75.9681C58.201 75.9092 58.0539 75.843 57.8995 75.7694L56.5755 78.5288C56.7962 78.6318 57.0168 78.7274 57.2301 78.8157L58.3555 75.9681ZM42.7774 78.1756L39.9015 77.138C39.8206 77.3661 39.747 77.6016 39.6808 77.8444L42.6376 78.6244C42.6744 78.4699 42.7185 78.3227 42.7774 78.1756ZM64.4749 78.1976L62.7244 75.6884C62.6067 75.7694 62.489 75.843 62.364 75.9092L63.8056 78.6097C64.041 78.4846 64.2616 78.3522 64.4749 78.1976ZM57.4508 75.5339C57.3037 75.453 57.1639 75.3647 57.0168 75.269L55.3472 77.8297C55.5458 77.9622 55.7518 78.0799 55.9503 78.1976L57.4508 75.5339ZM43.1672 77.3441L40.5414 75.7767C40.4164 75.9901 40.2913 76.2182 40.1884 76.4463L42.9612 77.7414C43.0201 77.609 43.0863 77.4692 43.1672 77.3441ZM65.6517 77.1527L63.3569 75.1292C63.2613 75.2322 63.1657 75.3352 63.0554 75.4309L65.0928 77.712C65.2913 77.5354 65.4752 77.3514 65.6517 77.1527ZM56.5829 74.9747C56.4431 74.8717 56.3034 74.7686 56.1636 74.6509L54.2292 77.0203C54.4131 77.1675 54.5897 77.3073 54.7735 77.4397L56.5829 74.9747ZM43.7041 76.6156L41.4387 74.5626C41.2696 74.7466 41.1077 74.9452 40.9533 75.1513L43.4099 76.9688C43.5055 76.8437 43.6011 76.726 43.7041 76.6156ZM55.7591 74.3051L55.6046 74.1653C55.4943 74.0622 55.3766 73.9592 55.259 73.8636L53.3172 76.2256C53.3908 76.2845 53.457 76.3433 53.5158 76.4022L53.7144 76.5862L55.7591 74.3051ZM66.549 75.8503L63.835 74.4375C63.7688 74.5626 63.6953 74.6803 63.6217 74.7981L66.1445 76.5273C66.2843 76.3139 66.424 76.0784 66.549 75.8503ZM44.3881 75.9975L42.5493 73.5472C42.3507 73.6943 42.1595 73.8562 41.9756 74.0181L44.0277 76.2918C44.138 76.1888 44.2631 76.0858 44.3881 75.9975ZM45.1898 75.4971L43.8071 72.7672C43.5864 72.8775 43.3731 73.0026 43.1672 73.1277L44.7779 75.7326C44.9103 75.6443 45.0501 75.5633 45.1898 75.4971ZM67.1007 74.3713L64.1292 73.6428C64.0925 73.7826 64.0557 73.9151 64.0042 74.0475L66.8653 75.1218C66.961 74.879 67.0418 74.6288 67.1007 74.3713ZM67.2993 72.826L64.2396 72.7745C64.2396 72.9217 64.2248 73.0689 64.2101 73.2087L67.2404 73.5913C67.2772 73.3485 67.2919 73.0909 67.2993 72.826ZM67.2772 72.0976C67.2625 71.84 67.2331 71.5898 67.1963 71.3617L64.1734 71.8253C64.1954 71.9725 64.2101 72.127 64.2248 72.2962L67.2772 72.0976ZM67.0492 70.6112C66.983 70.3536 66.9021 70.1034 66.8065 69.8606L63.9601 70.9864C64.0115 71.1115 64.0557 71.244 64.0924 71.3912L67.0492 70.6112ZM66.4534 69.1248C66.3137 68.882 66.1592 68.6465 65.9901 68.4331L63.5776 70.3095C63.6512 70.4051 63.7247 70.5155 63.7835 70.6259L66.4534 69.1248ZM65.4237 67.8076C65.2251 67.6237 65.0118 67.4471 64.7838 67.2852L63.0186 69.7797C63.1289 69.8533 63.2246 69.9416 63.3202 70.0299L65.4237 67.8076ZM64.0998 66.8658C63.8718 66.748 63.6364 66.6377 63.3937 66.542L62.2831 69.3897C62.4155 69.4412 62.5479 69.5001 62.6803 69.5663L64.0998 66.8658ZM62.6729 66.3065C62.4302 66.2403 62.1948 66.1814 61.9595 66.1373L61.3784 69.1395C61.5329 69.1689 61.6873 69.2057 61.8491 69.2499L62.6729 66.3065ZM61.2534 66.0269C61.0107 65.9975 60.7753 65.9754 60.5546 65.9607L60.3634 69.0144C60.5252 69.0218 60.7017 69.0365 60.8783 69.0586L61.2534 66.0269ZM58.4364 85.7252L56.1783 83.6649L55.9945 83.8636L58.2084 85.9754C58.2819 85.8945 58.3628 85.8135 58.4364 85.7252ZM56.0239 47.3514C55.9577 49.4118 54.266 51.06 52.1919 51.06H46.83C44.7559 51.06 43.0642 49.4118 42.998 47.3514H56.0239ZM78.5599 26.2844H20.462C19.8147 26.2844 19.2852 26.8143 19.2852 27.4618V28.514C19.2852 29.1616 19.8147 29.6914 20.462 29.6914H78.5599C79.2072 29.6914 79.7368 29.1616 79.7368 28.514V27.4618C79.7368 26.8143 79.2072 26.2844 78.5599 26.2844ZM62.8568 28.3669H20.9327C20.6164 28.3669 20.359 28.1093 20.359 27.7929C20.359 27.4765 20.6164 27.219 20.9327 27.219H62.8568C63.1731 27.219 63.4305 27.4765 63.4305 27.7929C63.4305 28.1093 63.1731 28.3669 62.8568 28.3669ZM73.3525 28.3669H65.2104C64.8942 28.3669 64.6367 28.1093 64.6367 27.7929C64.6367 27.4765 64.8942 27.219 65.2104 27.219H73.3525C73.6688 27.219 73.9262 27.4765 73.9262 27.7929C73.9262 28.1093 73.6688 28.3669 73.3525 28.3669ZM21.1313 31.2661C22.1242 39.5884 29.1925 46.0343 37.7759 46.0343H61.246C69.8294 46.0343 76.8977 39.581 77.8906 31.2661H21.1313ZM35.5252 41.9283C34.547 43.2455 31.4505 42.6126 28.6041 40.5081C25.7576 38.4037 24.2351 35.6296 25.2134 34.3051C26.1916 32.9806 29.2881 33.6207 32.1345 35.7252C34.981 37.8371 36.4961 40.6112 35.5252 41.9283ZM41.1813 41.9136C40.6223 42.4875 39.1734 41.9651 37.9377 40.7583C36.7094 39.5516 36.1651 38.1093 36.7241 37.5354C37.2831 36.9614 38.7321 37.4839 39.9677 38.6906C41.196 39.9048 41.7403 41.347 41.1813 41.9136ZM57.62 65.6443V69.3014H60.1207V65.6443H57.62ZM59.1425 66.9762H58.5246C58.2451 66.9762 58.0245 66.748 58.0245 66.4758C58.0245 66.1961 58.2525 65.9754 58.5246 65.9754H59.1425C59.422 65.9754 59.6426 66.2035 59.6426 66.4758C59.6426 66.7554 59.422 66.9762 59.1425 66.9762ZM56.958 69.478V65.4235H52.6553V63.2381H46.3372V70.5744H45.7856V71.9062H53.2069V70.5744H52.6626V69.478H56.958ZM53.3319 65.7179H56.2887C56.5682 65.7179 56.7888 65.946 56.7888 66.2182C56.7888 66.4979 56.5608 66.7186 56.2887 66.7186H53.3319C53.0524 66.7186 52.8318 66.4905 52.8318 66.2182C52.8318 65.946 53.0598 65.7179 53.3319 65.7179ZM46.9845 64.5185C46.9845 64.2388 47.2125 64.0181 47.4846 64.0181C47.7641 64.0181 47.9848 64.2462 47.9848 64.5185V69.6031C47.9848 69.8827 47.7568 70.1035 47.4846 70.1035C47.2051 70.1035 46.9845 69.8753 46.9845 69.6031V64.5185ZM46.0504 73.0394V82.2594C46.0504 83.9519 47.4184 85.3205 49.1101 85.3205H49.875C51.5667 85.3205 52.9348 83.9519 52.9348 82.2594V73.0394H46.0504ZM47.7273 81.4942C47.7273 81.7885 47.4846 82.0313 47.1904 82.0313C46.8962 82.0313 46.6535 81.7885 46.6535 81.4942V74.8643C46.6535 74.57 46.8962 74.3271 47.1904 74.3271C47.4846 74.3271 47.7273 74.57 47.7273 74.8643V81.4942ZM45.4767 18.6465C44.7853 18.6465 44.2263 19.2057 44.2263 19.8974V21.3985H44.3587V21.6045H46.5579V21.3985H46.7344V21.163H47.4773V25.3573H51.6476V18.6465C51.6403 18.6465 45.7415 18.6465 45.4767 18.6465ZM45.8591 20.3242C45.5649 20.3242 45.3222 20.1844 45.3222 20.0151C45.3222 19.9857 45.3369 19.9636 45.3443 19.9415C44.903 19.9195 44.5499 19.6766 44.5499 19.3676C44.5499 19.0438 44.9324 18.7789 45.4031 18.7789C45.8738 18.7789 46.2563 19.0438 46.2563 19.3676C46.2563 19.5074 46.1754 19.6325 46.0504 19.7355C46.2416 19.7797 46.3814 19.89 46.3814 20.0225C46.3961 20.1844 46.1533 20.3242 45.8591 20.3242ZM47.3816 18.0284L51.8094 16.5567L51.3755 15.2469C51.3534 15.1733 51.3166 15.1071 51.2799 15.0409L57.3993 12.9658C57.4728 12.9438 57.517 12.8628 57.4949 12.7819L57.3331 12.2889C57.311 12.2153 57.2301 12.1711 57.1492 12.1932L50.7062 14.3713C50.2869 14.0843 49.7426 13.9813 49.2204 14.1579L48.0215 14.5552C47.1316 14.8496 46.6461 15.8135 46.9403 16.7039L47.3816 18.0284ZM48.0363 14.8716L49.4705 14.3934C49.6985 14.3198 49.9412 14.4449 50.0221 14.673C50.0957 14.9011 49.9706 15.1439 49.7426 15.2175L48.3084 15.6958C48.0804 15.7694 47.8377 15.6443 47.7568 15.4162C47.6832 15.1881 47.8083 14.9452 48.0363 14.8716Z" fill="#BA8756"/>
<path d="M71.4843 67.2106C71.8226 66.9237 72.1315 66.6514 72.411 66.3939C72.6905 66.1363 72.9332 65.9009 73.1392 65.6801C73.3451 65.4594 73.4995 65.2681 73.6099 65.1062C73.7202 64.9369 73.779 64.8045 73.779 64.7015C73.779 64.5322 73.7423 64.4145 73.6687 64.3335C73.5952 64.26 73.4848 64.2232 73.3377 64.2232C73.1906 64.2232 73.0803 64.26 73.0067 64.3335C72.9332 64.4071 72.8964 64.5322 72.8964 64.7015V65.0252H71.6019V63.4873C71.7122 63.4285 71.8373 63.377 71.9697 63.3328C72.1021 63.2887 72.2639 63.2445 72.4404 63.2004C72.6243 63.1562 72.8155 63.1268 73.0215 63.0973C73.2274 63.0753 73.4333 63.0605 73.6466 63.0605C74.2571 63.0605 74.7205 63.1856 75.0221 63.4358C75.3236 63.686 75.4781 64.0466 75.4781 64.5322C75.4781 64.7971 75.4192 65.0473 75.2942 65.2901C75.1692 65.533 75.0147 65.7611 74.8235 65.9744C74.6322 66.1952 74.4263 66.4012 74.1983 66.5925C73.9703 66.7839 73.757 66.9678 73.551 67.1371H74.338V66.7618H75.6031V68.204H71.4916V67.2106H71.4843Z" fill="#BA8756"/>
<path d="M80.2589 65.6806C80.2589 66.1589 80.2074 66.5562 80.0971 66.8873C79.9868 67.2184 79.8397 67.4834 79.6411 67.6967C79.4425 67.9028 79.2071 68.0573 78.9276 68.153C78.6481 68.2486 78.3319 68.2928 77.9788 68.2928C77.6258 68.2928 77.3169 68.2486 77.03 68.153C76.7505 68.0573 76.5078 67.9101 76.3166 67.6967C76.118 67.4907 75.9709 67.2184 75.8605 66.8873C75.7502 66.5562 75.6987 66.1515 75.6987 65.6806C75.6987 65.2096 75.7502 64.8049 75.8605 64.4738C75.9709 64.1427 76.118 63.8704 76.3166 63.6644C76.5151 63.4584 76.7505 63.3038 77.03 63.2081C77.3095 63.1125 77.6258 63.0684 77.9788 63.0684C78.3319 63.0684 78.6408 63.1125 78.9276 63.2081C79.2071 63.3038 79.4498 63.451 79.6411 63.6644C79.8397 63.8704 79.9868 64.1427 80.0971 64.4738C80.2074 64.8123 80.2589 65.2096 80.2589 65.6806ZM77.9788 67.1375C78.1259 67.1375 78.2363 67.1007 78.3098 67.0271C78.3834 66.9536 78.4201 66.8285 78.4201 66.6592V64.7019C78.4201 64.5327 78.3834 64.4149 78.3098 64.334C78.2363 64.2604 78.1259 64.2236 77.9788 64.2236C77.8317 64.2236 77.7214 64.2604 77.6478 64.334C77.5743 64.4076 77.5375 64.5327 77.5375 64.7019V66.6592C77.5375 66.8285 77.5743 66.9462 77.6478 67.0271C77.7214 67.1007 77.8317 67.1375 77.9788 67.1375Z" fill="#BA8756"/>
<path d="M80.4429 63.4952L81.8845 63.1641H83.1348V67.1449H83.6791V68.2045H80.6415V67.1449H81.2666V64.231H80.4502V63.4952H80.4429Z" fill="#BA8756"/>
<path d="M87.8935 64.4375C87.739 64.386 87.5552 64.3418 87.3345 64.2977C87.1138 64.2535 86.8711 64.2241 86.6137 64.2241C86.3048 64.2241 86.0768 64.305 85.937 64.4743C85.7973 64.6435 85.7237 64.8569 85.7237 65.1145V65.3058C85.8561 65.2616 86.0032 65.2175 86.1797 65.1807C86.3489 65.1439 86.5181 65.1218 86.6799 65.1218C86.8711 65.1218 87.0624 65.1439 87.2462 65.188C87.4301 65.2322 87.5919 65.3057 87.739 65.4161C87.8788 65.5265 87.9965 65.6737 88.0847 65.8576C88.173 66.0416 88.2171 66.2771 88.2171 66.564C88.2171 67.1674 88.0406 67.6016 87.6876 67.8812C87.3345 68.1608 86.827 68.2932 86.1797 68.2932C85.8267 68.2932 85.5178 68.2491 85.2309 68.1608C84.9514 68.0725 84.7161 67.9327 84.5175 67.7487C84.3189 67.5648 84.1718 67.3293 84.0615 67.0423C83.9511 66.7627 83.8997 66.4242 83.8997 66.0416C83.8997 65.5118 83.9585 65.0556 84.0762 64.6803C84.1939 64.305 84.363 63.996 84.5763 63.7605C84.7896 63.525 85.0471 63.3484 85.3486 63.2381C85.6428 63.1277 85.9738 63.0762 86.3416 63.0762C86.5254 63.0762 86.6946 63.0835 86.8564 63.1056C87.0109 63.1277 87.158 63.1498 87.283 63.1865C87.4154 63.216 87.5257 63.2528 87.6287 63.2969C87.7317 63.3337 87.8199 63.3705 87.9008 63.4073V64.4375H87.8935ZM86.1503 66.1372C86.0988 66.1372 86.0327 66.1446 85.9591 66.1593C85.8856 66.174 85.812 66.1961 85.7237 66.2255V66.6671C85.7237 66.8363 85.7605 66.954 85.8341 67.035C85.9076 67.1086 86.0179 67.1453 86.165 67.1453C86.3121 67.1453 86.4225 67.1086 86.496 67.035C86.5696 66.9614 86.6064 66.8363 86.6064 66.6671C86.6137 66.3139 86.4592 66.1372 86.1503 66.1372Z" fill="#BA8756"/>
<path d="M13.217 63.4952L14.6513 63.1641H15.9016V67.1449H16.4459V68.2045H13.4083V67.1449H14.0334V64.231H13.217V63.4952Z" fill="#BA8756"/>
<path d="M16.9019 66.925C17.0711 66.9839 17.2697 67.028 17.5051 67.0722C17.7404 67.1163 18.0052 67.1384 18.3068 67.1384C18.5716 67.1384 18.7701 67.0649 18.9025 66.9103C19.0349 66.7558 19.1011 66.5351 19.1011 66.2554V66.123C18.9835 66.1671 18.8511 66.2039 18.6966 66.2481C18.5421 66.2922 18.3583 66.3069 18.1523 66.3069C17.9611 66.3069 17.7699 66.2849 17.586 66.2407C17.4021 66.1966 17.2403 66.123 17.0932 66.0126C16.9534 65.9022 16.8358 65.7551 16.7475 65.5637C16.6592 65.3724 16.6151 65.137 16.6151 64.8426C16.6151 64.2319 16.7916 63.783 17.1447 63.5034C17.4977 63.2238 17.9979 63.084 18.6598 63.084C19.0202 63.084 19.3365 63.1281 19.6233 63.2164C19.9028 63.3047 20.1456 63.4445 20.3368 63.6285C20.528 63.8125 20.6825 64.0479 20.7854 64.3275C20.8884 64.6072 20.9399 64.9456 20.9399 65.3283C20.9399 65.8801 20.8811 66.3437 20.7781 66.719C20.6678 67.0943 20.506 67.4033 20.2927 67.6388C20.0794 67.8743 19.8219 68.0435 19.5204 68.1465C19.2188 68.2496 18.8731 68.3011 18.498 68.3011C18.1303 68.3011 17.8213 68.2643 17.5639 68.1907C17.3065 68.1171 17.0858 68.0509 16.9093 67.9773V66.925H16.9019ZM18.6745 65.2841C18.7554 65.2841 18.8363 65.2768 18.9025 65.2547C18.9687 65.2326 19.0349 65.2179 19.0938 65.1958V64.7028C19.0938 64.5336 19.057 64.4159 18.9835 64.3349C18.9099 64.2613 18.7996 64.2245 18.6525 64.2245C18.5054 64.2245 18.3951 64.2613 18.3215 64.3423C18.248 64.4232 18.2112 64.563 18.2112 64.7691C18.2185 65.1075 18.3656 65.2841 18.6745 65.2841Z" fill="#BA8756"/>
<path d="M21.4622 63.1641H24.9044V64.4224H22.7567L22.6978 65.0993C22.8082 65.0331 22.9479 64.9816 23.1171 64.9374C23.2862 64.8933 23.4407 64.8786 23.5804 64.8786C23.8305 64.8786 24.0585 64.9154 24.2571 64.9963C24.4557 65.0772 24.6249 65.1803 24.7573 65.3201C24.8897 65.4599 24.9926 65.6291 25.0662 65.8278C25.1397 66.0265 25.1765 66.2399 25.1765 66.4753C25.1765 67.0787 25 67.5423 24.6469 67.8661C24.2939 68.1972 23.7937 68.3591 23.1465 68.3591C22.9111 68.3591 22.6905 68.3443 22.4992 68.3149C22.308 68.2855 22.1315 68.2487 21.977 68.2045C21.8226 68.1604 21.6828 68.1089 21.5651 68.05C21.4475 67.9912 21.3445 67.9396 21.2489 67.8881V66.5857H22.7493C22.7493 66.7402 22.7714 66.8506 22.8155 66.9389C22.8596 67.0198 22.9553 67.064 23.095 67.064C23.22 67.064 23.3083 67.0199 23.3598 66.9316C23.4113 66.8433 23.4333 66.6961 23.4333 66.4901C23.4333 66.2693 23.4113 66.1148 23.3598 66.0118C23.3083 65.9161 23.22 65.8646 23.0876 65.8646C22.9553 65.8646 22.867 65.9014 22.8229 65.9823C22.7787 66.0633 22.7493 66.1516 22.7493 66.2472H21.521L21.2268 65.7984L21.4622 63.1641Z" fill="#BA8756"/>
<path d="M26.1546 63.1641H27.6919L26.8975 65.7248H27.4785V64.8344H29.1555V65.7248H29.6704V66.7108H29.1555V67.064H29.5527V68.2045H26.6548V67.064H27.4785V66.7108H25.375V65.5997L26.1546 63.1641Z" fill="#BA8756"/>
<path d="M99.7941 45.195L96.9991 42.6564L98.8967 39.404C98.5952 38.0059 98.2421 36.6299 97.8302 35.2759L94.594 33.3554L95.7929 29.816C95.2118 28.4989 94.5866 27.2112 93.9026 25.9529L90.3722 24.7314L90.8282 21.0522C89.9897 19.8676 89.0997 18.7196 88.1656 17.6159L84.4954 17.1376L84.2012 13.4584C83.1421 12.465 82.0388 11.5158 80.8914 10.6181L77.2065 10.883L76.1768 7.31419C74.9485 6.55628 73.6834 5.85724 72.3889 5.2097L68.8144 6.21781L67.0712 2.9139C65.7326 2.42825 64.3572 2.00147 62.967 1.62619L59.6572 3.34069L57.2889 0.44886C55.8841 0.242826 54.4572 0.0956505 53.0156 0.0147086L50.1103 2.36938L47.1904 0C45.7635 0.0809419 44.3513 0.228103 42.9538 0.41942L40.5413 3.34069L37.1653 1.5894C35.8046 1.94996 34.4734 2.36202 33.1642 2.83296L31.3842 6.21781L27.692 5.17292C26.4563 5.79102 25.2427 6.44591 24.0659 7.16703L22.992 10.883L19.138 10.6034C18.0568 11.4496 17.0123 12.34 16.0121 13.2671L15.7031 17.1376L11.827 17.6453C10.9591 18.6755 10.128 19.7351 9.34097 20.8389L9.82641 24.7388L6.06796 26.0412C5.43542 27.1965 4.86171 28.3812 4.32478 29.5879L5.59722 33.3628L2.14034 35.4157C1.76523 36.6519 1.44159 37.9102 1.1621 39.1832L3.19211 42.6637L0.19858 45.3863C0.0808981 46.6593 0.0147102 47.947 0 49.2421L2.70667 52.259L0.301562 55.5556C0.441309 56.8212 0.632534 58.0795 0.867897 59.3157L4.16299 61.7513L2.4566 65.5041C2.84642 66.6961 3.273 67.8735 3.75109 69.0214L7.50219 70.7579L6.58281 74.7829C7.20063 75.8646 7.84789 76.9242 8.53927 77.9544L12.5846 78.9036L12.4963 83.039C13.3201 83.9735 14.1733 84.8786 15.0632 85.7469L19.2042 85.8646L19.947 89.9559C20.9326 90.699 21.955 91.3981 22.9994 92.0751L27.0815 91.3539L28.6334 95.2097C29.744 95.7395 30.8841 96.2178 32.0462 96.6667L35.9003 95.1435L38.1877 98.5872C39.3939 98.8815 40.6149 99.1317 41.8505 99.3304L45.3001 97.0714L48.2053 99.9559C48.8085 99.9779 49.4042 100 50.0073 100C50.6767 100 51.3386 99.9779 52.0006 99.9485L54.8985 97.064L58.3113 99.301C59.5763 99.0876 60.8193 98.8374 62.0477 98.5283L64.2983 95.1288L68.0641 96.6152C69.2704 96.1516 70.4545 95.6512 71.6093 95.092L73.1244 91.3392L77.0594 92.0309C78.1627 91.3172 79.2439 90.5666 80.2883 89.7719L81.0017 85.8499L84.9515 85.7395C85.9076 84.805 86.827 83.8264 87.7023 82.8183L87.614 78.8889L91.4313 77.9912C92.1889 76.8727 92.895 75.7175 93.5569 74.5401L92.689 70.7432L96.2121 69.1097C96.7343 67.8514 97.205 66.5637 97.6243 65.2539L96.0209 61.7366L99.1027 59.4555C99.3675 58.0942 99.5734 56.7182 99.7279 55.3201L97.4772 52.237L100 49.4261C99.9926 48.0059 99.9191 46.5931 99.7941 45.195ZM50 94.3415C25.5001 94.3415 5.64135 74.4739 5.64135 49.9632C5.64135 25.4525 25.5001 5.58499 50 5.58499C74.4998 5.58499 94.3586 25.4525 94.3586 49.9632C94.3586 74.4739 74.4998 94.3415 50 94.3415Z" fill="#BA8756"/>
</svg>
