<svg width="124" height="100" viewBox="0 0 124 100" fill="none" xmlns="http://www.w3.org/2000/svg">
<path d="M7.40491 39.5474C7.75142 39.8947 8.3164 39.8947 8.67045 39.5474L9.68739 38.5282C10.0866 38.6565 10.5085 38.6565 10.9002 38.5282L11.9172 39.5474C12.2637 39.8947 12.8286 39.8947 13.1827 39.5474C13.5292 39.2001 13.5292 38.6339 13.1827 38.279L12.1657 37.2598C12.2938 36.8596 12.2938 36.4368 12.1657 36.0442L13.1827 35.025C13.5292 34.6777 13.5292 34.1114 13.1827 33.7566C12.8362 33.4093 12.2712 33.4093 11.9172 33.7566L10.9002 34.7758C10.501 34.6475 10.0791 34.6475 9.68739 34.7758L8.67045 33.7566C8.32393 33.4093 7.75896 33.4093 7.40491 33.7566C7.05839 34.1039 7.05839 34.6701 7.40491 35.025L8.42186 36.0442C8.2938 36.4444 8.2938 36.8672 8.42186 37.2598L7.40491 38.279C7.05839 38.6339 7.05839 39.2001 7.40491 39.5474ZM9.40114 35.7498C9.89831 35.2515 10.7043 35.2515 11.2015 35.7498C11.6987 36.2481 11.6987 37.0559 11.2015 37.5542C10.7043 38.0525 9.89831 38.0525 9.40114 37.5542C8.90396 37.0559 8.90396 36.2481 9.40114 35.7498Z" fill="#FF9D15"/>
<path d="M88.0226 97.7663C86.0867 98.8309 85.8908 95.0257 87.985 91.7112C92.3692 90.624 96.4144 88.6912 99.9549 86.1016H24.0603C27.8569 88.88 32.2336 90.8958 36.9869 91.9302C38.9379 95.1918 38.7119 98.8082 36.8136 97.7663C33.13 95.7429 32.0528 99.9936 37.4916 99.9936C41.0245 99.9936 42.5462 96.7546 43.0132 92.6927C43.4351 92.7078 43.8569 92.7229 44.2863 92.7229H79.7063C80.4144 92.7229 81.1149 92.6927 81.8155 92.655C82.2825 96.7395 83.7966 100.001 87.3447 100.001C92.7835 99.9936 91.7062 95.7429 88.0226 97.7663Z" fill="#FF9D15"/>
<path d="M124 46.9234V44.5074C124 43.02 122.795 41.812 121.311 41.812H19.1488V7.05171C19.1488 4.12231 21.5217 1.74405 24.4444 1.74405H36.467C39.3898 1.74405 41.7627 4.12231 41.7627 7.05171V7.93507H40.5424C40.2034 7.93507 39.9322 8.20686 39.9322 8.54661C39.9322 8.81087 40.0979 9.02982 40.3315 9.11287C37.8606 9.64892 36.0301 11.023 35.7891 12.684H35.1789C34.9981 12.684 34.8475 12.835 34.8475 13.0162C34.8475 13.1974 34.9981 13.3484 35.1789 13.3484H50.2976C50.4783 13.3484 50.629 13.1974 50.629 13.0162C50.629 12.835 50.4783 12.684 50.2976 12.684H49.4313C49.1902 11.023 47.3748 9.65647 44.9115 9.12042C45.1601 9.04492 45.3409 8.81842 45.3409 8.54661C45.3409 8.20686 45.0697 7.93507 44.7307 7.93507H43.5104V7.05171C43.5104 3.16345 40.354 0 36.4746 0H24.452C20.5725 0 17.4162 3.16345 17.4162 7.05171V41.812H2.68927C1.20528 41.812 0 43.02 0 44.5074V46.9234C0 48.4107 1.20528 49.6187 2.68927 49.6187H121.318C122.795 49.6187 124 48.4107 124 46.9234ZM44.1356 10.7663C44.1356 11.1665 43.8117 11.4836 43.42 11.4836H39.4049C39.0056 11.4836 38.6893 11.1589 38.6893 10.7663C38.6893 10.3737 39.0132 10.0491 39.4049 10.0491H43.42C43.8117 10.0491 44.1356 10.3737 44.1356 10.7663ZM58.9077 45.8588H2.742C2.01883 45.8588 1.43127 45.2699 1.43127 44.5451C1.43127 43.8203 2.01883 43.2314 2.742 43.2314H58.9077C59.6309 43.2314 60.2185 43.8203 60.2185 44.5451C60.2185 45.2699 59.6309 45.8588 58.9077 45.8588ZM82.9077 45.8588H64.3013C63.5782 45.8588 62.9906 45.2699 62.9906 44.5451C62.9906 43.8203 63.5782 43.2314 64.3013 43.2314H82.9077C83.6309 43.2314 84.2185 43.8203 84.2185 44.5451C84.2185 45.2699 83.6309 45.8588 82.9077 45.8588Z" fill="#FF9D15"/>
<path d="M28.9039 33.7566C28.5574 33.4093 27.9924 33.4093 27.6383 33.7566L26.6214 34.7758C26.2221 34.6475 25.8003 34.6475 25.4086 34.7758L24.3916 33.7566C24.0451 33.4093 23.4801 33.4093 23.1261 33.7566C22.7796 34.1039 22.7796 34.6701 23.1261 35.025L24.1431 36.0442C24.015 36.4444 24.015 36.8672 24.1431 37.2598L23.1261 38.279C22.7796 38.6263 22.7796 39.1926 23.1261 39.5474C23.4726 39.8947 24.0376 39.8947 24.3916 39.5474L25.4086 38.5282C25.8078 38.6565 26.2297 38.6565 26.6214 38.5282L27.6383 39.5474C27.9849 39.8947 28.5498 39.8947 28.9039 39.5474C29.2504 39.2001 29.2504 38.6339 28.9039 38.279L27.8869 37.2598C28.015 36.8596 28.015 36.4368 27.8869 36.0442L28.9039 35.025C29.2504 34.6777 29.2504 34.1039 28.9039 33.7566ZM26.9152 37.5542C26.418 38.0525 25.612 38.0525 25.1148 37.5542C24.6176 37.0559 24.6176 36.2481 25.1148 35.7498C25.612 35.2515 26.418 35.2515 26.9152 35.7498C27.4123 36.2481 27.4123 37.0559 26.9152 37.5542Z" fill="#FF9D15"/>
<path d="M17.5065 64.8783H10.3276V62.1754H11.3145V54.7537H10.3276V52.0508H17.7175C18.3879 52.0508 18.9905 52.1187 19.5404 52.2546C20.0828 52.3905 20.5423 52.617 20.919 52.919C21.2956 53.2286 21.5819 53.6287 21.7853 54.127C21.9886 54.6253 22.0866 55.2218 22.0866 55.9239C22.0866 56.6412 21.9886 57.2452 21.7853 57.7284C21.5819 58.2191 21.2956 58.6193 20.919 58.9213C20.5423 59.2309 20.0903 59.4498 19.5404 59.5857C18.9981 59.7216 18.3879 59.7896 17.7175 59.7896H15.9246V62.1678H17.5065V64.8783ZM16.4896 57.449C16.7984 57.449 17.032 57.366 17.1977 57.1999C17.3634 57.0338 17.4463 56.762 17.4463 56.392V55.7956C17.4463 55.4181 17.3634 55.1538 17.2052 54.9877C17.047 54.8216 16.806 54.7386 16.4896 54.7386H15.9322V57.4415H16.4896V57.449Z" fill="#FF9D15"/>
<path d="M22.7117 52.043H29.8228V54.7459H28.3087V62.1675H29.7926V60.65H33.0695V64.8704H22.7117V62.1675H23.6985V54.7459H22.7117V52.043Z" fill="#FF9D15"/>
<path d="M45.3633 60.2725C45.3633 61.1634 45.2427 61.9108 44.9941 62.5224C44.7455 63.1339 44.3915 63.6323 43.932 64.0173C43.4725 64.4024 42.915 64.6817 42.2597 64.8478C41.6043 65.0214 40.8811 65.1045 40.0751 65.1045C39.254 65.1045 38.5083 65.0214 37.8454 64.8478C37.1825 64.6741 36.6175 64.4024 36.1505 64.0173C35.6834 63.6323 35.3218 63.1339 35.0657 62.5224C34.8096 61.9108 34.6815 61.1634 34.6815 60.2725V54.7459H33.6947V52.043H39.9471V54.7459H39.2917V61.1181C39.2917 61.4956 39.3746 61.7598 39.5327 61.9259C39.6909 62.092 39.932 62.1751 40.2484 62.1751C40.5648 62.1751 40.8058 62.092 40.964 61.9259C41.1222 61.7598 41.2051 61.4881 41.2051 61.1181V54.7459H40.5422V52.043H46.3501V54.7459H45.3633V60.2725Z" fill="#FF9D15"/>
<path d="M46.8098 52.043H54.6817L56.5574 57.7055L58.3653 52.043H65.951V54.7459H64.9642V62.1675H65.951V64.8704H59.3672V62.1675H60.354V55.6519L57.0772 64.878H55.2994L51.5781 55.6217V62.1751H52.565V64.878H46.8022V62.1751H47.7891V54.7534H46.8022V52.043H46.8098Z" fill="#FF9D15"/>
<path d="M66.6519 52.043H74.3731C75.7215 52.043 76.7912 52.3148 77.5671 52.8659C78.343 53.4171 78.7347 54.2249 78.7347 55.2895C78.7347 55.818 78.6368 56.271 78.4409 56.6409C78.2451 57.0184 78.004 57.3204 77.7178 57.562C77.4315 57.8036 77.1302 57.9924 76.8213 58.1207C76.505 58.2491 76.2338 58.3397 76.0078 58.385V58.5511C76.2489 58.5737 76.5426 58.6266 76.8967 58.7096C77.2507 58.7927 77.5822 58.9437 77.8986 59.1551C78.2149 59.3665 78.4861 59.6685 78.7121 60.046C78.9381 60.4235 79.0511 60.9218 79.0511 61.5409C79.0511 62.16 78.9231 62.6734 78.6745 63.0962C78.4183 63.519 78.0794 63.8663 77.65 64.1306C77.2206 64.3948 76.7234 64.5836 76.1584 64.6968C75.5935 64.8101 74.9984 64.8704 74.3731 64.8704H66.6519V62.1675H67.6387V54.7459H66.6519V52.043ZM73.1377 57.4488C73.4541 57.4488 73.6952 57.3657 73.8534 57.1996C74.0116 57.0335 74.0944 56.7617 74.0944 56.3918V55.7953C74.0944 55.4178 74.0116 55.1536 73.8534 54.9875C73.6952 54.8214 73.4541 54.7383 73.1377 54.7383H72.2488V57.4412H73.1377V57.4488ZM73.2507 62.1675C73.5671 62.1675 73.8082 62.0845 73.9664 61.9184C74.1246 61.7523 74.2074 61.4805 74.2074 61.1105V60.3858C74.2074 60.0083 74.1246 59.744 73.9664 59.5779C73.8082 59.4118 73.5671 59.3287 73.2507 59.3287H72.2488V62.1675H73.2507Z" fill="#FF9D15"/>
<path d="M79.6985 52.043H86.2823V54.7459H85.2955V62.1675H86.2823V64.8704H79.6985V62.1675H80.6853V54.7459H79.6985V52.043Z" fill="#FF9D15"/>
<path d="M96.3316 52.043H102.094V54.7459H101.107V64.878H96.4822L91.6611 57.4337V62.1675H92.648V64.8704H86.8853V62.1675H87.8721V54.7459H86.8853V52.043H92.9945L97.3259 58.6794V54.7534H96.3391V52.043H96.3316Z" fill="#FF9D15"/>
<path d="M109.205 58.2943H115.036V60.7556H114.215V64.055C113.959 64.1758 113.665 64.2966 113.333 64.4249C112.994 64.5533 112.61 64.6665 112.181 64.7647C111.744 64.8628 111.262 64.9459 110.727 65.0138C110.192 65.0818 109.589 65.112 108.934 65.112C107.947 65.112 107.058 64.9912 106.267 64.7496C105.476 64.508 104.806 64.1229 104.249 63.5944C103.691 63.0659 103.269 62.3789 102.975 61.5408C102.682 60.7028 102.531 59.676 102.531 58.4604C102.531 57.26 102.682 56.2407 102.975 55.3951C103.269 54.5495 103.691 53.8624 104.241 53.3339C104.791 52.8054 105.461 52.4204 106.252 52.1788C107.043 51.9372 107.925 51.8164 108.904 51.8164C109.574 51.8164 110.177 51.8466 110.719 51.9146C111.262 51.9825 111.751 52.0656 112.181 52.1713C112.618 52.277 112.994 52.3902 113.333 52.5186C113.665 52.6469 113.959 52.7677 114.215 52.8885V56.8296H110.102V56.052C110.102 55.5763 110.004 55.2441 109.815 55.0478C109.627 54.8515 109.318 54.7534 108.904 54.7534C108.49 54.7534 108.181 54.8515 107.992 55.0478C107.804 55.2441 107.706 55.5839 107.706 56.052V60.8689C107.706 61.3445 107.804 61.6767 107.992 61.873C108.181 62.0693 108.49 62.1675 108.904 62.1675C109.318 62.1675 109.627 62.0693 109.815 61.873C110.004 61.6767 110.102 61.337 110.102 60.8689V60.7556H109.213V58.2943H109.205Z" fill="#FF9D15"/>
<path d="M25.1374 82.1357L22.5913 70.8484H21.8606V67.8359H29.1374V70.8484H27.9472L28.8436 77.7416H29.0244L31.1337 67.8359H36.4143L38.3954 77.7416H38.5762L39.4727 70.8484H38.2824V67.8359H44.6478V70.8484H43.9171L41.5517 82.1357H35.1563L33.4839 74.563H33.3032L31.5404 82.1357H25.1374Z" fill="#FF9D15"/>
<path d="M59.0204 74.9866C59.0204 76.3381 58.8547 77.4781 58.5233 78.4143C58.1918 79.3505 57.7248 80.1131 57.1222 80.702C56.5195 81.2909 55.7813 81.7213 54.915 81.9855C54.0487 82.2573 53.0845 82.3932 52.0148 82.3932C50.9527 82.3932 49.9884 82.2573 49.1146 81.9855C48.2483 81.7137 47.5101 81.2833 46.9075 80.702C46.3048 80.1131 45.8378 79.3505 45.5063 78.4143C45.1749 77.4781 45.0092 76.3381 45.0092 74.9866C45.0092 73.6503 45.1749 72.5102 45.5063 71.5665C45.8378 70.6227 46.3048 69.8602 46.9075 69.2713C47.5101 68.6824 48.2483 68.252 49.1146 67.9878C49.9809 67.716 50.9451 67.5801 52.0148 67.5801C53.077 67.5801 54.0412 67.716 54.915 67.9878C55.7813 68.2596 56.5195 68.6824 57.1222 69.2713C57.7248 69.8602 58.1918 70.6227 58.5233 71.5665C58.8547 72.5102 59.0204 73.6503 59.0204 74.9866ZM52.0148 79.124C52.4291 79.124 52.738 79.0183 52.9489 78.7994C53.1598 78.588 53.2577 78.2407 53.2577 77.7575V72.2082C53.2577 71.7326 53.1523 71.3853 52.9489 71.1663C52.738 70.9549 52.4291 70.8417 52.0148 70.8417C51.6005 70.8417 51.2841 70.9474 51.0807 71.1663C50.8698 71.3777 50.7719 71.725 50.7719 72.2082V77.7575C50.7719 78.2331 50.8773 78.5804 51.0807 78.7994C51.2916 79.0108 51.6005 79.124 52.0148 79.124Z" fill="#FF9D15"/>
<path d="M65.9887 79.1235H67.2015V82.136H59.7589V79.1235H60.8587V70.8562H59.7589V67.8438H68.3616C69.1073 67.8438 69.7853 67.9193 70.3879 68.0627C70.9906 68.2137 71.5028 68.4478 71.9171 68.7724C72.3314 69.0971 72.6553 69.5199 72.8813 70.0484C73.1073 70.5769 73.2203 71.2186 73.2203 71.9812C73.2203 72.789 73.0621 73.4912 72.7307 74.0952C72.4067 74.6916 71.9322 75.1144 71.3069 75.3636L71.322 75.5448C72.4971 75.726 73.0847 76.4508 73.0847 77.7116V79.1235H73.9435V82.136H68.128V77.8173C68.128 77.4474 68.0904 77.1529 68.0075 76.9264C67.9246 76.6999 67.7966 76.5263 67.6233 76.413C67.4425 76.2998 67.2241 76.2167 66.9529 76.1714C66.6817 76.1261 66.3578 76.1035 65.9811 76.1035V79.1235H65.9887ZM66.983 73.8687C67.3371 73.8687 67.6007 73.7781 67.7815 73.5893C67.9548 73.4081 68.0452 73.1061 68.0452 72.6909V72.0265C68.0452 71.6112 67.9548 71.3092 67.7815 71.128C67.6007 70.9468 67.3371 70.8487 66.983 70.8487H65.9962V73.8611H66.983V73.8687Z" fill="#FF9D15"/>
<path d="M88.2711 70.8487L85.3935 74.5633L88.5498 79.1235H89.2805V82.136H83.8191L80.9189 77.1001V82.136H74.6816V79.1235H75.7814V70.8562H74.6816V67.8438H80.9189V72.789L84.2711 67.8438H89.0018V70.8562H88.2711V70.8487Z" fill="#FF9D15"/>
<path d="M95.2386 78.8444C95.6453 78.8444 95.9316 78.784 96.0973 78.6632C96.2706 78.5424 96.3534 78.3537 96.3534 78.1121C96.3534 77.9384 96.2856 77.7874 96.1425 77.6591C95.9994 77.5307 95.7207 77.3797 95.2913 77.2061C94.3873 76.8663 93.5964 76.5341 92.9184 76.2246C92.2404 75.915 91.6755 75.5677 91.231 75.1827C90.7866 74.8052 90.4551 74.3597 90.2292 73.8539C90.0107 73.348 89.8977 72.7289 89.8977 72.0041C89.8977 71.3171 90.0032 70.7055 90.2216 70.1544C90.4325 69.6108 90.7866 69.1427 91.2687 68.7576C91.7508 68.3726 92.3911 68.0781 93.1971 67.8743C93.9956 67.6704 94.9824 67.5723 96.1576 67.5723C97.2197 67.5723 98.2216 67.678 99.1632 67.8969C100.105 68.1083 100.888 68.3952 101.514 68.7501V72.0419H97.6642C97.6642 71.687 97.5662 71.4454 97.3704 71.3171C97.1745 71.1887 96.9335 71.1208 96.6548 71.1208C96.248 71.1208 95.9617 71.1736 95.7809 71.2793C95.6002 71.385 95.5173 71.5662 95.5173 71.8229C95.5173 72.0343 95.6152 72.1853 95.8035 72.2835C95.9919 72.3816 96.2781 72.4949 96.6548 72.6157C97.3629 72.8497 98.0333 73.0913 98.6661 73.348C99.2988 73.6047 99.8487 73.9218 100.323 74.3069C100.798 74.6844 101.175 75.1449 101.453 75.6885C101.724 76.2246 101.868 76.889 101.868 77.6742C101.868 79.2672 101.355 80.4526 100.331 81.2302C99.3064 82.0079 97.7998 82.4005 95.8186 82.4005C94.6962 82.4005 93.6114 82.3024 92.5719 82.1061C91.5323 81.9098 90.7037 81.6757 90.0785 81.4114V77.7723H94.1086C94.1086 78.1423 94.184 78.4141 94.3271 78.5877C94.4627 78.7538 94.7715 78.8444 95.2386 78.8444Z" fill="#FF9D15"/>
<path d="M44.3922 34.293C44.1211 34.293 43.9026 34.5119 43.9026 34.7837V40.031C43.9026 40.3028 44.1211 40.5217 44.3922 40.5217C44.6634 40.5217 44.8819 40.3028 44.8819 40.031V34.7837C44.8819 34.5119 44.6634 34.293 44.3922 34.293Z" fill="#FF9D15"/>
<path d="M44.3921 14.5039C44.1209 14.5039 43.9025 14.7229 43.9025 14.9947V31.5066C43.9025 31.7784 44.1209 31.9973 44.3921 31.9973C44.6633 31.9973 44.8818 31.7784 44.8818 31.5066V14.9947C44.8818 14.7229 44.6633 14.5039 44.3921 14.5039Z" fill="#FF9D15"/>
<path d="M40.8743 14.5039C40.6031 14.5039 40.3846 14.7229 40.3846 14.9947V18.5809C40.3846 18.8527 40.6031 19.0717 40.8743 19.0717C41.1455 19.0717 41.3639 18.8527 41.3639 18.5809V14.9947C41.3715 14.7229 41.1455 14.5039 40.8743 14.5039Z" fill="#FF9D15"/>
<path d="M47.9096 27.4668C47.6384 27.4668 47.4199 27.6857 47.4199 27.9575V39.9923C47.4199 40.2641 47.6384 40.483 47.9096 40.483C48.1808 40.483 48.3992 40.2641 48.3992 39.9923V27.9575C48.3992 27.6933 48.1808 27.4668 47.9096 27.4668Z" fill="#FF9D15"/>
<path d="M40.8743 20.9062C40.6031 20.9062 40.3846 21.1252 40.3846 21.397V28.8262C40.3846 29.098 40.6031 29.317 40.8743 29.317C41.1455 29.317 41.3639 29.098 41.3639 28.8262V21.397C41.3715 21.1252 41.1455 20.9062 40.8743 20.9062Z" fill="#FF9D15"/>
<path d="M37.3637 35.1836C37.0925 35.1836 36.874 35.4026 36.874 35.6744V39.925C36.874 40.1968 37.0925 40.4158 37.3637 40.4158C37.6349 40.4158 37.8533 40.1968 37.8533 39.925V35.6744C37.8533 35.4101 37.6349 35.1836 37.3637 35.1836Z" fill="#FF9D15"/>
<path d="M47.9096 22.8926C47.6384 22.8926 47.4199 23.1115 47.4199 23.3833V25.1047C47.4199 25.3765 47.6384 25.5955 47.9096 25.5955C48.1808 25.5955 48.3992 25.3765 48.3992 25.1047V23.3833C48.3992 23.1115 48.1808 22.8926 47.9096 22.8926Z" fill="#FF9D15"/>
<path d="M40.8742 31.1816C40.603 31.1816 40.3845 31.4006 40.3845 31.6724V39.9925C40.3845 40.2643 40.603 40.4833 40.8742 40.4833C41.1454 40.4833 41.3638 40.2643 41.3638 39.9925V31.6724C41.3713 31.4081 41.1454 31.1816 40.8742 31.1816Z" fill="#FF9D15"/>
<path d="M37.3637 27.6113C37.0925 27.6113 36.874 27.8303 36.874 28.1021V32.8208C36.874 33.0926 37.0925 33.3116 37.3637 33.3116C37.6349 33.3116 37.8533 33.0926 37.8533 32.8208V28.1021C37.8533 27.8303 37.6349 27.6113 37.3637 27.6113Z" fill="#FF9D15"/>
<path d="M37.3637 14.5039C37.0925 14.5039 36.874 14.7229 36.874 14.9947V25.2853C36.874 25.5571 37.0925 25.7761 37.3637 25.7761C37.6349 25.7761 37.8533 25.5571 37.8533 25.2853V14.9947C37.8533 14.7229 37.6349 14.5039 37.3637 14.5039Z" fill="#FF9D15"/>
<path d="M47.9096 14.5039C47.6384 14.5039 47.4199 14.7229 47.4199 14.9947V20.5666C47.4199 20.8384 47.6384 21.0573 47.9096 21.0573C48.1808 21.0573 48.3992 20.8384 48.3992 20.5666V14.9947C48.3992 14.7229 48.1808 14.5039 47.9096 14.5039Z" fill="#FF9D15"/>
<path d="M105.785 11.2734L53.9359 13.1307L60.6327 17.7136L58.1468 20.8771H107.081L87.2542 21.9869L72.6176 27.5211L76.5875 37.4116L122.606 34.9503L117.484 31.2734L118.636 27.5211H73.4463L94.1845 26.6151L107.985 20.8771L105.785 11.2734Z" fill="#FF9D15"/>
<path d="M79.4503 28.9099C81.213 28.9099 81.552 29.612 81.552 30.4727C81.552 31.0692 81.0849 31.4844 80.4522 31.575C80.9719 31.6505 81.4465 32.1111 81.4465 32.6547C81.4465 32.9794 81.4917 33.1681 81.6273 33.1681C81.7403 33.1681 81.8006 33.0775 81.8006 32.9265V32.6774H82.3053V33.0926C82.3053 33.7268 82.0416 34.3082 81.1979 34.3082C80.2036 34.3082 79.729 33.7797 79.729 32.8963C79.729 32.2017 79.6461 32.0356 78.9682 32.0356V33.2134H79.4277V34.2176H76.9795V33.2134H77.4013V29.8989H76.9795V28.9023H79.4503V28.9099ZM78.9757 31.19H79.3147C79.7516 31.19 80.0454 30.9786 80.0454 30.5709C80.0454 30.1254 79.7968 29.8914 79.3524 29.8914H78.9757V31.19Z" fill="white"/>
<path d="M87.1487 28.9102V30.5938H85.8379V29.9143H84.6251V30.9638H86.0639V31.9755H84.6251V33.2137H85.8379V32.504H87.1487V34.2254H82.5762V33.2137H83.0508V29.9143H82.5762V28.9102H87.1487Z" fill="white"/>
<path d="M89.9209 28.9102V29.9143H89.5216V33.2137H90.5009V32.2473H91.774V34.2254H87.5254V33.2137H87.9397V29.9143H87.5254V28.9102H89.9209Z" fill="white"/>
<path d="M94.6666 28.9102V29.9143H94.1921V33.2137H94.6666V34.2254H92.1506V33.2137H92.6252V29.9143H92.1506V28.9102H94.6666Z" fill="white"/>
<path d="M97.9436 34.2176V33.221H98.6668L98.5086 32.7075H96.9568L96.7986 33.221H97.3937V34.2176H94.9832V33.221H95.4954L96.5199 29.8838H96.211V28.9023H99.1263L100.467 33.221H100.994V34.2176H97.9436ZM98.2223 31.794L97.7176 30.1556L97.228 31.794H98.2223Z" fill="white"/>
<path d="M101.288 33.2363H101.725V29.8917H101.288V28.9102H104.12C105.378 28.9102 105.981 29.3783 105.981 30.2088C105.981 30.8505 105.808 31.1601 105.235 31.3866C105.785 31.5376 106.237 31.9453 106.237 32.6776C106.237 33.7497 105.635 34.2178 104.173 34.2178H101.288V33.2363ZM103.299 31.0544H103.759C104.158 31.0544 104.271 30.8354 104.271 30.4655C104.271 30.1182 104.06 29.9068 103.766 29.9068H103.292V31.0544H103.299ZM103.902 33.2363C104.218 33.2363 104.52 32.9947 104.52 32.5795C104.52 32.1944 104.301 31.9075 103.879 31.9075H103.292V33.2288H103.902V33.2363Z" fill="white"/>
<path d="M108.889 28.9102V29.9143H108.49V33.2137H109.469V32.2473H110.742V34.2254H106.494V33.2137H106.908V29.9143H106.494V28.9102H108.889Z" fill="white"/>
<path d="M113.763 31.3032C113.793 31.1522 113.959 30.8351 114.042 30.6464L114.456 29.8763H114.042V28.9023H116.083V29.8763H115.676L114.275 32.3452V33.2285H114.697V34.2176H112.271V33.2285H112.701V32.33L111.232 29.8763H110.863V28.9023H113.454V29.8763H113.062L113.499 30.6841C113.544 30.8276 113.703 31.1673 113.733 31.3032H113.763Z" fill="white"/>
<path d="M64.7986 14.5039V15.4401H64.4069V17.0105C64.4069 18.1808 64.6705 18.4299 65.13 18.4299C65.5745 18.4299 65.8607 18.2563 65.8607 17.003V15.4628H65.469V14.5039H67.6159V15.4401H67.2242V17.2068C67.2242 18.9282 66.5086 19.7059 65.1451 19.7059C63.6762 19.6606 62.8927 18.8905 62.8927 17.2446V15.4477H62.486V14.5039H64.7986Z" fill="white"/>
<path d="M70.2602 14.5036C71.94 14.5036 72.2715 15.1756 72.2715 15.9986C72.2715 16.5648 71.8195 16.9649 71.2168 17.0555C71.7215 17.131 72.166 17.5614 72.166 18.0899C72.166 18.3994 72.2112 18.5807 72.3393 18.5807C72.4447 18.5807 72.505 18.4901 72.505 18.3466V18.105H72.9946V18.5052C72.9946 19.1092 72.7385 19.6679 71.9325 19.6679C70.9833 19.6679 70.5238 19.1696 70.5238 18.3164C70.5238 17.652 70.4409 17.4935 69.8006 17.4935V18.6184H70.2451V19.5773H67.9023V18.6184H68.3091V15.4474H67.9023V14.4961H70.2602V14.5036ZM69.8082 16.6856H70.1321C70.5539 16.6856 70.8251 16.4817 70.8251 16.0967C70.8251 15.6663 70.5841 15.4474 70.1622 15.4474H69.8006V16.6856H69.8082Z" fill="white"/>
<path d="M76.6176 19.1253C76.4594 19.3971 76.0074 19.6462 75.45 19.6462C74.1769 19.6462 73.175 18.6572 73.175 17.0868C73.175 15.5013 74.2673 14.4141 75.4048 14.4141C76.4594 14.4141 76.7005 14.9048 76.821 15.0256L76.9717 14.5047H78.0489V16.6489H76.7532C76.7306 16.06 76.354 15.7278 75.9246 15.7278C75.337 15.7278 74.9302 16.3695 74.9302 17.0943C74.9302 17.8342 75.2918 18.4307 75.9246 18.4307C76.3389 18.4307 76.5122 18.2646 76.6176 18.0758V17.7738H76.1732V16.9962H78.5837V17.7738H78.2975V19.5934H76.8436L76.6176 19.1253Z" fill="white"/>
<path d="M83.2468 14.5039V16.1121H81.9888V15.4628H80.8287V16.4669H82.2072V17.4333H80.8287V18.6187H81.9888V17.9392H83.2468V19.5851H78.8701V18.6187H79.3296V15.4628H78.8701V14.5039H83.2468Z" fill="white"/>
<path d="M88.6781 15.4401V19.5851H87.1188L85.2657 16.8142V18.6489H85.8231V19.5851H83.5934V18.6489H84.0227V15.4401H83.6009V14.5039H85.68L87.4578 17.1691V15.4401H86.9606V14.5039H89.1452V15.4401H88.6781Z" fill="white"/>
<path d="M94.3123 16.3914H93.2426V15.4628H92.6325V18.6187H93.2351V19.5851H90.5383V18.6187H91.1334V15.4628H90.5082V16.3914H89.4385V14.5039H94.3048V16.3914H94.3123Z" fill="white"/>
<path d="M96.8888 14.5039V15.4628H96.5046V18.6187H97.4387V17.6976H98.659V19.5851H94.5988V18.6187H94.998V15.4628H94.5988V14.5039H96.8888Z" fill="white"/>
<path d="M101.545 16.7916C101.575 16.6481 101.733 16.3386 101.816 16.1649L102.215 15.4326H101.816V14.5039H103.767V15.4326H103.375L102.034 17.7957V18.6413H102.441V19.5851H100.121V18.6413H100.535V17.7806L99.1265 15.4326H98.7725V14.5039H101.251V15.4326H100.874L101.296 16.2027C101.341 16.3386 101.492 16.6708 101.522 16.7916H101.545Z" fill="white"/>
</svg>
