<svg width="106" height="100" viewBox="0 0 106 100" fill="none" xmlns="http://www.w3.org/2000/svg">
<path d="M21.5101 28.1676L12.6239 21.4275C21.5323 8.48703 36.3132 0 53.0147 0C69.7161 0 84.4897 8.48703 93.4055 21.4275L84.5192 28.1676C77.6495 17.9712 66.104 11.2835 53.0221 11.2835C39.9253 11.2835 28.3798 17.9787 21.5101 28.1676ZM74.2516 18.661L72.3901 21.1951C78.5581 25.4761 83.2782 31.7514 85.6568 39.0988L88.8478 32.3812L94.9788 35.3801C93.7157 31.6614 91.9872 28.1676 89.8672 24.9663L84.5192 28.1826C81.86 24.239 78.0041 21.285 74.2516 18.661ZM11.0283 35.4401L17.2923 32.3812L20.4169 38.9639C22.8102 31.6764 27.5082 25.4536 33.6392 21.1951L31.7777 18.661C28.0179 21.285 24.1694 24.2315 21.5175 28.1676L16.1695 24.9513C14.0274 28.1826 12.2915 31.6989 11.0283 35.4401ZM89.8598 75.0412C92.0094 71.7949 93.7527 68.2561 95.0232 64.4849L88.8404 67.5064L85.6715 60.8337C83.293 68.2111 78.5655 74.5089 72.3827 78.8049L74.2442 81.339C78.0041 78.7149 81.8083 75.821 84.4601 71.8848H84.4675C77.5904 82.0438 66.0671 88.7164 53.0073 88.7164C40.5975 88.7164 29.5839 82.6961 22.6181 73.3843C25.1814 76.5557 28.5349 79.0748 31.7703 81.339L33.6318 78.8049C27.486 74.5389 22.7807 68.2861 20.3874 60.9687L17.2849 67.5064L10.9692 64.4249C12.2398 68.2186 13.9904 71.7799 16.1547 75.0412L21.4437 71.8174C21.451 71.8324 21.4584 71.8399 21.4658 71.8549L12.6091 78.5725C21.5175 91.513 36.2984 100 52.9999 100C69.7014 100 84.4749 91.513 93.3907 78.5725L84.9698 72.1922L89.8598 75.0412Z" fill="#BA8756"/>
<path d="M50.2816 42.4961L42.7545 34.9613C43.4119 32.4421 42.7619 29.6456 40.8192 27.6738C38.2486 25.0647 34.2671 24.7573 31.3641 26.7591L36.9337 29.8331C36.9337 29.8331 38.6105 30.7927 37.0372 34.0616C35.5377 37.188 33.4841 36.2733 33.4841 36.2733L28.0918 33.2968C28.1583 35.1412 28.8822 36.9706 30.2709 38.3801C32.6125 40.7567 36.1286 41.2216 38.9282 39.7746L48.6861 49.5437L30.8249 67.4324C29.643 68.632 29.643 70.5738 30.8249 71.7734C32.0068 72.973 33.92 72.973 35.1018 71.7734L50.2668 56.5837V42.4961H50.2816ZM34.7694 69.8915L34.0751 70.5888C33.4915 71.1811 32.546 71.1811 31.9698 70.5888C31.3863 69.9965 31.3863 69.0368 31.9698 68.452L32.6642 67.7548C33.2478 67.1625 34.1933 67.1625 34.7694 67.7548C35.353 68.3396 35.353 69.2992 34.7694 69.8915Z" fill="#BA8756"/>
<path d="M57.3137 49.5444L67.0716 39.7754C69.8712 41.2224 73.3873 40.765 75.7289 38.3808C77.1176 36.9713 77.8416 35.142 77.908 33.2976L72.5157 36.2741C72.5157 36.2741 70.4622 37.1963 68.9627 34.0624C67.3967 30.7935 69.0661 29.8338 69.0661 29.8338L74.6357 26.7599C71.7327 24.7656 67.7512 25.0655 65.1806 27.6746C63.2379 29.6464 62.5879 32.4429 63.2453 34.962L55.696 42.5269V56.562L70.8906 71.7742C72.0725 72.9737 73.9857 72.9737 75.1676 71.7742C76.3494 70.5746 76.3494 68.6328 75.1676 67.4332L57.3137 49.5444ZM74.0374 70.5896C73.4538 71.1819 72.5083 71.1819 71.9321 70.5896L71.2378 69.8923C70.6542 69.3 70.6542 68.3404 71.2378 67.7556C71.8213 67.1633 72.7669 67.1633 73.343 67.7556L74.0374 68.4528C74.6135 69.0451 74.6135 69.9973 74.0374 70.5896Z" fill="#BA8756"/>
<path d="M55.1276 15.4301C55.1276 14.2305 54.1673 13.2559 52.9854 13.2559C51.8036 13.2559 50.8433 14.2305 50.8433 15.4301V68.2116H55.1202V15.4301H55.1276ZM53.0371 66.2623C53.0371 66.6522 52.7269 66.9671 52.3428 66.9671C51.9587 66.9671 51.6484 66.6522 51.6484 66.2623V15.1077C51.6484 14.7178 51.9587 14.403 52.3428 14.403C52.7269 14.403 53.0371 14.7178 53.0371 15.1077V66.2623Z" fill="#BA8756"/>
<path d="M63.9473 82.5098H63.541H42.4296H42.1268C41.6171 82.5098 41.196 82.9296 41.196 83.4544C41.196 83.9793 41.6097 84.3991 42.1268 84.3991H63.9473C64.457 84.3991 64.878 83.9793 64.878 83.4544C64.878 82.9296 64.4643 82.5098 63.9473 82.5098ZM55.9991 83.8218H42.474C42.2302 83.8218 42.0307 83.6194 42.0307 83.372C42.0307 83.1246 42.2302 82.9221 42.474 82.9221H55.9991C56.2429 82.9221 56.4423 83.1246 56.4423 83.372C56.4423 83.6194 56.2429 83.8218 55.9991 83.8218Z" fill="#BA8756"/>
<path d="M63.5484 81.6167V79.9598C63.5484 75.1615 60.4386 71.1204 56.1543 69.7559H49.8164C45.5395 71.1279 42.4297 75.169 42.4297 79.9598V81.6167H63.5484ZM47.9993 72.0576C49.4693 71.5177 50.8654 71.6677 51.1239 72.3874C51.3824 73.1072 50.4 74.1268 48.93 74.6666C48.8266 74.7041 48.7306 74.7266 48.6346 74.7566C49.0999 74.7491 49.4619 74.8841 49.5727 75.154C49.7721 75.6413 49.1295 76.3685 48.1396 76.7884C47.1498 77.2008 46.1895 77.1483 45.9901 76.6609C45.7907 76.1736 46.4333 75.4464 47.4231 75.0265C47.4822 75.004 47.5413 74.9815 47.6004 74.959C46.6992 75.034 45.9901 74.8166 45.8128 74.3293C45.5469 73.617 46.5293 72.5974 47.9993 72.0576Z" fill="#BA8756"/>
<path d="M106 43.1543H91.2266H81.7642H76.5639L69.8271 49.9994L76.5639 56.837H81.7642H91.2266H106V43.1543Z" fill="#BA8756"/>
<path d="M36.173 49.9994L29.4362 43.1543H0V56.837H29.4362L36.173 49.9994Z" fill="#BA8756"/>
<path d="M80.8186 51.5746C81.2175 51.2297 81.5794 50.9073 81.9119 50.5999C82.2443 50.2925 82.5323 50.0076 82.7687 49.7452C83.0125 49.4828 83.1971 49.2504 83.3301 49.0555C83.4631 48.853 83.5295 48.6956 83.5295 48.5681C83.5295 48.3657 83.4852 48.2233 83.3966 48.1333C83.3079 48.0433 83.1824 47.9983 83.0051 47.9983C82.8352 47.9983 82.7022 48.0433 82.6136 48.1333C82.5249 48.2233 82.4806 48.3732 82.4806 48.5681V48.958H80.9516V47.1137C81.0845 47.0462 81.2323 46.9862 81.3874 46.9337C81.5425 46.8812 81.7346 46.8288 81.9488 46.7763C82.163 46.7238 82.392 46.6863 82.6357 46.6563C82.8795 46.6263 83.1233 46.6113 83.3744 46.6113C84.0983 46.6113 84.6376 46.7613 84.9995 47.0612C85.3541 47.3611 85.5314 47.7959 85.5314 48.3807C85.5314 48.6956 85.4575 48.9955 85.3171 49.2879C85.1694 49.5728 84.9847 49.8502 84.7631 50.1126C84.5415 50.375 84.2904 50.6224 84.0245 50.8473C83.7585 51.0798 83.5 51.2972 83.2562 51.4996H84.187V51.0498H85.6791V52.7742H80.8186V51.5746Z" fill="white"/>
<path d="M91.1896 49.7374C91.1896 50.3072 91.1231 50.787 90.9975 51.1844C90.8719 51.5818 90.6873 51.9042 90.4583 52.1516C90.2293 52.399 89.9412 52.5789 89.6162 52.6914C89.2838 52.8038 88.9144 52.8638 88.5008 52.8638C88.0871 52.8638 87.7178 52.8038 87.3854 52.6914C87.053 52.5789 86.7723 52.399 86.5433 52.1516C86.3143 51.9042 86.1296 51.5818 86.0041 51.1844C85.8785 50.787 85.812 50.3072 85.812 49.7374C85.812 49.1751 85.8785 48.6953 86.0041 48.2904C86.1296 47.8931 86.3143 47.5707 86.5433 47.3233C86.7723 47.0758 87.0604 46.8959 87.3854 46.776C87.7178 46.6635 88.0871 46.6035 88.5008 46.6035C88.9144 46.6035 89.2838 46.6635 89.6162 46.776C89.9486 46.8884 90.2293 47.0684 90.4583 47.3233C90.6873 47.5707 90.8719 47.8931 90.9975 48.2904C91.1231 48.6953 91.1896 49.1751 91.1896 49.7374ZM88.4934 51.4843C88.6633 51.4843 88.7962 51.4393 88.8849 51.3494C88.9735 51.2594 89.0179 51.1094 89.0179 50.907V48.5678C89.0179 48.3654 88.9735 48.2229 88.8849 48.133C88.7962 48.043 88.6707 47.998 88.4934 47.998C88.3161 47.998 88.1905 48.043 88.1019 48.133C88.0132 48.2229 87.9689 48.3729 87.9689 48.5678V50.9145C87.9689 51.1169 88.0132 51.2594 88.1019 51.3568C88.1905 51.4393 88.3235 51.4843 88.4934 51.4843Z" fill="white"/>
<path d="M91.4038 47.1142L93.1028 46.7168H94.5801V51.4851H95.2228V52.7597H91.6328V51.4851H92.3641V47.9914H91.4038V47.1142Z" fill="white"/>
<path d="M100.209 48.2458C100.032 48.1858 99.81 48.1333 99.5515 48.0733C99.293 48.0133 99.0049 47.9908 98.702 47.9908C98.3327 47.9908 98.0668 48.0883 97.9043 48.2907C97.7417 48.4932 97.6531 48.7481 97.6531 49.0555V49.2804C97.8082 49.2204 97.9855 49.1754 98.185 49.1304C98.3844 49.0855 98.5838 49.063 98.7759 49.063C99.0049 49.063 99.2265 49.093 99.4481 49.1379C99.6623 49.1904 99.8544 49.2804 100.024 49.4154C100.194 49.5503 100.327 49.7227 100.431 49.9477C100.534 50.1726 100.586 50.45 100.586 50.7949C100.586 51.5146 100.379 52.0394 99.9578 52.3693C99.5367 52.6992 98.9458 52.8641 98.1776 52.8641C97.7639 52.8641 97.3946 52.8117 97.0622 52.6992C96.7297 52.5867 96.4491 52.4218 96.2201 52.2044C95.9911 51.9794 95.8064 51.702 95.6808 51.3647C95.5553 51.0273 95.4888 50.6224 95.4888 50.1651C95.4888 49.5278 95.5553 48.9805 95.703 48.5307C95.8433 48.0808 96.0428 47.7134 96.2939 47.4285C96.5451 47.1436 96.8553 46.9337 97.2025 46.8063C97.5571 46.6713 97.9412 46.6113 98.3696 46.6113C98.5912 46.6113 98.7907 46.6263 98.9753 46.6488C99.16 46.6713 99.3299 46.7013 99.4776 46.7388C99.6328 46.7763 99.7657 46.8213 99.8839 46.8662C100.002 46.9112 100.113 46.9562 100.209 47.0012V48.2458ZM98.1554 50.285C98.0963 50.285 98.0224 50.2925 97.9338 50.3075C97.8451 50.3225 97.7565 50.345 97.6605 50.3825V50.9073C97.6605 51.1098 97.7048 51.2522 97.7935 51.3497C97.8821 51.4396 98.0077 51.4846 98.185 51.4846C98.3549 51.4846 98.4878 51.4396 98.5765 51.3497C98.6651 51.2597 98.7094 51.1098 98.7094 50.9073C98.6946 50.495 98.5174 50.285 98.1554 50.285Z" fill="white"/>
<path d="M6.21216 47.1142L7.91112 46.7168H9.38847V51.4851H10.0311V52.7597H6.44115V51.4851H7.17244V47.9914H6.21216V47.1142Z" fill="white"/>
<path d="M10.5629 51.23C10.7623 51.2975 10.9987 51.3575 11.2794 51.41C11.5601 51.4624 11.8703 51.4849 12.2249 51.4849C12.5351 51.4849 12.7715 51.395 12.9266 51.2075C13.0818 51.0201 13.163 50.7577 13.163 50.4203V50.2554C13.0227 50.3078 12.8675 50.3528 12.6829 50.4053C12.4982 50.4503 12.284 50.4728 12.0402 50.4728C11.8112 50.4728 11.5896 50.4503 11.368 50.3978C11.1538 50.3453 10.9618 50.2554 10.7919 50.1204C10.622 49.9855 10.489 49.813 10.3856 49.5881C10.2822 49.3632 10.2305 49.0783 10.2305 48.7259C10.2305 47.9912 10.4373 47.4513 10.851 47.1215C11.2646 46.7841 11.8629 46.6191 12.6385 46.6191C13.0596 46.6191 13.4437 46.6716 13.7761 46.7841C14.1085 46.889 14.3892 47.0615 14.6182 47.2789C14.8472 47.5038 15.0245 47.7812 15.1427 48.1186C15.2682 48.456 15.3273 48.8609 15.3273 49.3182C15.3273 49.978 15.2609 50.5328 15.1353 50.9826C15.0023 51.4325 14.8176 51.7998 14.5665 52.0847C14.3153 52.3621 14.0125 52.5646 13.6579 52.692C13.3034 52.8195 12.8971 52.8794 12.4465 52.8794C12.0107 52.8794 11.6413 52.8345 11.3385 52.752C11.0356 52.6695 10.7771 52.5796 10.5629 52.4896V51.23ZM12.6607 49.2582C12.7567 49.2582 12.8454 49.2507 12.934 49.2282C13.0153 49.2057 13.0965 49.1832 13.163 49.1608V48.5685C13.163 48.366 13.1187 48.2236 13.03 48.1336C12.9414 48.0436 12.8158 47.9987 12.6385 47.9987C12.4613 47.9987 12.3357 48.0436 12.2471 48.1411C12.1584 48.2386 12.1141 48.4035 12.1141 48.6509C12.1141 49.0558 12.2988 49.2582 12.6607 49.2582Z" fill="white"/>
<path d="M15.9479 46.7168H20.018V48.2238H17.4769L17.4105 49.0335C17.5434 48.9585 17.7059 48.891 17.9054 48.8461C18.1048 48.8011 18.2821 48.7711 18.452 48.7711C18.7474 48.7711 19.0134 48.8161 19.2497 48.9135C19.4861 49.011 19.6782 49.1385 19.8407 49.3034C19.9958 49.4683 20.1214 49.6708 20.2026 49.9107C20.2839 50.1431 20.3282 50.4055 20.3282 50.6904C20.3282 51.4102 20.1214 51.965 19.7003 52.3623C19.2793 52.7597 18.6884 52.9546 17.9275 52.9546C17.6468 52.9546 17.3957 52.9396 17.1667 52.9021C16.9377 52.8721 16.7309 52.8272 16.5536 52.7672C16.3689 52.7147 16.2064 52.6547 16.0661 52.5872C15.9257 52.5198 15.8001 52.4523 15.6967 52.3923V50.8329H17.4695C17.4695 51.0128 17.4991 51.1552 17.5508 51.2527C17.6025 51.3502 17.7133 51.4027 17.8832 51.4027C18.0309 51.4027 18.1344 51.3502 18.1934 51.2377C18.2525 51.1328 18.2821 50.9528 18.2821 50.7054C18.2821 50.443 18.2525 50.2556 18.1934 50.1356C18.1344 50.0156 18.0236 49.9557 17.8684 49.9557C17.7133 49.9557 17.6099 50.0006 17.5582 50.0981C17.4991 50.1956 17.4769 50.3005 17.4769 50.413H16.0217L15.6746 49.8807L15.9479 46.7168Z" fill="white"/>
<path d="M21.4954 46.7168H23.3125L22.3744 49.7832H23.0614V48.7186H25.041V49.7832H25.6541V50.9603H25.041V51.3877H25.5064V52.7522H22.0863V51.3877H23.0614V50.9678H20.572V49.6408L21.4954 46.7168Z" fill="white"/>
<path d="M27.8703 18.1588L24.8417 20.8129L23.8593 19.6583L24.2729 19.2909L21.5768 16.1195L21.1631 16.4869L20.1807 15.3323L23.2979 12.6032C23.5786 12.3558 23.8593 12.1609 24.14 12.0185C24.4207 11.876 24.694 11.801 24.9599 11.7935C25.2258 11.786 25.4991 11.8535 25.7651 11.9885C26.031 12.1234 26.2895 12.3408 26.548 12.6482C26.8066 12.9556 26.9839 13.248 27.0725 13.5329C27.1611 13.8178 27.1907 14.0952 27.139 14.3651C27.0947 14.635 26.9839 14.8974 26.7992 15.1599C26.6219 15.4223 26.3855 15.6697 26.1048 15.9171L25.344 16.5769L26.2083 17.589L26.8731 17.0042L27.8703 18.1588ZM24.7383 15.3623C24.8713 15.2498 24.9377 15.1299 24.9451 14.9949C24.9525 14.86 24.8934 14.7175 24.7531 14.5601L24.5388 14.3052C24.4059 14.1477 24.2729 14.0577 24.1474 14.0502C24.0218 14.0352 23.8888 14.0877 23.7559 14.2077L23.5195 14.4176L24.5019 15.5722L24.7383 15.3623Z" fill="white"/>
<path d="M27.0134 9.67827L30.4335 7.64648L31.1943 8.96602L30.463 9.40087L32.5535 13.0146L33.2626 12.5873L32.8342 11.845L34.4076 10.9078L35.5968 12.9621L30.6182 15.9236L29.8573 14.604L30.3301 14.3191L28.2396 10.7054L27.7669 10.9903L27.0134 9.67827Z" fill="white"/>
<path d="M41.7058 7.83575C41.8757 8.30808 41.9496 8.73543 41.9348 9.10281C41.92 9.47767 41.824 9.80756 41.6615 10.1C41.4916 10.3924 41.2552 10.6473 40.9376 10.8647C40.6273 11.0821 40.258 11.262 39.8443 11.4195C39.4159 11.5769 39.0096 11.6744 38.6255 11.7119C38.2414 11.7494 37.8942 11.7119 37.5766 11.5919C37.259 11.4795 36.9783 11.2845 36.7271 11.0071C36.476 10.7297 36.2691 10.3549 36.0992 9.88253L35.0651 6.94356L34.548 7.131L34.0383 5.6915L37.3181 4.49942L37.8277 5.93891L37.4806 6.06637L38.6772 9.44768C38.7437 9.64262 38.8397 9.77757 38.9579 9.83005C39.0687 9.89003 39.2164 9.88253 39.379 9.82255C39.5488 9.76257 39.6523 9.67261 39.7114 9.55265C39.7631 9.43269 39.7557 9.27525 39.6818 9.08031L38.4852 5.699L38.138 5.82645L37.6283 4.38696L40.679 3.27734L41.1887 4.71684L40.6716 4.90428L41.7058 7.83575Z" fill="white"/>
<path d="M43.1462 2.49658L47.5118 2.06174L48.8636 5.13566L49.5579 1.85931L53.7684 1.43945L53.9161 2.96142L53.3695 3.0139L53.7758 7.18244L54.3224 7.12996L54.4701 8.65193L50.8211 9.0193L50.6733 7.49733L51.22 7.44485L50.8654 3.78613L49.5505 9.14676L48.5681 9.24422L45.9828 4.24347L46.3373 7.92468L46.8839 7.8722L47.0317 9.39417L43.8332 9.70906L43.6855 8.18709L44.2321 8.13461L43.8332 3.96607L43.2866 4.01855L43.1462 2.49658Z" fill="white"/>
<path d="M56.4127 1.74023L60.6675 2.37001C61.4136 2.48247 61.975 2.72239 62.3591 3.08976C62.7432 3.46463 62.8909 3.94446 62.8097 4.53676C62.7653 4.82915 62.6767 5.07657 62.5364 5.2715C62.396 5.46643 62.2409 5.61638 62.0636 5.72884C61.8863 5.8413 61.7091 5.92377 61.5244 5.96875C61.3397 6.01374 61.1846 6.04373 61.0516 6.05123L61.0369 6.14119C61.1698 6.17118 61.3249 6.22367 61.517 6.29864C61.7017 6.37361 61.8789 6.48607 62.0341 6.62852C62.1892 6.77097 62.3148 6.96591 62.4108 7.19083C62.5068 7.42325 62.529 7.70815 62.4773 8.05303C62.4255 8.39791 62.3148 8.67531 62.1449 8.89273C61.975 9.11016 61.7534 9.2751 61.5022 9.38756C61.2437 9.50002 60.9556 9.56749 60.638 9.58249C60.3203 9.59748 59.9879 9.58249 59.6407 9.53001L55.386 8.90023L55.6002 7.38576L56.1468 7.46823L56.7451 3.32218L56.1985 3.23971L56.4127 1.74023ZM59.2419 7.94056C59.4192 7.97055 59.5521 7.94056 59.6555 7.85809C59.7589 7.77562 59.8254 7.63317 59.855 7.42325L59.9141 7.01839C59.9436 6.80846 59.9214 6.65102 59.8476 6.54605C59.7737 6.44109 59.6481 6.37361 59.4709 6.35112L58.9169 6.26865L58.6879 7.8506L59.2419 7.94056ZM59.5521 5.29399C59.7294 5.31648 59.8623 5.29399 59.9658 5.21152C60.0692 5.12905 60.1357 4.9866 60.1652 4.77667L60.2095 4.44679C60.2391 4.23686 60.2169 4.07942 60.1431 3.97445C60.0692 3.86949 59.9436 3.80201 59.7663 3.77952L59.2788 3.70455L59.0646 5.21152L59.5521 5.29399Z" fill="white"/>
<path d="M65.3284 3.38086L68.8298 4.49797L68.3792 5.95246L67.8547 5.78752L66.6137 9.78362L67.1382 9.94856L66.6876 11.403L63.1863 10.2859L63.6369 8.83145L64.1613 8.99639L65.4023 5.00029L64.8778 4.83535L65.3284 3.38086Z" fill="white"/>
<path d="M75.6257 7.66132L78.4696 9.17579L77.7679 10.5253L77.2803 10.2629L74.6654 15.3236L72.3829 14.1091L71.9249 9.12331L70.6987 11.4925L71.1863 11.7549L70.4845 13.1044L67.6406 11.5899L68.3424 10.2404L68.8299 10.5028L70.7504 6.79162L70.2629 6.52921L70.9647 5.17969L73.9785 6.78413L74.3995 11.2376L75.4189 9.27325L74.9314 9.01085L75.6257 7.66132Z" fill="white"/>
<path d="M80.9885 15.7361L83.4705 17.8579L82.5914 18.915L82.2369 18.6151L81.055 20.0396C80.8999 20.0021 80.7374 19.9497 80.5453 19.8822C80.3606 19.8147 80.1538 19.7247 79.9322 19.6048C79.7106 19.4923 79.4742 19.3499 79.2231 19.1774C78.9719 19.0125 78.706 18.8026 78.4253 18.5626C78.0043 18.2028 77.6718 17.8279 77.4207 17.438C77.1695 17.0482 77.0218 16.6358 76.9775 16.2085C76.9332 15.7811 76.9923 15.3313 77.1695 14.8589C77.3468 14.3866 77.6497 13.8918 78.0855 13.367C78.5139 12.8496 78.9424 12.4598 79.3708 12.2049C79.7992 11.95 80.2277 11.8075 80.6487 11.7775C81.0697 11.7475 81.4982 11.83 81.9192 12.0099C82.3403 12.1899 82.7613 12.4598 83.1824 12.8197C83.4704 13.0671 83.7142 13.2995 83.921 13.5244C84.1279 13.7493 84.3051 13.9668 84.4529 14.1692C84.6006 14.3716 84.7262 14.559 84.8222 14.739C84.9182 14.9189 84.9995 15.0764 85.066 15.2188L83.6551 16.9207L81.9045 15.4212L82.1852 15.0839C82.3551 14.8814 82.4363 14.7015 82.4215 14.5441C82.4141 14.3866 82.3181 14.2367 82.1408 14.0792C81.9636 13.9293 81.801 13.8618 81.6459 13.8768C81.4908 13.8918 81.3283 14.0042 81.1658 14.2067L79.4373 16.2834C79.2674 16.4859 79.1861 16.6658 79.2009 16.8233C79.2083 16.9807 79.3043 17.1306 79.4816 17.2881C79.6589 17.438 79.8214 17.5055 79.9765 17.4905C80.1316 17.4755 80.2868 17.3631 80.4567 17.1606L80.501 17.1082L80.1242 16.7858L80.9885 15.7361Z" fill="white"/>
<path d="M31.5193 92.8392L32.6125 87.0813L32.2727 86.9313L32.8784 85.5293L36.2173 87.0138L35.6116 88.4158L35.0649 88.1759L34.0973 91.5572L34.1785 91.5947L37.1258 87.4261L39.5487 88.4983L38.4702 93.499L38.5515 93.5365L40.3391 90.5226L39.7925 90.2826L40.3982 88.8806L43.3159 90.1777L42.7102 91.5797L42.3704 91.4297L39.0316 96.1831L36.0991 94.8785L36.8525 91.0249L36.7713 90.9874L34.4518 94.1438L31.5193 92.8392Z" fill="white"/>
<path d="M50.1265 94.6765C50.0231 95.3512 49.8532 95.9135 49.6168 96.3559C49.3804 96.7982 49.0923 97.1431 48.7452 97.3905C48.398 97.6379 48.0065 97.7954 47.5559 97.8629C47.1053 97.9303 46.6178 97.9228 46.0933 97.8404C45.5689 97.7579 45.1035 97.6154 44.6898 97.413C44.2836 97.2106 43.9512 96.9407 43.7 96.5958C43.4489 96.2509 43.2716 95.8386 43.1829 95.3437C43.0943 94.8489 43.1017 94.2641 43.2051 93.5894C43.3085 92.9221 43.4784 92.3673 43.7148 91.9174C43.9512 91.4751 44.2393 91.1227 44.5864 90.8753C44.9336 90.6279 45.3251 90.4704 45.7757 90.403C46.2263 90.3355 46.7138 90.343 47.2383 90.4255C47.7627 90.5079 48.2281 90.6504 48.6418 90.8528C49.048 91.0552 49.3804 91.3251 49.6316 91.67C49.8827 92.0149 50.06 92.4348 50.1487 92.9296C50.2373 93.4244 50.2299 94.0017 50.1265 94.6765ZM46.3445 96.1909C46.5513 96.2209 46.7138 96.1909 46.832 96.101C46.9502 96.011 47.0314 95.8461 47.0684 95.6061L47.4968 92.8246C47.5337 92.5847 47.5116 92.4048 47.4229 92.2773C47.3343 92.1574 47.194 92.0749 46.9871 92.0449C46.7803 92.0149 46.6178 92.0449 46.4996 92.1349C46.3814 92.2248 46.3002 92.3898 46.2632 92.6297L45.8348 95.4112C45.7979 95.6511 45.82 95.8311 45.9087 95.9585C45.9973 96.086 46.1377 96.161 46.3445 96.1909Z" fill="white"/>
<path d="M54.7506 96.685L55.3563 96.655L55.4302 98.1769L51.7073 98.3569L51.6334 96.8349L52.18 96.8049L51.9806 92.6214L51.434 92.6514L51.3601 91.1294L55.6592 90.9195C56.0285 90.9045 56.3683 90.9195 56.6786 90.9795C56.9814 91.0394 57.2474 91.1444 57.4616 91.3018C57.6758 91.4593 57.8457 91.6617 57.9713 91.9241C58.0968 92.1865 58.1707 92.5089 58.1855 92.8913C58.2076 93.3036 58.1412 93.6635 57.9934 93.9709C57.8457 94.2858 57.6167 94.5107 57.3138 94.6457L57.3286 94.7356C57.9195 94.8031 58.2298 95.148 58.2593 95.7928L58.2963 96.5125L58.7247 96.49L58.7986 98.012L55.8956 98.1544L55.7922 95.9727C55.7848 95.7853 55.7552 95.6353 55.7109 95.5229C55.6666 95.4104 55.6001 95.3279 55.5041 95.2754C55.4155 95.223 55.2972 95.1855 55.1643 95.1705C55.0313 95.1555 54.8688 95.1555 54.6768 95.163L54.7506 96.685ZM55.12 94.0009C55.2972 93.9934 55.4302 93.9409 55.5115 93.8435C55.5927 93.746 55.6296 93.5885 55.6223 93.3786L55.6075 93.0412C55.6001 92.8313 55.5484 92.6814 55.4524 92.5914C55.3564 92.5014 55.2234 92.4639 55.0461 92.4714L54.5512 92.4939L54.6251 94.0159L55.12 94.0009Z" fill="white"/>
<path d="M66.0672 90.3944L65.1438 92.5837L67.249 94.4055L67.6036 94.3081L67.9877 95.7851L65.3432 96.4898L63.3045 94.398L63.9472 96.8647L60.9333 97.6744L60.5492 96.1974L61.0811 96.055L60.0322 92.0064L59.5003 92.1488L59.1162 90.6718L62.13 89.8621L62.7579 92.2838L63.7551 89.4273L66.045 88.8125L66.4291 90.2895L66.0672 90.3944Z" fill="white"/>
<path d="M71.5555 92.3144C71.7402 92.2244 71.851 92.1344 71.9027 92.037C71.9544 91.9395 71.9544 91.842 71.8953 91.7296C71.8583 91.6546 71.7919 91.6021 71.7032 91.5721C71.6146 91.5422 71.4521 91.5422 71.2231 91.5571C70.743 91.6021 70.3145 91.6321 69.9378 91.6396C69.5684 91.6471 69.2361 91.6171 68.9554 91.5421C68.6747 91.4672 68.4235 91.3397 68.2167 91.1598C68.0025 90.9799 67.8252 90.7249 67.6627 90.3951C67.5149 90.0802 67.4263 89.7803 67.4041 89.4804C67.382 89.188 67.4337 88.8956 67.5666 88.6107C67.6996 88.3258 67.9212 88.0484 68.2388 87.7785C68.5565 87.5086 68.9775 87.2462 69.502 86.9837C69.9821 86.7438 70.4549 86.5714 70.9276 86.4589C71.4004 86.3465 71.814 86.3015 72.1686 86.324L72.8851 87.8235L71.1566 88.6782C71.0753 88.5132 70.9793 88.4307 70.8685 88.4157C70.7503 88.4008 70.6322 88.4232 70.5066 88.4907C70.3219 88.5807 70.2037 88.6707 70.152 88.7531C70.0929 88.8431 70.0929 88.9406 70.152 89.0605C70.1963 89.158 70.2702 89.203 70.381 89.203C70.4844 89.203 70.6395 89.1955 70.839 89.1655C71.2083 89.113 71.5629 89.0755 71.9027 89.053C72.2425 89.0305 72.5601 89.053 72.8556 89.1205C73.151 89.188 73.4243 89.3154 73.6607 89.4954C73.9045 89.6828 74.1113 89.9527 74.2812 90.3051C74.6284 91.0323 74.6579 91.6846 74.3698 92.2694C74.0818 92.8542 73.4908 93.364 72.597 93.8064C72.0947 94.0538 71.585 94.2562 71.0754 94.3986C70.5657 94.5411 70.1372 94.6161 69.7974 94.6386L68.9997 92.9816L70.8168 92.082C70.8981 92.2469 70.9867 92.3594 71.0975 92.4044C71.1862 92.4418 71.3413 92.4193 71.5555 92.3144Z" fill="white"/>
</svg>
