<svg width="50" height="40" viewBox="0 0 50 40" fill="none" xmlns="http://www.w3.org/2000/svg">
<path d="M27.5886 0.0252914C27.4323 0.0448227 26.8851 0.113171 26.3869 0.171757C22.2737 0.650204 17.7306 2.41753 14.1547 4.9367C13.3438 5.50302 11.4582 7.01647 10.657 7.73903L10.0415 8.29559L9.63118 8.06124L9.22084 7.8269H5.41051C1.1996 7.8269 1.33638 7.80737 0.681789 8.47134C-0.00211626 9.15484 0.0369641 8.57875 0.00765384 16.9564C-0.0118863 23.684 -0.00211624 24.5725 0.134665 24.9338C0.339837 25.4708 0.603629 25.7931 1.1019 26.1153L1.50248 26.3789L5.21511 26.4082C7.59901 26.4277 9.05475 26.4082 9.26969 26.3399C9.72888 26.2032 10.3737 25.6466 10.5789 25.2072L10.745 24.8655H12.6208L14.4967 24.8752L14.8289 25.6075L15.161 26.3399L15.0047 26.8574C14.7605 27.619 14.7898 27.8143 15.2294 28.3708L15.6202 28.859L12.7283 28.8883L9.83635 28.9176L9.5921 29.2008C9.32831 29.5035 9.34785 29.8452 9.63118 30.1577C9.77773 30.3139 10.0513 30.3334 12.6111 30.3334H15.4346L16.0697 30.9388C16.6852 31.5344 16.695 31.554 16.695 32.0617C16.695 32.8233 16.8122 33.0186 17.4668 33.3799C18.0335 33.6826 18.0628 33.7216 18.1702 34.2098C18.3656 35.0398 18.5415 35.2644 19.2645 35.4987C19.8898 35.7135 19.9093 35.7233 20.1145 36.2505C20.388 36.9243 20.6616 37.1391 21.3553 37.227C21.9219 37.2953 21.9708 37.3246 22.5863 38.0764L22.9576 38.5354H23.7001H24.4426L24.9604 39.0236C25.5173 39.5508 25.615 39.5704 26.465 39.3946C27.0122 39.2872 27.0219 39.2872 27.5984 39.6387C27.9208 39.8438 28.2725 40 28.38 40C28.4972 40 28.8392 39.8926 29.1323 39.7559L29.6794 39.5216L30.2656 39.7559C31.0472 40.0781 31.2035 40.0683 31.8386 39.6387C32.3662 39.2872 32.3662 39.2872 32.9133 39.3946C33.7535 39.5704 33.8512 39.5508 34.4276 39.0236L34.965 38.5354H35.688C36.3328 38.5354 36.4305 38.5061 36.665 38.2815C36.8018 38.135 37.007 37.8714 37.1242 37.6956C37.3294 37.3539 37.4075 37.3148 38.111 37.2172C38.7069 37.1391 38.9903 36.9047 39.2736 36.2505C39.4983 35.7233 39.5276 35.7037 40.1041 35.5085C40.8466 35.2546 40.9834 35.1081 41.1983 34.327C41.3546 33.7509 41.3937 33.7021 41.8724 33.4189C42.1558 33.2529 42.4293 33.0674 42.488 33.0088C42.5564 32.9502 42.6443 32.5694 42.6931 32.1789C42.7811 31.4661 42.7908 31.4563 43.377 30.8997L43.9632 30.3334H46.7868H49.6104L49.8058 30.0796C50.1575 29.6304 50.0207 29.1715 49.4833 28.9664C49.3368 28.9176 48.8678 28.8688 48.4379 28.8688H47.6661V26.4766C47.6661 24.9143 47.627 24.0062 47.5586 23.85C47.3925 23.4887 46.9724 23.352 46.6109 23.5375C46.4546 23.6156 46.2983 23.7621 46.2592 23.8402C46.2299 23.9281 46.2006 25.0998 46.2006 26.4375V28.8688H45.0282C44.3834 28.8688 43.8558 28.8493 43.8558 28.82C43.8558 28.7907 44.0121 28.5759 44.1977 28.322C44.5885 27.8143 44.6178 27.5311 44.3834 26.7695L44.227 26.2715L44.5299 25.7052C44.696 25.383 44.8328 25.051 44.8328 24.9436C44.8328 24.8459 44.696 24.4944 44.5299 24.1722L44.2368 23.5863L44.3931 23.0493C44.5397 22.5318 44.5494 22.5221 44.9109 22.5221C45.3604 22.5221 45.673 22.317 45.7414 21.9753C45.8391 21.4382 45.1063 19.1534 44.3247 17.6009C41.9311 12.8067 37.2121 9.41847 32.034 8.7545C31.5259 8.69592 31.0472 8.60804 30.969 8.56898C30.8127 8.49087 29.953 6.2451 30.0311 6.1084C30.0702 6.05958 30.1874 6.02052 30.3047 6.02052C30.9202 6.01076 32.0535 5.1808 32.4248 4.45825C32.6886 3.95051 32.8058 3.13031 32.7179 2.54446C32.5616 1.55827 31.9167 0.699024 30.9984 0.24987C30.5685 0.0448227 30.3828 0.0155296 29.2007 0.00576401C28.4777 -0.00400162 27.7547 0.00576401 27.5886 0.0252914ZM30.3144 1.56804C31.3208 1.9879 31.6041 3.22795 30.8909 4.07744C30.5392 4.4973 30.1093 4.65353 29.3472 4.65353C28.761 4.65353 28.6731 4.68282 28.4093 4.94646C28.0576 5.2882 28.0576 5.25891 28.761 7.14341L29.269 8.5104L28.6731 8.57875C28.3409 8.62757 27.6179 8.72521 27.0708 8.81309C26.5139 8.8912 26.0351 8.94002 26.0058 8.92049C25.9863 8.8912 25.703 8.17841 25.3806 7.32893C25.0581 6.47944 24.726 5.70807 24.638 5.61042C24.4231 5.37608 24.0811 5.38585 23.1432 5.68854C19.0398 6.97742 14.7312 9.92621 11.4386 13.6854L10.8329 14.3689V11.9767V9.5747L11.6341 8.84238C15.4151 5.40538 19.6064 3.11079 24.0616 2.06601C26.3771 1.51922 29.5915 1.26535 30.3144 1.56804ZM23.9834 7.79761C24.1202 8.18818 24.3058 8.65686 24.3742 8.84238C24.4524 9.01814 24.511 9.22319 24.511 9.29153C24.511 9.35988 24.2375 9.51611 23.9053 9.63328C22.9087 9.99456 21.111 10.9612 20.134 11.6545C18.4829 12.8359 16.6363 14.8571 15.6105 16.5854L15.2783 17.1517H13.0605H10.8329V16.9076C10.8329 16.7807 10.8915 16.6342 10.9599 16.5952C11.0283 16.5561 11.3507 16.1655 11.6829 15.7359C12.445 14.7204 14.1743 12.8848 15.2881 11.9083C16.2553 11.0589 17.8478 9.87739 18.8932 9.24271C20.1536 8.47134 23.0846 7.13364 23.6024 7.10435C23.661 7.09459 23.8369 7.41681 23.9834 7.79761ZM6.26051 10.2289C6.28982 11.1272 6.30936 11.2346 6.5243 11.4006C6.83694 11.6545 7.17889 11.6349 7.46222 11.342C7.68694 11.1272 7.70648 11.0296 7.70648 10.1703V9.24271H8.20475C8.7128 9.24271 9.03521 9.35988 9.24038 9.62352C9.33808 9.74069 9.35762 11.508 9.36739 17.1322V24.4847L9.12314 24.719C8.92774 24.924 8.79096 24.9631 8.29268 24.9631H7.70648V18.9581V12.9434L7.46222 12.709C7.17889 12.4161 6.83694 12.3966 6.5243 12.6504L6.28982 12.8359L6.26051 18.8995L6.24096 24.9631H4.11109C1.89328 24.9533 1.79558 24.9436 1.57087 24.5042C1.48294 24.348 1.45363 22.3658 1.45363 17.0541V9.80904L1.73696 9.52588L2.02029 9.24271H4.12086H6.22143L6.26051 10.2289ZM31.5455 10.1606C34.6328 10.5804 37.2317 11.7521 39.6156 13.8124C40.8954 14.9157 42.2632 16.7026 43.0546 18.2746C43.3966 18.9679 44.0512 20.6864 44.0512 20.911C44.0512 21.0379 43.7385 21.0574 41.5696 21.0574H39.088L38.6776 20.2958C37.896 18.8507 36.5868 17.3568 35.473 16.6538L35.0236 16.3706H29.6892H24.3449L23.8662 16.683C22.7036 17.4544 21.0329 19.4463 20.5541 20.6473L20.388 21.0574H17.8576C16.3823 21.0574 15.3271 21.0184 15.3271 20.9695C15.3271 20.6961 16.011 19.0069 16.5093 18.0305C19.3426 12.5528 25.4489 9.35012 31.5455 10.1606ZM35.2581 18.3332C36.1179 19.046 36.9483 20.1396 37.5248 21.3113C37.7983 21.8776 38.1012 22.3756 38.1989 22.4244C38.2966 22.483 39.3811 22.5221 40.6903 22.5221C42.8397 22.5221 42.996 22.5318 42.9472 22.688C42.6345 23.7816 42.6345 23.7035 42.9667 24.348L43.2696 24.9631L42.9667 25.5392L42.6541 26.125L42.8299 26.8085L43.0058 27.4823L42.6931 27.8728C42.527 28.0877 42.3414 28.4001 42.2828 28.5661L42.1753 28.8688H29.6794C17.4472 28.8688 17.1835 28.8688 17.1835 28.6833C17.1835 28.5759 16.9978 28.2634 16.7731 27.9802L16.3725 27.4725L16.4995 27.0234C16.734 26.1836 16.734 26.0762 16.4214 25.5001L16.1185 24.9436L16.4214 24.3675C16.7243 23.8012 16.7243 23.7719 16.5973 23.2739C16.5289 22.9907 16.4507 22.7076 16.4312 22.6392C16.3921 22.5513 16.9001 22.5221 18.7662 22.5221C21.5214 22.5221 21.2576 22.6197 21.8047 21.4285C22.3811 20.1786 23.1139 19.2022 24.1202 18.3625L24.7455 17.8352H29.7087H34.6621L35.2581 18.3332ZM14.5455 18.6652C14.5455 18.6847 14.4381 19.0069 14.3013 19.3682C13.9886 20.1982 13.6662 21.4382 13.6662 21.8288C13.6662 22.2487 13.9691 22.5221 14.4381 22.5221C14.7996 22.5221 14.8289 22.5416 14.9656 22.9614L15.122 23.4008H12.9726H10.8329V21.0086V18.6164H12.6892C13.7151 18.6164 14.5455 18.6359 14.5455 18.6652ZM41.5598 30.5287C41.4426 30.6556 41.3449 30.9779 41.296 31.388C41.2178 32.0715 41.2178 32.0812 40.5339 32.5108C40.1627 32.7452 40.0259 32.9795 39.8305 33.6533C39.7133 34.0634 39.6742 34.0926 39.088 34.3172C38.492 34.5418 38.4529 34.5809 38.1696 35.1667C37.8667 35.7819 37.8569 35.7916 37.3684 35.86C36.6161 35.9576 36.4598 36.0455 36.1179 36.5728L35.7955 37.0707H35.1018C34.4081 37.0707 34.3983 37.0707 33.9001 37.5199L33.4018 37.969L32.7765 37.8519C32.1121 37.7249 31.907 37.7835 31.2231 38.262C30.9593 38.4475 30.9593 38.4475 30.3242 38.2034L29.6989 37.9495L29.0639 38.2034L28.4288 38.4573L28.0087 38.1741C27.403 37.7542 27.2662 37.7249 26.592 37.8616L25.9863 37.9886L25.4978 37.5297C25.0093 37.0707 24.9995 37.0707 24.3352 37.0707H23.6512L23.2604 36.5435C22.9087 36.0748 22.8013 36.0064 22.3616 35.9088C22.088 35.8502 21.7852 35.8014 21.6972 35.8014C21.58 35.8014 21.4237 35.5963 21.238 35.1862C20.9547 34.6102 20.9156 34.5711 20.3099 34.3172C19.6553 34.0438 19.6553 34.0536 19.4306 33.1943C19.3426 32.8428 19.2449 32.7354 18.7564 32.4327L18.18 32.091L18.1116 31.4075C18.0725 31.0267 17.9846 30.6849 17.9064 30.6166C17.8283 30.558 17.7697 30.4701 17.7697 30.4213C17.7697 30.3725 22.9478 30.3334 29.7575 30.3334H41.7357L41.5598 30.5287Z" fill="#BA8756"/>
<path d="M29.1224 21.9461C26.7288 22.4148 25.8202 25.3831 27.5397 27.1114C28.6632 28.2245 30.5098 28.2929 31.7213 27.2579C31.9558 27.0528 32.2489 26.6525 32.4247 26.2912C33.3138 24.4848 32.2684 22.3562 30.2948 21.9461C29.7184 21.829 29.7086 21.829 29.1224 21.9461ZM30.2069 23.44C30.9201 23.6939 31.2719 24.2114 31.2719 24.9828C31.2719 26.1838 29.9724 26.9161 28.9075 26.3205C28.0282 25.8225 27.8523 24.4165 28.5949 23.7623C28.8098 23.567 29.4351 23.3131 29.6891 23.3131C29.7673 23.3131 30.0017 23.3717 30.2069 23.44Z" fill="#00045F"/>
</svg>
