<svg width="46" height="40" viewBox="0 0 46 40" fill="none" xmlns="http://www.w3.org/2000/svg">
<path d="M25.0838 0.125015C24.535 0.326263 23.8514 0.994049 23.5545 1.60695C23.0418 2.66808 23.3027 4.07684 24.1572 4.86354C24.679 5.33922 25.2007 5.57706 25.8394 5.63195L26.4061 5.67769V6.56502V7.45235L25.6235 7.66275C24.0943 8.06525 22.4481 8.79707 21.0718 9.69355L20.3702 10.1509L19.5876 9.38252C19.1468 8.95258 18.6971 8.54093 18.5711 8.4586C18.2023 8.21161 17.5996 8.12014 17.0959 8.22991C16.6911 8.31224 16.5472 8.42201 15.7736 9.21786C14.8021 10.1967 14.6222 10.526 14.6222 11.2761C14.6222 11.9988 14.8381 12.3647 15.7826 13.2337L16.5832 13.9838L16.0884 14.7797C15.4138 15.8774 14.7931 17.213 14.3883 18.4296L14.0555 19.4633H7.92964C1.96572 19.4633 1.79481 19.4725 1.39902 19.6554C0.904273 19.8841 0.454506 20.3049 0.202636 20.7898C-0.0582288 21.2746 -0.0672241 22.3723 0.17565 22.848C0.409529 23.2962 0.841305 23.7445 1.26409 23.9732C1.56993 24.1378 1.80381 24.1744 2.91023 24.2019C3.62087 24.2202 4.29552 24.211 4.42145 24.1836C4.7183 24.1012 4.92519 23.6347 4.80825 23.3145C4.64634 22.9029 4.49341 22.8571 3.24306 22.848C2.26257 22.848 2.02869 22.8205 1.79481 22.6742C1.22811 22.3266 1.16514 21.5033 1.67787 21.0733L1.95673 20.8355H7.88466H13.8126L13.7676 21.0459C13.7406 21.1557 13.6867 21.5948 13.6507 22.0247L13.5877 22.8023L10.3404 22.848C7.29996 22.8937 7.07508 22.9029 6.89517 23.0675C6.63431 23.3054 6.6433 23.7628 6.91316 24.0189C7.12006 24.2202 7.16503 24.2202 10.3314 24.2202C12.8231 24.2202 13.5517 24.2476 13.5787 24.3299C13.6057 24.394 13.6417 24.7873 13.6687 25.199L13.7136 25.9582H9.99856C5.92367 25.9582 5.79774 25.9765 5.15907 26.5071C4.09762 27.4036 4.09762 29.2697 5.15907 30.1662C5.80674 30.715 5.85171 30.715 10.7272 30.715H15.1619L15.3958 31.1907C15.5307 31.456 15.7286 31.8311 15.8455 32.014C15.9625 32.2061 16.0614 32.3799 16.0614 32.4074C16.0614 32.4348 14.6941 32.4531 13.021 32.4531C9.68373 32.4531 9.46784 32.4806 8.85616 32.9928C8.68524 33.1392 8.42438 33.4777 8.28045 33.7429C7.63279 34.9504 8.16351 36.4415 9.44085 37.0361C9.78268 37.1916 10.1515 37.2099 15.2159 37.2099H20.6221L21.4676 37.7314C22.9788 38.6553 24.7509 39.3597 26.6849 39.7896C27.5035 39.9634 27.8813 39.9909 29.7343 40C31.6144 40 31.9652 39.9726 32.8827 39.7805C38.3339 38.637 42.7146 34.9779 44.8015 29.8003C46.2498 26.2052 46.3937 22.1253 45.1883 18.4113C44.8465 17.3411 44.001 15.5572 43.4163 14.6608C43.1644 14.2674 42.9575 13.9198 42.9575 13.8924C42.9575 13.8649 43.2903 13.5356 43.6861 13.1605C44.5137 12.383 44.7476 11.9713 44.7566 11.2487C44.7566 10.526 44.5677 10.1875 43.6052 9.21786C42.8316 8.42201 42.6876 8.31224 42.2829 8.22991C41.7791 8.12014 41.1764 8.21161 40.7986 8.4586C40.6727 8.54093 40.2409 8.93428 39.8361 9.32764L39.1075 10.0595L38.181 9.48315C36.7687 8.62326 34.6998 7.75423 33.4944 7.52553L33.1526 7.4615V6.56502V5.67769L33.7193 5.63195C34.7268 5.54962 35.6263 4.90013 36.0491 3.95792C36.3549 3.27184 36.3369 2.2107 36.0041 1.56121C35.7073 0.984901 35.2575 0.50922 34.7448 0.234787C34.367 0.0243874 34.349 0.0243874 29.9143 0.00609207C26.1362 -0.0122032 25.4076 0.00609207 25.0838 0.125015ZM34.232 1.55206C34.7448 1.90882 34.9067 2.2107 34.9067 2.81445C34.9067 3.39075 34.7627 3.68348 34.286 4.04025C34.0431 4.23235 33.9442 4.23235 29.7883 4.23235H25.5335L25.2187 3.98536C24.4091 3.35416 24.4721 2.07348 25.3446 1.53376C25.6325 1.35996 25.8124 1.35081 29.7883 1.35081H33.9352L34.232 1.55206ZM31.8033 6.40036V7.15962H29.7793H27.7554V6.40036V5.65025H29.7793H31.8033V6.40036ZM31.6683 8.58667C36.7957 9.21786 41.4373 12.7855 43.4432 17.6338C46.8255 25.7844 42.8046 34.987 34.6008 37.8869C32.8377 38.5089 32.1091 38.6187 29.7793 38.6187C27.4585 38.6187 26.7929 38.5181 24.9668 37.8869C18.5981 35.6823 14.3523 29.0776 14.973 22.354C15.3328 18.5486 16.862 15.3103 19.5426 12.6849C21.8814 10.3979 24.8049 8.98917 28.1602 8.55008C28.7629 8.46775 30.9127 8.49519 31.6683 8.58667ZM18.5801 10.2973L19.2997 10.9651L18.3462 11.9256L17.3927 12.8861L16.889 12.4104C15.7196 11.331 15.7106 11.2395 16.5742 10.3064C17.2128 9.62037 17.4377 9.474 17.7076 9.57463C17.7975 9.61122 18.1933 9.93139 18.5801 10.2973ZM42.7596 10.279C43.6681 11.2395 43.6501 11.3401 42.5437 12.3555L42.085 12.7763L41.1404 11.8341L40.1869 10.8828L40.6097 10.4803C41.4463 9.6661 41.7071 9.48315 41.905 9.53803C42.013 9.56548 42.3998 9.90394 42.7596 10.279ZM14.0824 27.7146C14.1364 27.9341 14.2624 28.3549 14.3613 28.6477C14.4513 28.9495 14.5322 29.2331 14.5322 29.2697C14.5322 29.3063 12.7062 29.3429 10.4753 29.3429C6.85019 29.3429 6.39143 29.3246 6.16655 29.1874C5.51888 28.8032 5.52788 27.8244 6.18454 27.4493C6.33746 27.367 7.31795 27.3395 10.1875 27.3304H13.9835L14.0824 27.7146ZM17.2938 34.0814C17.3927 34.2186 17.7885 34.6669 18.1753 35.0877L18.868 35.8378H14.4782C10.2774 35.8378 10.0705 35.8286 9.79167 35.6548C9.37789 35.4078 9.23396 34.8864 9.44985 34.429C9.7287 33.8253 9.69272 33.8344 13.5967 33.8253H17.1049L17.2938 34.0814Z" fill="#BA8756"/>
<path d="M28.9246 10.3706C27.3594 10.5078 25.6413 10.956 24.274 11.5964C23.5184 11.9531 22.376 12.6575 22.0252 12.996C21.6024 13.3802 21.8722 14.1578 22.421 14.1578C22.5469 14.1578 22.9607 13.9565 23.3385 13.7095C25.4344 12.3465 27.3954 11.7519 29.7791 11.7519C32.9005 11.761 35.6441 12.8862 37.884 15.0908C39.5301 16.71 40.5916 18.6127 41.1673 20.9728C41.4371 22.0705 41.5001 24.266 41.2932 25.5009C41.0233 27.1658 40.4026 28.7575 39.4851 30.1754C39.0354 30.8707 38.9814 31.2183 39.2962 31.5202C39.773 31.9775 40.1418 31.7397 40.8884 30.4956C41.743 29.096 42.3726 27.3396 42.6515 25.5924C42.8404 24.4215 42.7774 21.9516 42.5166 20.8265C41.4281 16.0147 38.0549 12.3008 33.5032 10.9103C32.2439 10.5261 30.112 10.27 28.9246 10.3706Z" fill="#BA8756"/>
<path d="M28.4844 14.981C28.0706 15.0817 27.7468 15.3378 27.5129 15.7769C27.342 16.0788 27.198 16.1885 26.7123 16.3989C26.1906 16.6276 26.0826 16.6459 25.8307 16.5545C25.1021 16.28 24.6973 16.4355 23.8158 17.2954C22.7004 18.384 22.4575 18.9237 22.7364 19.7013C22.8263 19.9666 22.8083 20.0763 22.5834 20.6435C22.4305 21.0368 22.2686 21.3113 22.1606 21.3387C21.9088 21.421 21.468 21.8327 21.3241 22.1254C21.1442 22.473 21.1352 24.6502 21.3151 25.071C21.45 25.4003 21.7379 25.693 22.1157 25.876C22.3046 25.9675 22.4395 26.1687 22.6284 26.617C22.8713 27.2207 22.8713 27.239 22.7364 27.6324C22.4935 28.3093 22.6644 28.6752 23.6899 29.7272C24.7153 30.7609 25.0571 30.9164 25.7588 30.6786C26.1636 30.5505 26.1906 30.5505 26.7573 30.7975C27.252 31.0079 27.3869 31.1176 27.5758 31.4561C27.9447 32.1056 28.3674 32.2703 29.6628 32.2703C31.084 32.2703 31.5248 32.0873 31.8936 31.3463C32.0285 31.0811 32.1725 30.9804 32.6852 30.77C33.1889 30.5596 33.3419 30.5322 33.4948 30.6145C33.7556 30.7517 34.4663 30.7426 34.7541 30.5871C34.8891 30.5139 35.3658 30.0657 35.8246 29.59C36.7511 28.6203 36.859 28.355 36.6701 27.5866C36.5622 27.1841 36.5712 27.1018 36.7961 26.5255C37.003 25.9766 37.0839 25.8851 37.4078 25.7205C37.6506 25.6016 37.8575 25.4095 37.9925 25.1808C38.1814 24.8423 38.1903 24.7234 38.1724 23.4884C38.1454 21.9791 38.0644 21.7687 37.3718 21.3662C37.0659 21.1924 36.958 21.046 36.7511 20.552C36.5082 19.9574 36.4992 19.93 36.6342 19.5458C36.868 18.8871 36.7061 18.5029 35.7976 17.5424C35.3748 17.0942 34.8981 16.6734 34.7271 16.591C34.3853 16.4264 33.6747 16.3989 33.4138 16.5362C33.2789 16.6093 33.099 16.5819 32.6042 16.3806C32.0915 16.1794 31.9476 16.0788 31.8486 15.8501C31.6867 15.4567 31.2819 15.1091 30.8591 14.9902C30.4544 14.8804 28.9431 14.8713 28.4844 14.981ZM30.5983 16.4172C30.7872 17.0667 30.9311 17.2131 31.7137 17.5058C32.1365 17.6613 32.6042 17.8626 32.7482 17.9449C33.09 18.1279 33.4498 18.1279 33.7916 17.9541C34.0525 17.8077 34.0615 17.8168 34.5562 18.2376C34.8351 18.4755 35.1319 18.7774 35.2309 18.8963C35.3928 19.1158 35.3928 19.125 35.2219 19.3445C34.979 19.6647 34.997 20.0123 35.3028 20.6343C35.4378 20.9179 35.6267 21.3662 35.7076 21.6314C35.8785 22.162 36.2743 22.5737 36.6252 22.5737C36.841 22.5737 36.841 22.5828 36.841 23.5342C36.841 24.3758 36.8231 24.5038 36.6881 24.5496C36.1124 24.7325 35.9595 24.8606 35.8066 25.2905C35.7166 25.5284 35.5097 26.0315 35.3478 26.4066C34.988 27.1841 34.97 27.486 35.2309 27.8336L35.4288 28.0806L34.7901 28.7301L34.1424 29.3887L33.8816 29.2241C33.5308 29.0137 33.135 29.0228 32.6852 29.2607C32.4783 29.3704 32.0465 29.5534 31.7227 29.6815C31.0031 29.9559 30.8412 30.0931 30.7062 30.5505L30.6073 30.9073L29.7077 30.8798L28.7992 30.8524L28.7362 30.5871C28.6283 30.1846 28.3404 29.9284 27.7288 29.7089C27.4229 29.59 26.9822 29.407 26.7483 29.2881C26.2265 29.0228 25.9117 29.0137 25.5519 29.2515L25.282 29.4345L24.6344 28.7758L23.9957 28.1263L24.1666 27.797C24.4005 27.3488 24.3915 27.239 23.9777 26.3151C23.7798 25.8668 23.6179 25.4461 23.6179 25.3729C23.6179 25.1259 23.1681 24.6868 22.8443 24.6228L22.5385 24.5679V23.6257V22.6834L22.7993 22.6194C23.1951 22.5371 23.483 22.2078 23.6629 21.6497C23.7528 21.3753 23.9147 20.9637 24.0317 20.7258C24.2836 20.2227 24.3105 19.683 24.1036 19.3902C23.9777 19.2073 23.9777 19.1707 24.1486 18.9329C24.2386 18.7956 24.5264 18.4846 24.7783 18.2285L25.2371 17.7802L25.4979 17.9358C25.8667 18.1553 26.2445 18.1279 26.8832 17.826C27.189 17.6888 27.6028 17.515 27.8007 17.4509C28.2685 17.3046 28.4664 17.1216 28.6643 16.6459L28.8262 16.2617H29.6898C30.4274 16.2617 30.5533 16.28 30.5983 16.4172Z" fill="#00045F"/>
<path d="M29.2396 19.381C27.5844 19.5639 26.1991 20.7623 25.7314 22.4272C25.4885 23.2871 25.5784 24.5495 25.9383 25.3453C26.487 26.562 27.6204 27.4676 28.9427 27.7512C31.8302 28.3732 34.5018 25.6197 33.8362 22.7199C33.3234 20.5244 31.4344 19.1431 29.2396 19.381ZM31.0386 21.0184C31.5244 21.2563 32.1181 21.9058 32.3699 22.4638C32.5049 22.7748 32.5588 23.0767 32.5588 23.5798C32.5588 24.4031 32.3609 24.9245 31.8032 25.5374C30.4449 27.0285 28.0612 26.6626 27.2066 24.8147C26.9907 24.3573 26.9457 24.147 26.9457 23.5706C26.9457 22.9852 26.9907 22.7931 27.2156 22.3174C27.9262 20.8812 29.5994 20.314 31.0386 21.0184Z" fill="#00045F"/>
<path d="M19.6417 15.3195C19.2189 15.7768 18.4723 16.9935 18.0405 17.9449C17.123 19.9025 16.7272 21.9333 16.8081 24.083C16.8981 26.187 17.3299 27.8519 18.2834 29.718C18.931 30.9895 19.7046 32.0232 20.847 33.1392C22.6731 34.9322 24.724 36.0208 27.3057 36.5788C28.655 36.8715 30.9038 36.8715 32.2531 36.5788C33.4945 36.3135 34.5829 35.9385 35.5544 35.4353C36.5169 34.9505 37.9742 33.9717 38.1001 33.7338C38.244 33.4594 38.2081 33.1118 38.0102 32.9106C37.6953 32.5904 37.3715 32.6819 36.445 33.3222C35.0147 34.3102 33.7464 34.859 32.1542 35.2066C30.9308 35.4719 28.718 35.4902 27.6205 35.2524C25.1198 34.6944 23.2758 33.679 21.5397 31.9134C19.4078 29.7271 18.2924 27.1475 18.1574 24.083C18.0315 21.3387 18.7961 18.7956 20.4423 16.4904C20.883 15.8775 20.928 15.5664 20.6222 15.2737C20.3253 14.9901 19.9295 15.0084 19.6417 15.3195Z" fill="#BA8756"/>
</svg>
