<svg width="50" height="40" viewBox="0 0 50 40" fill="none" xmlns="http://www.w3.org/2000/svg">
<path d="M10.9667 0.495976C10.3026 1.12104 9.68736 1.99613 9.50181 2.58273C9.22837 3.47705 9.69712 4.53485 10.6151 5.06375C11.0057 5.29454 11.1913 5.33301 11.7772 5.33301C12.3729 5.33301 12.5292 5.29454 12.9491 5.04452C13.5936 4.64063 13.9842 4.00595 14.0428 3.25587C14.0819 2.75582 14.0428 2.60196 13.7694 2.05383C13.5741 1.65956 13.1932 1.1595 12.7538 0.707536C11.8749 -0.186786 11.7284 -0.206019 10.9667 0.495976ZM12.2069 2.4481C12.578 2.977 12.5877 3.37127 12.246 3.64053C11.9335 3.88094 11.6405 3.90017 11.3475 3.68861C11.0057 3.45782 10.9081 3.12124 11.0838 2.79429C11.2889 2.3904 11.7284 1.90958 11.826 1.96728C11.8749 2.00575 12.0409 2.21731 12.2069 2.4481Z" fill="#00045F"/>
<path d="M20.6641 0.198045C20.4688 0.351907 20.4102 0.47692 20.4102 0.765411C20.4102 1.43856 21.1133 1.7559 21.6406 1.31354C21.8359 1.15007 21.9043 0.996203 21.9043 0.765411C21.9043 0.534618 21.8359 0.380756 21.6406 0.217278C21.3086 -0.0519805 21.0059 -0.0615969 20.6641 0.198045Z" fill="#00045F"/>
<path d="M37.5292 0.495976C36.8651 1.12104 36.2499 1.99613 36.0643 2.58273C35.7909 3.47705 36.2596 4.53485 37.1776 5.06375C37.5682 5.29454 37.7538 5.33301 38.3397 5.33301C38.9354 5.33301 39.0917 5.29454 39.5116 5.04452C40.1561 4.64063 40.5467 4.00595 40.6053 3.25587C40.6444 2.75582 40.6053 2.60196 40.3319 2.05383C40.1366 1.65956 39.7557 1.1595 39.3163 0.707536C38.4374 -0.186786 38.2909 -0.206019 37.5292 0.495976ZM38.7694 2.4481C39.1405 2.977 39.1502 3.37127 38.8085 3.64053C38.496 3.88094 38.203 3.90017 37.91 3.68861C37.5682 3.45782 37.4706 3.12124 37.6463 2.79429C37.8514 2.3904 38.2909 1.90958 38.3885 1.96728C38.4374 2.00575 38.6034 2.21731 38.7694 2.4481Z" fill="#00045F"/>
<path d="M30.8203 0.967416C30.459 1.24629 30.459 1.82327 30.8203 2.10215C31.1621 2.36179 31.4648 2.35217 31.7969 2.08291C31.9922 1.91944 32.0605 1.76557 32.0605 1.53478C32.0605 1.30399 31.9922 1.15013 31.7969 0.986649C31.4648 0.71739 31.1621 0.707774 30.8203 0.967416Z" fill="#00045F"/>
<path d="M24.0037 4.58273C23.574 4.99623 22.9393 5.69823 22.5975 6.1502C21.4061 7.70805 21.0252 8.70815 21.1912 9.78518C21.6893 12.824 25.3709 14.1222 27.6365 12.045C28.0272 11.6892 28.3201 11.3046 28.535 10.8814C28.8279 10.2949 28.8572 10.1698 28.8572 9.3236C28.8572 8.48697 28.8279 8.36196 28.535 7.75613C27.8221 6.32329 25.615 3.84227 25.0486 3.84227C24.8533 3.84227 24.5897 4.02498 24.0037 4.58273ZM25.4686 6.15981C26.0545 6.80411 26.8455 7.87153 27.119 8.39081C27.617 9.37168 27.2361 10.5833 26.2303 11.1988C25.8104 11.4488 25.6541 11.4873 25.0584 11.4873C24.2576 11.4777 23.7303 11.2565 23.2908 10.7468C22.5975 9.93905 22.5486 9.17935 23.1053 8.18887C23.4861 7.50611 24.8631 5.76554 25.0193 5.76554C25.0584 5.76554 25.2635 5.94825 25.4686 6.15981Z" fill="#00045F"/>
<path d="M16.7578 7.12182C16.5625 7.27568 16.5039 7.4007 16.5039 7.68919C16.5039 7.97768 16.5625 8.10269 16.7578 8.25655C16.9043 8.37195 17.1191 8.4585 17.2363 8.4585C17.3535 8.4585 17.5684 8.37195 17.7148 8.25655C17.9102 8.10269 17.9688 7.97768 17.9688 7.68919C17.9688 7.4007 17.9102 7.27568 17.7148 7.12182C17.5684 7.00642 17.3535 6.91988 17.2363 6.91988C17.1191 6.91988 16.9043 7.00642 16.7578 7.12182Z" fill="#00045F"/>
<path d="M1.89453 8.6795C1.70898 8.84298 1.63086 8.99684 1.63086 9.21801C1.63086 9.5065 2.35352 10.247 10.0684 17.8439L18.5059 26.1524H9.49219H0.478516L0.244141 26.3928L0 26.6236V33.0762V39.5288L0.244141 39.7596L0.478516 40H25H49.5215L49.7559 39.7596L50 39.5288V33.0762V26.6236L49.7559 26.3928L49.5215 26.1524H40.6055H31.6895L40.0391 17.9304C48.0664 10.0258 48.3789 9.70845 48.3789 9.36226C48.3789 8.91991 48.0762 8.65065 47.5781 8.65065C47.2363 8.65065 46.8555 9.00645 38.5059 17.2284L29.7852 25.8159L27.9785 24.0368L26.1719 22.2578L32.5684 15.9591C39.4336 9.19878 39.1992 9.45842 38.7598 8.90067C38.6133 8.70835 38.4766 8.65065 38.2031 8.65065C37.8613 8.65065 37.5879 8.90067 31.4746 14.9205L25.0977 21.2L18.623 14.8244C11.9141 8.22753 12.0215 8.31408 11.4746 8.51602C11.2402 8.61218 11.0059 9.11223 11.084 9.41034C11.123 9.57382 13.3887 11.8721 17.5586 15.9783L23.9746 22.3059L22.2168 24.0368C21.25 24.9889 20.4199 25.7678 20.3613 25.7678C20.3125 25.7678 16.3086 21.8731 11.4746 17.1131C1.97266 7.75632 2.4707 8.19868 1.89453 8.6795ZM26.4648 24.7581L27.8809 26.1524H25.0488H22.2168L23.6328 24.7581C24.4141 23.9888 25.0488 23.3637 25.0488 23.3637C25.0488 23.3637 25.6836 23.9888 26.4648 24.7581ZM48.4375 30.7683V33.8359L39.8242 33.8648L31.2012 33.8936L30.7617 34.1244C30 34.5187 29.6191 34.8841 29.2871 35.5284L28.9551 36.1535H15.2637H1.5625V33.4609V30.7683H8.74023H15.9277L16.1621 30.5279C16.3184 30.3836 16.4062 30.1817 16.4062 29.999C16.4062 29.8163 16.3184 29.6143 16.1621 29.4701L15.9277 29.2297H8.74023H1.5625V28.4604V27.6911H25H48.4375V30.7683ZM48.4375 35.7688V36.1535H39.5996C34.7363 36.1535 30.7617 36.115 30.7617 36.0765C30.7617 35.9611 31.0547 35.7111 31.3965 35.538C31.6602 35.4034 32.6562 35.3841 40.0684 35.3841H48.4375V35.7688ZM48.4375 38.0767V38.4614H25H1.5625V38.0767V37.6921H25H48.4375V38.0767Z" fill="#BA8756"/>
<path d="M32.3828 8.66029C32.0215 8.93916 32.0215 9.51614 32.3828 9.79502C32.7246 10.0547 33.0273 10.045 33.3594 9.77579C33.5547 9.61231 33.623 9.45845 33.623 9.22765C33.623 8.99686 33.5547 8.843 33.3594 8.67952C33.0273 8.41026 32.7246 8.40065 32.3828 8.66029Z" fill="#00045F"/>
<path d="M24.5703 15.5843C24.375 15.7381 24.3164 15.8632 24.3164 16.1516C24.3164 16.8248 25.0195 17.1421 25.5469 16.6998C25.7422 16.5363 25.8105 16.3824 25.8105 16.1516C25.8105 15.9208 25.7422 15.767 25.5469 15.6035C25.2148 15.3342 24.9121 15.3246 24.5703 15.5843Z" fill="#00045F"/>
</svg>
