<svg width="60" height="60" viewBox="0 0 60 60" fill="none" xmlns="http://www.w3.org/2000/svg">
<path d="M11.25 36.5625H16.875V44.0625H11.25V36.5625Z" fill="#EFDD9B"/>
<path d="M14.0625 38.4375C19.7579 38.4375 24.375 33.8204 24.375 28.125C24.375 22.4296 19.7579 17.8125 14.0625 17.8125C8.36706 17.8125 3.75 22.4296 3.75 28.125C3.75 33.8204 8.36706 38.4375 14.0625 38.4375Z" fill="#8BCDE8"/>
<path d="M13.125 19.5312H15V23.4375H13.125V19.5312Z" fill="#EFBF33"/>
<path d="M7.30261 22.6924L8.62824 21.3668L11.407 24.1455L10.0814 25.4711L7.30261 22.6924Z" fill="#EFBF33"/>
<path d="M16.7101 24.1455L19.8599 20.9957L21.1856 22.3213L18.0357 25.4711L16.7101 24.1455Z" fill="#EFBF33"/>
<path d="M14.0625 17.8125C12.0229 17.8125 10.0291 18.4173 8.33319 19.5505C6.6373 20.6836 5.31553 22.2942 4.535 24.1786C3.75447 26.0629 3.55025 28.1364 3.94816 30.1369C4.34607 32.1373 5.32824 33.9748 6.77047 35.417C8.2127 36.8593 10.0502 37.8414 12.0506 38.2393C14.0511 38.6373 16.1246 38.433 18.0089 37.6525C19.8933 36.872 21.5039 35.5502 22.637 33.8543C23.7702 32.1584 24.375 30.1646 24.375 28.125C24.375 25.39 23.2885 22.767 21.3545 20.833C19.4205 18.899 16.7975 17.8125 14.0625 17.8125ZM14.0625 35.625C12.5791 35.625 11.1291 35.1851 9.89573 34.361C8.66236 33.5369 7.70107 32.3656 7.13341 30.9951C6.56575 29.6247 6.41723 28.1167 6.70662 26.6618C6.996 25.207 7.71031 23.8706 8.7592 22.8217C9.8081 21.7728 11.1445 21.0585 12.5993 20.7691C14.0542 20.4797 15.5622 20.6282 16.9326 21.1959C18.3031 21.7636 19.4744 22.7249 20.2985 23.9582C21.1226 25.1916 21.5625 26.6416 21.5625 28.125C21.5626 29.1099 21.3686 30.0852 20.9918 30.9952C20.6149 31.9052 20.0624 32.732 19.366 33.4285C18.6695 34.1249 17.8427 34.6774 16.9327 35.0543C16.0227 35.4311 15.0474 35.6251 14.0625 35.625Z" fill="#0E5952"/>
<path d="M8.72144 30.126L13.5927 27.3135L14.5301 28.9371L9.65888 31.7496L8.72144 30.126Z" fill="#FF9D15"/>
<path d="M14.0625 30C15.098 30 15.9375 29.1605 15.9375 28.125C15.9375 27.0895 15.098 26.25 14.0625 26.25C13.027 26.25 12.1875 27.0895 12.1875 28.125C12.1875 29.1605 13.027 30 14.0625 30Z" fill="#0E5952"/>
<path d="M6.5625 44.0625H53.4375V55.3125H6.5625V44.0625Z" fill="#EFDD9B"/>
<path d="M2.8125 42.1875H6.5625V57.1875H2.8125V42.1875Z" fill="#FF9D15"/>
<path d="M53.4375 42.1875H57.1875V57.1875H53.4375V42.1875Z" fill="#FF9D15"/>
<path d="M21.5625 1.875V2.8125C21.5625 3.55842 21.8588 4.27379 22.3863 4.80124C22.9137 5.32868 23.6291 5.625 24.375 5.625H33.2812C33.8353 5.625 34.3839 5.73412 34.8957 5.94613C35.4075 6.15815 35.8726 6.4689 36.2644 6.86064C36.6561 7.25239 36.9669 7.71746 37.1789 8.2293C37.3909 8.74115 37.5 9.28974 37.5 9.84375C37.5 10.3978 37.3909 10.9464 37.1789 11.4582C36.9669 11.97 36.6561 12.4351 36.2644 12.8269C35.8726 13.2186 35.4075 13.5294 34.8957 13.7414C34.3839 13.9534 33.8353 14.0625 33.2812 14.0625H32.8125C31.072 14.0625 29.4028 14.7539 28.1721 15.9846C26.9414 17.2153 26.25 18.8845 26.25 20.625C26.25 21.4868 26.4197 22.3402 26.7495 23.1364C27.0793 23.9326 27.5627 24.656 28.1721 25.2654C29.4028 26.4961 31.072 27.1875 32.8125 27.1875H33.7504C34.0582 27.1875 34.363 27.2481 34.6473 27.3659C34.9316 27.4837 35.19 27.6564 35.4076 27.874C35.6252 28.0916 35.7978 28.35 35.9155 28.6344C36.0332 28.9187 36.0938 29.2235 36.0938 29.5312C36.0936 30.1529 35.8466 30.749 35.407 31.1886C34.9674 31.6281 34.3712 31.875 33.7496 31.875H31.4396C30.5605 31.875 29.7174 32.2242 29.0958 32.8458C28.4742 33.4674 28.125 34.3105 28.125 35.1896C28.125 35.6248 28.2107 36.0558 28.3773 36.458C28.5439 36.8601 28.788 37.2255 29.0958 37.5333L35.625 44.0625V38.4375C35.625 38.0682 35.6978 37.7025 35.8391 37.3612C35.9804 37.02 36.1876 36.71 36.4488 36.4488C36.7099 36.1877 37.02 35.9806 37.3612 35.8392C37.7024 35.6979 38.0682 35.6252 38.4375 35.6252L45.1049 35.6258C45.5834 35.6258 46.0573 35.5316 46.4994 35.3484C46.9414 35.1652 47.3431 34.8967 47.6813 34.5582C48.0196 34.2197 48.2878 33.8179 48.4707 33.3757C48.6536 32.9335 48.7475 32.4596 48.7471 31.981L48.7469 31.7429C48.7462 30.783 48.3643 29.8627 47.6853 29.1843C47.0062 28.5058 46.0856 28.1247 45.1257 28.1248L44.8614 28.1248C43.6556 28.1249 42.4991 27.6461 41.6462 26.7937C40.7934 25.9412 40.314 24.785 40.3135 23.5791L40.3134 23.4385C40.3132 22.8229 40.4342 22.2133 40.6696 21.6444C40.905 21.0756 41.2502 20.5587 41.6854 20.1234C42.1207 19.688 42.6374 19.3426 43.2061 19.1069C43.7749 18.8713 44.3844 18.75 45.0001 18.75H49.6875C51.6766 18.75 53.5843 17.9598 54.9908 16.5533C56.3973 15.1468 57.1875 13.2391 57.1875 11.25V1.875H21.5625Z" fill="#C5D5E1"/>
<path d="M38.4375 26.25H36.5625V24.8438C36.5621 24.4709 36.4138 24.1135 36.1502 23.8498C35.8865 23.5862 35.5291 23.4379 35.1562 23.4375H32.8125C32.0666 23.4375 31.3512 23.1412 30.8238 22.6137C30.2963 22.0863 30 21.3709 30 20.625C30 19.8791 30.2963 19.1637 30.8238 18.6363C31.3512 18.1088 32.0666 17.8125 32.8125 17.8125H35.625V19.6875H32.8125C32.5639 19.6875 32.3254 19.7863 32.1496 19.9621C31.9738 20.1379 31.875 20.3764 31.875 20.625C31.875 20.8736 31.9738 21.1121 32.1496 21.2879C32.3254 21.4637 32.5639 21.5625 32.8125 21.5625H35.1562C36.0262 21.5635 36.8602 21.9095 37.4754 22.5246C38.0905 23.1398 38.4365 23.9738 38.4375 24.8438V26.25Z" fill="#A7B3BD"/>
<path d="M37.5 17.8125H39.375V19.6875H37.5V17.8125Z" fill="#A7B3BD"/>
<path d="M42.1875 16.875H40.3125V15.1172C40.3137 14.0919 40.7215 13.1089 41.4465 12.384C42.1714 11.659 43.1544 11.2512 44.1797 11.25H47.6953C48.2235 11.2494 48.7299 11.0393 49.1034 10.6659C49.4768 10.2924 49.6869 9.78599 49.6875 9.25781V7.5H51.5625V9.25781C51.5613 10.2831 51.1535 11.2661 50.4285 11.991C49.7036 12.716 48.7206 13.1238 47.6953 13.125H44.1797C43.6515 13.1256 43.1451 13.3357 42.7716 13.7091C42.3982 14.0826 42.1881 14.589 42.1875 15.1172V16.875Z" fill="#A7B3BD"/>
<path d="M49.6875 3.75H51.5625V5.625H49.6875V3.75Z" fill="#A7B3BD"/>
<path d="M37.5 31.875H39.375V33.75H37.5V31.875Z" fill="#A7B3BD"/>
<path d="M42.1875 33.75H40.3125V31.875H42.1875C42.4361 31.8747 42.6743 31.7759 42.8501 31.6001C43.0259 31.4243 43.1247 31.1861 43.125 30.9375V30H45V30.9375C44.9992 31.6832 44.7026 32.398 44.1753 32.9253C43.648 33.4526 42.9332 33.7492 42.1875 33.75Z" fill="#A7B3BD"/>
<path d="M37.2258 49.4133L35.3508 51.2883L34.0242 49.9617L35.2371 48.75L33.0867 46.6008C32.9111 46.4247 32.8125 46.1862 32.8125 45.9375C32.8125 45.6888 32.9111 45.4503 33.0867 45.2742L34.2984 44.0625H36.9516L35.0754 45.9375L37.2258 48.0867C37.4014 48.2628 37.5 48.5013 37.5 48.75C37.5 48.9987 37.4014 49.2372 37.2258 49.4133Z" fill="#EFBF33"/>
<path d="M11.25 42.1875H16.875V44.0625H11.25V42.1875Z" fill="#EFBF33"/>
</svg>
