<svg width="60" height="60" viewBox="0 0 60 60" fill="none" xmlns="http://www.w3.org/2000/svg">
<g clip-path="url(#clip0_932_704)">
<path d="M51.7303 50.342V21.7303C51.7303 16.1284 49.6105 11.0215 46.1293 7.16809L45.3923 6.64234L44.8603 5.87525C41.1791 2.42374 36.2955 0.239358 30.9054 0.0184326L29.9845 0.101974L29.0937 0.0184326C28.6352 0.0372656 28.1803 0.0702234 27.7296 0.117064C27.7296 0.117064 26.9211 0.25626 26.5195 0.320968C16.1753 1.98902 8.56692 11.2128 8.56692 22.0277L8.5033 50.342L30 52.3185L51.7303 50.342Z" fill="#FFE07D"/>
<path d="M27.8342 0.107422C23.3795 0.909032 19.3944 3.07483 16.3244 6.15933C12.3924 10.1094 9.95979 15.5686 9.95979 21.5964V50.342L9.0377 50.9619L8.26965 50.342V21.7304C8.26965 16.129 10.3898 11.0221 13.8707 7.16811L14.4856 6.88778L15.1397 5.87539C18.5322 2.69539 22.9453 0.590078 27.8342 0.107422Z" fill="#FFD064"/>
<path d="M30.9055 0.0184708V8.47968C30.6061 8.46036 30.3043 8.4507 30 8.4507C29.6958 8.4507 29.394 8.46036 29.0946 8.47968L29.0938 0.0185915C29.3944 0.00651911 29.697 0 30 0C30.303 0 30.6049 0.00651911 30.9055 0.0184708Z" fill="#FFD064"/>
<path d="M46.1294 7.16784L38.627 14.6713C38.4495 14.8476 38.2177 14.9357 37.9859 14.9357C37.7541 14.9357 37.5224 14.8476 37.3461 14.6713C36.9924 14.3176 36.9924 13.7442 37.3461 13.3905L44.8603 5.875C45.301 6.28788 45.725 6.71874 46.1294 7.16784Z" fill="#FFD064"/>
<path d="M22.107 14.1251C21.9308 14.3013 21.699 14.3895 21.4672 14.3895C21.2354 14.3895 21.0036 14.3013 20.8261 14.1251L13.8712 7.16893C14.7502 6.93413 14.8966 6.70052 15.14 5.87598L22.107 12.8442C22.4608 13.1979 22.4608 13.7713 22.107 14.1251Z" fill="#FFD064"/>
<path d="M15.8813 6.61661C15.4672 7.05846 15.0712 7.51721 14.6945 7.99166L13.8706 7.16784C13.9714 7.07814 13.9578 7.01005 15.1397 5.875L15.8813 6.61661Z" fill="#FF9D15"/>
<path d="M30 8.01172C22.2843 8.01172 16.0293 14.2666 16.0293 21.9823V49.5743H43.9706V21.9824C43.9706 14.2667 37.7157 8.01172 30 8.01172Z" fill="#AB7B64"/>
<path d="M44.4804 21.3104C44.4206 19.7852 44.1734 18.1956 43.5278 16.5393C42.4624 13.7649 40.5682 11.4011 38.1484 9.75152L37.3435 9.4333L36.338 8.7005C34.6797 7.89213 32.8441 7.391 30.9053 7.27148L29.9997 7.39776L29.0942 7.27148C28.4795 7.30939 27.875 7.38569 27.2833 7.49796L26.3394 7.92303L25.4723 7.96529C24.8489 8.17028 24.2442 8.41643 23.6615 8.7005L22.7099 9.40505L21.8511 9.75152C19.4318 11.4011 17.5376 13.7649 16.4721 16.5393C15.9032 18.0633 15.5119 19.7244 15.5131 21.7304V27.6459V48.4105V50.3421L27.8342 51.4762L44.4869 50.3421V48.4105L45.2652 36.5191L44.4869 21.7304C44.4869 21.5899 44.4844 21.45 44.4804 21.3104ZM42.1931 48.4105H17.8068C17.6068 48.4105 17.4447 48.2483 17.4447 48.0483V27.4585C17.4447 27.3436 17.4986 27.2349 17.5919 27.1679C18.2326 26.7076 18.6519 25.9582 18.6519 25.1107V23.8401C18.6519 23.7251 18.706 23.6162 18.7994 23.5492C19.4411 23.0889 19.8591 22.337 19.8591 21.4889V19.0745C19.8591 18.1998 19.4132 17.4286 18.7372 16.973C18.5909 16.8744 18.5435 16.6819 18.6174 16.5217C20.6024 12.2225 24.9036 9.20356 29.9279 9.17531C35.0172 9.14657 39.4181 12.1613 41.4141 16.5021C41.4885 16.6638 41.4392 16.858 41.2904 16.9555C40.5991 17.4085 40.1408 18.1881 40.1408 19.0745V21.4889C40.1408 22.3369 40.5588 23.0888 41.2003 23.5481C41.2939 23.6151 41.3481 23.724 41.3481 23.8391V25.1107C41.3481 25.958 41.7673 26.7076 42.408 27.1679C42.5014 27.2349 42.5553 27.3437 42.5553 27.4586V48.0483C42.5553 48.2483 42.3932 48.4105 42.1931 48.4105Z" fill="#9A6A53"/>
<path d="M46.2978 25.5935V50.342L45.3924 50.8082L44.4869 50.342V25.5935H46.2978Z" fill="#FFD064"/>
<path d="M48.1087 47.6257C47.6085 47.6257 47.2032 47.2204 47.2032 46.7203V29.336C47.2032 28.8358 47.6085 28.4305 48.1087 28.4305C48.6088 28.4305 49.0141 28.8358 49.0141 29.336V46.7203C49.0141 47.2204 48.6088 47.6257 48.1087 47.6257Z" fill="#FFD064"/>
<path d="M11.8914 47.6257C11.3912 47.6257 10.986 47.2204 10.986 46.7203V29.336C10.986 28.8358 11.3912 28.4305 11.8914 28.4305C12.3916 28.4305 12.7968 28.8358 12.7968 29.336V46.7203C12.7968 47.2204 12.3916 47.6257 11.8914 47.6257Z" fill="#FFD064"/>
<path d="M30.9053 7.80827V27.4651C30.9053 27.9649 30.4997 28.3705 29.9999 28.3705C29.5001 28.3705 29.0945 27.9649 29.0945 27.4651V7.80827C29.3939 7.78896 29.6957 7.7793 29.9999 7.7793C30.3041 7.7793 30.606 7.78896 30.9053 7.80827Z" fill="#9A6A53"/>
<path d="M29.9999 53.5142C29.4998 53.5142 29.0945 53.1089 29.0945 52.6088V35.6144C29.0945 35.1143 29.4998 34.709 29.9999 34.709C30.5001 34.709 30.9053 35.1143 30.9053 35.6144V52.6088C30.9053 53.1088 30.5001 53.5142 29.9999 53.5142Z" fill="#9A6A53"/>
<path d="M23.6619 9.02527V52.9693C23.6619 53.4691 23.2563 53.8747 22.7565 53.8747C22.2567 53.8747 21.8511 53.4691 21.8511 52.9693V10.0756C22.4257 9.68322 23.0318 9.33191 23.6619 9.02527Z" fill="#9A6A53"/>
<path d="M38.1489 9.99061V52.9693C38.1489 53.4691 37.7432 53.8748 37.2434 53.8748C36.7436 53.8748 36.338 53.4691 36.338 52.9693V8.94031C36.9682 9.24695 37.5742 9.59825 38.1489 9.99061Z" fill="#9A6A53"/>
<path d="M41.8309 42.9784V52.1318C41.8309 52.6328 41.4253 53.0372 40.9255 53.0372C40.4257 53.0372 40.02 52.6328 40.02 52.1318V42.9784C40.02 42.4786 40.4257 42.073 40.9255 42.073C41.4253 42.073 41.8309 42.4786 41.8309 42.9784Z" fill="#9A6A53"/>
<path d="M27.3439 46.3587V51.7031C27.3439 52.2029 26.9383 52.6086 26.4385 52.6086C25.9387 52.6086 25.5331 52.2029 25.5331 51.7031V46.3587C25.5331 45.8589 25.9387 45.4532 26.4385 45.4532C26.9383 45.4532 27.3439 45.8589 27.3439 46.3587Z" fill="#9A6A53"/>
<path d="M27.2836 7.93652V14.3064C27.2836 14.8062 26.878 15.2119 26.3782 15.2119C25.8784 15.2119 25.4728 14.8062 25.4728 14.3064V8.40373C26.0607 8.20948 26.6643 8.05363 27.2836 7.93652Z" fill="#9A6A53"/>
<path d="M30.9055 7.2714L30.9053 9.20769C30.6072 9.18596 30.3041 9.1751 29.9999 9.1751C29.6957 9.1751 29.3927 9.18596 29.0945 9.20769L29.0944 7.2714C29.5494 7.24906 30.1132 7.22069 30.9055 7.2714Z" fill="#895B49"/>
<path d="M30.9053 48.41V52.6076C30.9053 53.1074 30.4997 53.5131 29.9999 53.5131C29.5001 53.5131 29.0945 53.1074 29.0945 52.6076V48.41H30.9053Z" fill="#895B49"/>
<path d="M23.6618 8.70007L23.6619 10.8951C23.0197 11.2717 22.4136 11.7039 21.8511 12.1856L21.8514 9.75122C22.3364 9.45557 22.2169 9.43854 23.6618 8.70007Z" fill="#895B49"/>
<path d="M23.6619 48.41V52.9686C23.6619 53.4684 23.2563 53.874 22.7565 53.874C22.2567 53.874 21.8511 53.4684 21.8511 52.9686V48.41H23.6619Z" fill="#895B49"/>
<path d="M38.1485 9.75196L38.1489 12.1864C37.5863 11.7047 36.9803 11.2725 36.338 10.8958V8.70105C36.9535 9.02121 37.1956 9.11888 38.1485 9.75196Z" fill="#895B49"/>
<path d="M38.1489 48.41V52.9686C38.1489 53.4684 37.7432 53.874 37.2434 53.874C36.7436 53.874 36.338 53.4684 36.338 52.9686V48.41H38.1489Z" fill="#895B49"/>
<path d="M41.831 48.41V52.1308C41.831 52.6318 41.4254 53.0362 40.9256 53.0362C40.4258 53.0362 40.0201 52.6318 40.0201 52.1308V48.41H41.831Z" fill="#895B49"/>
<path d="M27.3441 48.41V51.7022C27.3441 52.202 26.9384 52.6076 26.4386 52.6076C25.9388 52.6076 25.5332 52.202 25.5332 51.7022V48.41H27.3441Z" fill="#895B49"/>
<path d="M27.2835 7.49792L27.2836 9.47213C26.6607 9.60855 26.0559 9.79205 25.4728 10.019L25.4727 7.96525C25.5323 7.95354 26.1039 7.73008 27.2835 7.49792Z" fill="#895B49"/>
<path d="M52.9376 50.3418H7.06234C7.06234 50.3418 6.62906 50.5399 6.38169 50.6667C5.7963 50.9668 5.49292 51.4497 5.49292 52.1527L5.54435 55.0102L54.4041 55.1708L54.7485 53.3599V52.1527C54.7485 51.1526 53.9377 50.3418 52.9376 50.3418Z" fill="#AB7B64"/>
<path d="M54.7484 53.3599V55.1708L31.4564 56.1199L5.25146 55.1708V52.1527C5.25146 51.1531 6.06273 50.3418 7.06233 50.3418V52.877C7.06233 53.1437 7.27855 53.3599 7.54523 53.3599H54.7484Z" fill="#9A6A53"/>
<path d="M30.0001 36.5187C27.5037 36.5187 25.4729 34.4878 25.4729 31.9915C25.4729 30.9032 25.8589 29.9033 26.5012 29.1216C26.5012 29.1216 26.5891 29.0941 26.6143 29.0649C27.4452 28.1047 28.6337 27.5723 30.0001 27.5723C31.3201 27.5723 32.4519 28.1167 33.2801 29.021C33.3353 29.0812 33.4989 29.1218 33.4989 29.1218C34.1413 29.9033 34.5272 30.9032 34.5272 31.9915C34.5272 34.4878 32.4964 36.5187 30.0001 36.5187ZM30.0001 29.139C28.8208 29.139 27.7778 29.8693 27.4032 30.9216C27.3739 31.0039 27.364 31.3346 27.364 31.3346C27.3117 31.5451 27.2838 31.765 27.2838 31.9915C27.2838 33.4892 28.5024 34.7078 30.0001 34.7078C31.4978 34.7078 32.7164 33.4892 32.7164 31.9915C32.7164 31.765 32.6885 31.5451 32.6361 31.3346C32.6361 31.3346 32.6922 31.1001 32.6721 31.0386C32.3163 29.9527 31.2033 29.139 30.0001 29.139Z" fill="#FFD064"/>
<path d="M33.4989 29.1221C33.4796 29.9684 33.1575 30.7399 32.6361 31.3351C32.3427 30.1533 31.2713 29.2757 30.0001 29.2757C28.7288 29.2757 27.6574 30.1533 27.364 31.3351C26.8425 30.74 26.5205 29.9684 26.5012 29.1221C27.3318 28.1105 28.5924 27.4648 30.0001 27.4648C31.4077 27.4648 32.6683 28.1105 33.4989 29.1221Z" fill="#FF9D15"/>
<path d="M30 30.8446C28.9999 30.8446 28.1891 30.0338 28.1891 29.0337V27.8265C28.1891 26.8264 28.9999 26.0156 30 26.0156C31 26.0156 31.8108 26.8264 31.8108 27.8265V29.0337C31.8108 30.0338 31 30.8446 30 30.8446Z" fill="#FFE07D"/>
<path d="M52.2133 25.594H44.004C43.6707 25.594 43.4004 25.3237 43.4004 24.9904V22.093L48.1086 21.6396L52.9376 22.093V24.0246L52.8169 24.9904C52.8169 25.3237 52.5466 25.594 52.2133 25.594Z" fill="#FFD064"/>
<path d="M52.9376 24.0242V25.1107C52.9376 25.4439 52.6672 25.7143 52.334 25.7143H43.8833C43.5501 25.7143 43.2797 25.4439 43.2797 25.1107V22.0926L44.0117 21.8447L44.9698 22.0926V23.662C44.9698 23.8624 45.1316 24.0242 45.332 24.0242H52.9376Z" fill="#FF9D15"/>
<path d="M53.4205 21.9718H42.7967C42.4634 21.9718 42.1931 21.7015 42.1931 21.3682V19.1952C42.1931 18.8619 42.4634 18.5915 42.7967 18.5915L43.7625 18.4708H53.5412C53.8745 18.4708 54.1448 18.7411 54.1448 19.0744V20.4024L54.0241 21.3682C54.0241 21.7015 53.7538 21.9718 53.4205 21.9718Z" fill="#FFD064"/>
<path d="M54.1448 20.4024V21.4889C54.1448 21.8221 53.8744 22.0926 53.5412 22.0926H42.676C42.3428 22.0926 42.0724 21.8221 42.0724 21.4889V19.0744C42.0724 18.7412 42.3428 18.4708 42.676 18.4708H43.7625V20.0402C43.7625 20.2406 43.9243 20.4024 44.1247 20.4024H54.1448Z" fill="#FF9D15"/>
<path d="M15.996 25.594H7.78673C7.45341 25.594 7.18311 25.3237 7.18311 24.9904V22.093L11.8914 21.6396L16.7203 22.093V24.0246L16.5996 24.9904C16.5996 25.3237 16.3293 25.594 15.996 25.594Z" fill="#FFD064"/>
<path d="M16.7203 24.0242V25.1107C16.7203 25.4439 16.4499 25.7143 16.1167 25.7143H7.666C7.3328 25.7143 7.06238 25.4439 7.06238 25.1107V22.0926L7.79445 21.8447L8.75252 22.0926V23.662C8.75252 23.8624 8.91429 24.0242 9.11469 24.0242H16.7203Z" fill="#FF9D15"/>
<path d="M17.2032 21.9718H6.57945C6.24613 21.9718 5.97583 21.7015 5.97583 21.3682V19.1952C5.97583 18.8619 6.24613 18.5915 6.57945 18.5915L7.54525 18.4708H17.3239C17.6572 18.4708 17.9275 18.7411 17.9275 19.0744V20.4024L17.8068 21.3682C17.8068 21.7015 17.5365 21.9718 17.2032 21.9718Z" fill="#FFD064"/>
<path d="M17.9275 20.4024V21.4889C17.9275 21.8221 17.6571 22.0926 17.3239 22.0926H6.45872C6.12553 22.0926 5.8551 21.8221 5.8551 21.4889V19.0744C5.8551 18.7412 6.12553 18.4708 6.45872 18.4708H7.54524V20.0402C7.54524 20.2406 7.70701 20.4024 7.90742 20.4024H17.9275Z" fill="#FF9D15"/>
<path d="M55.9557 55.171H4.04428C4.04428 55.171 3.90207 55.2221 3.83241 55.2339C2.96597 55.3817 2.46714 56.3632 2.46714 57.2888L2.4209 59.2306C2.4209 59.5639 2.6912 59.8342 3.02452 59.8342L57.0088 59.8753C57.3421 59.8753 57.6124 59.605 57.6124 59.2717L57.7666 58.1891V56.9819C57.7666 55.9818 56.9558 55.171 55.9557 55.171Z" fill="#AB7B64"/>
<path d="M57.7666 58.1891V59.3964C57.7666 59.7297 57.4963 60 57.163 60H2.83702C2.5037 60 2.2334 59.7297 2.2334 59.3964V56.9819C2.2334 55.9823 3.04467 55.171 4.04426 55.171V57.5855C4.04426 57.9188 4.31457 58.1891 4.64789 58.1891H57.7666Z" fill="#9A6A53"/>
</g>
<defs>
<clipPath id="clip0_932_704">
<rect width="60" height="60" fill="white"/>
</clipPath>
</defs>
</svg>
