<svg width="60" height="60" viewBox="0 0 60 60" fill="none" xmlns="http://www.w3.org/2000/svg">
<g clip-path="url(#clip0_932_844)">
<path d="M47.8125 55.3125H30C29.7514 55.3125 29.5129 55.2137 29.3371 55.0379C29.1613 54.8621 29.0625 54.6236 29.0625 54.375V31.875C29.0625 31.6264 29.1613 31.3879 29.3371 31.2121C29.5129 31.0363 29.7514 30.9375 30 30.9375H47.8125C51.0448 30.9375 54.1448 32.2215 56.4304 34.5071C58.716 36.7927 60 39.8927 60 43.125C60 46.3573 58.716 49.4573 56.4304 51.7429C54.1448 54.0285 51.0448 55.3125 47.8125 55.3125Z" fill="#A1887F"/>
<path d="M55.1891 33.4305C54.2977 42.951 51.5625 51.5628 40.5093 55.3128H47.8125C50.3632 55.3138 52.8499 54.5142 54.922 53.0266C56.9941 51.5391 58.547 49.4387 59.3618 47.0216C60.1766 44.6046 60.2122 41.9927 59.4636 39.5543C58.7149 37.1159 57.2199 34.974 55.1891 33.4305Z" fill="#9C7B70"/>
<path d="M58.0781 49.6875H50.625C50.3764 49.6875 50.1379 49.7863 49.9621 49.9621C49.7863 50.1379 49.6875 50.3764 49.6875 50.625C49.6875 50.8736 49.7863 51.1121 49.9621 51.2879C50.1379 51.4637 50.3764 51.5625 50.625 51.5625H56.5982C57.1512 50.9871 57.6469 50.3591 58.0781 49.6875Z" fill="#876559"/>
<path d="M55.3125 46.875C55.3125 47.1236 55.4113 47.3621 55.5871 47.5379C55.7629 47.7137 56.0014 47.8125 56.25 47.8125H59.0625C59.3164 47.2052 59.5202 46.5781 59.6719 45.9375H56.25C56.0014 45.9375 55.7629 46.0363 55.5871 46.2121C55.4113 46.3879 55.3125 46.6264 55.3125 46.875Z" fill="#876559"/>
<path d="M51.5625 35.625C51.5625 35.8736 51.6613 36.1121 51.8371 36.2879C52.0129 36.4637 52.2514 36.5625 52.5 36.5625H58.0564C57.6198 35.8902 57.1184 35.2622 56.5595 34.6875H52.5C52.2514 34.6875 52.0129 34.7863 51.8371 34.9621C51.6613 35.1379 51.5625 35.3764 51.5625 35.625Z" fill="#876559"/>
<path d="M55.3125 39.375C55.3125 39.6236 55.4113 39.8621 55.5871 40.0379C55.7629 40.2137 56.0014 40.3125 56.25 40.3125H59.6694C59.5156 39.6715 59.3091 39.0444 59.052 38.4375H56.25C56.0014 38.4375 55.7629 38.5363 55.5871 38.7121C55.4113 38.8879 55.3125 39.1264 55.3125 39.375Z" fill="#876559"/>
<path d="M54.0199 41.6053L25.1602 12.745L14.795 23.2846L47.4844 48.3159C47.6648 48.4541 47.8893 48.522 48.1161 48.507C48.3429 48.4921 48.5566 48.3952 48.7173 48.2345L54.0205 42.9312C54.1075 42.8441 54.1765 42.7407 54.2236 42.627C54.2707 42.5132 54.2949 42.3913 54.2948 42.2682C54.2948 42.145 54.2705 42.0231 54.2233 41.9094C54.1761 41.7957 54.107 41.6924 54.0199 41.6053Z" fill="#E2DBD5"/>
<path d="M54.0199 42.9303L48.7172 48.2344C48.5563 48.3948 48.3427 48.4915 48.116 48.5064C47.8893 48.5212 47.6648 48.4534 47.4844 48.3153L22.8633 29.4632C31.875 29.4632 37.7283 25.3125 37.7283 25.3125L54.0199 41.6051C54.1956 41.7809 54.2942 42.0192 54.2942 42.2677C54.2942 42.5162 54.1956 42.7546 54.0199 42.9303Z" fill="#D4CCC7"/>
<path d="M14.7017 23.2031L12.1076 20.6086C12.0205 20.5215 11.9514 20.4181 11.9043 20.3044C11.8571 20.1906 11.8329 20.0687 11.8329 19.9456C11.8329 19.8224 11.8571 19.7005 11.9043 19.5868C11.9514 19.473 12.0205 19.3696 12.1076 19.2826L16.0289 15.3614C16.1971 15.1932 16.2915 14.965 16.2915 14.7272C16.2915 14.4893 16.1971 14.2612 16.0289 14.0929C15.8607 13.9247 15.6325 13.8303 15.3947 13.8303C15.1568 13.8303 14.9287 13.9247 14.7604 14.0929L8.8822 19.9712C8.43126 20.4062 7.89091 20.293 7.55634 19.9712L4.96216 17.377C4.87509 17.2899 4.80601 17.1866 4.75888 17.0728C4.71176 16.9591 4.6875 16.8371 4.6875 16.714C4.6875 16.5909 4.71176 16.469 4.75888 16.3552C4.80601 16.2414 4.87509 16.1381 4.96216 16.051L16.0514 4.96192C16.2272 4.78613 16.4656 4.68738 16.7143 4.68738C16.9629 4.68738 17.2013 4.78613 17.3771 4.96192L25.1602 12.7446C25.2473 12.8316 25.3164 12.935 25.3635 13.0488C25.4107 13.1625 25.4349 13.2844 25.4349 13.4076C25.4349 13.5307 25.4107 13.6526 25.3635 13.7664C25.3164 13.8801 25.2473 13.9835 25.1602 14.0706L16.0276 23.2031C15.8506 23.3767 15.6126 23.474 15.3647 23.474C15.1167 23.474 14.8787 23.3767 14.7017 23.2031Z" fill="#EA6049"/>
<path d="M25.1718 22.0135L19.9523 27.2332L18.45 26.0835L23.8464 20.6871C24.757 19.7647 26.0039 21.178 25.1718 22.0135Z" fill="#C6BAB3"/>
<path d="M27.1875 25.3008L22.9559 29.5324L21.4547 28.3828L25.8621 23.9754C26.7727 23.0519 28.0196 24.4664 27.1875 25.3008Z" fill="#C6BAB3"/>
<path d="M30.1406 27.6514L25.9594 31.8328L24.457 30.6831L28.8141 26.326C29.7258 25.4027 30.9727 26.817 30.1406 27.6514Z" fill="#C6BAB3"/>
<path d="M44.3203 39.9878L40.9758 43.3324L39.4746 42.1815L42.9949 38.6612C43.9055 37.7391 45.1535 39.1523 44.3203 39.9878Z" fill="#C6BAB3"/>
<path d="M47.0695 42.6393L44.0355 45.6734L42.532 44.5237L45.7429 41.3128C46.6535 40.3905 47.9015 41.8038 47.0695 42.6393Z" fill="#C6BAB3"/>
<path d="M28.125 55.3125H11.25V30.9375H27.9909C34.7161 30.9375 40.2737 36.3281 40.3125 43.0538C40.3201 44.6597 40.0105 46.2514 39.4016 47.7375C38.7927 49.2235 37.8964 50.5748 36.7641 51.7137C35.6318 52.8526 34.2858 53.7568 32.8033 54.3743C31.3208 54.9919 29.731 55.3107 28.125 55.3125Z" fill="#A1887F"/>
<path d="M26.25 19.6875C27.2855 19.6875 28.125 18.848 28.125 17.8125C28.125 16.777 27.2855 15.9375 26.25 15.9375C25.2145 15.9375 24.375 16.777 24.375 17.8125C24.375 18.848 25.2145 19.6875 26.25 19.6875Z" fill="#EFEBE8"/>
<path d="M29.5312 22.5C30.3079 22.5 30.9375 21.8704 30.9375 21.0938C30.9375 20.3171 30.3079 19.6875 29.5312 19.6875C28.7546 19.6875 28.125 20.3171 28.125 21.0938C28.125 21.8704 28.7546 22.5 29.5312 22.5Z" fill="#EFEBE8"/>
<path d="M25.1601 12.7443L17.7014 5.28601C17.7755 5.8647 17.8126 6.44752 17.8125 7.03093C17.8161 9.4798 17.155 11.8837 15.8996 13.9864C16.0089 14.0604 16.1005 14.1576 16.1677 14.2712C16.235 14.3848 16.2762 14.5119 16.2886 14.6433C16.3009 14.7747 16.284 14.9072 16.239 15.0313C16.194 15.1554 16.1222 15.2681 16.0285 15.3611L12.1072 19.2823C12.0201 19.3694 11.951 19.4727 11.9039 19.5865C11.8568 19.7002 11.8325 19.8222 11.8325 19.9453C11.8325 20.0684 11.8568 20.1903 11.9039 20.3041C11.951 20.4179 12.0201 20.5212 12.1072 20.6083L14.7016 23.2028C14.8786 23.3765 15.1166 23.4737 15.3645 23.4737C15.6125 23.4737 15.8505 23.3765 16.0275 23.2028L25.1601 14.0703C25.2472 13.9832 25.3163 13.8799 25.3634 13.7661C25.4105 13.6523 25.4348 13.5304 25.4348 13.4073C25.4348 13.2841 25.4105 13.1622 25.3634 13.0485C25.3163 12.9347 25.2472 12.8313 25.1601 12.7443Z" fill="#DE513E"/>
<path d="M15.9375 11.25C16.973 11.25 17.8125 10.4105 17.8125 9.375C17.8125 8.33947 16.973 7.5 15.9375 7.5C14.902 7.5 14.0625 8.33947 14.0625 9.375C14.0625 10.4105 14.902 11.25 15.9375 11.25Z" fill="#F27C6D"/>
<path d="M13.125 13.125C13.6428 13.125 14.0625 12.7053 14.0625 12.1875C14.0625 11.6697 13.6428 11.25 13.125 11.25C12.6072 11.25 12.1875 11.6697 12.1875 12.1875C12.1875 12.7053 12.6072 13.125 13.125 13.125Z" fill="#F27C6D"/>
<path d="M35.625 44.0625H40.2762C40.3016 43.7297 40.3143 43.3934 40.3123 43.0537C40.3106 42.7623 40.2979 42.4736 40.2758 42.1875H35.625C35.3764 42.1875 35.1379 42.2863 34.9621 42.4621C34.7863 42.6379 34.6875 42.8764 34.6875 43.125C34.6875 43.3736 34.7863 43.6121 34.9621 43.7879C35.1379 43.9637 35.3764 44.0625 35.625 44.0625Z" fill="#9C7B70"/>
<path d="M28.125 39.375C28.125 39.6236 28.2238 39.8621 28.3996 40.0379C28.5754 40.2137 28.8139 40.3125 29.0625 40.3125H39.9819C39.8281 39.6715 39.6216 39.0444 39.3645 38.4375H29.0625C28.8139 38.4375 28.5754 38.5363 28.3996 38.7121C28.2238 38.8879 28.125 39.1264 28.125 39.375Z" fill="#9C7B70"/>
<path d="M33.75 49.6875C33.6216 49.6875 33.4946 49.7138 33.3768 49.7649C33.259 49.816 33.153 49.8907 33.0653 49.9845C32.9776 50.0782 32.9101 50.189 32.8669 50.3099C32.8238 50.4308 32.8059 50.5593 32.8145 50.6873C32.8356 50.9284 32.947 51.1525 33.1265 51.3148C33.3059 51.4771 33.5401 51.5656 33.7821 51.5625H46.875C47.1236 51.5625 47.3621 51.4637 47.5379 51.2879C47.7137 51.1121 47.8125 50.8736 47.8125 50.625C47.8125 50.3764 47.7137 50.1379 47.5379 49.9621C47.3621 49.7863 47.1236 49.6875 46.875 49.6875H33.75Z" fill="#9C7B70"/>
<path d="M30.9375 35.625C30.9375 35.8736 31.0363 36.1121 31.2121 36.2879C31.3879 36.4637 31.6264 36.5625 31.875 36.5625H38.3689C37.9323 35.8902 37.4309 35.2622 36.872 34.6875H31.875C31.6264 34.6875 31.3879 34.7863 31.2121 34.9621C31.0363 35.1379 30.9375 35.3764 30.9375 35.625Z" fill="#9C7B70"/>
<path d="M29.0625 46.875C29.0625 47.1236 29.1613 47.3621 29.3371 47.5379C29.5129 47.7137 29.7514 47.8125 30 47.8125H39.375C39.6289 47.2052 39.8327 46.5781 39.9844 45.9375H30C29.7514 45.9375 29.5129 46.0363 29.3371 46.2121C29.1613 46.3879 29.0625 46.6264 29.0625 46.875Z" fill="#9C7B70"/>
<path d="M30 49.6875H18.75V51.5625H30C30.2486 51.5625 30.4871 51.4637 30.6629 51.2879C30.8387 51.1121 30.9375 50.8736 30.9375 50.625C30.9375 50.3764 30.8387 50.1379 30.6629 49.9621C30.4871 49.7863 30.2486 49.6875 30 49.6875Z" fill="#9C7B70"/>
<path d="M26.25 45.9375H18.75V47.8125H26.25C26.4986 47.8125 26.7371 47.7137 26.9129 47.5379C27.0887 47.3621 27.1875 47.1236 27.1875 46.875C27.1875 46.6264 27.0887 46.3879 26.9129 46.2121C26.7371 46.0363 26.4986 45.9375 26.25 45.9375Z" fill="#9C7B70"/>
<path d="M28.125 34.6875H18.75V36.5625H28.125C28.3736 36.5625 28.6121 36.4637 28.7879 36.2879C28.9637 36.1121 29.0625 35.8736 29.0625 35.625C29.0625 35.3764 28.9637 35.1379 28.7879 34.9621C28.6121 34.7863 28.3736 34.6875 28.125 34.6875Z" fill="#9C7B70"/>
<path d="M25.3125 38.4375H18.75V40.3125H25.3125C25.5611 40.3125 25.7996 40.2137 25.9754 40.0379C26.1512 39.8621 26.25 39.6236 26.25 39.375C26.25 39.1264 26.1512 38.8879 25.9754 38.7121C25.7996 38.5363 25.5611 38.4375 25.3125 38.4375Z" fill="#9C7B70"/>
<path d="M31.875 42.1875H18.75V44.0625H31.875C32.1236 44.0625 32.3621 43.9637 32.5379 43.7879C32.7137 43.6121 32.8125 43.3736 32.8125 43.125C32.8125 42.8764 32.7137 42.6379 32.5379 42.4621C32.3621 42.2863 32.1236 42.1875 31.875 42.1875Z" fill="#9C7B70"/>
<path d="M12.1875 55.3125C18.9185 55.3125 24.375 49.856 24.375 43.125C24.375 36.394 18.9185 30.9375 12.1875 30.9375C5.45653 30.9375 0 36.394 0 43.125C0 49.856 5.45653 55.3125 12.1875 55.3125Z" fill="#FFEAD2"/>
<path d="M12.1875 51.5625C10.5187 51.5625 8.88742 51.0677 7.49988 50.1405C6.11234 49.2134 5.03088 47.8956 4.39227 46.3539C3.75366 44.8121 3.58657 43.1156 3.91213 41.4789C4.23769 39.8422 5.04128 38.3388 6.22129 37.1588C7.4013 35.9788 8.90471 35.1752 10.5414 34.8496C12.1781 34.5241 13.8746 34.6912 15.4164 35.3298C16.9581 35.9684 18.2759 37.0498 19.203 38.4374C20.1302 39.8249 20.625 41.4562 20.625 43.125C20.6225 45.362 19.7327 47.5066 18.1509 49.0884C16.5691 50.6702 14.4245 51.56 12.1875 51.5625ZM12.1875 36.5625C10.8896 36.5625 9.62077 36.9474 8.54157 37.6685C7.46238 38.3896 6.62124 39.4145 6.12454 40.6136C5.62784 41.8128 5.49788 43.1323 5.7511 44.4053C6.00432 45.6783 6.62933 46.8476 7.54712 47.7654C8.4649 48.6832 9.63422 49.3082 10.9072 49.5614C12.1802 49.8146 13.4997 49.6847 14.6989 49.188C15.898 48.6913 16.9229 47.8501 17.644 46.7709C18.3651 45.6917 18.75 44.4229 18.75 43.125C18.748 41.3851 18.056 39.7171 16.8257 38.4868C15.5954 37.2565 13.9274 36.5645 12.1875 36.5625Z" fill="#F5D3B8"/>
<path d="M12.1875 47.8125C11.2604 47.8125 10.3541 47.5376 9.58327 47.0225C8.81241 46.5074 8.2116 45.7754 7.85682 44.9188C7.50203 44.0623 7.4092 43.1198 7.59007 42.2105C7.77094 41.3012 8.21738 40.466 8.87294 39.8104C9.5285 39.1549 10.3637 38.7084 11.273 38.5276C12.1823 38.3467 13.1248 38.4395 13.9813 38.7943C14.8379 39.1491 15.5699 39.7499 16.085 40.5208C16.6001 41.2916 16.875 42.1979 16.875 43.125C16.8736 44.3678 16.3793 45.5592 15.5005 46.438C14.6217 47.3168 13.4303 47.8111 12.1875 47.8125ZM12.1875 40.3125C11.6312 40.3125 11.0875 40.4775 10.625 40.7865C10.1624 41.0955 9.80196 41.5348 9.58909 42.0487C9.37622 42.5626 9.32052 43.1281 9.42904 43.6737C9.53756 44.2193 9.80543 44.7204 10.1988 45.1137C10.5921 45.5071 11.0932 45.7749 11.6388 45.8835C12.1844 45.992 12.7499 45.9363 13.2638 45.7234C13.7777 45.5105 14.217 45.1501 14.526 44.6875C14.8351 44.225 15 43.6813 15 43.125C14.9992 42.3793 14.7026 41.6645 14.1753 41.1372C13.6481 40.6099 12.9332 40.3133 12.1875 40.3125Z" fill="#F5D3B8"/>
<path d="M12.1875 44.0625C12.7053 44.0625 13.125 43.6428 13.125 43.125C13.125 42.6072 12.7053 42.1875 12.1875 42.1875C11.6697 42.1875 11.25 42.6072 11.25 43.125C11.25 43.6428 11.6697 44.0625 12.1875 44.0625Z" fill="#F5D3B8"/>
</g>
<defs>
<clipPath id="clip0_932_844">
<rect width="60" height="60" fill="white"/>
</clipPath>
</defs>
</svg>
