<svg width="40" height="40" viewBox="0 0 40 40" fill="none" xmlns="http://www.w3.org/2000/svg">
<g clip-path="url(#clip0_410_10171)">
<path d="M18.0335 0.0463371C17.641 0.143173 16.923 0.546665 16.6976 0.804897C16.2634 1.30523 16.0547 1.82977 16.0129 2.53184L15.9712 3.20163H16.6475H17.3154L17.3488 2.63675C17.3822 2.03958 17.5074 1.78942 17.95 1.47469C18.1754 1.30523 18.2839 1.30523 22.7675 1.28102L27.3512 1.26488V8.04353V14.8222H28.0191H28.6871V8.04353V1.26488H33.1539C38.1133 1.26488 37.9965 1.25681 38.4223 1.79749L38.6644 2.09607V18.7038V35.3114L38.4891 35.5293C38.3972 35.6504 38.2135 35.8279 38.0883 35.9167C37.8712 36.0781 37.746 36.0861 34.6067 36.1103L31.3588 36.1346V36.7721V37.4177H32.152H32.9452L33.5714 38.6281C33.9137 39.2899 34.2644 39.8709 34.3562 39.9193C34.448 39.9597 35.0492 40 35.7422 40C36.9278 40 36.9695 39.9919 37.1615 39.7983C37.3619 39.6126 37.3703 39.5642 37.3703 38.5232V37.4338L37.7627 37.3773C38.2636 37.3128 39.0652 36.9012 39.3407 36.5865C39.4576 36.4574 39.6496 36.1588 39.7748 35.9328L40.0003 35.5213V18.6957V1.87011L39.7748 1.45855C39.4409 0.845249 39.1904 0.595085 38.6059 0.288429L38.0799 0.0140572L28.1861 -0.00208282C22.7424 -0.00208282 18.1754 0.0140572 18.0335 0.0463371ZM36.0344 38.0632V38.7088H35.5752H35.116L34.782 38.0632L34.448 37.4177H35.2412H36.0344V38.0632Z" fill="#BA8756"/>
<path d="M10.6525 3.84719V4.49278H7.85554H5.05019L4.84981 4.69452C4.73292 4.79943 4.64108 4.95276 4.64108 5.03346C4.64108 5.11415 4.4908 6.90565 4.30711 9.01188C4.12343 11.1181 3.97314 12.9096 3.97314 12.9903C3.97314 13.071 4.06499 13.2243 4.18188 13.3292L4.38226 13.531H7.52157H10.6525V14.1766V14.8221H11.3205H11.9884V14.1766V13.531H15.1194H18.2587L18.4591 13.3292C18.5759 13.2243 18.6678 13.071 18.6678 12.9903C18.6678 12.9096 18.5175 11.1181 18.3338 9.01188C18.1501 6.90565 17.9998 5.11415 17.9998 5.03346C17.9998 4.95276 17.908 4.79943 17.7911 4.69452L17.5907 4.49278H14.7854H11.9884V3.84719V3.20161H11.3205H10.6525V3.84719ZM16.7475 5.96148C16.7475 6.06639 16.8644 7.43826 16.9979 9.01188C17.1315 10.5855 17.2484 11.9574 17.2484 12.0542V12.2398H11.3205H5.39251V12.0542C5.39251 11.9574 5.5094 10.5855 5.64299 9.01188C5.77658 7.43826 5.89347 6.06639 5.89347 5.96148V5.78395H11.3205H16.7475V5.96148Z" fill="#00045F"/>
<path d="M6.0104 16.1859C5.61799 16.2828 4.89996 16.6863 4.67453 16.9445C4.55764 17.0817 4.36561 17.3722 4.24037 17.5982C4.01494 18.0097 4.01494 18.0178 3.98989 19.9626L3.96484 21.9236H4.63278H5.30072L5.32577 20.0756C5.35082 18.042 5.35916 18.0178 5.92691 17.6143C6.15234 17.4448 6.19409 17.4448 17.2151 17.4206C29.4467 17.4045 28.6201 17.3641 29.071 17.9371L29.3131 18.2357L29.3382 20.0837L29.3632 21.9236H30.0311H30.7074L30.674 19.9626C30.649 18.0178 30.649 18.0097 30.4235 17.5982C30.0896 16.9849 29.8391 16.7347 29.2547 16.428L28.7287 16.1537L17.4989 16.1375C11.3205 16.1375 6.15234 16.1537 6.0104 16.1859Z" fill="#BA8756"/>
<path d="M13.3242 20.6324V21.278H13.9922H14.6601V20.6324V19.9868H13.9922H13.3242V20.6324Z" fill="#00045F"/>
<path d="M20.0034 20.6324V21.278H20.6714H21.3393V20.6324V19.9868H20.6714H20.0034V20.6324Z" fill="#00045F"/>
<path d="M3.88963 23.2632C2.98791 23.4327 1.96096 23.9491 1.34311 24.5463C0.892254 24.9901 0.424697 25.7245 0.199268 26.3459C-0.0512088 27.056 -0.0679073 28.3553 0.165871 29.025C0.71692 30.5987 1.97765 31.7607 3.53061 32.1077L3.95642 32.2046L3.98982 33.8669L4.01487 35.5213L4.29874 36.0296C4.45737 36.3121 4.6995 36.6268 4.83309 36.7398C5.20881 37.0464 5.80995 37.3128 6.25246 37.3773L6.64487 37.4338V38.5232C6.64487 39.5642 6.65322 39.6126 6.8536 39.7983C7.04564 39.9919 7.08738 40 8.27297 40C8.96596 40 9.5671 39.9597 9.65894 39.9193C9.75078 39.8709 10.1015 39.2899 10.4438 38.6281L11.07 37.4177H17.3319H23.5938L24.22 38.6281C24.5623 39.2899 24.913 39.8709 25.0048 39.9193C25.0967 39.9597 25.6978 40 26.3908 40C27.5764 40 27.6181 39.9919 27.8102 39.7983C28.0105 39.6126 28.0189 39.5642 28.0189 38.5232V37.4338L28.4197 37.3773C28.9123 37.3128 29.7138 36.9012 29.9893 36.5865C30.1062 36.4574 30.2982 36.1588 30.4235 35.9328C30.6406 35.5293 30.6489 35.4809 30.674 33.8669L30.7073 32.2046L31.1332 32.1077C32.6778 31.7607 33.9552 30.5906 34.4979 29.025C34.715 28.4117 34.715 27.056 34.4979 26.4427C33.9719 24.9417 32.9115 23.9169 31.3586 23.4085C30.6656 23.1825 29.3214 23.1986 28.5866 23.4407C27.042 23.9572 25.8064 25.2968 25.464 26.8381C25.3972 27.169 25.3471 27.8711 25.3471 28.678V29.9934L25.1551 29.9208C24.8211 29.7998 22.9092 29.4366 21.924 29.3156C18.9266 28.9363 15.2529 28.9524 12.4476 29.3559C11.5876 29.477 10.1682 29.7513 9.72574 29.8724L9.33332 29.9773L9.29993 28.3956C9.25818 26.6687 9.17469 26.2732 8.61529 25.3614C7.87221 24.1347 6.3944 23.3116 4.84979 23.2551C4.44068 23.239 4.00652 23.2471 3.88963 23.2632ZM6.01033 24.8126C6.76176 25.1515 7.25437 25.6196 7.63008 26.3459L7.939 26.9592L7.96405 28.6619L7.99745 30.3646L7.29611 30.6229C6.24411 31.0102 6.26081 30.9779 6.65322 31.6235L6.98719 32.1723L7.30446 32.019C7.82211 31.7607 9.5337 31.2362 10.6108 31.0022C14.8188 30.0983 19.845 30.0983 24.053 31.0022C25.1301 31.2362 26.8417 31.7607 27.3593 32.019L27.6766 32.1723L28.0105 31.6235C28.403 30.986 28.4197 31.0102 27.376 30.6229L26.683 30.3727V28.904C26.683 27.3062 26.7749 26.7574 27.1589 26.128C27.4929 25.5792 28.0523 25.087 28.6701 24.8045C29.1794 24.5705 29.3047 24.5463 30.0311 24.5463C30.7825 24.5463 30.8576 24.5624 31.4588 24.8449C32.2186 25.208 32.6861 25.6761 33.0535 26.4266C33.2956 26.9188 33.3207 27.0399 33.3207 27.7339C33.3207 28.4279 33.2956 28.5489 33.0535 29.0412C32.9115 29.3398 32.636 29.7433 32.4356 29.945C31.9514 30.4615 31.0747 30.865 30.3316 30.9376C29.3631 31.0183 29.4049 30.9295 29.3548 33.2859C29.313 35.5051 29.3047 35.5051 28.7369 35.9167C28.5115 36.0861 28.4865 36.0861 17.3402 36.0861H6.16897L5.86004 35.8521C5.34239 35.4728 5.309 35.3195 5.309 33.2214C5.309 31.3895 5.309 31.3572 5.11696 31.1716C4.97503 31.0344 4.79134 30.9779 4.35718 30.9376C3.17159 30.8327 2.19473 30.171 1.65203 29.1219C1.35981 28.5409 1.34311 28.4682 1.34311 27.7419C1.34311 27.0399 1.36816 26.9188 1.61029 26.4266C1.94426 25.7406 2.42016 25.2403 3.04636 24.9256C3.69759 24.5866 4.06496 24.506 4.82474 24.5382C5.33404 24.5624 5.59287 24.627 6.01033 24.8126ZM9.23313 38.0632L8.89916 38.7088H8.43996H7.98075V38.0632V37.4177H8.77393H9.5671L9.23313 38.0632ZM26.683 38.0632V38.7088H26.2238H25.7646L25.4306 38.0632L25.0967 37.4177H25.8898H26.683V38.0632Z" fill="#BA8756"/>
<path d="M3.97309 25.902C3.56398 26.0311 2.86265 26.7252 2.73741 27.1367C2.50363 27.8953 2.67061 28.5005 3.26341 29.0654C4.10668 29.8885 5.17538 29.8885 6.01865 29.0654C6.83688 28.2826 6.86193 27.2739 6.08545 26.4427C5.54275 25.8617 4.76627 25.6599 3.97309 25.902ZM5.10024 27.29C5.23383 27.4111 5.30897 27.5806 5.30897 27.7339C5.30897 27.8872 5.23383 28.0567 5.10024 28.1777C4.975 28.3068 4.79967 28.3795 4.64103 28.3795C4.4824 28.3795 4.30706 28.3068 4.18182 28.1777C4.04824 28.0567 3.97309 27.8872 3.97309 27.7339C3.97309 27.5806 4.04824 27.4111 4.18182 27.29C4.30706 27.1609 4.4824 27.0883 4.64103 27.0883C4.79967 27.0883 4.975 27.1609 5.10024 27.29Z" fill="#00045F"/>
<path d="M29.3549 25.902C28.9458 26.0311 28.2445 26.7252 28.1192 27.1367C27.8855 27.8953 28.0524 28.5005 28.6452 29.0654C29.4885 29.8885 30.5572 29.8885 31.4005 29.0654C32.2187 28.2826 32.2438 27.2739 31.4673 26.4427C30.9246 25.8617 30.1481 25.6599 29.3549 25.902ZM30.4821 27.29C30.8995 27.6855 30.6073 28.3795 30.0229 28.3795C29.6805 28.3795 29.3549 28.0647 29.3549 27.7339C29.3549 27.403 29.6805 27.0883 30.0229 27.0883C30.1815 27.0883 30.3568 27.1609 30.4821 27.29Z" fill="#00045F"/>
<path d="M9.98438 23.8603V24.5059H10.6523H11.3203V23.8603V23.2147H10.6523H9.98438V23.8603Z" fill="#00045F"/>
<path d="M16.6641 23.8603V24.5059H17.332H17.9999V23.8603V23.2147H17.332H16.6641V23.8603Z" fill="#00045F"/>
<path d="M23.3433 23.8603V24.5059H24.0112H24.6791V23.8603V23.2147H24.0112H23.3433V23.8603Z" fill="#00045F"/>
<path d="M13.3242 27.0883V27.7339H13.9922H14.6601V27.0883V26.4427H13.9922H13.3242V27.0883Z" fill="#00045F"/>
<path d="M20.0034 27.0883V27.7339H20.6714H21.3393V27.0883V26.4427H20.6714H20.0034V27.0883Z" fill="#00045F"/>
</g>
<defs>
<clipPath id="clip0_410_10171">
<rect width="40" height="40" fill="white"/>
</clipPath>
</defs>
</svg>
