<svg width="40" height="40" viewBox="0 0 40 40" fill="none" xmlns="http://www.w3.org/2000/svg">
<g clip-path="url(#clip0_410_10156)">
<path d="M7.91129 0.0934296C6.96774 0.359741 6.57258 0.650265 4.85484 2.35305C3.07258 4.11233 3.04032 4.16882 3.3871 4.69338C3.67742 5.13723 3.57258 5.62144 3.15323 5.7667C2.94355 5.83933 2.84677 5.82319 2.54032 5.65372C1.93548 5.33899 1.84677 5.37127 0.991936 6.20248C0.233871 6.94493 0 7.25966 0 7.53405C0 7.60668 1.10484 8.77684 2.47581 10.1568C4.76613 12.4487 4.97581 12.6424 5.23387 12.6424C5.47581 12.6424 5.6129 12.5375 6.3629 11.8031C7.1129 11.0607 7.20968 10.9316 7.20968 10.6814C7.20968 10.52 7.1371 10.3182 7.03226 10.181C6.79839 9.88244 6.80645 9.53543 7.05645 9.29333C7.30645 9.03508 7.6129 9.03508 8 9.3014C8.29032 9.50315 8.45968 9.51929 8.79032 9.3821C8.87097 9.34982 9.31452 9.73718 10.2258 10.6491L11.5403 11.9726L7.75807 14.8133C5.66936 16.3789 3.94355 17.7104 3.91936 17.775C3.89516 17.8476 3.87097 18.7192 3.87097 19.7118V21.5276L4.07258 21.7213C4.37903 22.0279 4.65323 21.9876 5.27419 21.5195L5.80645 21.1079V27.9756V34.8351H3.10484H0.395161L0.201613 35.0369L0 35.2306V37.4176V39.6046L0.201613 39.7982L0.395161 40H20H39.6048L39.7984 39.7982L40 39.6046V37.4176V35.2306L39.7984 35.0369L39.6048 34.8351H36.8952H34.1936V27.9756V21.1079L34.7258 21.5195C35.3468 21.9876 35.621 22.0279 35.9274 21.7213L36.129 21.5276V19.6795C36.129 18.0252 36.1129 17.8073 35.9919 17.662C35.9113 17.5732 35.3306 17.1132 34.7016 16.6452L33.5484 15.7817V12.594V9.40631L33.3468 9.21263L33.1532 9.01087H30.9677H28.7823L28.5887 9.21263C28.3952 9.40631 28.3871 9.43859 28.3871 10.6652V11.9161L24.2984 8.84947C21.3065 6.60599 20.1613 5.78284 20 5.78284C19.8468 5.78284 19.1532 6.25897 17.5323 7.47756C16.2984 8.40562 15.2419 9.17227 15.2016 9.17227C15.1532 9.17227 14.4516 8.50246 13.629 7.67931L12.1452 6.19441L12.3871 6.10564C12.6532 6.00073 13.4919 6.03301 14.6936 6.19441C15.4758 6.29932 15.4839 6.29932 15.6855 6.10564C15.8306 5.97652 15.8871 5.83126 15.8871 5.62951C15.8871 5.36319 15.7339 5.19372 13.6935 3.13585C12.4839 1.92534 11.2984 0.803596 11.0645 0.650265C10.8387 0.496933 10.4355 0.295181 10.1774 0.206409C9.56452 -0.0195541 8.48387 -0.0679741 7.91129 0.0934296ZM9.95968 1.49762C10.2661 1.63482 10.7339 2.04639 11.879 3.18427L13.3952 4.69338L12.7661 4.73373C11.6855 4.80636 11.2823 5.05653 9.68548 6.6302L8.32258 7.96983L7.97581 7.88106C6.60484 7.50984 5.27419 8.8414 5.64516 10.2133C5.73387 10.5603 5.73387 10.5765 5.46774 10.8347L5.20161 11.1091L3.3871 9.29333L1.58065 7.47756L1.83871 7.21124L2.10484 6.93686L2.5 7.04177C3.39516 7.27581 4.35484 6.7916 4.70968 5.9281C4.85484 5.59723 4.87903 4.85478 4.76613 4.54811C4.69355 4.37057 4.79839 4.24952 5.95161 3.10357C6.65323 2.41761 7.33871 1.76394 7.49194 1.65903C8.12097 1.23131 9.20161 1.15868 9.95968 1.49762ZM11.25 8.44597L10.5645 9.13192L10.1855 8.74456L9.79839 8.36527L10.4839 7.67931L11.1613 6.99335L11.5484 7.37265L11.9355 7.76001L11.25 8.44597ZM27.4194 12.8038L34.8387 18.3722V19.1792V19.9862L27.5645 14.5227C22.4436 10.6814 20.2097 9.05122 20.0403 9.02701C19.8387 9.0028 19.5887 9.15613 18.4516 10.0116C17.7097 10.5684 17.0726 11.0284 17.0323 11.0284C17 11.0284 16.7742 10.8347 16.5403 10.5926L16.1129 10.1568L18.0323 8.70421C19.0968 7.8972 19.9677 7.24352 19.9839 7.24352C19.9919 7.23545 23.3387 9.74525 27.4194 12.8038ZM20.9677 18.1704L20.2823 18.8564L15.8871 14.4582L11.4919 10.06L12.1774 9.37403L12.8629 8.68807L17.2581 13.0863L21.6532 17.4845L20.9677 18.1704ZM32.2581 12.5617V14.8213L30.9677 13.8529L29.6774 12.8845V11.5933V10.3021H30.9677H32.2581V12.5617ZM23.3387 12.9652L26.6129 15.4266L24.0161 15.4508L21.4113 15.4669L19.6774 13.7319C18.0403 12.0936 17.9516 11.9887 18.1048 11.8838C18.1936 11.8193 18.6452 11.4803 19.1129 11.1252C19.5806 10.7621 19.9839 10.4796 20.0081 10.4877C20.0323 10.4958 21.5323 11.6094 23.3387 12.9652ZM13.3226 13.861C13.2903 13.8852 11.4435 15.2813 9.21774 16.9518L5.16129 19.9862V19.1792V18.3722L8.81452 15.6364L12.4597 12.8926L12.9194 13.3526C13.1774 13.6028 13.3548 13.8287 13.3226 13.861ZM14.6048 15.4508C14.379 15.4669 14.0081 15.4669 13.7823 15.4508L13.371 15.4266L13.8387 15.0796L14.3065 14.7406L14.6613 15.0796L15.0081 15.4266L14.6048 15.4508ZM17.621 18.0494L18.9113 19.3406H13.5565C10.6048 19.3406 8.21774 19.3244 8.23387 19.3002C8.25807 19.2841 9.01613 18.703 9.92742 18.0171L11.5726 16.7662H13.9516L16.3306 16.7582L17.621 18.0494ZM30.0242 17.9767C30.9194 18.6546 31.6855 19.2357 31.7339 19.268C31.7742 19.3083 29.5806 19.3406 26.7339 19.3406H21.6532L22.3952 18.5901C23.2984 17.6943 23.371 17.4925 22.9839 17.0487L22.7258 16.7582H25.5565H28.3952L30.0242 17.9767ZM32.9032 27.7335V34.8351H25.8065H18.7097V28.5808V22.3184L18.5081 22.1248L18.3145 21.923H13.5484H8.78226L8.58871 22.1248L8.3871 22.3184V28.5808V34.8351H7.74194H7.09677V27.7335V20.6318H20H32.9032V27.7335ZM17.4194 29.0247V34.8351H13.5484H9.67742V29.0247V23.2142H13.5484H17.4194V29.0247ZM38.7097 37.4176V38.7088H20H1.29032V37.4176V36.1264H20H38.7097V37.4176Z" fill="#BA8756"/>
<path d="M20.2016 22.1247L20 22.3184V26.4422V30.5661L20.2016 30.7597L20.3952 30.9615H25.8065H31.2177L31.4113 30.7597L31.6129 30.5661V26.4422V22.3184L31.4113 22.1247L31.2177 21.923H25.8065H20.3952L20.2016 22.1247ZM23.0242 24.1019C22.2903 25.5707 22.3387 25.6433 24.379 26.0387L25.8065 26.3131V26.9184V27.5156L25 28.597L24.1935 29.6703H22.7419H21.2903V26.4422V23.2142H22.379H23.4677L23.0242 24.1019ZM30.3226 25.1914V27.1685L29.7823 26.8054L29.2339 26.4422H28.1694H27.0968V26.0065C27.0968 25.3124 27.0161 25.2559 25.5242 24.9493C24.8145 24.7959 24.2258 24.6749 24.2097 24.6749C24.2016 24.6668 24.3548 24.3359 24.5565 23.9405L24.9194 23.2142H27.621H30.3226V25.1914ZM29.5726 28.2257L30.3226 28.7261V29.1941V29.6703H28.0645H25.8065L26.4516 28.8068C26.8065 28.3387 27.0968 27.9029 27.0968 27.8384C27.0968 27.7577 27.2903 27.7335 27.9597 27.7335H28.8226L29.5726 28.2257Z" fill="#00045F"/>
<path d="M14.8389 29.0247V29.6703H15.4845H16.1301V29.0247V28.3791H15.4845H14.8389V29.0247Z" fill="#00045F"/>
</g>
<defs>
<clipPath id="clip0_410_10156">
<rect width="40" height="40" fill="white"/>
</clipPath>
</defs>
</svg>
