<svg width="60" height="60" viewBox="0 0 60 60" fill="none" xmlns="http://www.w3.org/2000/svg">
<path d="M28.1184 9.375H13.1184C12.6007 9.375 12.1809 8.95568 12.1809 8.4375V5.625C12.1809 3.55683 13.8632 1.875 15.9309 1.875H25.3059C27.3736 1.875 29.0559 3.55683 29.0559 5.625V8.4375C29.0559 8.95568 28.6361 9.375 28.1184 9.375ZM27.1809 5.625C27.1809 4.59137 26.34 3.75 25.3059 3.75H15.9309C14.8968 3.75 14.0559 4.59137 14.0559 5.625V7.5H27.1809V5.625Z" fill="#0E5952"/>
<path d="M43.1184 29.0625H54.3684C56.4361 29.0625 58.1184 30.7443 58.1184 32.8125V42.1875C58.1184 44.2557 56.4361 45.9375 54.3684 45.9375H43.1184C42.6007 45.9375 42.1809 45.5182 42.1809 45V30C42.1809 29.4818 42.6007 29.0625 43.1184 29.0625ZM44.0559 44.0625H54.3684C55.4025 44.0625 56.2434 43.2211 56.2434 42.1875V32.8125C56.2434 31.7789 55.4025 30.9375 54.3684 30.9375H44.0559V44.0625Z" fill="#0E5952"/>
<path d="M21.1636 45.423C20.7662 44.6493 21.6879 43.9174 21.5558 43.125C21.5636 40.106 17.3491 39.2403 16.1634 42.01C15.9142 42.6359 15.001 42.775 14.5842 42.2387C13.0346 40.3866 12.1809 38.0383 12.1809 35.625V16.875C12.1809 16.3568 12.6007 15.9375 13.1184 15.9375H28.1184C28.6361 15.9375 29.0559 16.3568 29.0559 16.875V27.1875C29.0559 28.2211 29.8968 29.0625 30.9309 29.0625H34.6809C35.1986 29.0625 35.6184 29.4818 35.6184 30V45C35.6184 45.5182 35.1986 45.9375 34.6809 45.9375H22.4934C22.0021 45.938 21.4143 45.9242 21.1636 45.423ZM19.7567 38.5546L19.8426 37.462C19.9539 37.5286 21.8339 36.517 21.9752 36.4636C23.0675 35.894 22.2496 34.2553 21.1366 34.7864C21.1366 34.7864 19.5339 35.5878 19.5339 35.5878L17.8782 33.0313C17.5976 32.5974 17.0167 32.4719 16.5819 32.7548C16.147 33.0359 16.0229 33.6163 16.3044 34.0512L18.0215 36.7017L17.8782 38.5229C18.4884 38.3999 19.1548 38.4137 19.7567 38.5546ZM25.3059 43.125C25.6163 43.1192 25.9068 42.9602 26.0859 42.7075L27.961 39.895C28.6353 38.8731 27.0877 37.8381 26.4009 38.855C26.4009 38.855 24.8042 41.25 24.8042 41.25H23.0336C23.2861 41.8252 23.4309 42.4577 23.4309 43.125H25.3059Z" fill="#0E5952"/>
<path d="M17.1425 46.2128C17.4909 45.8508 18.1211 45.8505 18.4695 46.2128C18.4695 46.2128 21.1206 48.8635 21.1206 48.8635C21.9833 49.733 20.6659 51.053 19.7949 50.1891C19.795 50.1892 18.7435 49.1379 18.7435 49.1379V57.1875C18.7435 57.7057 18.3237 58.125 17.806 58.125C17.2883 58.125 16.8685 57.7057 16.8685 57.1875V49.1379C16.458 49.4752 15.7285 50.5289 15.1542 50.4639C14.3525 50.492 13.8933 49.4206 14.4914 48.8635C14.4913 48.8635 17.1425 46.2128 17.1425 46.2128Z" fill="#0E5952"/>
<path d="M2.80598 43.9014H10.855L9.80381 42.8504C8.94121 41.9819 10.2585 40.6602 11.1295 41.5247C11.1295 41.5247 13.7805 44.1752 13.7805 44.1752C14.1427 44.5235 14.143 45.1543 13.7805 45.5025C13.7805 45.5025 11.1295 48.154 11.1295 48.154C10.9464 48.3371 10.7065 48.4287 10.4666 48.4287C9.6653 48.456 9.20555 47.386 9.80384 46.8283C9.8038 46.8283 10.8556 45.7764 10.8556 45.7764H2.80597C1.57426 45.7561 1.57337 43.9218 2.80598 43.9014Z" fill="#0E5952"/>
<path d="M13.5869 7.5H27.6494C34.4699 7.74065 34.4754 17.57 27.6494 17.8125C27.6494 17.8125 13.5869 17.8125 13.5869 17.8125C6.76652 17.5719 6.76094 7.74254 13.5869 7.5Z" fill="#FF9D15"/>
<path d="M38.8997 25.3125C41.7428 25.3125 44.0559 27.626 44.0559 30.4688V44.5312C43.8152 51.3517 33.986 51.3573 33.7434 44.5312V30.4688C33.7434 27.626 36.0565 25.3125 38.8997 25.3125Z" fill="#FF9D15"/>
</svg>
