<svg width="40" height="40" viewBox="0 0 40 40" fill="none" xmlns="http://www.w3.org/2000/svg">
<g clip-path="url(#clip0_410_10126)">
<path d="M13.8343 0.154243C13.2364 0.35767 12.8 0.679756 12.5333 1.09508C12.3879 1.33241 12.2586 1.42565 12.0404 1.46803C10.3677 1.79859 8.87273 3.76503 8.49293 6.12136L8.39596 6.73163L6.91717 6.77401C5.48687 6.81639 5.43838 6.82487 5.28485 7.01982C5.14747 7.19781 5.13131 7.37581 5.13131 9.18968C5.13131 11.0798 5.16364 11.4273 5.41414 12.0461C5.46263 12.1732 5.30909 12.1902 3.66061 12.2156L1.85859 12.241L1.3495 12.5292C0.783838 12.8513 0.541414 13.1141 0.218182 13.7583L0 14.1905V22.3699V30.5492L0.218182 30.9815C0.339394 31.2188 0.525253 31.5325 0.638384 31.6681C0.905051 31.9986 1.68081 32.4309 2.15758 32.4987L2.54545 32.5581V33.3633C2.54545 34.0922 2.56162 34.177 2.74747 34.3634C2.91717 34.5499 3.01414 34.5753 3.55556 34.5753C3.88687 34.5753 4.16162 34.6008 4.16162 34.6347C4.16162 34.6686 3.79798 35.7111 3.35354 36.9486C2.90909 38.1861 2.54545 39.288 2.54545 39.3982C2.54545 39.4999 2.63434 39.6779 2.74747 39.7881C2.93333 39.9915 2.97374 40 4.14545 40C5.1798 40 5.38182 39.9746 5.51919 39.8474C5.60808 39.7711 6.3596 38.5506 7.2 37.1351L8.71919 34.5753H20H31.2808L32.8 37.1351C33.6404 38.5506 34.3919 39.7711 34.4808 39.8474C34.6182 39.9746 34.8202 40 35.8545 40C37.0263 40 37.0667 39.9915 37.2525 39.7881C37.3657 39.6779 37.4545 39.4999 37.4545 39.3982C37.4545 39.288 37.0909 38.1861 36.6465 36.9486C36.202 35.7111 35.8384 34.6686 35.8384 34.6347C35.8384 34.6008 36.1131 34.5753 36.4444 34.5753C36.9859 34.5753 37.0828 34.5499 37.2525 34.3634C37.4384 34.177 37.4545 34.0922 37.4545 33.3633V32.5581L37.8424 32.4987C38.3192 32.4309 39.095 31.9986 39.3616 31.6681C39.4748 31.5325 39.6606 31.2188 39.7818 30.9815L40 30.5492V22.3699V14.1905L39.7818 13.7583C39.4586 13.1141 39.2162 12.8513 38.6505 12.5377C38.1657 12.2665 38.0929 12.2495 37.1556 12.2156L36.1616 12.1817V8.66417V5.15509L35.9596 4.95167L35.7657 4.73977H31.9596H28.1535L27.9596 4.95167C27.7657 5.14662 27.7576 5.19748 27.7576 6.30783V7.4521H25.697H23.6283L23.4343 7.66399L23.2323 7.86742V10.0373V12.1987H17.2444C11.5717 12.1987 11.2566 12.1902 11.3131 12.0461C11.5636 11.4189 11.596 11.0883 11.596 9.17273V7.18934L11.3939 6.98591C11.2162 6.79097 11.1354 6.77401 10.4404 6.77401H9.68081L9.75354 6.32478C10.0202 4.79063 10.8687 3.42599 11.8626 2.9598C12.3232 2.73943 12.4283 2.74791 12.5899 3.03609C12.7838 3.38361 13.4061 3.7735 14.0202 3.94302C15.0869 4.23121 15.9434 3.93455 16.8242 2.99371C17.6 2.16306 17.6 1.89183 16.8242 1.06118C15.9111 0.0864372 14.9091 -0.2187 13.8343 0.154243ZM15.297 1.51041C15.4586 1.59517 15.6687 1.74773 15.7495 1.84945C15.903 2.02744 15.903 2.02744 15.7495 2.20544C15.5232 2.4682 15.0384 2.70552 14.7313 2.70552C14.1818 2.69705 13.5354 2.33258 13.5354 2.02744C13.5354 1.8325 13.7859 1.61212 14.1576 1.46803C14.5859 1.30698 14.9495 1.32393 15.297 1.51041ZM29.697 7.91827C29.697 9.7491 29.697 9.7491 29.899 9.95252L30.0929 10.1644H31.9596H33.8263L34.0202 9.95252C34.2222 9.7491 34.2222 9.7491 34.2222 7.91827V6.09593H34.5455H34.8687V9.1473V12.1987H31.9596H29.0505V9.1473V6.09593H29.3737H29.697V7.91827ZM32.9293 7.4521V8.80826H31.9596H30.9899V7.4521V6.09593H31.9596H32.9293V7.4521ZM10.2869 9.73214C10.2626 11.4867 10.2384 11.563 9.70505 11.9783C9.50303 12.1393 9.36566 12.1563 8.37172 12.1563C7.27273 12.1563 7.25657 12.1563 6.95758 11.9105C6.47273 11.5291 6.42424 11.3087 6.42424 9.61348V8.13018H8.37172H10.3111L10.2869 9.73214ZM27.7576 10.5035V12.1987H26.1414H24.5253V10.5035V8.80826H26.1414H27.7576V10.5035ZM37.9717 13.6735C38.1172 13.7413 38.3434 13.9362 38.4727 14.1142L38.7071 14.4279V22.3784C38.7071 30.2695 38.7071 30.3289 38.5374 30.5577C38.4485 30.6849 38.2707 30.8713 38.1495 30.9646L37.9313 31.1426H20.0081H2.08485L1.78586 30.8968C1.2202 30.4475 1.25253 30.9052 1.25253 22.3784C1.25253 17.1232 1.27677 14.5889 1.34141 14.4279C1.45455 14.1142 1.72121 13.8091 2.0202 13.6735C2.39192 13.504 37.5758 13.504 37.9717 13.6735ZM36.1616 32.8801V33.2192H20H3.83838V32.8801V32.5411H20H36.1616V32.8801ZM7.15152 34.6177C7.15152 34.6432 6.61818 35.5586 5.96364 36.652L4.78384 38.6438H4.46869C4.29899 38.6438 4.16162 38.6184 4.16162 38.5845C4.16162 38.5591 4.47677 37.6437 4.86465 36.5503L5.57576 34.5753H6.3596C6.79596 34.5753 7.15152 34.5923 7.15152 34.6177ZM35.1354 36.5503C35.5232 37.6437 35.8384 38.5591 35.8384 38.5845C35.8384 38.6184 35.701 38.6438 35.5313 38.6438H35.2162L34.0364 36.652C33.3818 35.5586 32.8485 34.6432 32.8485 34.6177C32.8485 34.5923 33.204 34.5753 33.6404 34.5753H34.4242L35.1354 36.5503Z" fill="#BA8756"/>
<path d="M2.6666 14.3516C2.36761 14.4872 2.10095 14.7923 1.98781 15.1059C1.93125 15.2585 1.89893 16.318 1.89893 17.9708C1.89893 20.9035 1.91509 20.9883 2.43226 21.4036L2.73125 21.6494H10.6343C18.4888 21.6494 18.5373 21.6494 18.7555 21.4714C18.8767 21.3782 19.0545 21.1917 19.1434 21.0646C19.305 20.8442 19.3131 20.7255 19.3131 17.9708V15.1059L19.0787 14.7923C18.6504 14.199 19.1272 14.2329 10.61 14.2329C4.37165 14.2414 2.86054 14.2583 2.6666 14.3516ZM18.0605 17.9623V20.3356H10.6262H3.19186V17.9623V15.5891H10.6262H18.0605V17.9623Z" fill="#00045F"/>
<path d="M7.91931 17.1571C7.79001 17.2843 7.71729 17.4623 7.71729 17.6233C7.71729 17.7844 7.79001 17.9624 7.91931 18.0895L8.11324 18.3014H10.6264H13.1395L13.3334 18.0895C13.4627 17.9624 13.5355 17.7844 13.5355 17.6233C13.5355 17.4623 13.4627 17.2843 13.3334 17.1571L13.1395 16.9452H10.6264H8.11324L7.91931 17.1571Z" fill="#BA8756"/>
<path d="M21.4142 14.3516C21.1152 14.4872 20.8485 14.7923 20.7354 15.1059C20.6788 15.2585 20.6465 16.318 20.6465 17.9708C20.6465 20.9035 20.6626 20.9883 21.1798 21.4036L21.4788 21.6494H29.3818C37.2364 21.6494 37.2849 21.6494 37.503 21.4714C37.6243 21.3782 37.802 21.1917 37.8909 21.0646C38.0525 20.8442 38.0606 20.7255 38.0606 17.9708V15.1059L37.8263 14.7923C37.398 14.199 37.8748 14.2329 29.3576 14.2329C23.1192 14.2414 21.6081 14.2583 21.4142 14.3516ZM36.8081 17.9623V20.3356H29.3738H21.9394V17.9623V15.5891H29.3738H36.8081V17.9623Z" fill="#00045F"/>
<path d="M26.6669 17.1571C26.5376 17.2843 26.4648 17.4623 26.4648 17.6233C26.4648 17.7844 26.5376 17.9624 26.6669 18.0895L26.8608 18.3014H29.3739H31.8871L32.081 18.0895C32.2103 17.9624 32.283 17.7844 32.283 17.6233C32.283 17.4623 32.2103 17.2843 32.081 17.1571L31.8871 16.9452H29.3739H26.8608L26.6669 17.1571Z" fill="#BA8756"/>
<path d="M2.6666 23.1666C2.36761 23.3022 2.10095 23.6074 1.98781 23.921C1.93125 24.0736 1.89893 25.1331 1.89893 26.7859C1.89893 29.7186 1.91509 29.8033 2.43226 30.2187L2.73125 30.4645H10.6343C18.4888 30.4645 18.5373 30.4645 18.7555 30.2865C18.8767 30.1932 19.0545 30.0068 19.1434 29.8796C19.305 29.6593 19.3131 29.5406 19.3131 26.7859V23.921L19.0787 23.6074C18.6504 23.0141 19.1272 23.048 10.61 23.048C4.37165 23.0564 2.86054 23.0734 2.6666 23.1666ZM18.0605 26.7774V29.1507H10.6262H3.19186V26.7774V24.4041H10.6262H18.0605V26.7774Z" fill="#00045F"/>
<path d="M7.91931 25.9722C7.79001 26.0993 7.71729 26.2773 7.71729 26.4384C7.71729 26.5994 7.79001 26.7774 7.91931 26.9046L8.11324 27.1165H10.6264H13.1395L13.3334 26.9046C13.4627 26.7774 13.5355 26.5994 13.5355 26.4384C13.5355 26.2773 13.4627 26.0993 13.3334 25.9722L13.1395 25.7603H10.6264H8.11324L7.91931 25.9722Z" fill="#BA8756"/>
<path d="M21.4142 23.1666C21.1152 23.3022 20.8485 23.6074 20.7354 23.921C20.6788 24.0736 20.6465 25.1331 20.6465 26.7859C20.6465 29.7186 20.6626 29.8033 21.1798 30.2187L21.4788 30.4645H29.3818C37.2364 30.4645 37.2849 30.4645 37.503 30.2865C37.6243 30.1932 37.802 30.0068 37.8909 29.8796C38.0525 29.6593 38.0606 29.5406 38.0606 26.7859V23.921L37.8263 23.6074C37.398 23.0141 37.8748 23.048 29.3576 23.048C23.1192 23.0564 21.6081 23.0734 21.4142 23.1666ZM36.8081 26.7774V29.1507H29.3738H21.9394V26.7774V24.4041H29.3738H36.8081V26.7774Z" fill="#00045F"/>
<path d="M26.6669 25.9722C26.5376 26.0993 26.4648 26.2773 26.4648 26.4384C26.4648 26.5994 26.5376 26.7774 26.6669 26.9046L26.8608 27.1165H29.3739H31.8871L32.081 26.9046C32.2103 26.7774 32.283 26.5994 32.283 26.4384C32.283 26.2773 32.2103 26.0993 32.081 25.9722L31.8871 25.7603H29.3739H26.8608L26.6669 25.9722Z" fill="#BA8756"/>
</g>
<defs>
<clipPath id="clip0_410_10126">
<rect width="40" height="40" fill="white"/>
</clipPath>
</defs>
</svg>
