<svg width="60" height="60" viewBox="0 0 60 60" fill="none" xmlns="http://www.w3.org/2000/svg">
<g clip-path="url(#clip0_932_798)">
<path d="M30.3763 22.8811C30.4672 22.5498 30.5117 22.2076 30.5086 21.8641C30.5141 20.1248 29.4097 18.5756 27.7635 18.0139C26.1173 17.4521 24.2963 18.0029 23.2374 19.3828C22.6378 16.5191 20.3458 14.3147 17.461 13.8272C14.5761 13.3396 11.687 14.6684 10.1797 17.176C9.18855 16.0255 7.63804 15.5246 6.16112 15.8778C4.68419 16.2309 3.52794 17.379 3.16433 18.8533C2.80073 20.3277 3.29059 21.8817 4.43398 22.8811L17.2882 25.9319L30.3763 22.8811Z" fill="#3B97D3"/>
<path d="M58.9831 59.4918H50.8475C50.2859 59.4918 49.8306 59.0365 49.8306 58.4748C49.8306 57.9132 50.2859 57.4579 50.8475 57.4579H58.9831C59.5448 57.4579 60.0001 57.9132 60.0001 58.4748C60.0001 59.0365 59.5448 59.4918 58.9831 59.4918Z" fill="#67B9CC"/>
<path d="M48 32.7905L57.0285 4.4868C57.5407 2.88161 56.6547 1.16513 55.0495 0.652898C53.4443 0.140686 51.7278 1.0267 51.2156 2.63188L42.2115 30.8563L48 32.7905Z" fill="#A56A43"/>
<path d="M32.5424 28.9831L31.4543 39.8645L28.9831 57.9662C28.2131 58.9315 27.045 59.4931 25.8102 59.4916H8.76614C6.67706 59.4916 4.92759 57.9092 4.71868 55.8306L2.03394 28.9831L18.3051 26.9492L32.5424 28.9831Z" fill="#F0C419"/>
<path d="M32.5424 22.8817H2.0339C0.910607 22.8817 0 23.7923 0 24.9156V26.9495C0 28.0728 0.910607 28.9834 2.0339 28.9834H32.5424C33.6657 28.9834 34.5763 28.0728 34.5763 26.9495V24.9156C34.5763 23.7923 33.6657 22.8817 32.5424 22.8817Z" fill="#F3D55B"/>
<path d="M52.6474 59.4916H37.6271C36.5389 59.4916 35.5017 59.4712 34.5254 59.4001C29.0949 59.0136 25.5762 57.234 26.4406 50.339C27.4881 41.9695 33.3559 37.2814 40.3118 33.2645L44.7457 33.0509L47.7966 35.6543V45.2543C47.7966 50.2882 51.3559 55.3119 53.4406 57.834C53.6881 58.139 53.7378 58.5593 53.5682 58.9136C53.3987 59.2679 53.0402 59.4929 52.6474 59.4916Z" fill="#F5EFCA"/>
<path d="M49.3703 31.8946L41.6171 29.4213C41.0819 29.2506 40.5095 29.5461 40.3388 30.0813L39.7205 32.0196C39.5498 32.5549 39.8452 33.1272 40.3805 33.2979L48.1337 35.7712C48.669 35.9419 49.2413 35.6464 49.412 35.1112L50.0303 33.1729C50.2011 32.6376 49.9056 32.0653 49.3703 31.8946Z" fill="#CB8252"/>
<path d="M46.1186 59.492H42.3864C40.5864 58.0988 38.644 55.6784 38.644 50.8784C38.644 43.0682 41.8373 39.6106 41.9796 39.4682C42.2224 39.1741 42.6092 39.0405 42.9818 39.1221C43.3543 39.2038 43.6498 39.487 43.7472 39.8557C43.8447 40.2244 43.7276 40.6166 43.444 40.8716C43.4237 40.892 40.6779 43.9428 40.6779 50.8784C40.6779 56.2682 43.4237 57.875 45.2339 58.9327C45.5429 59.0958 45.8387 59.2828 46.1186 59.492Z" fill="#F9EAB0"/>
<path d="M37.9119 59.4912C36.7994 59.4912 35.6838 59.4841 34.5255 59.3997C33.2157 58.1255 32.2921 56.5076 31.8611 54.7319C30.6407 49.7285 33.5899 44.9183 33.7119 44.7149C33.9045 44.4061 34.2471 44.2235 34.6109 44.2358C34.9746 44.2482 35.3041 44.4536 35.4753 44.7748C35.6465 45.096 35.6333 45.4841 35.4407 45.7929C35.4102 45.8336 32.817 50.1048 33.8441 54.2641C34.4405 56.4833 35.9072 58.3679 37.9119 59.4912Z" fill="#F9EAB0"/>
<path d="M25.4237 9.66102V34.0678H23.3898V9.66102C23.3898 7.41444 21.5686 5.59322 19.322 5.59322C17.0754 5.59322 15.2542 7.41444 15.2542 9.66102V13.8102C14.5476 13.9016 13.8606 14.1077 13.2203 14.4203V9.66102C13.2203 6.29115 15.9522 3.55933 19.322 3.55933C22.6919 3.55933 25.4237 6.29115 25.4237 9.66102Z" fill="#E57E25"/>
<path d="M18.3051 20.8475V40.1696C18.2968 41.2894 17.391 42.1952 16.2712 42.2035C15.1493 42.2001 14.2406 41.2915 14.2373 40.1696V33.0509C14.229 31.9311 13.3232 31.0253 12.2034 31.017C11.0815 31.0204 10.1728 31.929 10.1695 33.0509V36.1018C10.1612 37.2216 9.25542 38.1274 8.13558 38.1357C7.01368 38.1323 6.10504 37.2237 6.10168 36.1018V20.8475H18.3051Z" fill="#3B97D3"/>
<path d="M16.2712 50.339C17.3945 50.339 18.3051 49.4284 18.3051 48.3051C18.3051 47.1818 17.3945 46.2712 16.2712 46.2712C15.1479 46.2712 14.2373 47.1818 14.2373 48.3051C14.2373 49.4284 15.1479 50.339 16.2712 50.339Z" fill="#3B97D3"/>
<path d="M5.08468 10.678C6.20797 10.678 7.11858 9.76742 7.11858 8.64413C7.11858 7.52084 6.20797 6.61023 5.08468 6.61023C3.96139 6.61023 3.05078 7.52084 3.05078 8.64413C3.05078 9.76742 3.96139 10.678 5.08468 10.678Z" fill="#2980BA"/>
<path d="M32.5423 12.7123C33.6656 12.7123 34.5762 11.8017 34.5762 10.6784C34.5762 9.55514 33.6656 8.64453 32.5423 8.64453C31.419 8.64453 30.5084 9.55514 30.5084 10.6784C30.5084 11.8017 31.419 12.7123 32.5423 12.7123Z" fill="#2980BA"/>
<path d="M28.4745 4.57675C29.0361 4.57675 29.4914 4.12144 29.4914 3.5598C29.4914 2.99815 29.0361 2.54285 28.4745 2.54285C27.9128 2.54285 27.4575 2.99815 27.4575 3.5598C27.4575 4.12144 27.9128 4.57675 28.4745 4.57675Z" fill="#2980BA"/>
<path d="M11.1864 4.57675C11.748 4.57675 12.2033 4.12144 12.2033 3.5598C12.2033 2.99815 11.748 2.54285 11.1864 2.54285C10.6247 2.54285 10.1694 2.99815 10.1694 3.5598C10.1694 4.12144 10.6247 4.57675 11.1864 4.57675Z" fill="#2980BA"/>
<path d="M24.4068 38.1356C26.0917 38.1356 27.4577 36.7697 27.4577 35.0848C27.4577 33.3998 26.0917 32.0339 24.4068 32.0339C22.7219 32.0339 21.356 33.3998 21.356 35.0848C21.356 36.7697 22.7219 38.1356 24.4068 38.1356Z" fill="#F29C1F"/>
</g>
<defs>
<clipPath id="clip0_932_798">
<rect width="60" height="60" fill="white"/>
</clipPath>
</defs>
</svg>
