<svg width="40" height="40" viewBox="0 0 40 40" fill="none" xmlns="http://www.w3.org/2000/svg">
<g clip-path="url(#clip0_410_10105)">
<path d="M19.3948 0.0510635C18.6201 0.301182 17.9013 0.957748 17.6697 1.63776C17.494 2.15364 17.5499 3.02124 17.7815 3.46677L17.9492 3.77942L14.0598 7.58595L10.1703 11.3925H5.25063C1.13757 11.3925 0.314957 11.4081 0.179187 11.5019C0.0274428 11.6113 0.0274428 11.8614 0.00348323 25.5165C-0.00450329 33.1608 0.00348323 39.4919 0.0274428 39.5857C0.0514023 39.6795 0.123281 39.8124 0.19516 39.8749C0.306971 39.9844 2.22374 40 20.0257 40C39.0176 40 39.7444 39.9922 39.8642 39.8593C39.992 39.7264 40 38.6322 40 25.6728C40 13.0182 39.984 11.627 39.8722 11.5175C39.7604 11.4081 39.1933 11.3925 34.8247 11.3925H29.897L26.0076 7.58595L22.1182 3.77942L22.2859 3.46677C22.5255 3.02124 22.5734 2.15364 22.3897 1.62995C22.206 1.09063 21.599 0.449692 21.0559 0.215206C20.6007 0.0276146 19.7382 -0.0583649 19.3948 0.0510635ZM20.8962 1.16879C21.591 1.62213 21.7508 2.71641 21.2157 3.38079C20.7684 3.94357 19.7062 4.06081 19.1152 3.6231C18.2447 2.96653 18.3725 1.51271 19.3388 1.06718C19.8101 0.85614 20.4729 0.895222 20.8962 1.16879ZM19.0433 4.68611C19.5944 4.92841 20.4729 4.9206 21.0559 4.67048L21.4872 4.4907L24.9534 7.88296C26.8621 9.75105 28.4195 11.2987 28.4195 11.3299C28.4195 11.369 24.6499 11.3925 20.0337 11.3925C15.4255 11.3925 11.6478 11.369 11.6478 11.3378C11.6478 11.2674 18.5322 4.51415 18.6041 4.51415C18.636 4.51415 18.8277 4.59232 19.0433 4.68611ZM39.0416 25.6962V39.062H19.9937H0.945893V25.6962V12.3304H19.9937H39.0416V25.6962Z" fill="#BA8756"/>
<path d="M3.28602 14.4251C3.2381 14.4564 3.15025 14.5815 3.11031 14.6987C3.04642 14.855 3.02246 18.302 3.02246 25.7665V36.6155L3.19018 36.8266L3.34991 37.0298H19.9938C35.7193 37.0298 36.6377 37.022 36.7975 36.8891L36.9652 36.7562V25.704C36.9652 15.5351 36.9572 14.6362 36.8294 14.5033C36.7096 14.3704 36.0707 14.3626 20.0417 14.3626C10.8812 14.3626 3.34192 14.3939 3.28602 14.4251ZM36.0068 23.7031V32.1134L34.9126 31.1754C34.3057 30.6595 32.4129 29.0416 30.6958 27.5799C28.1001 25.3601 27.5411 24.9146 27.3414 24.9146C27.1338 24.9146 26.7664 25.2429 24.4982 27.4627L21.8946 30.0108L20.3532 28.6351L18.8038 27.2595L18.7799 26.6342C18.6681 23.789 15.9207 21.7021 13.0455 22.2961C11.8556 22.5384 10.8413 23.2184 10.1464 24.2346C9.57141 25.0787 9.37174 25.7587 9.37174 26.8686C9.37174 27.9317 9.54745 28.5413 10.0825 29.3229L10.41 29.8076L7.2633 32.6136C5.53023 34.1612 4.07668 35.4353 4.04474 35.4509C4.01279 35.4665 3.98084 30.9409 3.98084 25.3914V15.3006H19.9938H36.0068V23.7031ZM14.7706 23.195C16.1124 23.4451 17.3103 24.5081 17.6697 25.7744C17.7496 26.0401 17.7975 26.2746 17.7736 26.2902C17.7576 26.3059 17.4062 26.0245 16.9989 25.6571C16.4478 25.1647 16.2002 24.9927 16.0325 24.9927C15.8648 24.9927 15.3377 25.4226 13.4848 27.0797C11.2805 29.0416 11.1368 29.151 11.0329 29.0103C10.1624 27.8769 10.0506 26.3215 10.7534 25.0396C10.8732 24.8208 11.1767 24.4378 11.4243 24.1877C12.2948 23.3279 13.5167 22.9605 14.7706 23.195ZM31.7979 29.7841L36.0068 33.3718V34.7318V36.0918H32.3729H28.7311L25.7042 33.3874C24.035 31.9023 22.6693 30.6673 22.6693 30.6361C22.6693 30.6048 23.7155 29.5574 25.0014 28.299C26.998 26.3449 27.3494 26.0323 27.4612 26.1105C27.5331 26.1652 29.4898 27.8144 31.7979 29.7841ZM21.7109 31.0894L27.2855 36.0528L21.663 36.0762C18.5722 36.084 13.5167 36.084 10.426 36.0762L4.81144 36.0528L10.41 31.0738C13.4848 28.3303 16.0325 26.1026 16.0724 26.1105C16.1124 26.1261 18.6441 28.3615 21.7109 31.0894Z" fill="#BA8756"/>
<path d="M13.5648 19.5448C13.3172 19.662 13.2213 20.0841 13.2693 20.7719C13.3012 21.1706 13.3491 21.3035 13.4849 21.4129C13.7085 21.5927 13.8203 21.5927 14.0519 21.4051C14.2276 21.2644 14.2436 21.2018 14.2436 20.4984C14.2436 19.7949 14.2276 19.7324 14.0519 19.5917C13.8363 19.4197 13.8203 19.4197 13.5648 19.5448Z" fill="#00045F"/>
<path d="M25.1133 19.5683C24.8018 19.8731 25.0574 20.3264 25.6005 20.4046C25.9998 20.4671 26.3033 20.6938 26.503 21.0924C26.5908 21.2566 26.7346 21.4285 26.8144 21.4754C27.046 21.5927 27.3815 21.4207 27.4374 21.1471C27.5013 20.8501 27.7888 20.5844 28.1961 20.4671C28.827 20.2795 28.9788 20.1701 28.9788 19.8887C28.9788 19.748 28.9389 19.5917 28.8829 19.537C28.6513 19.3103 27.8128 19.4979 27.2138 19.92C26.9981 20.0685 26.9582 20.0763 26.8384 19.9669C26.5908 19.748 25.8321 19.4432 25.5286 19.4432C25.3689 19.4432 25.1772 19.4979 25.1133 19.5683Z" fill="#00045F"/>
<path d="M17.0228 20.4124C16.903 20.5141 16.6794 20.8267 16.5277 21.1003C16.2162 21.6709 16.2322 21.9679 16.5596 22.1164C16.8551 22.2493 17.0867 22.0929 17.4222 21.5224C17.8135 20.8736 17.8614 20.6 17.6458 20.389C17.4301 20.178 17.3024 20.1858 17.0228 20.4124Z" fill="#00045F"/>
<path d="M9.97077 20.6939C9.88291 20.7798 9.81104 20.9127 9.81104 20.9831C9.81104 21.1238 10.3142 22.0617 10.5138 22.2727C10.6736 22.4603 11.033 22.4525 11.2087 22.2571C11.4083 22.0461 11.3205 21.7178 10.9212 21.1159C10.5059 20.4906 10.2822 20.389 9.97077 20.6939Z" fill="#00045F"/>
<path d="M28.1959 22.4368C27.9963 22.5306 27.9004 22.7885 27.9803 23.0308C28.0122 23.1481 28.164 23.2341 28.4834 23.32C29.0744 23.492 29.2022 23.5858 29.4498 24.0313C29.6575 24.4143 29.8092 24.4925 30.1287 24.4143C30.2564 24.3831 30.3603 24.258 30.4481 24.0157C30.5999 23.6327 30.6877 23.5702 31.3586 23.3435C31.8458 23.1794 31.9336 23.1012 31.9336 22.8042C31.9336 22.5228 31.7899 22.4134 31.4225 22.4134C31.095 22.4134 30.3363 22.7104 30.0807 22.9292C29.9609 23.0387 29.921 23.023 29.6175 22.812C29.1224 22.4681 28.4994 22.2961 28.1959 22.4368Z" fill="#00045F"/>
<path d="M22.8048 22.7105C22.6371 22.8902 22.6291 23.2263 22.7888 23.3749C22.8527 23.4452 23.0444 23.5155 23.2121 23.5468C23.6513 23.6172 23.9389 23.8282 24.1785 24.2659C24.3382 24.5629 24.434 24.6489 24.6097 24.6645C24.8653 24.6958 25.1448 24.5004 25.1448 24.2894C25.1448 24.0236 25.4643 23.75 25.9275 23.6172C26.5105 23.453 26.6782 23.3123 26.6463 23.0075C26.6064 22.6401 26.3029 22.5229 25.7598 22.6792C25.5202 22.7496 25.2007 22.8902 25.033 22.9997C24.6736 23.242 24.6576 23.242 24.3062 23.0075C24.0347 22.8199 23.2999 22.5698 23.0524 22.5698C22.9885 22.5698 22.8767 22.6323 22.8048 22.7105Z" fill="#00045F"/>
<path d="M19.4189 22.9293C18.5403 23.3748 18.3806 23.5936 18.6442 23.961C18.8199 24.2111 19.1473 24.1799 19.7064 23.8594C20.4811 23.4139 20.6568 23.0465 20.2495 22.7651C20.0258 22.6088 20.0498 22.6088 19.4189 22.9293Z" fill="#00045F"/>
<path d="M7.53468 23.3044C7.1673 23.664 7.30307 23.8985 8.14165 24.3596C8.79655 24.7192 9.25178 24.6645 9.25178 24.2424C9.25178 23.9297 9.15594 23.8203 8.62085 23.5155C7.87011 23.0856 7.77427 23.0699 7.53468 23.3044Z" fill="#00045F"/>
<path d="M19.6506 26.2121C19.4509 26.3449 19.419 26.6107 19.5867 26.8374C19.7464 27.0484 21.0562 27.1031 21.3517 26.9155C21.5913 26.7592 21.6232 26.4075 21.4076 26.2199C21.1999 26.0401 19.9141 26.0323 19.6506 26.2121Z" fill="#00045F"/>
<path d="M6.69617 26.7905C6.49651 26.9859 6.49651 27.1109 6.68818 27.3454C6.82396 27.5096 6.91979 27.533 7.52677 27.5643C8.34139 27.5955 8.61294 27.4783 8.61294 27.1031C8.61294 26.7123 8.4532 26.6341 7.60663 26.6341C6.95973 26.6341 6.83194 26.6576 6.69617 26.7905Z" fill="#00045F"/>
</g>
<defs>
<clipPath id="clip0_410_10105">
<rect width="40" height="40" fill="white"/>
</clipPath>
</defs>
</svg>
