<svg width="30" height="30" viewBox="0 0 30 30" fill="none" xmlns="http://www.w3.org/2000/svg">
<path d="M23.8865 0.0617447C23.7516 0.102787 23.5579 0.1966 23.4464 0.261097C23.3408 0.331457 20.7707 2.86442 17.737 5.90162L12.2212 11.4131L7.87894 7.07429C4.43449 3.63251 3.50736 2.73542 3.39 2.73542C3.30785 2.73542 3.06727 2.81165 2.85602 2.90546C1.68832 3.40384 0.538209 4.58237 0.0981178 5.73745C0.0277032 5.92507 -0.013372 6.13029 0.0100995 6.20651C0.0277032 6.28274 1.98171 8.28213 4.3582 10.6509L8.6711 14.9605L4.42275 19.2114L0.1744 23.4623L0.0746463 23.8082C-0.0485793 24.2362 -0.0192399 24.6643 0.162665 25.0219C0.368041 25.4265 1.4712 26.5112 1.88782 26.7164C2.32791 26.9392 2.47461 26.9392 4.08828 26.7223C5.08582 26.5874 5.36161 26.5347 5.44376 26.4467C5.50244 26.3822 5.79584 25.8135 6.0951 25.1685C6.47651 24.3594 6.68189 23.9958 6.76404 23.9607C6.82858 23.9372 7.43298 23.8434 8.10778 23.7555C9.12293 23.6206 9.35178 23.5678 9.46913 23.4681C9.54541 23.3978 9.84468 22.829 10.1439 22.2017C10.4373 21.5743 10.6955 21.0407 10.7131 21.0173C10.7366 20.9938 11.3586 20.8941 12.0921 20.7886C12.8256 20.6831 13.4652 20.5717 13.5121 20.5365C13.559 20.5013 13.8583 19.915 14.181 19.2407L14.762 18.0094L16.0764 17.8218C16.7981 17.7162 17.4377 17.6048 17.5023 17.5755C17.6196 17.5286 17.8602 17.0654 18.5585 15.5702L18.8519 14.9546L20.3482 14.2803C21.6567 13.6881 21.8504 13.5884 21.9032 13.4477C21.9443 13.3187 21.9032 13.0256 21.733 12.1637L21.5159 11.0438L22.0792 10.475L22.6425 9.91214L24.0039 10.1056C26.0811 10.3988 25.8464 10.5043 27.994 8.37008C29.9187 6.45864 30.0009 6.34723 30.0009 5.63777C30.0009 4.85208 30.0302 4.89313 27.6302 2.4833C25.2714 0.114513 25.1833 0.0441532 24.5027 0.00311089C24.2855 -0.00861549 24.0332 0.0148373 23.8865 0.0617447ZM24.7667 0.941242C24.8723 0.98815 25.864 1.93801 27.02 3.09309C29.2498 5.33874 29.2204 5.2977 29.1207 5.8254C29.0855 6.01889 28.8625 6.27101 27.4894 7.64889C26.2982 8.83915 25.8347 9.26717 25.6586 9.33167C25.4415 9.41962 25.3359 9.40789 24.0567 9.22613L22.6836 9.02677L20.9761 7.32055L19.2626 5.60845L21.5511 3.31589C22.8127 2.05528 23.9217 0.98815 24.0156 0.941242C24.2445 0.841566 24.532 0.841566 24.7667 0.941242ZM4.32886 4.78759C4.32886 4.80518 4.16456 4.91072 3.96505 5.02212C3.47802 5.2977 2.7504 5.99543 2.39833 6.51727C2.2399 6.7518 2.09907 6.98047 2.08146 7.02738C2.06386 7.07429 1.85262 6.90425 1.49467 6.55245L0.931358 5.99543L1.14847 5.585C1.44186 5.01626 2.26337 4.18953 2.83255 3.89636L3.2433 3.67942L3.78902 4.21885C4.08241 4.51201 4.32886 4.77 4.32886 4.78759ZM8.30729 8.73361C10.0853 10.5102 11.5464 11.9995 11.5464 12.0288C11.5464 12.105 9.36351 14.2862 9.28723 14.2862C9.19921 14.2862 2.74453 7.81893 2.74453 7.72511C2.74453 7.68407 2.83255 7.48472 2.93231 7.28536C3.28438 6.62281 4.55771 5.50291 4.97433 5.49119C5.02127 5.49119 6.52345 6.95115 8.30729 8.73361ZM20.2778 7.85411L21.8738 9.44893L21.4631 9.85937L21.0523 10.2698L19.4387 8.65738L17.825 7.04497L18.2182 6.65213C18.4353 6.42932 18.6289 6.25342 18.6465 6.25342C18.6641 6.25342 19.3976 6.97461 20.2778 7.85411ZM20.8176 12.0405C20.9232 12.5682 20.9995 13.008 20.9878 13.0197C20.9761 13.0373 20.3717 13.3129 19.644 13.6353C18.9223 13.9637 18.2827 14.2745 18.224 14.3331C18.1712 14.3859 17.8837 14.9487 17.5903 15.5761C17.291 16.2035 17.0328 16.737 17.0094 16.7664C16.9859 16.7898 16.3874 16.8895 15.6774 16.9833C14.9732 17.083 14.3395 17.1827 14.2691 17.212C14.1869 17.2472 13.9698 17.6517 13.5708 18.4843C13.2539 19.1586 12.9781 19.7273 12.9605 19.7508C12.9429 19.7743 12.3444 19.8739 11.6344 19.9736C10.9244 20.0733 10.2965 20.1671 10.2378 20.1847C10.1146 20.2257 10.1146 20.2199 9.45153 21.6153L8.90582 22.7587L7.57381 22.9522C6.83445 23.0577 6.18312 23.1808 6.11857 23.2219C6.05402 23.2688 5.75476 23.8317 5.44963 24.4825C5.15037 25.1275 4.86871 25.6845 4.8335 25.7079C4.76309 25.7666 2.90297 26.0128 2.58023 26.0128C2.28097 26.0128 2.11667 25.8956 1.50054 25.2623C0.907886 24.6525 0.808132 24.4532 0.890283 24.0955C0.919622 23.9841 3.47802 21.3867 9.07012 15.7989L17.2089 7.66062L18.9164 9.36685L20.6299 11.0789L20.8176 12.0405Z" fill="#BA8756"/>
<path d="M22.6482 3.86696C21.2165 5.29761 21.1108 5.42074 21.1108 5.60837C21.1108 5.80186 21.1989 5.90153 22.1847 6.88657C22.7773 7.47291 23.2996 7.9537 23.3465 7.9537C23.3934 7.9537 23.7749 8.00647 24.1915 8.07097C24.614 8.13546 25.0306 8.18823 25.1245 8.18823C25.2712 8.18823 25.4765 8.01233 26.4917 7.00384C27.5949 5.9074 27.6829 5.80186 27.6829 5.60837C27.6829 5.41488 27.5773 5.29761 26.1396 3.8611C24.7137 2.43631 24.5846 2.3249 24.3969 2.3249C24.2032 2.3249 24.08 2.43631 22.6482 3.86696ZM25.5411 4.49434L26.656 5.60837L25.8051 6.45855L24.9543 7.30287L24.2971 7.20906L23.6458 7.11524L22.8888 6.35887L22.1377 5.60837L23.2526 4.49434C23.8629 3.87869 24.3793 3.3803 24.3969 3.3803C24.4145 3.3803 24.9308 3.88455 25.5411 4.49434Z" fill="white"/>
<path d="M16.5459 9.26108C16.3346 9.48975 16.3757 9.71842 16.6808 9.99986C16.9683 10.2637 17.1502 10.2989 17.3615 10.1289C17.4612 10.0526 17.4965 9.95882 17.4965 9.80051C17.4965 9.61875 17.4554 9.54252 17.25 9.3549C16.9625 9.08518 16.7395 9.05587 16.5459 9.26108Z" fill="white"/>
<path d="M17.9484 10.7447C17.7724 10.9733 17.7958 11.0965 18.0833 11.3955C18.365 11.7004 18.6115 11.7532 18.8227 11.5597C19.0222 11.3779 18.9811 11.0847 18.7112 10.8209C18.4237 10.5336 18.1362 10.5043 17.9484 10.7447Z" fill="white"/>
<path d="M12.2626 3.20433C11.9692 3.32746 11.9751 3.39782 12.4035 5.64934C12.779 7.60769 12.8201 7.76013 12.9726 7.91844C13.1017 8.04744 13.1663 8.07675 13.2954 8.04744C13.489 8.00053 13.6592 7.80704 13.6592 7.637C13.6592 7.33211 12.8553 3.3685 12.7731 3.29228C12.6616 3.18088 12.4211 3.13983 12.2626 3.20433Z" fill="white"/>
<path d="M10.49 5.72567C10.3785 5.83708 10.3433 5.94848 10.3727 6.13611C10.3903 6.27096 11.4876 8.08859 11.6167 8.2C11.8807 8.43453 12.3091 8.2469 12.3091 7.90683C12.3091 7.73093 11.2118 5.81949 11.0357 5.67877C10.889 5.57323 10.625 5.59082 10.49 5.72567Z" fill="white"/>
<path d="M20.8998 15.7577C20.7707 15.8222 20.6416 16.0392 20.6416 16.1916C20.6416 16.2385 20.7003 16.3382 20.7766 16.4203C20.8939 16.5551 21.0934 16.602 22.9125 16.9538C24.0156 17.1649 25.0132 17.335 25.1188 17.335C25.3711 17.335 25.5119 17.1825 25.5119 16.9128C25.5119 16.5317 25.8171 16.6196 21.1404 15.7225C21.0758 15.7108 20.9643 15.7284 20.8998 15.7577Z" fill="white"/>
<path d="M20.5591 17.165C20.3889 17.2999 20.3479 17.593 20.4828 17.7631C20.5708 17.8803 22.5072 19.0354 22.6129 19.0354C22.7772 19.0354 22.9825 18.8947 23.0353 18.7481C23.1468 18.4198 23.0471 18.3201 21.9439 17.6634C21.3689 17.3233 20.8584 17.0419 20.8056 17.0419C20.7586 17.0419 20.6471 17.0946 20.5591 17.165Z" fill="white"/>
<path d="M18.4237 17.9447C18.3357 18.1382 17.9953 18.3845 17.6961 18.4724C17.5552 18.5135 16.986 18.6131 16.4227 18.6894L15.4017 18.8242L14.944 19.7682L14.4922 20.7063L17.9014 24.1188L21.3048 27.5312L21.6041 27.3788C22.7894 26.7807 24.051 25.5201 24.6495 24.3357L24.8021 24.0367L21.6803 20.9233C19.9611 19.2053 18.541 17.804 18.5234 17.804C18.5058 17.804 18.4589 17.8685 18.4237 17.9447Z" fill="#BA8756"/>
<path d="M12.479 22.1604C12.3969 22.2015 12.2619 22.3891 12.1563 22.6119C11.9392 23.0517 11.7983 23.1982 11.37 23.421C10.9827 23.6145 10.883 23.8256 11.059 24.0719C11.1235 24.154 11.2468 24.2302 11.3348 24.2419C11.5636 24.2712 12.0624 24.0074 12.3851 23.6966C12.6961 23.3859 13.013 22.7937 13.013 22.524C13.013 22.2308 12.7313 22.0373 12.479 22.1604Z" fill="white"/>
<path d="M14.2047 22.1487C14.1342 22.1722 14.0345 22.266 13.9758 22.3481C13.8819 22.4888 13.8819 22.5122 14.0052 22.8347C14.2575 23.4797 14.8091 24.0367 15.3782 24.2067C15.7714 24.324 16.0237 24.0895 15.9239 23.7025C15.9063 23.6263 15.7655 23.5149 15.566 23.4093C15.1846 23.21 14.8853 22.8875 14.7738 22.5533C14.6624 22.2074 14.4511 22.0549 14.2047 22.1487Z" fill="white"/>
<path d="M13.2247 23.3566C13.2012 23.3859 13.0545 23.6674 12.902 23.9899C12.5733 24.67 12.2271 25.1567 11.699 25.6492C11.2413 26.0713 11.0184 26.2297 10.0443 26.8043C8.53624 27.6955 7.87904 28.4167 7.80863 29.2317C7.77929 29.6421 7.91425 29.906 8.20177 29.9646C8.3074 29.9822 10.7015 29.9998 13.5239 29.9998C19.2803 29.9998 18.9928 30.0232 19.1219 29.5952C19.3684 28.7626 18.5175 27.7013 16.8569 26.7749C15.431 25.9775 14.4217 24.9456 13.9758 23.8316C13.8936 23.6322 13.7821 23.427 13.7293 23.3859C13.6296 23.3097 13.2951 23.2921 13.2247 23.3566ZM12.9489 27.5137C13.0193 27.6017 13.0721 27.7307 13.0721 27.801C13.0721 27.8714 13.0193 28.0004 12.9489 28.0883C12.8374 28.229 12.8022 28.2408 12.321 28.2408C11.8868 28.2408 11.7988 28.2232 11.6814 28.1118C11.5054 27.9476 11.5054 27.6779 11.6756 27.4961C11.7871 27.373 11.8516 27.3613 12.3152 27.3613C12.8022 27.3613 12.8374 27.3671 12.9489 27.5137ZM15.296 27.5137C15.3665 27.6017 15.4193 27.7307 15.4193 27.801C15.4193 27.8714 15.3665 28.0004 15.296 28.0883C15.1846 28.229 15.1494 28.2408 14.6682 28.2408C14.234 28.2408 14.1459 28.2232 14.0286 28.1118C13.8525 27.9476 13.8525 27.6779 14.0227 27.4961C14.1342 27.373 14.1988 27.3613 14.6623 27.3613C15.1494 27.3613 15.1846 27.3671 15.296 27.5137Z" fill="white"/>
<path d="M25.2776 25.1449C24.6556 26.2355 23.5055 27.3847 22.4141 28.0063C22.2146 28.1177 22.0503 28.2232 22.0503 28.2408C22.0503 28.2584 22.4317 28.6512 22.8953 29.1144C23.8811 30.0995 23.8341 30.0819 24.597 29.7008C25.6062 29.2024 26.4453 28.3639 26.9558 27.3496C27.349 26.5639 27.3607 26.5991 26.3749 25.614C25.9172 25.1567 25.5299 24.7814 25.5123 24.7814C25.4947 24.7814 25.3891 24.9456 25.2776 25.1449Z" fill="#BA8756"/>
</svg>
