<svg width="30" height="30" viewBox="0 0 30 30" fill="none" xmlns="http://www.w3.org/2000/svg">
<path d="M23.8865 0.0617447C23.7516 0.102787 23.5579 0.1966 23.4464 0.261097C23.3408 0.331457 20.7707 2.86442 17.737 5.90162L12.2212 11.4131L7.87894 7.07429C4.43449 3.63251 3.50736 2.73542 3.39 2.73542C3.30785 2.73542 3.06727 2.81165 2.85602 2.90546C1.68832 3.40384 0.538209 4.58237 0.0981178 5.73745C0.0277032 5.92507 -0.013372 6.13029 0.0100995 6.20651C0.0277032 6.28274 1.98171 8.28213 4.3582 10.6509L8.6711 14.9605L4.42275 19.2114L0.1744 23.4623L0.0746463 23.8082C-0.0485793 24.2362 -0.0192399 24.6643 0.162665 25.0219C0.368041 25.4265 1.4712 26.5112 1.88782 26.7164C2.32791 26.9392 2.47461 26.9392 4.08828 26.7223C5.08582 26.5874 5.36161 26.5347 5.44376 26.4467C5.50244 26.3822 5.79584 25.8135 6.0951 25.1685C6.47651 24.3594 6.68189 23.9958 6.76404 23.9607C6.82858 23.9372 7.43298 23.8434 8.10778 23.7555C9.12293 23.6206 9.35178 23.5678 9.46913 23.4681C9.54541 23.3978 9.84468 22.829 10.1439 22.2017C10.4373 21.5743 10.6955 21.0407 10.7131 21.0173C10.7366 20.9938 11.3586 20.8941 12.0921 20.7886C12.8256 20.6831 13.4652 20.5717 13.5121 20.5365C13.559 20.5013 13.8583 19.915 14.181 19.2407L14.762 18.0094L16.0764 17.8218C16.7981 17.7162 17.4377 17.6048 17.5023 17.5755C17.6196 17.5286 17.8602 17.0654 18.5585 15.5702L18.8519 14.9546L20.3482 14.2803C21.6567 13.6881 21.8504 13.5884 21.9032 13.4477C21.9443 13.3187 21.9032 13.0256 21.733 12.1637L21.5159 11.0438L22.0792 10.475L22.6425 9.91214L24.0039 10.1056C26.0811 10.3988 25.8464 10.5043 27.994 8.37008C29.9187 6.45864 30.0009 6.34723 30.0009 5.63777C30.0009 4.85208 30.0302 4.89313 27.6302 2.4833C25.2714 0.114513 25.1833 0.0441532 24.5027 0.00311089C24.2855 -0.00861549 24.0332 0.0148373 23.8865 0.0617447ZM24.7667 0.941242C24.8723 0.98815 25.864 1.93801 27.02 3.09309C29.2498 5.33874 29.2204 5.2977 29.1207 5.8254C29.0855 6.01889 28.8625 6.27101 27.4894 7.64889C26.2982 8.83915 25.8347 9.26717 25.6586 9.33167C25.4415 9.41962 25.3359 9.40789 24.0567 9.22613L22.6836 9.02677L20.9761 7.32055L19.2626 5.60845L21.5511 3.31589C22.8127 2.05528 23.9217 0.98815 24.0156 0.941242C24.2445 0.841566 24.532 0.841566 24.7667 0.941242ZM4.32886 4.78759C4.32886 4.80518 4.16456 4.91072 3.96505 5.02212C3.47802 5.2977 2.7504 5.99543 2.39833 6.51727C2.2399 6.7518 2.09907 6.98047 2.08146 7.02738C2.06386 7.07429 1.85262 6.90425 1.49467 6.55245L0.931358 5.99543L1.14847 5.585C1.44186 5.01626 2.26337 4.18953 2.83255 3.89636L3.2433 3.67942L3.78902 4.21885C4.08241 4.51201 4.32886 4.77 4.32886 4.78759ZM8.30729 8.73361C10.0853 10.5102 11.5464 11.9995 11.5464 12.0288C11.5464 12.105 9.36351 14.2862 9.28723 14.2862C9.19921 14.2862 2.74453 7.81893 2.74453 7.72511C2.74453 7.68407 2.83255 7.48472 2.93231 7.28536C3.28438 6.62281 4.55771 5.50291 4.97433 5.49119C5.02127 5.49119 6.52345 6.95115 8.30729 8.73361ZM20.2778 7.85411L21.8738 9.44893L21.4631 9.85937L21.0523 10.2698L19.4387 8.65738L17.825 7.04497L18.2182 6.65213C18.4353 6.42932 18.6289 6.25342 18.6465 6.25342C18.6641 6.25342 19.3976 6.97461 20.2778 7.85411ZM20.8176 12.0405C20.9232 12.5682 20.9995 13.008 20.9878 13.0197C20.9761 13.0373 20.3717 13.3129 19.644 13.6353C18.9223 13.9637 18.2827 14.2745 18.224 14.3331C18.1712 14.3859 17.8837 14.9487 17.5903 15.5761C17.291 16.2035 17.0328 16.737 17.0094 16.7664C16.9859 16.7898 16.3874 16.8895 15.6774 16.9833C14.9732 17.083 14.3395 17.1827 14.2691 17.212C14.1869 17.2472 13.9698 17.6517 13.5708 18.4843C13.2539 19.1586 12.9781 19.7273 12.9605 19.7508C12.9429 19.7743 12.3444 19.8739 11.6344 19.9736C10.9244 20.0733 10.2965 20.1671 10.2378 20.1847C10.1146 20.2257 10.1146 20.2199 9.45153 21.6153L8.90582 22.7587L7.57381 22.9522C6.83445 23.0577 6.18312 23.1808 6.11857 23.2219C6.05402 23.2688 5.75476 23.8317 5.44963 24.4825C5.15037 25.1275 4.86871 25.6845 4.8335 25.7079C4.76309 25.7666 2.90297 26.0128 2.58023 26.0128C2.28097 26.0128 2.11667 25.8956 1.50054 25.2623C0.907886 24.6525 0.808132 24.4532 0.890283 24.0955C0.919622 23.9841 3.47802 21.3867 9.07012 15.7989L17.2089 7.66062L18.9164 9.36685L20.6299 11.0789L20.8176 12.0405Z" fill="#BA8756"/>
<path d="M22.6482 3.86702C21.2165 5.29767 21.1108 5.4208 21.1108 5.60843C21.1108 5.80192 21.1989 5.9016 22.1847 6.88663C22.7773 7.47297 23.2996 7.95376 23.3465 7.95376C23.3934 7.95376 23.7749 8.00653 24.1915 8.07103C24.614 8.13552 25.0306 8.18829 25.1245 8.18829C25.2712 8.18829 25.4765 8.01239 26.4917 7.0039C27.5949 5.90746 27.6829 5.80192 27.6829 5.60843C27.6829 5.41494 27.5773 5.29767 26.1396 3.86116C24.7137 2.43637 24.5846 2.32497 24.3969 2.32497C24.2032 2.32497 24.08 2.43637 22.6482 3.86702ZM25.5411 4.4944L26.656 5.60843L25.8051 6.45861L24.9543 7.30293L24.2971 7.20912L23.6458 7.1153L22.8888 6.35894L22.1377 5.60843L23.2526 4.4944C23.8629 3.87875 24.3793 3.38036 24.3969 3.38036C24.4145 3.38036 24.9308 3.88461 25.5411 4.4944Z" fill="#00045F"/>
<path d="M16.5459 9.26133C16.3346 9.49 16.3757 9.71867 16.6808 10.0001C16.9683 10.264 17.1502 10.2991 17.3615 10.1291C17.4612 10.0529 17.4965 9.95906 17.4965 9.80075C17.4965 9.61899 17.4554 9.54277 17.25 9.35514C16.9625 9.08543 16.7395 9.05611 16.5459 9.26133Z" fill="#00045F"/>
<path d="M17.9484 10.7447C17.7724 10.9734 17.7958 11.0965 18.0833 11.3956C18.365 11.7005 18.6115 11.7532 18.8227 11.5597C19.0222 11.378 18.9811 11.0848 18.7112 10.821C18.4237 10.5337 18.1362 10.5043 17.9484 10.7447Z" fill="#00045F"/>
<path d="M12.2626 3.20445C11.9692 3.32758 11.9751 3.39794 12.4035 5.64946C12.779 7.60781 12.8201 7.76026 12.9726 7.91857C13.1017 8.04756 13.1663 8.07688 13.2954 8.04756C13.489 8.00065 13.6592 7.80716 13.6592 7.63713C13.6592 7.33223 12.8553 3.36862 12.7731 3.2924C12.6616 3.181 12.4211 3.13995 12.2626 3.20445Z" fill="#00045F"/>
<path d="M10.49 5.72573C10.3785 5.83714 10.3433 5.94854 10.3727 6.13617C10.3903 6.27102 11.4876 8.08866 11.6167 8.20006C11.8807 8.43459 12.3091 8.24697 12.3091 7.90689C12.3091 7.73099 11.2118 5.81955 11.0357 5.67883C10.889 5.57329 10.625 5.59088 10.49 5.72573Z" fill="#00045F"/>
<path d="M20.8998 15.7578C20.7707 15.8223 20.6416 16.0393 20.6416 16.1917C20.6416 16.2386 20.7003 16.3383 20.7766 16.4204C20.8939 16.5553 21.0934 16.6022 22.9125 16.954C24.0156 17.165 25.0132 17.3351 25.1188 17.3351C25.3711 17.3351 25.5119 17.1826 25.5119 16.9129C25.5119 16.5318 25.8171 16.6198 21.1404 15.7227C21.0758 15.7109 20.9643 15.7285 20.8998 15.7578Z" fill="#00045F"/>
<path d="M20.5591 17.1651C20.3889 17.2999 20.3479 17.5931 20.4828 17.7631C20.5708 17.8804 22.5072 19.0355 22.6129 19.0355C22.7772 19.0355 22.9825 18.8947 23.0353 18.7482C23.1468 18.4198 23.0471 18.3201 21.9439 17.6634C21.3689 17.3234 20.8584 17.0419 20.8056 17.0419C20.7586 17.0419 20.6471 17.0947 20.5591 17.1651Z" fill="#00045F"/>
<path d="M18.4237 17.9449C18.3357 18.1384 17.9953 18.3846 17.6961 18.4726C17.5552 18.5136 16.986 18.6133 16.4227 18.6895L15.4017 18.8244L14.944 19.7684L14.4922 20.7065L17.9014 24.119L21.3048 27.5314L21.6041 27.379C22.7894 26.7809 24.051 25.5203 24.6495 24.3359L24.8021 24.0369L21.6803 20.9235C19.9611 19.2055 18.541 17.8042 18.5234 17.8042C18.5058 17.8042 18.4589 17.8687 18.4237 17.9449Z" fill="#BA8756"/>
<path d="M12.479 22.1606C12.3969 22.2017 12.2619 22.3893 12.1563 22.6121C11.9392 23.0518 11.7983 23.1984 11.37 23.4212C10.9827 23.6147 10.883 23.8258 11.059 24.0721C11.1235 24.1541 11.2468 24.2304 11.3348 24.2421C11.5636 24.2714 12.0624 24.0076 12.3851 23.6968C12.6961 23.386 13.013 22.7939 13.013 22.5241C13.013 22.231 12.7313 22.0375 12.479 22.1606Z" fill="#00045F"/>
<path d="M14.2047 22.1489C14.1342 22.1724 14.0345 22.2662 13.9758 22.3483C13.8819 22.489 13.8819 22.5124 14.0052 22.8349C14.2575 23.4799 14.8091 24.0369 15.3782 24.2069C15.7714 24.3242 16.0237 24.0897 15.9239 23.7027C15.9063 23.6265 15.7655 23.5151 15.566 23.4095C15.1846 23.2102 14.8853 22.8877 14.7738 22.5535C14.6624 22.2075 14.4511 22.0551 14.2047 22.1489Z" fill="#00045F"/>
<path d="M13.2247 23.3567C13.2012 23.3861 13.0545 23.6675 12.902 23.99C12.5733 24.6701 12.2271 25.1568 11.699 25.6493C11.2413 26.0715 11.0184 26.2298 10.0443 26.8044C8.53624 27.6956 7.87904 28.4168 7.80863 29.2318C7.77929 29.6422 7.91425 29.9061 8.20177 29.9647C8.3074 29.9823 10.7015 29.9999 13.5239 29.9999C19.2803 29.9999 18.9928 30.0233 19.1219 29.5953C19.3684 28.7627 18.5175 27.7015 16.8569 26.7751C15.431 25.9777 14.4217 24.9457 13.9758 23.8317C13.8936 23.6323 13.7821 23.4271 13.7293 23.3861C13.6296 23.3098 13.2951 23.2922 13.2247 23.3567ZM12.9489 27.5138C13.0193 27.6018 13.0721 27.7308 13.0721 27.8011C13.0721 27.8715 13.0193 28.0005 12.9489 28.0884C12.8374 28.2292 12.8022 28.2409 12.321 28.2409C11.8868 28.2409 11.7988 28.2233 11.6814 28.1119C11.5054 27.9477 11.5054 27.678 11.6756 27.4963C11.7871 27.3731 11.8516 27.3614 12.3152 27.3614C12.8022 27.3614 12.8374 27.3673 12.9489 27.5138ZM15.296 27.5138C15.3665 27.6018 15.4193 27.7308 15.4193 27.8011C15.4193 27.8715 15.3665 28.0005 15.296 28.0884C15.1846 28.2292 15.1494 28.2409 14.6682 28.2409C14.234 28.2409 14.1459 28.2233 14.0286 28.1119C13.8525 27.9477 13.8525 27.678 14.0227 27.4963C14.1342 27.3731 14.1988 27.3614 14.6623 27.3614C15.1494 27.3614 15.1846 27.3673 15.296 27.5138Z" fill="#00045F"/>
<path d="M25.2776 25.1451C24.6556 26.2356 23.5055 27.3849 22.4141 28.0064C22.2146 28.1178 22.0503 28.2233 22.0503 28.2409C22.0503 28.2585 22.4317 28.6513 22.8953 29.1145C23.8811 30.0996 23.8341 30.082 24.597 29.7009C25.6062 29.2025 26.4453 28.364 26.9558 27.3497C27.349 26.564 27.3607 26.5992 26.3749 25.6141C25.9172 25.1568 25.5299 24.7815 25.5123 24.7815C25.4947 24.7815 25.3891 24.9457 25.2776 25.1451Z" fill="#BA8756"/>
</svg>
